<?xml version="1.0" encoding="utf-8"?>
<!-- Generator: Adobe Illustrator 24.0.1, SVG Export Plug-In . SVG Version: 6.00 Build 0)  -->
<svg version="1.1" id="Layer_1" xmlns="http://www.w3.org/2000/svg" xmlns:xlink="http://www.w3.org/1999/xlink" x="0px" y="0px"
	 viewBox="0 0 296 296" style="enable-background:new 0 0 296 296;" xml:space="preserve">
<style type="text/css">
	.st0{display:none;}
	.st1{display:inline;fill:#2F2C52;}
	.st2{display:inline;}
	.st3{fill:#2F2C52;}
	.st4{fill:none;stroke:#434344;stroke-width:6;stroke-miterlimit:10;}
</style>
<g class="st0">
	<path class="st1" d="M193.9,104.1c-1.5-1.5-3.9-1.5-5.4,0s-1.5,3.9,0,5.4s3.9,1.5,5.4,0c0.7-0.7,1.1-1.7,1.1-2.7
		C195,105.7,194.6,104.8,193.9,104.1z"/>
	<path class="st1" d="M108.1,157.4H77.7c-2.1,0-3.8,1.7-3.8,3.8l0,0v30.5c0,2.1,1.7,3.8,3.8,3.8h30.5c2.1,0,3.8-1.7,3.8-3.8v-30.5
		C111.9,159.1,110.2,157.4,108.1,157.4L108.1,157.4z M104.3,187.9H81.5V165h22.9L104.3,187.9L104.3,187.9z"/>
	<path class="st1" d="M243.6,129.9c-1.4-0.6-3.1-0.3-4.1,0.8l-38.8,38.8l-45.2,45.2l-23.7,23.7c-1.5,1.5-1.5,3.9,0,5.4
		c0.7,0.7,1.7,1.1,2.7,1.1h107.8c2.1,0,3.8-1.7,3.8-3.8V133.4C246,131.9,245.1,130.5,243.6,129.9L243.6,129.9z M238.4,237.4h-94.8
		l14.5-14.5l3.6,3.6c1.5,1.5,3.9,1.4,5.4-0.1c1.4-1.5,1.4-3.8,0-5.3l-3.6-3.6l9.7-9.7l3.6,3.6c1.5,1.5,3.9,1.4,5.4-0.1
		c1.4-1.5,1.4-3.8,0-5.3l-3.6-3.6l9.7-9.7l3.6,3.6c1.5,1.5,3.9,1.5,5.4,0s1.5-3.9,0-5.3l-3.6-3.6l9.7-9.7l3.6,3.6
		c1.5,1.5,3.9,1.5,5.4,0.1c1.5-1.5,1.5-3.9,0.1-5.4l-0.1-0.1l-3.6-3.6l9.7-9.7l3.6,3.6c1.5,1.5,3.9,1.4,5.4-0.1
		c1.4-1.5,1.4-3.8,0-5.3l-3.6-3.6l14.5-14.5L238.4,237.4z"/>
	<path class="st1" d="M224.6,175.9c-1.4-0.6-3.1-0.3-4.1,0.8l-42.8,42.8c-1.5,1.5-1.5,3.9,0,5.4c0.7,0.7,1.7,1.1,2.7,1.1h42.8
		c2.1,0,3.8-1.7,3.8-3.8v-42.8C227,177.8,226,176.5,224.6,175.9L224.6,175.9z M219.3,218.3h-29.8l29.8-29.8V218.3z"/>
	<path class="st1" d="M227.4,106.9c-1-1.1-2.6-1.4-4-0.9l-26,9.5c-0.5,0.2-1,0.5-1.4,0.9l-7.3,7.3l-47.8-47.8
		c-1.5-1.5-3.9-1.5-5.4,0l0,0L78,133.4H64l74.2-74.2L179,99.9c1.5,1.5,3.9,1.4,5.4-0.1s1.5-3.9,0-5.3L141,51.1
		c-1.5-1.5-3.9-1.5-5.4,0l-83.4,83.4c-1.5,1.5-1.5,3.9,0,5.4c0.7,0.7,1.7,1.1,2.7,1.1h3.8v100.2c0,2.1,1.7,3.8,3.8,3.8H123
		c2.1,0,3.8-1.6,3.9-3.8c0-2.1-1.6-3.8-3.8-3.9H123H66.2V141h13.4c1,0,2-0.4,2.7-1.1L138.2,84l45,45.1l-56.5,56.5v-34.2h26.7
		c2.1,0,3.8-1.8,3.8-3.9c0-2.1-1.7-3.7-3.8-3.8H123c-2.1,0-3.8,1.7-3.8,3.8v44.2c0,0.4,0.1,0.9,0.2,1.3l-3.4,3.4c-6,6-6,15.8,0,21.9
		s15.8,6,21.9,0l32.1-32.1c1.5-1.5,1.5-3.9,0.1-5.4c-1.5-1.5-3.9-1.5-5.4-0.1l-0.1,0.1L140.3,205l-11.1-11.1l69.6-69.6l11.1,11.1
		L183.3,162c-1.5,1.5-1.4,3.9,0.1,5.4c1.5,1.4,3.8,1.4,5.3,0l29.2-29.2c0.4-0.4,0.7-0.9,0.9-1.4l9.5-26
		C228.8,109.5,228.4,107.9,227.4,106.9L227.4,106.9z M134.9,210.4l-2.4,2.4c-3.1,3.1-8,3.1-11.1,0s-3.1-8,0-11.1l0,0l2.4-2.4
		L134.9,210.4z M213.7,128.5l-8-8l12.6-4.6L213.7,128.5z"/>
	<path class="st1" d="M179.2,171.5c-1.5-1.5-3.9-1.5-5.4,0s-1.5,3.9,0,5.4s3.9,1.5,5.4,0c0.7-0.7,1.1-1.7,1.1-2.7
		C180.3,173.1,179.9,172.2,179.2,171.5z"/>
	<path class="st1" d="M138.2,107.5c-8,0-14.5,6.5-14.5,14.5s6.5,14.5,14.5,14.5s14.5-6.5,14.5-14.5S146.2,107.5,138.2,107.5
		L138.2,107.5z M138.2,128.8c-3.8,0-6.9-3.1-6.9-6.9s3.1-6.9,6.9-6.9c3.8,0,6.9,3.1,6.9,6.9l0,0C145.1,125.8,142,128.8,138.2,128.8
		L138.2,128.8z"/>
</g>
<g class="st0">
	<g class="st2">
		<path class="st3" d="M256.5,88.5c-3.2-3.3-8.5-3.4-11.8-0.2c-0.1,0.1-0.1,0.1-0.2,0.2L109.1,224l-44-44c-3.3-3.2-8.6-3.1-11.8,0.2
			c-3.1,3.2-3.1,8.3,0,11.5l49.9,49.9c3.3,3.3,8.5,3.3,11.8,0l141.4-141.4C259.6,97.1,259.7,91.8,256.5,88.5z"/>
	</g>
</g>
<g>
	<g>
		<path class="st4" d="M121.6,134.7c-2.9-4.7-5.2-9.6-6.9-14.8v75.4l24.3-41.6C132.1,148.5,126.2,142.1,121.6,134.7z"/>
	</g>
</g>
<g>
	<g>
		<path class="st4" d="M181.5,64.4c-23.4,0-42.5,19-42.5,42.5c0,3.3,0.4,6.5,1.1,9.6c0,0.1,0,0.1,0.1,0.2c0.1,0.3,0.1,0.7,0.2,1
			c0,0.1,0.1,0.1,0.1,0.2c0.4,1.5,0.9,2.9,1.4,4.3c0,0.1,0.1,0.1,0.1,0.2c0.1,0.3,0.2,0.6,0.4,0.9c0.1,0.1,0.1,0.1,0.1,0.3
			c0.1,0.3,0.3,0.6,0.4,0.9c0.1,0.1,0.1,0.1,0.1,0.2c0.4,1,1,1.9,1.5,2.8c0.1,0.1,0.1,0.1,0.1,0.2c0.1,0.3,0.3,0.5,0.4,0.7
			c0.1,0.1,0.1,0.2,0.2,0.4c0.1,0.2,0.3,0.4,0.4,0.7c0.1,0.1,0.1,0.3,0.2,0.4c0.1,0.2,0.3,0.4,0.4,0.7c0.1,0.1,0.1,0.2,0.2,0.4
			c0.3,0.4,0.7,0.9,1,1.3c0.1,0.1,0.1,0.2,0.2,0.3c0.1,0.2,0.3,0.4,0.4,0.6c0.1,0.1,0.2,0.3,0.4,0.4c0.1,0.2,0.3,0.4,0.4,0.5
			c0.1,0.1,0.3,0.3,0.4,0.4c0.1,0.1,0.3,0.4,0.4,0.5c0.1,0.1,0.3,0.4,0.4,0.5c0.1,0.1,0.3,0.3,0.4,0.4c0.2,0.2,0.4,0.4,0.7,0.7
			c0.1,0.1,0.3,0.3,0.5,0.5c0.2,0.2,0.4,0.4,0.7,0.6c0.1,0.1,0.3,0.2,0.4,0.4c0.2,0.1,0.4,0.4,0.6,0.5c0.1,0.1,0.3,0.2,0.4,0.4
			c0.2,0.1,0.4,0.4,0.7,0.5c0.1,0.1,0.3,0.2,0.4,0.3c0.2,0.2,0.5,0.4,0.7,0.6c0.1,0.1,0.2,0.1,0.3,0.2c0.4,0.3,0.7,0.5,1.1,0.7
			c0.1,0.1,0.2,0.1,0.3,0.2c0.3,0.2,0.5,0.4,0.8,0.5c0.1,0.1,0.3,0.1,0.4,0.3c0.2,0.1,0.5,0.3,0.7,0.4c0.1,0.1,0.3,0.1,0.4,0.3
			c0.3,0.1,0.5,0.3,0.8,0.4c0.1,0.1,0.2,0.1,0.4,0.2c0.4,0.2,0.8,0.4,1.2,0.7l7.4,11.3l6.3,9.9l0.8,1.3c1,1.4,2.5,2.3,4.3,2.3
			s3.4-0.9,4.3-2.3l0.8-1.3l0.4-0.7l5.8-9l7.5-11.4c0.4-0.2,0.8-0.4,1.2-0.7c0.1-0.1,0.3-0.1,0.4-0.2c0.3-0.1,0.5-0.3,0.8-0.4
			c0.1-0.1,0.3-0.1,0.4-0.3c0.2-0.1,0.5-0.3,0.7-0.4c0.1-0.1,0.3-0.1,0.4-0.3c0.3-0.1,0.5-0.4,0.7-0.5c0.1-0.1,0.2-0.1,0.4-0.2
			c0.4-0.2,0.7-0.5,1.1-0.7c0.1-0.1,0.2-0.1,0.3-0.2c0.3-0.2,0.5-0.4,0.8-0.6c0.1-0.1,0.3-0.2,0.4-0.4c0.2-0.1,0.4-0.3,0.6-0.5
			c0.1-0.1,0.3-0.3,0.4-0.4c0.2-0.1,0.4-0.3,0.6-0.5c0.1-0.1,0.3-0.3,0.4-0.4c0.2-0.1,0.4-0.4,0.5-0.5c0.1-0.1,0.3-0.3,0.4-0.4
			c0.3-0.3,0.6-0.6,0.9-0.9c0.1-0.1,0.3-0.4,0.4-0.5c0.1-0.1,0.3-0.3,0.4-0.4c0.1-0.2,0.4-0.4,0.5-0.6c0.1-0.1,0.2-0.3,0.4-0.4
			c0.1-0.2,0.4-0.4,0.5-0.6c0.1-0.1,0.2-0.3,0.3-0.4c0.1-0.2,0.4-0.4,0.5-0.7c0.1-0.1,0.1-0.1,0.2-0.3c0.6-0.8,1.2-1.7,1.8-2.6
			c0.1-0.1,0.1-0.1,0.1-0.2c0.1-0.3,0.4-0.5,0.5-0.8c0.1-0.1,0.1-0.1,0.1-0.2c0.1-0.3,0.4-0.6,0.5-0.9c0-0.1,0.1-0.1,0.1-0.1
			c0.7-1.3,1.4-2.8,2-4.2c0,0,0,0,0-0.1c0.1-0.4,0.3-0.7,0.4-1v-0.1c0.9-2.2,1.6-4.6,2-6.9l0,0c0.5-2.7,0.8-5.4,0.8-8.3
			C224,83.5,204.9,64.4,181.5,64.4z M181.5,129.9c-12.7,0-23.1-10.4-23.1-23.1s10.4-23.1,23.1-23.1c12.7,0,23.1,10.4,23.1,23.1
			C204.6,119.6,194.2,129.9,181.5,129.9z"/>
	</g>
</g>
<g>
	<g>
		<path class="st4" d="M258.4,113.7l-7.8-1.9c-1.7,8.1-4.8,15.8-9.2,22.9c-6.3,10.1-14.9,18.4-25.1,24.2l-10.4,16l24.4,29.8h33.2
			v-84.4C263.6,117.2,261.5,114.4,258.4,113.7z"/>
	</g>
</g>
<g>
	<g>
		<path class="st4" d="M35,95.5c-2-0.5-4.2,0-5.8,1.3c-1.7,1.3-2.6,3.3-2.6,5.4v66.1H63c1.8,0,3.6,0.7,4.9,2L101,204v-92.3L35,95.5z
			"/>
	</g>
</g>
<g>
	<g>
		<path class="st4" d="M164.3,186l-14.5-22.3H149l-34.3,58.9v49.1l60-14.7v-62.8C170.5,192.7,166.8,189.9,164.3,186z"/>
	</g>
</g>
<g>
	<g>
		<path class="st4" d="M227.1,218.4c-2,0-4-0.9-5.3-2.5l-23.7-29c-2.5,3.4-5.9,5.9-9.7,7.3v62.4l66.8,16.4c0.5,0.1,1.1,0.2,1.6,0.2
			c1.5,0,3-0.5,4.2-1.5c1.6-1.3,2.6-3.3,2.6-5.4v-47.9L227.1,218.4L227.1,218.4z"/>
	</g>
</g>
<g>
	<g>
		<path class="st4" d="M60.1,181.9H26.5V248c0,3.1,2.2,5.9,5.2,6.6l69.3,17v-48.2L60.1,181.9z"/>
	</g>
</g>
</svg>
