<?xml version="1.0" encoding="utf-8"?>
<!-- Generator: Adobe Illustrator 24.0.1, SVG Export Plug-In . SVG Version: 6.00 Build 0)  -->
<svg version="1.1" id="Layer_1" xmlns="http://www.w3.org/2000/svg" xmlns:xlink="http://www.w3.org/1999/xlink" x="0px" y="0px"
	 viewBox="0 0 246 246" style="enable-background:new 0 0 246 246;" xml:space="preserve">
<style type="text/css">
	.st0{fill:#434344;}
</style>
<path class="st0" d="M25.2,175.7c-1.1,0-2-0.9-2-2V93c0-1.1,0.9-2,2-2h168.1c1,0,1.9,0.9,2,2l0,10.1c0,1.1-0.9,2-2,2
	c-1.1,0-2-0.9-2-2v-7.2l-0.9-0.9H28l-0.9,0.9v75l0.9,0.9h111.5c1,0,1.9,0.9,1.9,2c0,1-0.9,1.9-2,1.9H25.2z"/>
<path class="st0" d="M173.1,81.5c-0.1,0-0.2,0-0.3,0l-0.2-0.1L41,51.8l-1.1,0.7l-6.1,27.5c-0.2,0.9-1,1.6-1.9,1.6
	c-0.1,0-0.3,0-0.4-0.1c-0.5-0.1-1-0.4-1.3-0.9c-0.3-0.4-0.4-1-0.3-1.5l6.8-30.3c0.2-0.9,1-1.6,1.9-1.6c0.1,0,0.3,0,0.4,0.1
	l134.5,30.3c0.9,0.2,1.5,1,1.6,2C175.1,80.6,174.2,81.5,173.1,81.5z"/>
<path class="st0" d="M156.4,64.6c-0.3,0-0.6-0.1-0.9-0.2L77.3,31.8l-1.2,0.4l-5.5,11c-0.1,0.1-0.1,0.2-0.1,0.3
	c-0.3,0.6-1,0.9-1.7,0.9c-0.3,0-0.7-0.1-1-0.2c-0.5-0.2-0.8-0.6-0.9-1.1c-0.2-0.5-0.1-1.1,0.1-1.6l6.8-13.4c0.4-0.7,1.1-1.1,1.8-1.1
	c0.3,0,0.5,0,0.8,0.1l80.5,33.5c0.1,0.1,0.2,0.2,0.4,0.2c0.4,0.2,0.7,0.6,0.9,1c0.2,0.5,0.1,1.1-0.1,1.6
	C157.8,64.2,157.1,64.6,156.4,64.6L156.4,64.6z"/>
<path class="st0" d="M132.7,108.3c-1,0-1.9-0.9-1.9-2c0-1,0.9-1.9,2-1.9h26.6c1,0,1.9,0.9,1.9,1.9c0,1.1-0.9,2-1.9,2H132.7z"/>
<path class="st0" d="M105.8,161.9c-15.8,0-28.7-12.9-28.7-28.7c0-15.8,12.9-28.7,28.7-28.7c15.8,0,28.7,12.9,28.7,28.7
	C134.5,149.1,121.6,161.9,105.8,161.9z M105.8,108.2c-13.8,0-25.1,11.3-25.1,25.1c0,13.8,11.3,25.1,25.1,25.1s25.1-11.3,25.1-25.1
	C130.9,119.4,119.7,108.2,105.8,108.2z"/>
<path class="st0" d="M186.5,219.7c-17.9,0-36-4.3-36-12.5v-80.7c0-8.2,18.1-12.5,36-12.5s36,4.3,36,12.5v80.7
	C222.6,215.4,204.4,219.7,186.5,219.7z M155.3,201.9v5.3l0,0.3c0.8,2.7,11.9,7.4,31.2,7.4c19.3,0,30.4-4.7,31.2-7.4l0-0.3v-5.3
	l-1.3-0.8c-6.6,3.3-17.8,5.2-29.9,5.2c-12.2,0-23.4-1.9-29.9-5.2L155.3,201.9z M155.3,188.5v5.3l0,0.3c0.8,2.7,11.9,7.4,31.2,7.4
	c19.3,0,30.4-4.7,31.2-7.4l0-0.3v-5.3l-1.3-0.8c-6.6,3.3-17.8,5.2-29.9,5.2c-12.2,0-23.4-1.9-29.9-5.2L155.3,188.5z M155.3,175.1
	v5.2l0,0.3c0.8,2.7,11.9,7.4,31.2,7.4c19.3,0,30.4-4.7,31.2-7.4l0-0.3v-5.2l-1.3-0.8c-6.6,3.3-17.8,5.2-29.9,5.2
	c-12.2,0-23.4-1.9-29.9-5.2L155.3,175.1z M155.3,161.5v5.3l0,0.3c0.8,2.7,11.9,7.4,31.2,7.4c19.3,0,30.4-4.7,31.2-7.4l0-0.3v-5.3
	l-1.3-0.8c-6.6,3.3-17.8,5.2-29.9,5.2c-12.2,0-23.4-1.9-29.9-5.2L155.3,161.5z M155.3,148.1v5.3l0,0.3c0.8,2.7,11.9,7.4,31.2,7.4
	c19.3,0,30.4-4.7,31.2-7.4l0-0.3v-5.3l-1.3-0.8c-6.6,3.3-17.8,5.2-29.9,5.2c-12.2,0-23.4-1.9-29.9-5.2L155.3,148.1z M155.3,134.6
	v5.3l0,0.3c0.8,2.7,11.9,7.4,31.2,7.4c19.3,0,30.4-4.7,31.2-7.4l0-0.3v-5.3l-1.3-0.8c-6.6,3.3-17.8,5.2-29.9,5.2
	c-12.2,0-23.4-1.9-29.9-5.2L155.3,134.6z M186.5,118.9c-19.3,0-30.4,4.7-31.2,7.4l0,0.5c0.8,2.6,12,7.3,31.2,7.3
	c18.8,0,30.1-4.6,31.1-7.2l0-0.7C216.7,123.8,206.3,118.9,186.5,118.9z"/>
<path class="st0" d="M52.2,162.2c-0.6,0-1.1-0.2-1.4-0.6l-13.7-15c-0.3-0.4-0.5-0.8-0.5-1.3v-23.9c0-0.8,0.4-1.4,0.7-1.8l15-14.6
	c0.4-0.4,0.8-0.6,1.4-0.6H79c1.1,0,2,0.9,2,2c0,1.1-0.9,2-2,2H54.8l-0.6,0.3l-13.3,13l-0.3,0.7v21.8l0.2,0.6l12,13.1l0.7,0.3h25.4
	c-0.4,0-0.8-0.4-0.8-0.8l0.9,0.9c1,0,1.9,0.9,1.9,2c0,1-0.9,1.9-2,1.9H52.2z"/>
<path class="st0" d="M111.7,139.3l4.6,3.7c0,0,2-5.3,0.9-8.8c-1.1-3.5-5-7.8-11.7-5.9c0,0,0.2-2.8-0.7-3.8h12.6v-5.3l-23.9,0.1v5.2
	H99c0,0,2.6,1.2,2.6,3.6c0.1,2.5-1.6,3.3-2.3,3.1s-3.1-0.9-3.3,1.3c-0.2,2.2,2.9,8.5,20,18.7l1.4-2.5c0,0-10.4-5.2-12.7-8.1
	c0,0,1.4-3.3,1.1-6.9c0,0,2.5-2.7,5.8-2.4C115.1,131.5,114.3,138.2,111.7,139.3z"/>
</svg>
