<?xml version="1.0" encoding="utf-8"?>
<!-- Generator: Adobe Illustrator 24.0.1, SVG Export Plug-In . SVG Version: 6.00 Build 0)  -->
<svg version="1.1" id="Layer_1" xmlns="http://www.w3.org/2000/svg" xmlns:xlink="http://www.w3.org/1999/xlink" x="0px" y="0px"
	 viewBox="0 0 296 296" style="enable-background:new 0 0 296 296;" xml:space="preserve">
<style type="text/css">
	.st0{display:none;}
	.st1{display:inline;fill:#2F2C52;}
	.st2{display:inline;}
	.st3{fill:#2F2C52;}
	.st4{fill:#434344;}
</style>
<g class="st0">
	<path class="st1" d="M193.9,104.1c-1.5-1.5-3.9-1.5-5.4,0s-1.5,3.9,0,5.4s3.9,1.5,5.4,0c0.7-0.7,1.1-1.7,1.1-2.7
		C195,105.7,194.6,104.8,193.9,104.1z"/>
	<path class="st1" d="M108.1,157.4H77.7c-2.1,0-3.8,1.7-3.8,3.8l0,0v30.5c0,2.1,1.7,3.8,3.8,3.8h30.5c2.1,0,3.8-1.7,3.8-3.8v-30.5
		C111.9,159.1,110.2,157.4,108.1,157.4L108.1,157.4z M104.3,187.9H81.5V165h22.9L104.3,187.9L104.3,187.9z"/>
	<path class="st1" d="M243.6,129.9c-1.4-0.6-3.1-0.3-4.1,0.8l-38.8,38.8l-45.2,45.2l-23.7,23.7c-1.5,1.5-1.5,3.9,0,5.4
		c0.7,0.7,1.7,1.1,2.7,1.1h107.8c2.1,0,3.8-1.7,3.8-3.8V133.4C246,131.9,245.1,130.5,243.6,129.9L243.6,129.9z M238.4,237.4h-94.8
		l14.5-14.5l3.6,3.6c1.5,1.5,3.9,1.4,5.4-0.1c1.4-1.5,1.4-3.8,0-5.3l-3.6-3.6l9.7-9.7l3.6,3.6c1.5,1.5,3.9,1.4,5.4-0.1
		c1.4-1.5,1.4-3.8,0-5.3l-3.6-3.6l9.7-9.7l3.6,3.6c1.5,1.5,3.9,1.5,5.4,0s1.5-3.9,0-5.3l-3.6-3.6l9.7-9.7l3.6,3.6
		c1.5,1.5,3.9,1.5,5.4,0.1c1.5-1.5,1.5-3.9,0.1-5.4l-0.1-0.1l-3.6-3.6l9.7-9.7l3.6,3.6c1.5,1.5,3.9,1.4,5.4-0.1
		c1.4-1.5,1.4-3.8,0-5.3l-3.6-3.6l14.5-14.5L238.4,237.4z"/>
	<path class="st1" d="M224.6,175.9c-1.4-0.6-3.1-0.3-4.1,0.8l-42.8,42.8c-1.5,1.5-1.5,3.9,0,5.4c0.7,0.7,1.7,1.1,2.7,1.1h42.8
		c2.1,0,3.8-1.7,3.8-3.8v-42.8C227,177.8,226,176.5,224.6,175.9L224.6,175.9z M219.3,218.3h-29.8l29.8-29.8V218.3z"/>
	<path class="st1" d="M227.4,106.9c-1-1.1-2.6-1.4-4-0.9l-26,9.5c-0.5,0.2-1,0.5-1.4,0.9l-7.3,7.3l-47.8-47.8
		c-1.5-1.5-3.9-1.5-5.4,0l0,0L78,133.4H64l74.2-74.2L179,99.9c1.5,1.5,3.9,1.4,5.4-0.1s1.5-3.9,0-5.3L141,51.1
		c-1.5-1.5-3.9-1.5-5.4,0l-83.4,83.4c-1.5,1.5-1.5,3.9,0,5.4c0.7,0.7,1.7,1.1,2.7,1.1h3.8v100.2c0,2.1,1.7,3.8,3.8,3.8H123
		c2.1,0,3.8-1.6,3.9-3.8c0-2.1-1.6-3.8-3.8-3.9H123H66.2V141h13.4c1,0,2-0.4,2.7-1.1L138.2,84l45,45.1l-56.5,56.5v-34.2h26.7
		c2.1,0,3.8-1.8,3.8-3.9c0-2.1-1.7-3.7-3.8-3.8H123c-2.1,0-3.8,1.7-3.8,3.8v44.2c0,0.4,0.1,0.9,0.2,1.3l-3.4,3.4c-6,6-6,15.8,0,21.9
		s15.8,6,21.9,0l32.1-32.1c1.5-1.5,1.5-3.9,0.1-5.4c-1.5-1.5-3.9-1.5-5.4-0.1l-0.1,0.1L140.3,205l-11.1-11.1l69.6-69.6l11.1,11.1
		L183.3,162c-1.5,1.5-1.4,3.9,0.1,5.4c1.5,1.4,3.8,1.4,5.3,0l29.2-29.2c0.4-0.4,0.7-0.9,0.9-1.4l9.5-26
		C228.8,109.5,228.4,107.9,227.4,106.9L227.4,106.9z M134.9,210.4l-2.4,2.4c-3.1,3.1-8,3.1-11.1,0s-3.1-8,0-11.1l0,0l2.4-2.4
		L134.9,210.4z M213.7,128.5l-8-8l12.6-4.6L213.7,128.5z"/>
	<path class="st1" d="M179.2,171.5c-1.5-1.5-3.9-1.5-5.4,0s-1.5,3.9,0,5.4s3.9,1.5,5.4,0c0.7-0.7,1.1-1.7,1.1-2.7
		C180.3,173.1,179.9,172.2,179.2,171.5z"/>
	<path class="st1" d="M138.2,107.5c-8,0-14.5,6.5-14.5,14.5s6.5,14.5,14.5,14.5s14.5-6.5,14.5-14.5S146.2,107.5,138.2,107.5
		L138.2,107.5z M138.2,128.8c-3.8,0-6.9-3.1-6.9-6.9s3.1-6.9,6.9-6.9c3.8,0,6.9,3.1,6.9,6.9l0,0C145.1,125.8,142,128.8,138.2,128.8
		L138.2,128.8z"/>
</g>
<g class="st0">
	<g class="st2">
		<path class="st3" d="M256.5,88.5c-3.2-3.3-8.5-3.4-11.8-0.2c-0.1,0.1-0.1,0.1-0.2,0.2L109.1,224l-44-44c-3.3-3.2-8.6-3.1-11.8,0.2
			c-3.1,3.2-3.1,8.3,0,11.5l49.9,49.9c3.3,3.3,8.5,3.3,11.8,0l141.4-141.4C259.6,97.1,259.7,91.8,256.5,88.5z"/>
	</g>
</g>
<path class="st4" d="M150.2,65.5c-2,0-3.6-1.6-3.6-3.6V41.5c0-2,1.6-3.6,3.6-3.6s3.6,1.6,3.6,3.6v20.5
	C153.8,63.9,152.2,65.5,150.2,65.5z"/>
<path class="st4" d="M98.9,269.2c-3.8,0-7.4-1.5-10.1-4.2l-10.1-10.1c-1.4-1.4-1.4-3.7,0-5.1c0.7-0.7,1.6-1.1,2.5-1.1
	s1.9,0.4,2.5,1.1l10.1,10.1c1.3,1.3,3.1,2.1,5,2.1c1.9,0,3.7-0.7,5-2.1l8.1-8.1c1.3-1.3,2.1-3.1,2.1-5c0-1.7-0.6-3.4-1.8-4.7
	l-0.1-0.2l-0.2-0.1c-0.4-0.2-0.7-0.4-1-0.7c-0.3-0.3-0.5-0.6-0.7-1l-0.1-0.2l-46.8-46.7l-0.2-0.1c-0.4-0.2-0.7-0.4-1-0.7
	c-0.2-0.2-0.3-0.4-0.5-0.6l-0.1-0.2l-0.2-0.1c-1.1-0.7-2.4-1-3.7-1c-1.9,0-3.7,0.7-5,2.1l-8.1,8.1c-1.3,1.3-2.1,3.1-2.1,5
	s0.7,3.7,2.1,5l10.1,10.1c0.7,0.7,1.1,1.6,1.1,2.5c0,1-0.4,1.9-1,2.5c-0.7,0.7-1.6,1.1-2.5,1.1c-1,0-1.9-0.4-2.5-1l-10.1-10.1
	c-2.7-2.7-4.2-6.3-4.2-10.1c0-3.8,1.5-7.4,4.2-10.1l8.1-8.1c2.7-2.7,6.3-4.2,10.1-4.2c2.1,0,4.2,0.5,6.1,1.4l0.6,0.3L81,168.6
	l-1.5-1.4c-5.8-5.8-5.8-15.3,0-21.1c1.6-1.6,3.6-2.8,5.7-3.6l1.3-0.4l-0.7-1.1c-1.7-2.5-2.6-5.4-2.6-8.4c0-4,1.5-7.7,4.4-10.5
	c2.1-2.1,4.6-3.4,7.5-4l1.1-0.2l-0.3-1c-0.4-1.4-0.6-2.8-0.6-4.2c0-4,1.6-7.7,4.4-10.5c2.1-2.1,4.6-3.5,7.5-4l1.1-0.2l-0.3-1
	c-0.4-1.4-0.6-2.8-0.6-4.2c0-4,1.5-7.7,4.4-10.5c2.8-2.8,6.6-4.4,10.5-4.4c1.8,0,3.5,0.3,5.1,0.9l0.6,0.2l0.5-0.5
	c0.2-0.2,0.4-0.4,0.6-0.6c1.7-1.5,4-2.3,7.2-2.3c2.2,0,4.5,0.4,6,0.7l30.4,5.8l0.1,0c0.5-0.1,1.1-0.1,1.6-0.1c4,0,7.7,1.5,10.5,4.3
	c3.8,3.8,5.3,9.5,3.8,14.7l-0.3,1l1.1,0.2c2.8,0.6,5.4,2,7.5,4c2.8,2.8,4.4,6.5,4.4,10.5c0,1.4-0.2,2.8-0.6,4.2l-0.3,1l1.1,0.2
	c2.8,0.6,5.4,2,7.5,4c2.8,2.8,4.4,6.5,4.4,10.5c0,1.4-0.2,2.8-0.6,4.2l-0.3,1l1.1,0.2c2.8,0.6,5.4,2,7.5,4c5.8,5.8,5.8,15.3,0,21.1
	l-1.5,1.4l16.5,16.5l0.7-0.4c2.1-1.1,4.5-1.7,6.9-1.7c3.8,0,7.4,1.5,10.1,4.2l8.1,8.1c2.7,2.7,4.2,6.3,4.2,10.1
	c0,3.8-1.5,7.4-4.2,10.1l-49.2,49.1c-2.7,2.7-6.3,4.2-10.1,4.2s-7.4-1.5-10.1-4.2l-8.1-8.1c-2.7-2.7-4.2-6.3-4.2-10.1
	c0-2.4,0.6-4.8,1.7-6.9l0.4-0.7l-19.7-19.7l-0.5,0.1c-1.4,0.2-3,0.2-4.7,0.2c-2.5,0-4.9-0.2-7.2-0.3c-2.1-0.1-4.2-0.3-6.2-0.3
	c-3.8,0-6.1,0.6-7.3,1.9l-17.8,17.8l0.4,0.7c1.4,2.3,2.2,4.9,2.2,7.6c0,3.8-1.5,7.4-4.2,10.1L109,265
	C106.3,267.7,102.7,269.2,98.9,269.2z M243.4,190.1c-1.9,0-3.7,0.7-5,2.1l-49.2,49.1c-1.3,1.3-2.1,3.1-2.1,5c0,1.9,0.7,3.7,2.1,5
	l8.1,8.1c1.3,1.3,3.1,2.1,5,2.1c1.9,0,3.7-0.7,5-2.1l49.2-49.1c1.3-1.3,2.1-3.1,2.1-5c0-1.9-0.7-3.7-2.1-5l-8.1-8.1
	C247.1,190.9,245.4,190.1,243.4,190.1z M175.6,203.6c1,0,1.9,0.4,2.5,1.1c0.7,0.7,1.1,1.6,1,2.5c0,1-0.4,1.9-1.1,2.5l-4.1,4.1
	c-0.9,0.9-1.8,1.6-2.8,2.3l-1,0.7l16.7,16.7l43.7-43.6l-16.3-16.2l-3.8,3.8c-0.7,0.7-1.6,1-2.5,1c-1,0-1.9-0.4-2.5-1.1
	c-1.4-1.4-1.4-3.7,0-5.1l10.3-10.3c3-3,3-7.9,0-10.9c-1.5-1.5-3.4-2.3-5.5-2.3c-2.1,0-4,0.8-5.5,2.3l-4,4c-0.7,0.7-1.6,1.1-2.5,1.1
	c-1,0-1.9-0.4-2.5-1.1c-0.7-0.7-1.1-1.6-1.1-2.5c0-1,0.4-1.9,1.1-2.5l8-8c1.5-1.5,2.3-3.4,2.3-5.5s-0.8-4-2.3-5.5
	c-1.5-1.5-3.4-2.3-5.5-2.3c-2.1,0-4,0.8-5.5,2.3l-4.6,4.6c-0.7,0.7-1.6,1-2.5,1c-1,0-1.9-0.4-2.5-1.1c-1.4-1.4-1.4-3.7,0-5.1
	l4.7-4.7l3.9-3.9c1.5-1.5,2.3-3.4,2.3-5.5c0-2.1-0.8-4-2.3-5.5c-1.5-1.5-3.4-2.3-5.5-2.3c-2.1,0-4,0.8-5.5,2.2l-4.6,4.6
	c-0.7,0.7-1.6,1-2.5,1c-1,0-1.9-0.4-2.5-1.1c-0.7-0.7-1.1-1.6-1-2.5c0-1,0.4-1.9,1.1-2.5l4.6-4.6l4-4c3-3,3-7.9,0-10.9
	c-1.5-1.4-3.4-2.2-5.5-2.2c-0.4,0-0.7,0-1.1,0.1c-0.2,0-0.3,0-0.4,0.1c-1.6,0.3-3,1-4,2.1l-13.7,13.7l0.4,0.7c1.4,2.3,2.2,5,2.2,7.8
	c0,4-1.5,7.7-4.4,10.5c-2.8,2.8-6.5,4.4-10.5,4.4h-1l-0.1,1c0,4-1.5,7.8-4.3,10.7c-2.8,2.8-6.6,4.4-10.6,4.4h-1l-0.1,1l0,0.1
	c0,4-1.6,7.7-4.4,10.5c-2.8,2.8-6.5,4.3-10.5,4.3h-1l-0.1,1l0,0.1c0,4-1.6,7.7-4.4,10.5c-2.8,2.8-6.5,4.4-10.5,4.4
	c-2.8,0-5.5-0.8-7.8-2.2l-0.7-0.4L70,189.7l43.7,43.6l17.6-17.6c2.7-2.8,6.6-4.1,12.5-4.1c2.2,0,4.5,0.2,6.7,0.3
	c2.3,0.2,4.6,0.3,6.8,0.3c3.8,0,8.6-0.4,11.7-3.5l4.1-4.1C173.7,204,174.6,203.6,175.6,203.6z M89.2,166.6c1.5,1.5,3.4,2.3,5.5,2.3
	s4-0.8,5.5-2.3c1.5-1.5,2.3-3.4,2.3-5.5s-0.8-4-2.3-5.5l-4.6-4.6c-1.5-1.5-3.4-2.3-5.5-2.3s-4,0.8-5.5,2.3c-3,3-3,7.9,0,10.9l4,4
	L89.2,166.6z M105.3,150.6c1.5,1.5,3.4,2.2,5.5,2.2c2.1,0,4-0.8,5.5-2.2c1.5-1.5,2.3-3.4,2.3-5.5c0-2.1-0.8-4-2.3-5.5l-12.7-12.7
	c-1.5-1.4-3.4-2.2-5.4-2.2c-2.1,0-4,0.8-5.5,2.2c-1.5,1.5-2.3,3.4-2.3,5.5s0.8,4,2.3,5.5l8,8L105.3,150.6z M110.1,104.8
	c-2.1,0-4,0.8-5.5,2.3c-1.5,1.5-2.3,3.4-2.3,5.5c0,2.1,0.8,4,2.3,5.5l16.7,16.6c1.5,1.5,3.4,2.2,5.5,2.2c2.1,0,4-0.8,5.5-2.3
	c3-3,3-7.9,0-10.9l-16.7-16.6C114.1,105.6,112.2,104.8,110.1,104.8z M122.1,84.8c-2.1,0-4,0.8-5.5,2.3c-1.5,1.4-2.3,3.4-2.3,5.5
	c0,2.1,0.8,4,2.3,5.5l20.7,20.7c1.5,1.5,3.4,2.3,5.5,2.3s4-0.8,5.5-2.3c1.5-1.5,2.3-3.4,2.3-5.5c0-1.6-0.5-3.1-1.4-4.4l-0.2-0.3
	l-0.4-0.1c-5.6-1.4-11.2-6.4-12.8-7.9c-2.2-2.1-7.5-7.7-8.9-13.7l-0.1-0.4l-0.3-0.2C125.2,85.2,123.7,84.8,122.1,84.8z M133.7,84.3
	c0.3,2.9,3.1,7.2,7,10.9c3.3,3.2,6.1,4.7,7.4,5.4l0.6,0.3l13.8-13.7L140.8,83c-1.9-0.4-3.5-0.5-4.7-0.5c-0.7,0-1.2,0.1-1.6,0.2
	l-0.7,0.2l0,0.8c0,0.1,0,0.3,0,0.6L133.7,84.3z"/>
<path class="st4" d="M92.5,63c-1,0-1.9-0.4-2.5-1L73.3,45.3c-1.4-1.4-1.4-3.7,0-5.1c0.7-0.7,1.6-1.1,2.5-1.1c1,0,1.9,0.4,2.5,1
	l16.7,16.7c0.7,0.7,1.1,1.6,1.1,2.5c0,1-0.4,1.9-1,2.5C94.4,62.6,93.5,63,92.5,63z"/>
<path class="st4" d="M207.9,63c-1,0-1.9-0.4-2.5-1.1c-0.7-0.7-1.1-1.6-1-2.5c0-1,0.4-1.9,1.1-2.5l16.7-16.7c0.7-0.7,1.6-1,2.5-1
	c1,0,1.9,0.4,2.5,1.1c0.7,0.7,1.1,1.6,1,2.5c0,1-0.4,1.9-1.1,2.5l-16.7,16.7C209.8,62.6,208.9,63,207.9,63z"/>
<path class="st4" d="M65.9,241.1c-0.9,0-1.8-0.4-2.5-1c-1.4-1.4-1.4-3.7-0.1-5.1c0.7-0.7,1.6-1.1,2.6-1.1c0.9,0,1.8,0.4,2.5,1
	c0.7,0.7,1.1,1.6,1.1,2.5c0,1-0.4,1.9-1,2.5C67.8,240.7,66.8,241.1,65.9,241.1z"/>
<path class="st4" d="M190.1,196.4c-1.4,0-2.6-0.8-3.2-2c-0.9-1.8-0.2-3.9,1.6-4.8c0.5-0.3,1.1-0.4,1.6-0.4c1.4,0,2.6,0.8,3.2,2
	c0.9,1.8,0.2,3.9-1.6,4.8C191.2,196.3,190.6,196.4,190.1,196.4z"/>
</svg>
