<?xml version="1.0" encoding="utf-8"?>
<!-- Generator: Adobe Illustrator 24.0.1, SVG Export Plug-In . SVG Version: 6.00 Build 0)  -->
<svg version="1.1" id="Layer_1" xmlns="http://www.w3.org/2000/svg" xmlns:xlink="http://www.w3.org/1999/xlink" x="0px" y="0px"
	 viewBox="0 0 292 292" style="enable-background:new 0 0 292 292;" xml:space="preserve">
<style type="text/css">
	.st0{fill:#434344;}
</style>
<path class="st0" d="M246.5,105.8c-8,0-14.5-6.5-14.5-14.5s6.5-14.5,14.5-14.5S261,83.3,261,91.3S254.5,105.8,246.5,105.8z
	 M246.5,82.5c-4.9,0-8.8,3.9-8.8,8.8c0,4.9,3.9,8.8,8.8,8.8c4.8,0,8.7-3.9,8.8-8.8C255.3,86.4,251.4,82.5,246.5,82.5z"/>
<path class="st0" d="M44.8,233.8c-8,0-14.5-6.5-14.5-14.5s6.5-14.5,14.5-14.5s14.5,6.5,14.5,14.5S52.8,233.8,44.8,233.8z
	 M44.8,210.5c-4.9,0-8.8,3.9-8.8,8.8s3.9,8.8,8.8,8.8c4.8,0,8.7-3.9,8.8-8.8C53.6,214.4,49.7,210.5,44.8,210.5z"/>
<path class="st0" d="M237.2,87c-0.4,0-0.8-0.1-1.2-0.3l-33.5-16.1c-0.7-0.4-1.3-1-1.5-1.7c-0.2-0.7-0.2-1.4,0.2-2.1
	c0.5-1,1.5-1.7,2.6-1.7c0.4,0,0.9,0.1,1.3,0.3l33.5,16.2c1.5,0.7,1.9,2.5,1.3,3.7C239.4,86.3,238.4,87,237.2,87L237.2,87z"/>
<path class="st0" d="M203.8,261c-8,0-14.5-6.5-14.5-14.5s6.5-14.5,14.5-14.5s14.5,6.5,14.5,14.5S211.8,261,203.8,261z M203.8,237.6
	c-4.9,0-8.8,3.9-8.8,8.8s3.9,8.8,8.8,8.8c4.9,0,8.8-3.9,8.8-8.8C212.6,241.5,208.7,237.6,203.8,237.6z"/>
<path class="st0" d="M194.7,242.3c-0.4,0-0.9-0.1-1.3-0.3l-33.5-16.1l-0.2,0c-1.4-0.8-1.9-2.4-1.3-3.8c0.5-1,1.5-1.7,2.6-1.7
	c0.4,0,0.9,0.1,1.3,0.3l33.5,16.1c0.7,0.3,1.2,0.9,1.5,1.6c0.3,0.7,0.2,1.6-0.1,2.2C196.8,241.7,195.8,242.3,194.7,242.3
	L194.7,242.3z"/>
<path class="st0" d="M145.6,164c-8,0-14.5-6.5-14.5-14.5s6.5-14.5,14.5-14.5s14.5,6.5,14.5,14.5S153.6,164,145.6,164z M145.6,140.7
	c-4.9,0-8.8,3.9-8.8,8.8c0,4.9,3.9,8.8,8.8,8.8c4.9,0,8.8-3.9,8.8-8.8C154.4,144.6,150.5,140.7,145.6,140.7z"/>
<path class="st0" d="M136.4,145.4c-0.7,0-1.3-0.2-1.8-0.7l-25.7-20l-0.1-0.1c-1.4-1.1-1.6-2.9-0.5-4.2c0.6-0.7,1.4-1.1,2.3-1.1
	c0.7,0,1.3,0.2,1.8,0.7l25.7,20l0.1,0.1c0.7,0.6,1.1,1.3,1.2,2c0.1,0.8-0.1,1.5-0.6,2.1C138.1,145,137.3,145.4,136.4,145.4
	L136.4,145.4z"/>
<path class="st0" d="M215.5,214.5c-23,0-41.7-18.7-41.7-41.7s18.7-41.7,41.7-41.7c22.9,0,41.6,18.7,41.7,41.7
	C257.2,195.8,238.5,214.5,215.5,214.5z M215.5,136.9c-19.8,0-35.9,16.1-35.9,35.9c0,19.8,16.1,35.9,35.9,35.9
	c19.7,0,35.8-16.1,35.9-35.9C251.4,153,235.3,136.9,215.5,136.9z"/>
<path class="st0" d="M215.5,175.6c-8,0-14.5-6.5-14.5-14.5s6.5-14.5,14.5-14.5s14.5,6.5,14.5,14.5S223.5,175.6,215.5,175.6z
	 M215.5,152.3c-4.9,0-8.8,3.9-8.8,8.8s3.9,8.8,8.8,8.8c4.7,0,8.7-3.9,8.8-8.8C224.3,156.2,220.4,152.3,215.5,152.3z"/>
<path class="st0" d="M215.5,214.5c-7.3,0-14.5-2-20.8-5.6c-0.9-0.5-1.4-1.5-1.4-2.5v-10.2c0.1-5.9,4.9-10.7,10.8-10.7h22.9
	c5.9,0,10.7,4.8,10.8,10.7v10.2c0,1.1-0.5,2-1.4,2.5C230,212.5,222.8,214.5,215.5,214.5z M204.1,191.2c-2.8,0-5,2.1-5.1,4.9l0,7.9
	l0.6,0.9c4.9,2.4,10.5,3.7,15.9,3.7s11-1.3,15.9-3.7l0.6-0.9l0.1-7.9c-0.1-2.8-2.4-4.9-5.1-4.9l-0.2,0l-22.5,0
	C204.3,191.2,204.2,191.2,204.1,191.2z"/>
<path class="st0" d="M122.4,261c-23,0-41.7-18.7-41.7-41.6c0-23,18.7-41.7,41.7-41.7c22.9,0,41.6,18.7,41.7,41.6
	C164.1,242.3,145.4,261,122.4,261z M122.4,183.4c-19.8,0-35.9,16.1-35.9,35.9c0,19.8,16.1,35.9,35.9,35.9s35.9-16.1,35.9-35.9
	C158.3,199.5,142.2,183.4,122.4,183.4z"/>
<path class="st0" d="M122.4,222.2c-8,0-14.5-6.5-14.5-14.5s6.5-14.5,14.5-14.5s14.5,6.5,14.5,14.5S130.4,222.2,122.4,222.2z
	 M122.4,198.9c-4.9,0-8.8,3.9-8.8,8.8s3.9,8.8,8.8,8.8c4.7,0,8.7-3.9,8.8-8.8C131.2,202.8,127.3,198.9,122.4,198.9z"/>
<path class="st0" d="M122.4,261.1c-7.3,0-14.5-2-20.8-5.6c-0.9-0.5-1.4-1.5-1.4-2.5v-10.2c0.1-6,4.8-10.7,10.8-10.7h22.9
	c5.9,0,10.7,4.8,10.8,10.7v10.2c0,1.1-0.5,2-1.4,2.5C136.9,259.1,129.7,261.1,122.4,261.1z M111,237.8c-2.8,0-5,2.1-5.1,4.9l0,7.9
	l0.6,0.9c4.9,2.4,10.5,3.7,15.9,3.7s11-1.3,15.9-3.7l0.6-0.9l0.1-7.9c-0.1-2.8-2.4-4.9-5.1-4.9l-0.2,0l-22.5,0
	C111.2,237.8,111.1,237.8,111,237.8z"/>
<path class="st0" d="M71.9,164c-23,0-41.7-18.7-41.7-41.6c0-23,18.7-41.7,41.7-41.7c23,0,41.7,18.7,41.7,41.6
	C113.6,145.3,94.9,164,71.9,164z M71.9,86.5c-19.8,0-35.9,16.1-35.9,35.9s16.1,35.9,35.9,35.9s35.9-16.1,35.9-35.9
	S91.7,86.5,71.9,86.5z"/>
<path class="st0" d="M71.9,125.2c-8,0-14.5-6.5-14.5-14.5s6.5-14.5,14.5-14.5s14.5,6.5,14.5,14.5S79.9,125.2,71.9,125.2z
	 M71.9,101.9c-4.9,0-8.8,3.9-8.8,8.8c0,4.9,3.9,8.8,8.8,8.8c4.9,0,8.8-3.9,8.8-8.8C80.7,105.8,76.8,101.9,71.9,101.9z"/>
<path class="st0" d="M72,164.1c-7.3,0-14.5-2-20.8-5.6c-0.9-0.5-1.4-1.5-1.4-2.5v-10.2c0.1-6,4.8-10.7,10.8-10.7h22.9
	c5.9,0,10.7,4.8,10.8,10.7v10.2c0,1.1-0.5,2-1.4,2.5C86.5,162.1,79.3,164.1,72,164.1z M60.6,140.8c-2.8,0-5,2.1-5.1,4.9l0,7.9
	l0.6,0.9c4.9,2.4,10.5,3.7,15.9,3.7s11-1.3,15.9-3.7l0.6-0.9l0.1-7.9c-0.1-2.8-2.4-4.9-5.1-4.9l-0.2,0l-22.5,0
	C60.8,140.8,60.7,140.8,60.6,140.8z"/>
<path class="st0" d="M165,113.7c-23,0-41.7-18.7-41.7-41.7S142,30.3,165,30.3S206.7,49,206.7,72S188,113.7,165,113.7z M165,36
	c-19.8,0-35.9,16.1-35.9,36c0,19.8,16.1,35.9,35.9,35.9c19.8-0.1,35.9-16.3,35.9-36C200.9,52.1,184.8,36,165,36z"/>
<path class="st0" d="M165,74.8c-8,0-14.5-6.5-14.5-14.5S157,45.8,165,45.8s14.5,6.5,14.5,14.5S173,74.8,165,74.8z M165,51.5
	c-4.9,0-8.8,3.9-8.8,8.8c0,4.9,3.9,8.8,8.8,8.8s8.8-3.9,8.8-8.8C173.8,55.4,169.9,51.5,165,51.5z"/>
<path class="st0" d="M165.1,113.7c-7.3,0-14.5-1.9-20.8-5.6c-0.9-0.5-1.4-1.5-1.4-2.5V95.3c0.1-6,4.8-10.7,10.8-10.7h22.9
	c5.9,0,10.7,4.8,10.8,10.7v10.2c0,1.1-0.5,2-1.4,2.5C179.6,111.7,172.4,113.7,165.1,113.7z M153.6,90.4c-2.8,0-5,2.1-5.1,4.9l0,7.9
	l0.6,0.9c4.9,2.4,10.5,3.7,15.9,3.7s11-1.3,15.9-3.7l0.6-0.9l0.1-7.9c-0.1-2.8-2.4-4.9-5.1-4.9l-0.2,0l-22.5,0
	C153.8,90.4,153.7,90.4,153.6,90.4z"/>
<path class="st0" d="M99.5,97.8c-0.9,0-1.7-0.4-2.2-1c-1-1.2-0.9-3,0.3-4.1l26.8-23c0.5-0.5,1.2-0.7,1.9-0.7c0.9,0,1.7,0.4,2.2,1
	c1,1.2,0.9,3-0.2,4.1l-26.9,23C100.8,97.6,100.2,97.8,99.5,97.8C99.5,97.8,99.5,97.8,99.5,97.8z"/>
<path class="st0" d="M211.5,136.8c-0.9,0-1.8-0.4-2.3-1.1l-23.3-31c-0.9-1.2-0.6-2.9,0.6-3.9c0.5-0.4,1.1-0.6,1.8-0.6
	c0.9,0,1.8,0.4,2.3,1.1l23.3,31c0.8,1.2,0.6,2.9-0.6,3.9C212.8,136.6,212.2,136.8,211.5,136.8L211.5,136.8z"/>
<path class="st0" d="M158,207.1c-0.9,0-1.8-0.4-2.3-1.2c-0.9-1.2-0.7-3,0.6-4l21.7-16.3c0.5-0.4,1.1-0.6,1.7-0.6
	c0.9,0,1.8,0.4,2.3,1.2c0.5,0.6,0.7,1.4,0.6,2.2c-0.1,0.7-0.5,1.3-1.1,1.7l-21.7,16.3C159.2,206.9,158.6,207.1,158,207.1L158,207.1z
	"/>
<path class="st0" d="M56.4,222.3c-1.6,0-2.9-1.3-2.9-2.9c0-1.6,1.3-2.9,2.9-2.9h27.2c1.6,0,2.8,1.3,2.8,2.9c0,1.6-1.3,2.9-2.9,2.9
	H56.4z"/>
<path class="st0" d="M71.9,59.3c-8,0-14.5-6.5-14.5-14.5s6.5-14.5,14.5-14.5s14.5,6.5,14.5,14.5S79.9,59.3,71.9,59.3z M71.9,36
	c-4.9,0-8.8,3.9-8.8,8.8c0,4.9,3.9,8.8,8.8,8.8c4.9-0.1,8.8-4,8.8-8.8C80.7,39.9,76.8,36,71.9,36z"/>
<path class="st0" d="M71.9,86.5c-1.6,0-2.9-1.3-2.9-2.9V56.5c0-1.6,1.3-2.9,2.9-2.9c1.6,0,2.9,1.2,2.9,2.8v27.2
	C74.8,85.3,73.6,86.5,71.9,86.5z"/>
</svg>
