<?xml version="1.0" encoding="utf-8"?>
<!-- Generator: Adobe Illustrator 24.0.1, SVG Export Plug-In . SVG Version: 6.00 Build 0)  -->
<svg version="1.1" id="Layer_1" xmlns="http://www.w3.org/2000/svg" xmlns:xlink="http://www.w3.org/1999/xlink" x="0px" y="0px"
	 viewBox="0 0 270 270" style="enable-background:new 0 0 270 270;" xml:space="preserve">
<style type="text/css">
	.st0{display:none;}
	.st1{display:inline;fill:#2F2C52;}
	.st2{display:inline;}
	.st3{fill:#2F2C52;}
	.st4{fill:#434344;}
</style>
<g class="st0">
	<path class="st1" d="M180.9,91.1c-1.5-1.5-3.9-1.5-5.4,0s-1.5,3.9,0,5.4s3.9,1.5,5.4,0c0.7-0.7,1.1-1.7,1.1-2.7
		C182,92.7,181.6,91.8,180.9,91.1z"/>
	<path class="st1" d="M95.1,144.4H64.7c-2.1,0-3.8,1.7-3.8,3.8l0,0v30.5c0,2.1,1.7,3.8,3.8,3.8h30.5c2.1,0,3.8-1.7,3.8-3.8v-30.5
		C98.9,146.1,97.2,144.4,95.1,144.4L95.1,144.4z M91.3,174.9H68.5V152h22.9L91.3,174.9L91.3,174.9z"/>
	<path class="st1" d="M230.6,116.9c-1.4-0.6-3.1-0.3-4.1,0.8l-38.8,38.8l-45.2,45.2l-23.7,23.7c-1.5,1.5-1.5,3.9,0,5.4
		c0.7,0.7,1.7,1.1,2.7,1.1h107.8c2.1,0,3.8-1.7,3.8-3.8V120.4C233,118.9,232.1,117.5,230.6,116.9L230.6,116.9z M225.4,224.4h-94.8
		l14.5-14.5l3.6,3.6c1.5,1.5,3.9,1.4,5.4-0.1c1.4-1.5,1.4-3.8,0-5.3l-3.6-3.6l9.7-9.7l3.6,3.6c1.5,1.5,3.9,1.4,5.4-0.1
		c1.4-1.5,1.4-3.8,0-5.3l-3.6-3.6l9.7-9.7l3.6,3.6c1.5,1.5,3.9,1.5,5.4,0s1.5-3.9,0-5.3l-3.6-3.6l9.7-9.7l3.6,3.6
		c1.5,1.5,3.9,1.5,5.4,0.1c1.5-1.5,1.5-3.9,0.1-5.4l-0.1-0.1l-3.6-3.6l9.7-9.7l3.6,3.6c1.5,1.5,3.9,1.4,5.4-0.1
		c1.4-1.5,1.4-3.8,0-5.3l-3.6-3.6l14.5-14.5L225.4,224.4z"/>
	<path class="st1" d="M211.6,162.9c-1.4-0.6-3.1-0.3-4.1,0.8l-42.8,42.8c-1.5,1.5-1.5,3.9,0,5.4c0.7,0.7,1.7,1.1,2.7,1.1h42.8
		c2.1,0,3.8-1.7,3.8-3.8v-42.8C214,164.8,213,163.5,211.6,162.9L211.6,162.9z M206.3,205.3h-29.8l29.8-29.8V205.3z"/>
	<path class="st1" d="M214.4,93.9c-1-1.1-2.6-1.4-4-0.9l-26,9.5c-0.5,0.2-1,0.5-1.4,0.9l-7.3,7.3l-47.8-47.8c-1.5-1.5-3.9-1.5-5.4,0
		l0,0L65,120.4H51l74.2-74.2L166,86.9c1.5,1.5,3.9,1.4,5.4-0.1s1.5-3.9,0-5.3L128,38.1c-1.5-1.5-3.9-1.5-5.4,0l-83.4,83.4
		c-1.5,1.5-1.5,3.9,0,5.4c0.7,0.7,1.7,1.1,2.7,1.1h3.8v100.2c0,2.1,1.7,3.8,3.8,3.8H110c2.1,0,3.8-1.6,3.9-3.8
		c0-2.1-1.6-3.8-3.8-3.9H110H53.2V128h13.4c1,0,2-0.4,2.7-1.1L125.2,71l45,45.1l-56.5,56.5v-34.2h26.7c2.1,0,3.8-1.8,3.8-3.9
		c0-2.1-1.7-3.7-3.8-3.8H110c-2.1,0-3.8,1.7-3.8,3.8v44.2c0,0.4,0.1,0.9,0.2,1.3l-3.4,3.4c-6,6-6,15.8,0,21.9s15.8,6,21.9,0
		l32.1-32.1c1.5-1.5,1.5-3.9,0.1-5.4c-1.5-1.5-3.9-1.5-5.4-0.1l-0.1,0.1L127.3,192l-11.1-11.1l69.6-69.6l11.1,11.1L170.3,149
		c-1.5,1.5-1.4,3.9,0.1,5.4c1.5,1.4,3.8,1.4,5.3,0l29.2-29.2c0.4-0.4,0.7-0.9,0.9-1.4l9.5-26C215.8,96.5,215.4,94.9,214.4,93.9
		L214.4,93.9z M121.9,197.4l-2.4,2.4c-3.1,3.1-8,3.1-11.1,0s-3.1-8,0-11.1l0,0l2.4-2.4L121.9,197.4z M200.7,115.5l-8-8l12.6-4.6
		L200.7,115.5z"/>
	<path class="st1" d="M166.2,158.5c-1.5-1.5-3.9-1.5-5.4,0s-1.5,3.9,0,5.4s3.9,1.5,5.4,0c0.7-0.7,1.1-1.7,1.1-2.7
		C167.3,160.1,166.9,159.2,166.2,158.5z"/>
	<path class="st1" d="M125.2,94.5c-8,0-14.5,6.5-14.5,14.5s6.5,14.5,14.5,14.5s14.5-6.5,14.5-14.5S133.2,94.5,125.2,94.5L125.2,94.5
		z M125.2,115.8c-3.8,0-6.9-3.1-6.9-6.9s3.1-6.9,6.9-6.9s6.9,3.1,6.9,6.9l0,0C132.1,112.8,129,115.8,125.2,115.8L125.2,115.8z"/>
</g>
<g class="st0">
	<g class="st2">
		<path class="st3" d="M243.5,75.5c-3.2-3.3-8.5-3.4-11.8-0.2c-0.1,0.1-0.1,0.1-0.2,0.2L96.1,211l-44-44c-3.3-3.2-8.6-3.1-11.8,0.2
			c-3.1,3.2-3.1,8.3,0,11.5l49.9,49.9c3.3,3.3,8.5,3.3,11.8,0L243.4,87.3C246.6,84.1,246.7,78.8,243.5,75.5z"/>
	</g>
</g>
<g class="st0">
	<g class="st2">
		<path class="st3" d="M108.6,121.7c-2.9-4.7-5.2-9.6-6.9-14.8v75.4l24.3-41.6C119.1,135.5,113.2,129.1,108.6,121.7z"/>
	</g>
</g>
<g class="st0">
	<g class="st2">
		<path class="st3" d="M168.5,27.5c-31.4,0-56.9,25.5-56.9,56.9c0,4.4,0.5,8.7,1.5,12.9c0,0.1,0,0.2,0.1,0.3
			c0.1,0.4,0.2,0.9,0.3,1.4c0,0.1,0.1,0.2,0.1,0.3c0.5,2,1.2,3.9,1.9,5.8c0,0.1,0.1,0.2,0.1,0.3c0.2,0.4,0.3,0.8,0.5,1.2
			c0.1,0.1,0.1,0.2,0.2,0.4c0.2,0.4,0.4,0.8,0.5,1.2c0.1,0.1,0.1,0.2,0.1,0.3c0.6,1.3,1.3,2.6,2,3.8c0.1,0.1,0.1,0.2,0.1,0.3
			c0.2,0.4,0.4,0.7,0.6,1c0.1,0.2,0.2,0.3,0.3,0.5c0.2,0.3,0.4,0.6,0.6,1c0.1,0.2,0.2,0.4,0.3,0.5c0.2,0.3,0.4,0.6,0.6,0.9
			c0.1,0.2,0.2,0.3,0.3,0.5c0.4,0.6,0.9,1.2,1.3,1.8c0.1,0.1,0.2,0.3,0.3,0.4c0.2,0.3,0.4,0.5,0.6,0.8c0.2,0.2,0.3,0.4,0.5,0.6
			c0.2,0.3,0.4,0.5,0.6,0.7s0.4,0.4,0.6,0.6s0.4,0.5,0.6,0.7s0.4,0.5,0.6,0.7s0.4,0.4,0.6,0.6c0.3,0.3,0.6,0.6,0.9,0.9
			c0.2,0.2,0.4,0.4,0.7,0.7c0.3,0.3,0.6,0.6,0.9,0.8c0.2,0.2,0.4,0.3,0.6,0.5c0.3,0.2,0.5,0.5,0.8,0.7c0.2,0.2,0.4,0.3,0.6,0.5
			c0.3,0.2,0.6,0.5,0.9,0.7c0.2,0.1,0.4,0.3,0.6,0.4c0.3,0.3,0.7,0.5,1,0.8c0.1,0.1,0.3,0.2,0.4,0.3c0.5,0.4,1,0.7,1.5,1
			c0.1,0.1,0.3,0.2,0.4,0.3c0.4,0.3,0.7,0.5,1.1,0.7c0.2,0.1,0.4,0.2,0.6,0.4c0.3,0.2,0.7,0.4,1,0.6c0.2,0.1,0.4,0.2,0.6,0.4
			c0.4,0.2,0.7,0.4,1.1,0.6c0.2,0.1,0.3,0.2,0.5,0.3c0.5,0.3,1.1,0.6,1.6,0.9l9.9,15.2l8.5,13.2l1.1,1.7c1.3,1.9,3.4,3.1,5.7,3.1
			s4.5-1.2,5.7-3.1l1.1-1.7l0.6-1l7.8-12.1l10-15.3c0.6-0.3,1.1-0.6,1.6-0.9c0.2-0.1,0.4-0.2,0.5-0.3c0.4-0.2,0.7-0.4,1.1-0.6
			c0.2-0.1,0.4-0.2,0.6-0.4c0.3-0.2,0.7-0.4,1-0.6c0.2-0.1,0.4-0.2,0.6-0.4c0.4-0.2,0.7-0.5,1-0.7c0.2-0.1,0.3-0.2,0.5-0.3
			c0.5-0.3,1-0.7,1.5-1c0.1-0.1,0.3-0.2,0.4-0.3c0.4-0.3,0.7-0.5,1.1-0.8c0.2-0.1,0.4-0.3,0.6-0.5c0.3-0.2,0.5-0.4,0.8-0.7
			c0.2-0.2,0.4-0.4,0.6-0.5c0.3-0.2,0.5-0.4,0.8-0.7c0.2-0.2,0.4-0.4,0.6-0.6c0.3-0.2,0.5-0.5,0.7-0.7s0.4-0.4,0.6-0.6
			c0.4-0.4,0.8-0.8,1.2-1.2c0.2-0.2,0.4-0.5,0.6-0.7c0.2-0.2,0.4-0.4,0.5-0.6c0.2-0.3,0.5-0.5,0.7-0.8c0.2-0.2,0.3-0.4,0.5-0.6
			c0.2-0.3,0.5-0.5,0.7-0.8c0.1-0.2,0.3-0.4,0.4-0.5c0.2-0.3,0.5-0.6,0.7-0.9c0.1-0.1,0.2-0.2,0.3-0.4c0.8-1.1,1.6-2.3,2.4-3.5
			c0.1-0.1,0.1-0.2,0.2-0.3c0.2-0.4,0.5-0.7,0.7-1.1c0.1-0.1,0.1-0.2,0.2-0.3c0.2-0.4,0.5-0.8,0.7-1.2c0-0.1,0.1-0.1,0.1-0.2
			c1-1.8,1.9-3.7,2.7-5.6c0,0,0,0,0-0.1c0.2-0.5,0.4-1,0.6-1.4v-0.1c1.2-3,2.1-6.1,2.7-9.3l0,0c0.7-3.6,1.1-7.3,1.1-11.1
			C225.5,53.1,199.9,27.5,168.5,27.5z M168.5,115.3c-17,0-30.9-13.9-30.9-30.9s13.9-30.9,30.9-30.9s30.9,13.9,30.9,30.9
			C199.5,101.5,185.6,115.3,168.5,115.3z"/>
	</g>
</g>
<g class="st0">
	<g class="st2">
		<path class="st3" d="M245.4,100.7l-7.8-1.9c-1.7,8.1-4.8,15.8-9.2,22.9c-6.3,10.1-14.9,18.4-25.1,24.2l-10.4,16l24.4,29.8h33.2
			v-84.4C250.6,104.2,248.5,101.4,245.4,100.7z"/>
	</g>
</g>
<g class="st0">
	<g class="st2">
		<path class="st3" d="M22,82.5c-2-0.5-4.2,0-5.8,1.3c-1.7,1.3-2.6,3.3-2.6,5.4v66.1H50c1.8,0,3.6,0.7,4.9,2L88,190.9V98.6L22,82.5z
			"/>
	</g>
</g>
<g class="st0">
	<g class="st2">
		<path class="st3" d="M151.3,173l-14.5-22.3H136l-34.3,58.9v49.1l60-14.7v-62.8C157.5,179.7,153.8,176.9,151.3,173z"/>
	</g>
</g>
<g class="st0">
	<g class="st2">
		<path class="st3" d="M214.1,205.4c-2,0-4-0.9-5.3-2.5l-23.7-29c-2.5,3.4-5.9,5.9-9.7,7.3v62.4l66.8,16.4c0.5,0.1,1.1,0.2,1.6,0.2
			c1.5,0,3-0.5,4.2-1.5c1.6-1.3,2.6-3.3,2.6-5.4v-47.9L214.1,205.4L214.1,205.4L214.1,205.4z"/>
	</g>
</g>
<g class="st0">
	<g class="st2">
		<path class="st3" d="M47.1,168.9H13.5V235c0,3.1,2.2,5.9,5.2,6.6l69.3,17v-48.2L47.1,168.9z"/>
	</g>
</g>
<path class="st4" d="M49.4,170.2l-1-1h-7.5c-5.1,0-9.3-4.2-9.3-9.3v-58.3c0.1-8.9,7.4-16.2,16.2-16.2h6.6l0.8-1.6
	c-2-2.6-3-5.8-3-9.1V59.8c0-8.6,7-15.6,15.6-15.6h8c8.6,0,15.6,7,15.6,15.6v14.9c0,3.3-1,6.5-3,9.1l0.8,1.6h43.1l0.7-0.3l5.9-5.9
	c0.4-0.4,1.1-0.7,1.7-0.7h13.7c5.1,0,9.3,4.2,9.3,9.3V98c0,5.1-4.2,9.3-9.3,9.3H97.5l-1,1l-3.8,105.5l-4.9-0.2l3.9-108.8
	c0-1.3,1.1-2.3,2.4-2.3h60.1c2.5,0,4.4-1.9,4.4-4.4V87.7c0-2.5-1.9-4.4-4.4-4.4h-12.3l-0.7,0.3l-5.9,5.9c-0.5,0.6-1.3,0.7-1.7,0.7
	H47.8c-6.2,0-11.3,5.1-11.3,11.3v58.3c0,2.5,1.9,4.4,4.4,4.4h10.3c2.5,0,4.4-1.9,4.4-4.4v-5.4l-0.3-0.7l-5.9-5.9
	c-0.4-0.4-0.7-1.1-0.7-1.7v-33.3h4.9v31.9l0.3,0.7l5.9,5.9c0.4,0.4,0.7,1.1,0.7,1.7v6.9c0,3.7-2.3,7.1-5.7,8.6l-0.6,1l2.9,78.6
	l-4.9,0.2L49.4,170.2z M67.8,49.1c-5.9,0-10.7,4.8-10.7,10.7v14.9c0,5.9,4.8,10.7,10.7,10.7h8c5.9,0,10.7-4.8,10.7-10.7V59.8
	c0-5.9-4.8-10.7-10.7-10.7H67.8z"/>
<rect x="69.4" y="167.7" class="st4" width="4.9" height="80.4"/>
<path class="st4" d="M158.7,248.1v-12.7c0-6.2-5.1-11.3-11.3-11.3H99.3c-6.2,0-11.3,5.1-11.3,11.3v12.7h-4.9v-12.7
	c0.1-8.9,7.4-16.2,16.2-16.2h6.6l0.8-1.6c-2-2.6-3-5.8-3-9.1v-14.9c0-8.6,7-15.6,15.6-15.6h8c8.6,0,15.6,7,15.6,15.6v14.9
	c0,3.3-1,6.5-3,9.1l0.8,1.6h6.6c8.9,0,16.2,7.3,16.3,16.2v12.7H158.7z M119.3,182.9c-5.9,0-10.7,4.8-10.7,10.7v14.9
	c0,5.9,4.8,10.7,10.7,10.7h8c5.9,0,10.7-4.8,10.7-10.7v-14.9c0-5.9-4.8-10.7-10.7-10.7H119.3z"/>
<path class="st4" d="M227.3,248.1v-12.7c0-6.2-5.1-11.3-11.3-11.3h-47v-4.9h5.6l0.8-1.6c-2-2.6-3-5.8-3-9.1v-14.9
	c0-8.6,7-15.6,15.6-15.6h8c8.6,0,15.6,7,15.6,15.6v14.9c0,3.3-1,6.5-3,9.1l0.8,1.6h6.6c8.8,0,16.1,7.3,16.2,16.2v12.7H227.3z
	 M187.9,182.9c-5.9,0-10.7,4.8-10.7,10.7v14.9c0,5.9,4.8,10.7,10.7,10.7h8c5.9,0,10.7-4.8,10.7-10.7v-14.9c0-5.9-4.8-10.7-10.7-10.7
	H187.9z"/>
<path class="st4" d="M112.9,158.8c-1.3,0-2.4-1.1-2.4-2.4v-40.2h4.9V153l1,1h109.8l1-1V60.3l-1-1H116.4l-1,1v16.2h-4.9V60.3l-1-1
	h-3.4c-1.3,0-2.4-1.1-2.4-2.4V43.2c0-1.3,1.1-2.4,2.4-2.4h130.4c0.7,0,1.4,0.3,1.8,0.8c0.3,0.3,0.6,0.8,0.5,1.5l0,0.1v13.7
	c0,1.3-1.1,2.4-2.4,2.4H233l-1,1v96.1c0,1.3-1.1,2.4-2.4,2.4H112.9z M108.6,46.6v6.9l1,1h123.5l1-1v-6.9l-1-1H109.6L108.6,46.6z"/>
<path class="st4" d="M195.4,114.2c-12.7,0-23-10.3-23-23c0-1.3,1.1-2.4,2.4-2.4H192l1-1V70.6c0-1.3,1.1-2.4,2.4-2.4
	c12.7,0,23,10.3,23,23c0,6.1-2.4,11.9-6.7,16.3c-4.3,4.3-10,6.7-16.1,6.7C195.6,114.2,195.4,114.2,195.4,114.2z M177.5,94.9
	c1.5,7.1,7,12.7,14.1,14.2c1.2,0.2,2.4,0.4,3.7,0.4c8.6,0,16.1-6.1,17.8-14.6c1-4.8,0-9.6-2.6-13.7c-2.7-4.1-6.8-6.8-11.5-7.8
	l-1.2,1v16.9c0,1.3-1.1,2.4-2.4,2.4h-16.8L177.5,94.9z"/>
<rect x="134.6" y="123.1" class="st4" width="4.9" height="4.9"/>
<rect x="148.3" y="123.1" class="st4" width="66.6" height="4.9"/>
<rect x="127.7" y="136.8" class="st4" width="73.5" height="4.9"/>
</svg>
