<?xml version="1.0" encoding="utf-8"?>
<!-- Generator: Adobe Illustrator 24.0.1, SVG Export Plug-In . SVG Version: 6.00 Build 0)  -->
<svg version="1.1" id="Layer_1" xmlns="http://www.w3.org/2000/svg" xmlns:xlink="http://www.w3.org/1999/xlink" x="0px" y="0px"
	 viewBox="0 0 280 280" style="enable-background:new 0 0 280 280;" xml:space="preserve">
<style type="text/css">
	.st0{fill:#434344;}
</style>
<path class="st0" d="M111.9,165.8c-1.5,0-2.8-1.3-2.8-2.8v-22.5c0-1.5,1.3-2.8,2.8-2.8h15c1.5,0,2.8,1.3,2.8,2.8V163
	c0,1.5-1.3,2.8-2.8,2.8H111.9z M114.6,144.3v15l1,1h7.5l1-1v-15l-1-1h-7.5L114.6,144.3z"/>
<path class="st0" d="M111.9,120.8c-1.5,0-2.8-1.2-2.8-2.7V95.5c0-1.5,1.3-2.8,2.8-2.8h15c1.5,0,2.8,1.3,2.8,2.8V118
	c0,1.5-1.3,2.8-2.8,2.8H111.9z M114.6,99.3v15l1,1h7.5l1-1v-15l-1-1h-7.5L114.6,99.3z"/>
<path class="st0" d="M81.9,94.5c-1,0-1.9-0.5-2.4-1.4c-0.4-0.6-0.5-1.3-0.3-1.9c0.2-0.7,0.6-1.4,1.3-1.8l54.3-32.6l0.5-0.9V28
	c0-1.5,1.3-2.8,2.8-2.8h26.3c1.5,0,2.8,1.3,2.8,2.8v15c0,1.5-1.3,2.8-2.8,2.8h-15c-1.5,0-2.8-1.3-2.8-2.8s1.3-2.8,2.8-2.8h11.3l1-1
	v-7.5l-1-1h-18.8l-1,1v24.1l0.5,0.9l54.4,32.7c1.3,0.8,1.7,2.4,0.9,3.8c-0.5,0.8-1.4,1.3-2.3,1.3c-0.5,0-0.9-0.1-1.4-0.4l-54.3-32.6
	h-1L83.3,94.1C82.8,94.4,82.4,94.5,81.9,94.5L81.9,94.5z"/>
<path class="st0" d="M66.9,165.8c-0.8,0-1.5-0.3-2-0.9c-0.5-0.5-0.7-1.1-0.7-1.8l0-18.8l-1-1h-7.5l-1,1v3.7c0,1.5-1.3,2.8-2.8,2.8
	s-2.8-1.3-2.8-2.8v-7.5c0-1.5,1.3-2.8,2.8-2.8h15c1.5,0,2.8,1.3,2.8,2.8V163C69.7,164.5,68.4,165.8,66.9,165.8z"/>
<path class="st0" d="M89.3,218.3c-1.5,0-2.8-1.3-2.8-2.8V106.8c0-1.5,1.3-2.8,2.8-2.8s2.8,1.3,2.8,2.8v108.8
	C92.1,217,90.8,218.3,89.3,218.3z"/>
<path class="st0" d="M74.4,233.3c-1.6,0-2.8-1.2-2.8-2.7c0-1.5,1.3-2.8,2.8-2.8h33.8l1-1v-37.5l-1-1h-3.8c-1.5,0-2.8-1.3-2.8-2.8
	s1.3-2.8,2.8-2.8h67.5c1.5,0,2.8,1.3,2.8,2.8s-1.3,2.8-2.8,2.8h-3.8l-1,1v37.4l1,1h33.8c1.5,0,2.8,1.3,2.8,2.8s-1.3,2.8-2.8,2.8
	H74.4z M114.6,189.3v37.6l1,1h18.8l1-1v-15l-1-1c-1.5,0-2.8-1.3-2.8-2.8s1.3-2.8,2.8-2.8l1-1v-15l-1-1h-18.8L114.6,189.3z
	 M140.9,189.2v15l1,1c1.5,0,2.8,1.3,2.8,2.8s-1.3,2.8-2.8,2.8l-1.1,1v14.9l1,1h18.8l1-1v-37.5l-1-1h-18.7L140.9,189.2z"/>
<path class="st0" d="M209.4,214.7c-1.5,0-2.8-1.3-2.8-2.8v-22.5c0-1.5,1.3-2.8,2.8-2.8h15c1.5,0,2.7,1.2,2.8,2.7l0,22.6
	c0,1.5-1.3,2.8-2.8,2.8H209.4z M212.1,193v15l1,1h7.5l1-1v-15l-1-1h-7.5L212.1,193z"/>
<path class="st0" d="M209.4,169.7c-1.5,0-2.8-1.3-2.8-2.8v-22.5c0-1.5,1.3-2.8,2.8-2.8h15c1.5,0,2.7,1.2,2.8,2.7l0,22.6
	c0,1.5-1.3,2.8-2.8,2.8H209.4z M212.1,148v15l1,1h7.5l1-1v-15l-1-1h-7.5L212.1,148z"/>
<path class="st0" d="M59.4,248.3c-1.5,0-2.8-1.3-2.8-2.8s1.3-2.8,2.8-2.8h157.5c1.5,0,2.8,1.3,2.8,2.8c0,1.5-1.3,2.8-2.8,2.8H59.4z"
	/>
<path class="st0" d="M246.9,248.5c-1.5,0-2.8-1.3-2.8-2.8V122l-1-1h-41.3c-1.5,0-2.8-1.3-2.8-2.8s1.3-2.8,2.8-2.8h41.3l1-1v-3.8
	c0-1.5,1.3-2.8,2.8-2.8c1.5,0,2.7,1.3,2.8,3l0,135C249.7,247.3,248.4,248.5,246.9,248.5z"/>
<path class="st0" d="M149.4,165.8c-1.5,0-2.8-1.3-2.8-2.8v-22.5c0-1.5,1.3-2.8,2.8-2.8h15c1.5,0,2.8,1.3,2.8,2.8V163
	c0,1.5-1.3,2.8-2.8,2.8H149.4z M152.1,144.3v15l1,1h7.5l1-1v-15l-1-1h-7.5L152.1,144.3z"/>
<path class="st0" d="M44.4,248.3c-1.5,0-2.8-1.3-2.8-2.8v-19.1l-0.8-1c-8.2-1.7-14.2-9-14.2-17.4c0-0.5,0.2-47.8,17.7-47.8
	c14.6,0,17.8,34.5,17.8,47.8c0,8.3-5.9,15.6-14.1,17.4l-0.8,1v19.1C47.2,247.1,45.9,248.3,44.4,248.3z M44.4,165.7
	c-7.6,0-12.3,24.6-12.3,42.3c0.1,6.9,5.5,12.3,12.3,12.3c6.7,0,12.2-5.5,12.2-12.2C56.6,190.3,52,165.7,44.4,165.7z"/>
<path class="st0" d="M186.8,218.3c-1.5,0-2.8-1.3-2.8-2.8V103c0-1.5,1.3-2.8,2.8-2.8s2.8,1.3,2.8,2.8v112.5
	C189.6,217,188.3,218.3,186.8,218.3z"/>
<path class="st0" d="M149.4,120.8c-1.5,0-2.8-1.2-2.8-2.7V95.5c0-1.5,1.3-2.8,2.8-2.8h15c1.5,0,2.8,1.3,2.8,2.8V118
	c0,1.5-1.3,2.8-2.8,2.8H149.4z M152.1,99.3v15l1,1h7.5l1-1v-15l-1-1h-7.5L152.1,99.3z"/>
<path class="st0" d="M29.4,154.5c-1.6,0-2.8-1.3-2.9-2.9l0-41.3c0-1.5,1.3-2.8,2.8-2.8s2.8,1.3,2.8,2.8v3.8l1,1h41.4
	c1.5,0,2.8,1.3,2.8,2.8s-1.3,2.8-2.8,2.8H33.2l-1,1v30C32.2,153.3,30.9,154.5,29.4,154.5z"/>
</svg>
