<?xml version="1.0" encoding="utf-8"?>
<!-- Generator: Adobe Illustrator 24.0.1, SVG Export Plug-In . SVG Version: 6.00 Build 0)  -->
<svg version="1.1" id="Layer_1" xmlns="http://www.w3.org/2000/svg" xmlns:xlink="http://www.w3.org/1999/xlink" x="0px" y="0px"
	 viewBox="0 0 338 330" style="enable-background:new 0 0 338 330;" xml:space="preserve">
<style type="text/css">
	.st0{display:none;}
	.st1{display:inline;fill:#2F2C52;}
	.st2{display:inline;}
	.st3{fill:#2F2C52;}
	.st4{display:none;fill:#2F2C52;enable-background:new    ;}
	.st5{font-family:'ArialMT';}
	.st6{font-size:12px;}
	.st7{fill:#434344;}
</style>
<g class="st0">
	<path class="st1" d="M205.9,108.1c-1.5-1.5-3.9-1.5-5.4,0s-1.5,3.9,0,5.4s3.9,1.5,5.4,0c0.7-0.7,1.1-1.7,1.1-2.7
		C207,109.7,206.6,108.8,205.9,108.1z"/>
	<path class="st1" d="M120.1,161.4H89.7c-2.1,0-3.8,1.7-3.8,3.8l0,0v30.5c0,2.1,1.7,3.8,3.8,3.8h30.5c2.1,0,3.8-1.7,3.8-3.8v-30.5
		C123.9,163.1,122.2,161.4,120.1,161.4L120.1,161.4z M116.3,191.9H93.5V169h22.9L116.3,191.9L116.3,191.9z"/>
	<path class="st1" d="M255.6,133.9c-1.4-0.6-3.1-0.3-4.1,0.8l-38.8,38.8l-45.2,45.2l-23.7,23.7c-1.5,1.5-1.5,3.9,0,5.4
		c0.7,0.7,1.7,1.1,2.7,1.1h107.8c2.1,0,3.8-1.7,3.8-3.8V137.4C258,135.9,257.1,134.5,255.6,133.9L255.6,133.9z M250.4,241.4h-94.8
		l14.5-14.5l3.6,3.6c1.5,1.5,3.9,1.4,5.4-0.1c1.4-1.5,1.4-3.8,0-5.3l-3.6-3.6l9.7-9.7l3.6,3.6c1.5,1.5,3.9,1.4,5.4-0.1
		c1.4-1.5,1.4-3.8,0-5.3l-3.6-3.6l9.7-9.7l3.6,3.6c1.5,1.5,3.9,1.5,5.4,0s1.5-3.9,0-5.3l-3.6-3.6l9.7-9.7l3.6,3.6
		c1.5,1.5,3.9,1.5,5.4,0.1c1.5-1.5,1.5-3.9,0.1-5.4l-0.1-0.1l-3.6-3.6l9.7-9.7l3.6,3.6c1.5,1.5,3.9,1.4,5.4-0.1
		c1.4-1.5,1.4-3.8,0-5.3l-3.6-3.6l14.5-14.5L250.4,241.4z"/>
	<path class="st1" d="M236.6,179.9c-1.4-0.6-3.1-0.3-4.1,0.8l-42.8,42.8c-1.5,1.5-1.5,3.9,0,5.4c0.7,0.7,1.7,1.1,2.7,1.1h42.8
		c2.1,0,3.8-1.7,3.8-3.8v-42.8C239,181.8,238,180.5,236.6,179.9L236.6,179.9z M231.3,222.3h-29.8l29.8-29.8V222.3z"/>
	<path class="st1" d="M239.4,110.9c-1-1.1-2.6-1.4-4-0.9l-26,9.5c-0.5,0.2-1,0.5-1.4,0.9l-7.3,7.3l-47.8-47.8
		c-1.5-1.5-3.9-1.5-5.4,0l0,0L90,137.4H76l74.2-74.2l40.7,40.7c1.5,1.5,3.9,1.4,5.4-0.1s1.5-3.9,0-5.3l-43.4-43.4
		c-1.5-1.5-3.9-1.5-5.4,0l-83.4,83.4c-1.5,1.5-1.5,3.9,0,5.4c0.7,0.7,1.7,1.1,2.7,1.1h3.8v100.2c0,2.1,1.7,3.8,3.8,3.8H135
		c2.1,0,3.8-1.6,3.9-3.8c0-2.1-1.6-3.8-3.8-3.9H135H78.2V145h13.4c1,0,2-0.4,2.7-1.1L150.2,88l45,45.1l-56.5,56.5v-34.2h26.7
		c2.1,0,3.8-1.8,3.8-3.9c0-2.1-1.7-3.7-3.8-3.8H135c-2.1,0-3.8,1.7-3.8,3.8v44.2c0,0.4,0.1,0.9,0.2,1.3l-3.4,3.4c-6,6-6,15.8,0,21.9
		c6,6.1,15.8,6,21.9,0l32.1-32.1c1.5-1.5,1.5-3.9,0.1-5.4c-1.5-1.5-3.9-1.5-5.4-0.1l-0.1,0.1L152.3,209l-11.1-11.1l69.6-69.6
		l11.1,11.1L195.3,166c-1.5,1.5-1.4,3.9,0.1,5.4c1.5,1.4,3.8,1.4,5.3,0l29.2-29.2c0.4-0.4,0.7-0.9,0.9-1.4l9.5-26
		C240.8,113.5,240.4,111.9,239.4,110.9L239.4,110.9z M146.9,214.4l-2.4,2.4c-3.1,3.1-8,3.1-11.1,0s-3.1-8,0-11.1l0,0l2.4-2.4
		L146.9,214.4z M225.7,132.5l-8-8l12.6-4.6L225.7,132.5z"/>
	<path class="st1" d="M191.2,175.5c-1.5-1.5-3.9-1.5-5.4,0s-1.5,3.9,0,5.4s3.9,1.5,5.4,0c0.7-0.7,1.1-1.7,1.1-2.7
		C192.3,177.1,191.9,176.2,191.2,175.5z"/>
	<path class="st1" d="M150.2,111.5c-8,0-14.5,6.5-14.5,14.5s6.5,14.5,14.5,14.5s14.5-6.5,14.5-14.5S158.2,111.5,150.2,111.5
		L150.2,111.5z M150.2,132.8c-3.8,0-6.9-3.1-6.9-6.9c0-3.8,3.1-6.9,6.9-6.9c3.8,0,6.9,3.1,6.9,6.9l0,0
		C157.1,129.8,154,132.8,150.2,132.8L150.2,132.8z"/>
</g>
<g class="st0">
	<g class="st2">
		<path class="st3" d="M268.5,92.5c-3.2-3.3-8.5-3.4-11.8-0.2c-0.1,0.1-0.1,0.1-0.2,0.2L121.1,228l-44-44c-3.3-3.2-8.6-3.1-11.8,0.2
			c-3.1,3.2-3.1,8.3,0,11.5l49.9,49.9c3.3,3.3,8.5,3.3,11.8,0l141.4-141.4C271.6,101.1,271.7,95.8,268.5,92.5z"/>
	</g>
</g>
<g class="st0">
	<g class="st2">
		<path class="st3" d="M133.6,138.7c-2.9-4.7-5.2-9.6-6.9-14.8v75.4l24.3-41.6C144.1,152.5,138.2,146.1,133.6,138.7z"/>
	</g>
</g>
<g class="st0">
	<g class="st2">
		<path class="st3" d="M193.5,44.5c-31.4,0-56.9,25.5-56.9,56.9c0,4.4,0.5,8.7,1.5,12.9c0,0.1,0,0.2,0.1,0.3
			c0.1,0.4,0.2,0.9,0.3,1.4c0,0.1,0.1,0.2,0.1,0.3c0.5,2,1.2,3.9,1.9,5.8c0,0.1,0.1,0.2,0.1,0.3c0.2,0.4,0.3,0.8,0.5,1.2
			c0.1,0.1,0.1,0.2,0.2,0.4c0.2,0.4,0.4,0.8,0.5,1.2c0.1,0.1,0.1,0.2,0.1,0.3c0.6,1.3,1.3,2.6,2,3.8c0.1,0.1,0.1,0.2,0.1,0.3
			c0.2,0.4,0.4,0.7,0.6,1c0.1,0.2,0.2,0.3,0.3,0.5c0.2,0.3,0.4,0.6,0.6,1c0.1,0.2,0.2,0.4,0.3,0.5c0.2,0.3,0.4,0.6,0.6,0.9
			c0.1,0.2,0.2,0.3,0.3,0.5c0.4,0.6,0.9,1.2,1.3,1.8c0.1,0.1,0.2,0.3,0.3,0.4c0.2,0.3,0.4,0.5,0.6,0.8c0.2,0.2,0.3,0.4,0.5,0.6
			c0.2,0.3,0.4,0.5,0.6,0.7c0.2,0.2,0.4,0.4,0.6,0.6c0.2,0.2,0.4,0.5,0.6,0.7s0.4,0.5,0.6,0.7c0.2,0.2,0.4,0.4,0.6,0.6
			c0.3,0.3,0.6,0.6,0.9,0.9c0.2,0.2,0.4,0.4,0.7,0.7s0.6,0.6,0.9,0.8c0.2,0.2,0.4,0.3,0.6,0.5c0.3,0.2,0.5,0.5,0.8,0.7
			c0.2,0.2,0.4,0.3,0.6,0.5c0.3,0.2,0.6,0.5,0.9,0.7c0.2,0.1,0.4,0.3,0.6,0.4c0.3,0.3,0.7,0.5,1,0.8c0.1,0.1,0.3,0.2,0.4,0.3
			c0.5,0.4,1,0.7,1.5,1c0.1,0.1,0.3,0.2,0.4,0.3c0.4,0.3,0.7,0.5,1.1,0.7c0.2,0.1,0.4,0.2,0.6,0.4c0.3,0.2,0.7,0.4,1,0.6
			c0.2,0.1,0.4,0.2,0.6,0.4c0.4,0.2,0.7,0.4,1.1,0.6c0.2,0.1,0.3,0.2,0.5,0.3c0.5,0.3,1.1,0.6,1.6,0.9l9.9,15.2l8.5,13.2l1.1,1.7
			c1.3,1.9,3.4,3.1,5.7,3.1s4.5-1.2,5.7-3.1l1.1-1.7l0.6-1l7.8-12.1l10-15.3c0.6-0.3,1.1-0.6,1.6-0.9c0.2-0.1,0.4-0.2,0.5-0.3
			c0.4-0.2,0.7-0.4,1.1-0.6c0.2-0.1,0.4-0.2,0.6-0.4c0.3-0.2,0.7-0.4,1-0.6c0.2-0.1,0.4-0.2,0.6-0.4c0.4-0.2,0.7-0.5,1-0.7
			c0.2-0.1,0.3-0.2,0.5-0.3c0.5-0.3,1-0.7,1.5-1c0.1-0.1,0.3-0.2,0.4-0.3c0.4-0.3,0.7-0.5,1.1-0.8c0.2-0.1,0.4-0.3,0.6-0.5
			c0.3-0.2,0.5-0.4,0.8-0.7c0.2-0.2,0.4-0.4,0.6-0.5c0.3-0.2,0.5-0.4,0.8-0.7c0.2-0.2,0.4-0.4,0.6-0.6c0.3-0.2,0.5-0.5,0.7-0.7
			s0.4-0.4,0.6-0.6c0.4-0.4,0.8-0.8,1.2-1.2c0.2-0.2,0.4-0.5,0.6-0.7c0.2-0.2,0.4-0.4,0.5-0.6c0.2-0.3,0.5-0.5,0.7-0.8
			c0.2-0.2,0.3-0.4,0.5-0.6c0.2-0.3,0.5-0.5,0.7-0.8c0.1-0.2,0.3-0.4,0.4-0.5c0.2-0.3,0.5-0.6,0.7-0.9c0.1-0.1,0.2-0.2,0.3-0.4
			c0.8-1.1,1.6-2.3,2.4-3.5c0.1-0.1,0.1-0.2,0.2-0.3c0.2-0.4,0.5-0.7,0.7-1.1c0.1-0.1,0.1-0.2,0.2-0.3c0.2-0.4,0.5-0.8,0.7-1.2
			c0-0.1,0.1-0.1,0.1-0.2c1-1.8,1.9-3.7,2.7-5.6c0,0,0,0,0-0.1c0.2-0.5,0.4-1,0.6-1.4v-0.1c1.2-3,2.1-6.1,2.7-9.3l0,0
			c0.7-3.6,1.1-7.3,1.1-11.1C250.5,70.1,224.9,44.5,193.5,44.5z M193.5,132.3c-17,0-30.9-13.9-30.9-30.9s13.9-30.9,30.9-30.9
			s30.9,13.9,30.9,30.9C224.5,118.5,210.6,132.3,193.5,132.3z"/>
	</g>
</g>
<g class="st0">
	<g class="st2">
		<path class="st3" d="M270.4,117.7l-7.8-1.9c-1.7,8.1-4.8,15.8-9.2,22.9c-6.3,10.1-14.9,18.4-25.1,24.2l-10.4,16l24.4,29.8h33.2
			v-84.4C275.6,121.2,273.5,118.4,270.4,117.7z"/>
	</g>
</g>
<g class="st0">
	<g class="st2">
		<path class="st3" d="M47,99.5c-2-0.5-4.2,0-5.8,1.3c-1.7,1.3-2.6,3.3-2.6,5.4v66.1H75c1.8,0,3.6,0.7,4.9,2L113,208v-92.3L47,99.5z
			"/>
	</g>
</g>
<g class="st0">
	<g class="st2">
		<path class="st3" d="M176.3,190l-14.5-22.3H161l-34.3,58.9v49.1l60-14.7v-62.8C182.5,196.7,178.8,193.9,176.3,190z"/>
	</g>
</g>
<g class="st0">
	<g class="st2">
		<path class="st3" d="M239.1,222.4c-2,0-4-0.9-5.3-2.5l-23.7-29c-2.5,3.4-5.9,5.9-9.7,7.3v62.4l66.8,16.4c0.5,0.1,1.1,0.2,1.6,0.2
			c1.5,0,3-0.5,4.2-1.5c1.6-1.3,2.6-3.3,2.6-5.4v-47.9L239.1,222.4L239.1,222.4L239.1,222.4z"/>
	</g>
</g>
<g class="st0">
	<g class="st2">
		<path class="st3" d="M72.1,185.9H38.5V252c0,3.1,2.2,5.9,5.2,6.6l69.3,17v-48.2L72.1,185.9z"/>
	</g>
</g>
<g id="Outline" class="st0">
	<path class="st1" d="M171,107.2l5.9-5.9h12.3c1.9,0,3.4,1.5,3.4,3.4V115c0,1.9-1.5,3.4-3.4,3.4h-60.1c-1.9,0-3.4,1.5-3.4,3.3
		l-3.9,109.8l6.9,0.3l3.8-106.5h56.8c5.7,0,10.3-4.6,10.3-10.3v-10.3c0-5.7-4.6-10.3-10.3-10.3h-13.7c-0.9,0-1.8,0.4-2.4,1l-5.9,5.9
		h-42.9c2.1-2.8,3.2-6.2,3.2-9.7V76.8c0-9.2-7.4-16.6-16.6-16.6h-8c-9.2,0-16.6,7.4-16.6,16.6v14.9c0,3.5,1.1,6.9,3.2,9.7H83
		c-9.5,0-17.1,7.7-17.2,17.2v58.3c0,5.7,4.6,10.3,10.3,10.3h7.5l2.8,79.1l6.9-0.3l-2.9-79.6c3.8-1.6,6.3-5.4,6.3-9.5V170
		c0-0.9-0.4-1.8-1-2.4l-5.9-5.9v-32.9h-6.9v34.3c0,0.9,0.4,1.8,1,2.4l5.9,5.9v5.4c0,1.9-1.5,3.4-3.4,3.4H75.9
		c-1.9,0-3.4-1.5-3.4-3.4v-58.3c0-5.7,4.6-10.3,10.3-10.3h85.8C169.5,108.2,170.4,107.9,171,107.2z M102.8,101.4
		c-5.4,0-9.7-4.4-9.7-9.7V76.8c0-5.4,4.4-9.7,9.7-9.7h8c5.4,0,9.7,4.4,9.7,9.7v14.9c0,5.4-4.4,9.7-9.7,9.7H102.8L102.8,101.4z"/>
	<rect x="103.4" y="183.7" class="st1" width="6.9" height="82.4"/>
	<path class="st1" d="M182.3,235.2h-6.6c2.1-2.8,3.2-6.2,3.2-9.7v-14.9c0-9.2-7.4-16.6-16.6-16.6h-8c-9.2,0-16.6,7.4-16.6,16.6v14.9
		c0,3.5,1.1,6.9,3.2,9.7h-6.6c-9.5,0-17.1,7.7-17.2,17.2v13.7h6.9v-13.7c0-5.7,4.6-10.3,10.3-10.3h48.1c5.7,0,10.3,4.6,10.3,10.3
		v13.7h6.9v-13.7C199.5,242.9,191.8,235.2,182.3,235.2z M154.3,235.2c-5.4,0-9.7-4.4-9.7-9.7v-14.9c0-5.4,4.4-9.7,9.7-9.7h8
		c5.4,0,9.7,4.4,9.7,9.7v14.9c0,5.4-4.4,9.7-9.7,9.7H154.3L154.3,235.2z"/>
	<path class="st1" d="M251,235.2h-6.6c2.1-2.8,3.2-6.2,3.2-9.7v-14.9c0-9.2-7.4-16.6-16.6-16.6h-8c-9.2,0-16.6,7.4-16.6,16.6v14.9
		c0,3.5,1.1,6.9,3.2,9.7H203v6.9h48c5.7,0,10.3,4.6,10.3,10.3v13.7h6.9v-13.7C268.1,242.9,260.4,235.2,251,235.2z M222.9,235.2
		c-5.4,0-9.7-4.4-9.7-9.7v-14.9c0-5.4,4.4-9.7,9.7-9.7h8c5.4,0,9.7,4.4,9.7,9.7v14.9c0,5.4-4.4,9.7-9.7,9.7H222.9L222.9,235.2z"/>
	<path class="st1" d="M271.5,56.8H141.1c-1.9,0-3.4,1.5-3.4,3.4v13.7c0,1.9,1.5,3.4,3.4,3.4h3.4v17.2h6.9V77.3h109.8V170H151.4
		v-37.8h-6.9v41.2c0,1.9,1.5,3.4,3.4,3.4h116.7c1.9,0,3.4-1.5,3.4-3.4V77.3h3.4c1.9,0,3.4-1.5,3.4-3.4V60.2
		C275,58.3,273.4,56.8,271.5,56.8z M268.1,70.5H144.6v-6.9h123.5V70.5z"/>
	<path class="st1" d="M254.4,108.2c0-13.3-10.8-24-24-24c-1.9,0-3.4,1.5-3.4,3.4v17.2h-17.2c-1.9,0-3.4,1.5-3.4,3.4
		c0,13.3,10.8,24,24,24C243.6,132.3,254.4,121.5,254.4,108.2z M213.5,111.7h16.8c1.9,0,3.4-1.5,3.4-3.4V91.4
		c9.3,1.9,15.3,11,13.4,20.3c-1.9,9.3-11,15.3-20.3,13.4C220.2,123.7,214.9,118.4,213.5,111.7z"/>
	<rect x="168.6" y="139.1" class="st1" width="6.9" height="6.9"/>
	<rect x="182.3" y="139.1" class="st1" width="68.6" height="6.9"/>
	<rect x="161.7" y="152.8" class="st1" width="75.5" height="6.9"/>
</g>
<g class="st0">
	<ellipse class="st1" cx="175.4" cy="75.7" rx="39.8" ry="39.8"/>
	<path class="st1" d="M204.7,120.8c-8.4,5.5-18.5,8.6-29.2,8.6s-20.8-3.2-29.2-8.6c-9.3,3.6-17.9,8.8-25.4,15.5l54.6,20.5l54.6-20.5
		C222.6,129.6,214,124.3,204.7,120.8L204.7,120.8z"/>
	<path class="st1" d="M259.6,180.9H255c-3.9,0-7,3.1-7,7v18.7c0,3.9,3.1,7,7,7h4.7c9,0,16.4-7.3,16.4-16.4
		C276,188.2,268.7,180.9,259.6,180.9z"/>
	<path class="st1" d="M96.6,145.5c-1.9,1.3-3,3.5-3,5.8v15.6h2.3c11.6,0,21.1,9.4,21.1,21.1v18.7c0,11.6-9.4,21-21.1,21h-2.3v14.8
		c0,2.9,1.8,5.5,4.6,6.6l70.3,26.4V169.2l-65.4-24.5C100.9,143.9,98.5,144.1,96.6,145.5L96.6,145.5z"/>
	<path class="st1" d="M233.9,206.6v-18.7c0-11.6,9.4-21.1,21-21.1h2.3v-15.6c0-2.3-1.1-4.5-3-5.8s-4.3-1.6-6.5-0.8l-65.4,24.5v106.2
		l70.3-26.4c2.7-1,4.5-3.6,4.5-6.6v-14.8H255C243.4,227.7,233.9,218.2,233.9,206.6L233.9,206.6z"/>
	<path class="st1" d="M102.9,206.6v-18.7c0-3.9-3.1-7-7-7h-4.7c-9,0-16.4,7.3-16.4,16.4s7.3,16.4,16.4,16.4h4.7
		C99.8,213.6,102.9,210.5,102.9,206.6z"/>
</g>
<text transform="matrix(1 0 0 1 96.8594 153.022)" class="st4 st5 st6">2f2c52</text>
<path class="st7" d="M137.8,97.5c-2,0-3.6-1.6-3.6-3.6c0-11.7,6.9-22.5,17.5-27.5l0.3-1.4c-2.9-3.1-4.4-7.1-4.4-11.3
	c0-9.4,7.6-17,17-17s17,7.6,17,17c0,4.1-1.5,8-4.4,11.3l0.3,1.4c10.7,5,17.6,15.8,17.6,27.5c0,2-1.6,3.6-3.6,3.6H137.8z M164.6,70.8
	c-11,0-20.6,7.8-22.8,18.6l0.9,1.1h43.8l0.9-1.1C185.2,78.6,175.6,70.8,164.6,70.8z M164.6,43.9c-5.4,0-9.9,4.4-9.9,9.9
	s4.4,9.9,9.9,9.9c5.4,0,9.9-4.4,9.9-9.9S170,43.9,164.6,43.9z"/>
<path class="st7" d="M209.3,128.9c-2,0-3.6-1.6-3.6-3.6c0-11.7,6.9-22.5,17.5-27.5l0.3-1.4c-2.9-3.1-4.4-7.1-4.4-11.3
	c0-9.4,7.6-17,17-17c9.4,0,17,7.6,17,17c0,4.1-1.5,8-4.4,11.3l0.3,1.4c10.7,5,17.6,15.8,17.6,27.5c0,2-1.6,3.6-3.6,3.6H209.3z
	 M236,102c-11,0-20.6,7.8-22.7,18.6l0.9,1.1H258l0.9-1.1C256.6,109.9,247,102,236,102z M236.1,75.3c-5.4,0-9.9,4.4-9.9,9.9
	c0,5.3,4.5,9.9,9.9,9.9c5.4,0,9.9-4.4,9.9-9.9S241.6,75.3,236.1,75.3z"/>
<path class="st7" d="M209.2,271.8c-2,0-3.6-1.6-3.6-3.6c0-11.6,6.9-22.4,17.6-27.5l0.3-1.4c-2.9-3.1-4.4-7.1-4.4-11.3
	c0-9.4,7.6-17,17-17c4.6,0,8.9,1.8,12.1,5c3.2,3.2,4.9,7.5,4.8,12c0,4.1-1.5,8-4.4,11.3l0.3,1.4c10.7,5,17.6,15.8,17.6,27.5
	c0,2-1.6,3.6-3.6,3.6H209.2z M236.1,244.9c-11,0-20.6,7.8-22.8,18.6l0.9,1.1H258l0.9-1.1C256.6,252.7,247.1,244.9,236.1,244.9z
	 M236.1,218.1c-5.4,0-9.9,4.4-9.9,9.9c0,5.4,4.4,9.9,9.9,9.9c5.4,0,9.9-4.4,9.9-9.9C246,222.6,241.6,218.1,236.1,218.1z"/>
<path class="st7" d="M137.8,303c-2,0-3.6-1.6-3.6-3.6c0-11.7,6.9-22.5,17.5-27.5l0.3-1.4c-2.9-3.1-4.4-7.1-4.4-11.3
	c0-9.4,7.6-17,17-17s17,7.6,17,17c0,4.1-1.5,8-4.4,11.3l0.3,1.4c10.7,5,17.6,15.8,17.6,27.5c0,2-1.6,3.6-3.6,3.6H137.8z
	 M164.6,276.2c-11,0-20.6,7.8-22.8,18.6l0.9,1.1h43.8l0.9-1.1C185.2,284.1,175.6,276.2,164.6,276.2z M164.6,249.4
	c-5.4,0-9.9,4.4-9.9,9.9c0,5.4,4.4,9.9,9.9,9.9c5.4,0,9.9-4.4,9.9-9.9C174.5,253.8,170,249.4,164.6,249.4z"/>
<path class="st7" d="M240.4,200.3c-2,0-3.6-1.6-3.6-3.6c0-11.6,6.9-22.4,17.6-27.5l0.3-1.4c-2.9-3.1-4.4-7.1-4.4-11.3
	c0-9.4,7.6-17,17-17c9.4,0,17,7.6,17,17c0,4.1-1.5,8-4.4,11.3l0.3,1.4c10.7,5,17.6,15.8,17.5,27.5c0,2-1.6,3.6-3.6,3.6H240.4z
	 M267.4,173.5c-11,0-20.6,7.8-22.8,18.6l0.9,1.1h43.8l0.9-1.1C288,181.3,278.4,173.5,267.4,173.5z M267.4,146.7
	c-5.4,0-9.9,4.4-9.9,9.9c0,5.4,4.4,9.9,9.9,9.9c5.4,0,9.9-4.4,9.9-9.9C277.2,151.1,272.8,146.7,267.4,146.7z"/>
<path class="st7" d="M66.4,128.9c-2,0-3.6-1.6-3.6-3.6c0-11.7,6.9-22.5,17.5-27.5l0.3-1.4c-2.9-3.1-4.4-7.1-4.4-11.3
	c0-9.4,7.6-17,17-17s17,7.6,17,17c0,4.1-1.5,8-4.4,11.3l0.3,1.4c10.7,5,17.6,15.8,17.6,27.5c0,2-1.6,3.6-3.6,3.6H66.4z M93.2,102
	c-11,0-20.6,7.8-22.8,18.6l0.9,1.1H115l0.9-1.1C113.8,109.9,104.2,102,93.2,102z M93.2,75.3c-5.4,0-9.9,4.4-9.9,9.9
	c0,5.3,4.5,9.9,9.9,9.9c5.4,0,9.9-4.4,9.9-9.9S98.6,75.3,93.2,75.3z"/>
<path class="st7" d="M66.4,271.8c-2,0-3.6-1.6-3.6-3.6c0-11.7,6.9-22.5,17.5-27.5l0.3-1.4c-2.9-3.1-4.4-7.1-4.4-11.3
	c0-9.4,7.6-17,17-17s17,7.6,17,17c0,4.1-1.5,8-4.4,11.3l0.3,1.4c10.7,5,17.6,15.8,17.6,27.5c0,2-1.6,3.6-3.6,3.6H66.4z M93.2,245
	c-11,0-20.6,7.8-22.8,18.6l0.9,1.1H115l0.9-1.1C113.8,252.8,104.2,245,93.2,245z M93.2,218.1c-5.4,0-9.9,4.4-9.9,9.9
	c0,5.4,4.4,9.9,9.9,9.9s9.9-4.4,9.9-9.9C103,222.6,98.6,218.1,93.2,218.1z"/>
<path class="st7" d="M35.1,200.3c-2,0-3.6-1.6-3.6-3.6c0-11.7,6.9-22.5,17.5-27.5l0.3-1.4c-2.9-3.1-4.4-7.1-4.4-11.3
	c0-9.4,7.6-17,17-17s17,7.6,17,17c0,4.1-1.5,8-4.4,11.3l0.3,1.4c10.7,5,17.6,15.8,17.6,27.5c0,2-1.6,3.6-3.6,3.6H35.1z M61.9,173.5
	c-11,0-20.6,7.8-22.8,18.6l0.9,1.1h43.8l0.9-1.1C82.5,181.3,73,173.5,61.9,173.5z M61.9,146.7c-5.4,0-9.9,4.4-9.9,9.9
	c0,5.4,4.4,9.9,9.9,9.9s9.9-4.4,9.9-9.9C71.8,151.1,67.4,146.7,61.9,146.7z"/>
<path class="st7" d="M164.6,218.1c-26.6,0-48.2-21.6-48.2-48.2s21.6-48.2,48.2-48.2c26.6,0,48.2,21.6,48.2,48.2
	S191.2,218.1,164.6,218.1z M164.6,128.8c-22.7,0-41.1,18.4-41.1,41.1s18.4,41.1,41.1,41.1s41.1-18.4,41.1-41.1
	S187.3,128.8,164.6,128.8z"/>
</svg>
