<?xml version="1.0" encoding="utf-8"?>
<!-- Generator: Adobe Illustrator 24.0.1, SVG Export Plug-In . SVG Version: 6.00 Build 0)  -->
<svg version="1.1" id="Layer_1" xmlns="http://www.w3.org/2000/svg" xmlns:xlink="http://www.w3.org/1999/xlink" x="0px" y="0px"
	 viewBox="0 0 360 360" style="enable-background:new 0 0 360 360;" xml:space="preserve">
<style type="text/css">
	.st0{fill:#434344;}
</style>
<g>
	<path class="st0" d="M180.1,180.9c-9.6,0-17.4-7.8-17.4-17.4s7.8-17.4,17.4-17.4c9.6,0,17.4,7.8,17.4,17.4S189.7,180.9,180.1,180.9
		z M180.1,153.3c-5.6,0-10.1,4.5-10.1,10.1s4.5,10.1,10.1,10.1s10.1-4.5,10.1-10.1S185.7,153.3,180.1,153.3z"/>
	<path class="st0" d="M180.1,147c-9.1,0-16.4,7.4-16.4,16.4c0,9.1,7.4,16.4,16.4,16.4c9.1,0,16.4-7.4,16.4-16.4S189.2,147,180.1,147
		z M180.1,174.5c-6.1,0-11.1-5-11.1-11.1c0-6.1,5-11.1,11.1-11.1s11.1,5,11.1,11.1C191.2,169.5,186.2,174.5,180.1,174.5z"/>
	<path class="st0" d="M35.1,287.6c-2,0-3.7-1.6-3.7-3.7c0-1.4,0.8-2.6,2-3.3l0.5-0.1h57.8v-14.1c0-6.6,5.4-12,12-12h8.1v-51.6
		l-12.3,15.7c-0.6,0.8-1.4,1.3-2.4,1.4c-0.2,0-0.3,0-0.4,0c-0.8,0-1.7-0.3-2.3-0.8l-16.3-12.7c-1.6-1.3-1.9-3.6-0.6-5.2l41.8-53.4
		V91.4c0-2,1.7-3.7,3.7-3.7h21.8c2,0,3.7,1.7,3.7,3.7v19.3l28.5-36.4c0.6-0.8,1.7-1.3,2.9-1.3s2.3,0.5,2.9,1.3l99.4,127
		c1.3,1.6,1,3.9-0.6,5.2l-16.3,12.7c-0.7,0.5-1.5,0.8-2.3,0.8c-0.1,0-0.3,0-0.4,0c-1-0.1-1.9-0.6-2.5-1.4l-12.3-15.7v51.6h8.1
		c6.1,0,11.3,4.8,11.9,10.9v15.2h57.8l0.4,0.1c1.3,0.6,2.2,1.9,2.2,3.3c0,2-1.6,3.7-3.7,3.7L35.1,287.6L35.1,287.6z M260.4,280.3
		v-1.5l0,0v-12.3c0-2.6-2.1-4.6-4.6-4.6H103.7c-2.6,0-4.7,2.1-4.7,4.6v13.8H260.4z M240.3,254.4v-61L179.7,116l-60.6,77.4v61h38.5
		l-0.4-1.8c-0.1-0.3-0.1-0.6-0.1-0.8V199c0-2,1.6-3.7,3.7-3.7h37.9c2,0,3.7,1.6,3.7,3.7s-1.6,3.7-3.7,3.7h-34.2v49.2
		c0,0.2,0,0.5-0.1,0.8l-0.4,1.8h31.5l-0.4-1.8c-0.1-0.3-0.1-0.6-0.1-0.8v-33.7c0-2,1.6-3.7,3.7-3.7c2,0,3.7,1.6,3.7,3.7v33.7
		c0,0.3-0.1,0.6-0.1,0.8l-0.4,1.8L240.3,254.4L240.3,254.4z M179.7,106.3c1.1,0,2.2,0.5,2.9,1.4l80.9,103.3l10.5-8.2L179.7,82.5
		L86.4,201.7l-0.9,1.2l10.5,8.2l80.9-103.3C177.5,106.9,178.6,106.3,179.7,106.3z M126.6,138.4L141,120V95.1h-14.4v39l0,0
		C126.5,134.1,126.5,138.4,126.6,138.4z"/>
	<path class="st0" d="M325.4,281.5h-56.3h-2.5V279v-13.6c-0.5-5.6-5.3-10-10.9-10h-6.6h-2.5V253v-45.8v-7.2l4.5,5.7l9.6,12.3
		c0.4,0.6,1.1,0.9,1.8,1c0.1,0,0.2,0,0.3,0c0.6,0,1.2-0.2,1.7-0.6l16.3-12.7c1.2-0.9,1.4-2.6,0.5-3.8l-99.4-127
		c-0.4-0.6-1.2-0.9-2.1-0.9s-1.6,0.3-2.1,0.9l-25.8,33l-4.5,5.7v-7.2V91.4c0-1.5-1.2-2.7-2.7-2.7h-21.8c-1.5,0-2.7,1.2-2.7,2.7v55.9
		v0.9l-0.5,0.7l-41.5,53c-0.9,1.2-0.7,2.8,0.5,3.8l16.3,12.7c0.5,0.4,1.1,0.6,1.7,0.6c0.1,0,0.2,0,0.3,0c0.7-0.1,1.3-0.4,1.8-1
		l9.6-12.3l4.5-5.7v7.2v45.8v2.5h-2.5h-6.6c-6.1,0-11,4.9-11,11v12.3v0.3v2.5h-2.5H33.9c-0.9,0.5-1.5,1.4-1.5,2.4
		c0,1.5,1.2,2.7,2.7,2.7h289.3c1.5,0,2.7-1.2,2.7-2.7C327,282.9,326.4,282,325.4,281.5z M125.6,134.1V96.6v-2.5h2.5h11.4h2.5v2.5v23
		v0.9l-0.5,0.7L130,135.7l-4.5,5.7L125.6,134.1L125.6,134.1z M97.7,210.5l-1.5,2l-2-1.5l-8.1-6.4l-2-1.5l1.5-2l92.1-117.7l2-2.5
		l2,2.5l92.1,117.7l1.5,2l-2,1.5l-8.1,6.4l-2,1.5l-1.5-2l-79.9-102.1c-0.5-0.7-1.3-1-2.1-1c-0.8,0-1.6,0.4-2.1,1L97.7,210.5z
		 M198.6,215.4c-1.5,0-2.7,1.2-2.7,2.7v33.7c0,0.2,0,0.4,0.1,0.6l0.7,3h-3.1h-27.8h-3.1l0.7-3c0-0.2,0.1-0.4,0.1-0.6v-47.7v-2.5h2.5
		h32.7c1.5,0,2.7-1.2,2.7-2.7c0-1.5-1.2-2.7-2.7-2.7h-37.9c-1.5,0-2.7,1.2-2.7,2.7v52.8c0,0.2,0,0.4,0.1,0.6l0.7,3h-3.1h-35.1h-2.5
		V253v-59v-0.9l0.5-0.7l59.1-75.5l2-2.5l2,2.5l59.1,75.5l0.5,0.7v0.9v59v2.5h-2.5h-35.1h-3.1l0.7-3c0-0.2,0.1-0.4,0.1-0.6v-33.7
		C201.3,216.6,200.1,215.4,198.6,215.4z M261.4,278.8v2.5h-2.5H100.5H98v-2.5v-12.3c0-3.1,2.5-5.6,5.7-5.6h152.1
		c3.1,0,5.7,2.5,5.7,5.6V278.8L261.4,278.8z"/>
</g>
</svg>
