<?xml version="1.0" encoding="utf-8"?>
<!-- Generator: Adobe Illustrator 24.0.1, SVG Export Plug-In . SVG Version: 6.00 Build 0)  -->
<svg version="1.1" id="Layer_1" xmlns="http://www.w3.org/2000/svg" xmlns:xlink="http://www.w3.org/1999/xlink" x="0px" y="0px"
	 viewBox="0 0 360 360" style="enable-background:new 0 0 360 360;" xml:space="preserve">
<style type="text/css">
	.st0{fill:#434344;stroke:#434344;stroke-width:2;stroke-miterlimit:10;}
</style>
<g>
	<path class="st0" d="M148.9,288.1c-1,0-1.8-0.7-2-1.7l-8.3-41.3c-0.1-0.6,0-1.1,0.4-1.6c0.3-0.5,0.9-0.8,1.4-0.9l19.6-2.6
		c3.5-0.4,6.6-2.9,7.7-6.3c0.3-0.9,1.1-1.4,2-1.4c0.2,0,0.4,0,0.6,0.1c0.5,0.2,1,0.5,1.2,1s0.3,1.1,0.1,1.6c-1.6,5-6,8.6-11.2,9.1
		l-17.3,2.3l7.9,39.1c0.2,1.1-0.5,2.2-1.6,2.5C149.2,288.1,149,288.1,148.9,288.1z"/>
	<path class="st0" d="M148.9,288.1c-1,0-1.8-0.7-2-1.7l-8.3-41.3c-0.1-0.6,0-1.1,0.4-1.6c0.3-0.5,0.9-0.8,1.4-0.9l19.6-2.6
		c3.5-0.4,6.6-2.9,7.7-6.3c0.3-0.9,1.1-1.4,2-1.4c0.2,0,0.4,0,0.6,0.1c0.5,0.2,1,0.5,1.2,1s0.3,1.1,0.1,1.6c-1.6,5-6,8.6-11.2,9.1
		l-17.3,2.3l7.9,39.1c0.2,1.1-0.5,2.2-1.6,2.5C149.2,288.1,149,288.1,148.9,288.1z"/>
	<path class="st0" d="M99.2,310c-2,0-4-0.6-5.8-1.6l-25.8-15.7c-4.5-2.7-7-7.8-6.4-13l2.1-19.5c0.9-8.8,5.1-17,11.6-23l4.2-3.9
		l-1.9-1.4c-9.4-7.1-15.2-17.9-15.9-29.5c-0.7-10.7,2.8-21.1,9.9-29.1s16.9-12.9,27.6-13.6c0.8-0.1,1.7-0.1,2.6-0.1
		c6.3,0,12.7,1.5,18.3,4.4l0.2,0.1l0.2,0.1c1.2,0.3,2.5,0.5,3.9,0.5c4.6,0,9.7-1.7,15.4-5c0.3-0.2,0.7-0.3,1.1-0.3
		c0.3,0,0.6,0.1,0.8,0.2c0.6,0.3,1.1,0.8,1.2,1.5c0,0,0.7,3.5,0.6,7.7c-0.2,5.8-2,10.5-5.2,13.5c-2.9,2.8-6.8,4.1-11.7,4.1
		c-2.8,0-6-0.4-9.4-1.3c-0.5-0.1-1-0.5-1.3-1c-0.3-0.5-0.4-1-0.2-1.6c0.2-0.9,1.1-1.6,2-1.6c0.2,0,0.3,0,0.5,0.1
		c3.1,0.8,5.9,1.2,8.3,1.2c3.8,0,6.8-1,8.9-3c3.1-3,3.9-7.9,3.9-11.4l0-3l-2.8,1.2c-4.3,1.9-8.4,2.8-12.1,2.8c-0.7,0-1.3,0-1.9-0.1
		l-0.4,0l-0.4,0.1c-0.2,0.1-0.5,0.1-0.7,0.1c-0.4,0-0.7-0.1-1-0.3c-0.3-0.2-0.6-0.3-0.9-0.5l-0.5-0.3l-0.2-0.1
		c-1.6-0.5-2.6-1.1-3-1.4l-0.2-0.1l-0.2-0.1c-4.2-1.7-8.7-2.5-13.3-2.5c-0.8,0-1.5,0-2.3,0.1c-9.6,0.6-18.4,4.9-24.8,12.1
		c-6.4,7.2-9.5,16.5-8.9,26.1c1.2,18.9,17,33.8,35.9,33.8c0.8,0,1.5,0,2.3-0.1c19.8-1.3,34.9-18.4,33.7-38.2
		c-0.1-0.9-0.1-1.7-0.3-2.5c-0.1-1.1,0.6-2.2,1.8-2.3c0.1,0,0.2,0,0.3,0c1,0,1.9,0.8,2.1,1.8c0.1,0.9,0.2,1.9,0.3,2.8
		c0.5,7.6-1.2,15.1-4.9,21.8l-1.8,3.3l18-2l7.1-21c0.3-0.9,1.1-1.4,2-1.4c0.2,0,0.4,0,0.7,0.1c1.1,0.4,1.7,1.6,1.3,2.6l-7.5,22.3
		c-0.3,0.8-0.9,1.3-1.7,1.4l-22.2,2.5c-0.1,0-0.1,0-0.2,0c-0.1,0-0.1,0-0.2,0l-0.9-0.1l-0.6,0.7c-7,7.4-16.5,11.9-26.6,12.5
		c-0.8,0.1-1.7,0.1-2.6,0.1c-6,0-11.8-1.3-17.3-4l-1.2-0.6l-5.2,4.8c-5.8,5.3-9.4,12.6-10.3,20.4l-2.1,19.5c-0.4,3.6,1.3,7.1,4.4,9
		l25.8,15.7c1.1,0.7,2.3,1,3.6,1c2.2,0,4.2-1,5.5-2.7c1.2-1.6,1.7-3.5,1.3-5.5c-0.4-2-1.5-3.6-3.2-4.6l-19.9-12.4
		c-0.7-0.4-1.1-1.2-1-2l2.2-18.9c0.1-1,1-1.8,2.1-1.8c0.1,0,0.2,0,0.3,0c0.6,0.1,1.1,0.3,1.4,0.8s0.5,1,0.4,1.5l-2.1,17.6l18.8,11.7
		c2.7,1.6,4.5,4.4,5.1,7.4c0.6,3.1-0.2,6.3-2.1,8.7C105.8,308.5,102.6,310,99.2,310z"/>
	<path class="st0" d="M99.2,310c-2,0-4-0.6-5.8-1.6l-25.8-15.7c-4.5-2.7-7-7.8-6.4-13l2.1-19.5c0.9-8.8,5.1-17,11.6-23l4.2-3.9
		l-1.9-1.4c-9.4-7.1-15.2-17.9-15.9-29.5c-0.7-10.7,2.8-21.1,9.9-29.1s16.9-12.9,27.6-13.6c0.8-0.1,1.7-0.1,2.6-0.1
		c6.3,0,12.7,1.5,18.3,4.4l0.2,0.1l0.2,0.1c1.2,0.3,2.5,0.5,3.9,0.5c4.6,0,9.7-1.7,15.4-5c0.3-0.2,0.7-0.3,1.1-0.3
		c0.3,0,0.6,0.1,0.8,0.2c0.6,0.3,1.1,0.8,1.2,1.5c0,0,0.7,3.5,0.6,7.7c-0.2,5.8-2,10.5-5.2,13.5c-2.9,2.8-6.8,4.1-11.7,4.1
		c-2.8,0-6-0.4-9.4-1.3c-0.5-0.1-1-0.5-1.3-1c-0.3-0.5-0.4-1-0.2-1.6c0.2-0.9,1.1-1.6,2-1.6c0.2,0,0.3,0,0.5,0.1
		c3.1,0.8,5.9,1.2,8.3,1.2c3.8,0,6.8-1,8.9-3c3.1-3,3.9-7.9,3.9-11.4l0-3l-2.8,1.2c-4.3,1.9-8.4,2.8-12.1,2.8c-0.7,0-1.3,0-1.9-0.1
		l-0.4,0l-0.4,0.1c-0.2,0.1-0.5,0.1-0.7,0.1c-0.4,0-0.7-0.1-1-0.3c-0.3-0.2-0.6-0.3-0.9-0.5l-0.5-0.3l-0.2-0.1
		c-1.6-0.5-2.6-1.1-3-1.4l-0.2-0.1l-0.2-0.1c-4.2-1.7-8.7-2.5-13.3-2.5c-0.8,0-1.5,0-2.3,0.1c-9.6,0.6-18.4,4.9-24.8,12.1
		c-6.4,7.2-9.5,16.5-8.9,26.1c1.2,18.9,17,33.8,35.9,33.8c0.8,0,1.5,0,2.3-0.1c19.8-1.3,34.9-18.4,33.7-38.2
		c-0.1-0.9-0.1-1.7-0.3-2.5c-0.1-1.1,0.6-2.2,1.8-2.3c0.1,0,0.2,0,0.3,0c1,0,1.9,0.8,2.1,1.8c0.1,0.9,0.2,1.9,0.3,2.8
		c0.5,7.6-1.2,15.1-4.9,21.8l-1.8,3.3l18-2l7.1-21c0.3-0.9,1.1-1.4,2-1.4c0.2,0,0.4,0,0.7,0.1c1.1,0.4,1.7,1.6,1.3,2.6l-7.5,22.3
		c-0.3,0.8-0.9,1.3-1.7,1.4l-22.2,2.5c-0.1,0-0.1,0-0.2,0c-0.1,0-0.1,0-0.2,0l-0.9-0.1l-0.6,0.7c-7,7.4-16.5,11.9-26.6,12.5
		c-0.8,0.1-1.7,0.1-2.6,0.1c-6,0-11.8-1.3-17.3-4l-1.2-0.6l-5.2,4.8c-5.8,5.3-9.4,12.6-10.3,20.4l-2.1,19.5c-0.4,3.6,1.3,7.1,4.4,9
		l25.8,15.7c1.1,0.7,2.3,1,3.6,1c2.2,0,4.2-1,5.5-2.7c1.2-1.6,1.7-3.5,1.3-5.5c-0.4-2-1.5-3.6-3.2-4.6l-19.9-12.4
		c-0.7-0.4-1.1-1.2-1-2l2.2-18.9c0.1-1,1-1.8,2.1-1.8c0.1,0,0.2,0,0.3,0c0.6,0.1,1.1,0.3,1.4,0.8s0.5,1,0.4,1.5l-2.1,17.6l18.8,11.7
		c2.7,1.6,4.5,4.4,5.1,7.4c0.6,3.1-0.2,6.3-2.1,8.7C105.8,308.5,102.6,310,99.2,310z"/>
	<path class="st0" d="M262.1,303.7c-0.1,0-0.3,0-0.4,0c-1.1-0.2-1.9-1.3-1.6-2.5l7-34.3l-5.7-4.3c-0.4-0.3-0.7-0.8-0.8-1.4
		c-0.1-0.5,0.1-1.1,0.4-1.5c0.4-0.5,1-0.8,1.7-0.8c0.5,0,0.9,0.1,1.3,0.4l16.7,12.7c1.6,1.3,3.7,2,5.8,2c1.5,0,2.9-0.4,4.2-1
		l26.9-13.8c3.2-1.6,4.6-5.3,3.3-8.7c-0.7-1.9-2.1-3.3-4-4c-0.8-0.3-1.7-0.5-2.5-0.5c-1.1,0-2.1,0.3-3.1,0.7l-21,10.5
		c-0.3,0.1-0.6,0.2-0.9,0.2c-0.5,0-0.9-0.2-1.3-0.5l-21.3-16.9l-1.1,0.4c-4.9,2-10,3-15.2,3c-0.9,0-1.8,0-2.7-0.1
		c-10.1-0.7-19.6-5.1-26.6-12.6l-0.6-0.7l-0.9,0.1c-0.1,0-0.1,0-0.2,0c0,0-0.1,0-0.1,0l-22.2-2.6c-0.8-0.1-1.5-0.6-1.7-1.4
		l-7.5-22.3c-0.6-1.9-2-3.4-3.8-4.1c-0.9-0.4-1.8-0.6-2.8-0.6c-1,0-1.9,0.2-2.8,0.6c-3.2,1.4-4.9,5.1-3.8,8.5l9.3,28.7
		c1.1,3.4,4.1,5.9,7.7,6.3l19.6,2.6c0.6,0.1,1.1,0.4,1.4,0.9s0.5,1.1,0.3,1.6l-8.4,41.2c-0.2,1-1.1,1.7-2,1.7c-0.1,0-0.3,0-0.4,0
		c-0.5-0.1-1-0.4-1.3-0.9c-0.3-0.5-0.4-1-0.3-1.6l8-39l-17.3-2.3c-5.2-0.6-9.6-4.2-11.2-9.2l-9.3-28.7c-1.8-5.4,0.8-11.2,6-13.6
		c1.4-0.6,3-1,4.5-1c1.6,0,3.1,0.3,4.5,0.9c2.9,1.3,5.1,3.7,6.1,6.6l7.1,21l18,2.1l-1.8-3.3c-3.6-6.7-5.3-14.2-4.8-21.8
		c0.1-0.9,0.2-1.9,0.3-2.8c0.1-1,1-1.8,2.1-1.8c0.1,0,0.2,0,0.3,0c0.6,0.1,1,0.4,1.4,0.8c0.3,0.4,0.5,1,0.4,1.5
		c-0.1,0.8-0.2,1.7-0.3,2.5c-0.6,9.6,2.5,18.9,8.8,26.1s15.1,11.6,24.7,12.2c0.8,0.1,1.6,0.1,2.4,0.1l0,0
		c18.9,0,34.7-14.8,35.9-33.6c1.3-19.8-13.7-37-33.5-38.4c-0.9-0.1-1.7-0.1-2.5-0.1c-4.8,0-7.7,1.1-11.3,2.4l-0.1,0
		c-0.6,0.2-1.3,0.5-2,0.7s-1.4,0.6-2.1,0.9c-2.5,1.1-4.6,1.8-7.2,1.8c-3.3,0-7.1-1.1-11.9-3.5l-2.9-1.4l0.1,3.2
		c0.1,3.5,0.8,8.3,3.9,11.3c2.1,2,5.1,3,8.9,3c2.4,0,5.2-0.4,8.3-1.2c0.2,0,0.4-0.1,0.5-0.1c0.9,0,1.8,0.6,2,1.6
		c0.3,1.1-0.4,2.3-1.5,2.5c-3.4,0.9-6.5,1.3-9.3,1.3c-5,0-8.9-1.4-11.8-4.2c-7.5-7.2-4.6-21.1-4.5-21.2c0.1-0.6,0.6-1.2,1.2-1.5
		c0.3-0.1,0.6-0.2,0.8-0.2c0.4,0,0.7,0.1,1.1,0.3c6.9,4.1,11.5,5.9,15.1,5.9c2.4,0,4-0.8,5.5-1.4c0.7-0.3,1.5-0.7,2.4-1
		c0.7-0.3,1.4-0.5,2.1-0.8c3.7-1.4,7.2-2.7,12.8-2.7c0.9,0,1.8,0,2.7,0.1c22.1,1.5,38.9,20.7,37.4,42.8
		c-0.8,12.4-7.2,23.5-17.5,30.5l-2.2,1.5l18.8,14.9l19.9-9.9c1.5-0.8,3.2-1.2,5-1.2c1.4,0,2.7,0.3,4,0.8c2.9,1.1,5.2,3.5,6.3,6.4
		c2,5.3-0.3,11.3-5.3,13.9l-26.9,13.8c-1.9,1-4,1.5-6.1,1.5c-3,0-6-1-8.3-2.9l-7.3-5.5l-6.6,32.3C263.9,303,263.1,303.7,262.1,303.7
		z"/>
	<path class="st0" d="M262.1,303.7c-0.1,0-0.3,0-0.4,0c-1.1-0.2-1.9-1.3-1.6-2.5l7-34.3l-5.7-4.3c-0.4-0.3-0.7-0.8-0.8-1.4
		c-0.1-0.5,0.1-1.1,0.4-1.5c0.4-0.5,1-0.8,1.7-0.8c0.5,0,0.9,0.1,1.3,0.4l16.7,12.7c1.6,1.3,3.7,2,5.8,2c1.5,0,2.9-0.4,4.2-1
		l26.9-13.8c3.2-1.6,4.6-5.3,3.3-8.7c-0.7-1.9-2.1-3.3-4-4c-0.8-0.3-1.7-0.5-2.5-0.5c-1.1,0-2.1,0.3-3.1,0.7l-21,10.5
		c-0.3,0.1-0.6,0.2-0.9,0.2c-0.5,0-0.9-0.2-1.3-0.5l-21.3-16.9l-1.1,0.4c-4.9,2-10,3-15.2,3c-0.9,0-1.8,0-2.7-0.1
		c-10.1-0.7-19.6-5.1-26.6-12.6l-0.6-0.7l-0.9,0.1c-0.1,0-0.1,0-0.2,0c0,0-0.1,0-0.1,0l-22.2-2.6c-0.8-0.1-1.5-0.6-1.7-1.4
		l-7.5-22.3c-0.6-1.9-2-3.4-3.8-4.1c-0.9-0.4-1.8-0.6-2.8-0.6c-1,0-1.9,0.2-2.8,0.6c-3.2,1.4-4.9,5.1-3.8,8.5l9.3,28.7
		c1.1,3.4,4.1,5.9,7.7,6.3l19.6,2.6c0.6,0.1,1.1,0.4,1.4,0.9s0.5,1.1,0.3,1.6l-8.4,41.2c-0.2,1-1.1,1.7-2,1.7c-0.1,0-0.3,0-0.4,0
		c-0.5-0.1-1-0.4-1.3-0.9c-0.3-0.5-0.4-1-0.3-1.6l8-39l-17.3-2.3c-5.2-0.6-9.6-4.2-11.2-9.2l-9.3-28.7c-1.8-5.4,0.8-11.2,6-13.6
		c1.4-0.6,3-1,4.5-1c1.6,0,3.1,0.3,4.5,0.9c2.9,1.3,5.1,3.7,6.1,6.6l7.1,21l18,2.1l-1.8-3.3c-3.6-6.7-5.3-14.2-4.8-21.8
		c0.1-0.9,0.2-1.9,0.3-2.8c0.1-1,1-1.8,2.1-1.8c0.1,0,0.2,0,0.3,0c0.6,0.1,1,0.4,1.4,0.8c0.3,0.4,0.5,1,0.4,1.5
		c-0.1,0.8-0.2,1.7-0.3,2.5c-0.6,9.6,2.5,18.9,8.8,26.1s15.1,11.6,24.7,12.2c0.8,0.1,1.6,0.1,2.4,0.1l0,0
		c18.9,0,34.7-14.8,35.9-33.6c1.3-19.8-13.7-37-33.5-38.4c-0.9-0.1-1.7-0.1-2.5-0.1c-4.8,0-7.7,1.1-11.3,2.4l-0.1,0
		c-0.6,0.2-1.3,0.5-2,0.7s-1.4,0.6-2.1,0.9c-2.5,1.1-4.6,1.8-7.2,1.8c-3.3,0-7.1-1.1-11.9-3.5l-2.9-1.4l0.1,3.2
		c0.1,3.5,0.8,8.3,3.9,11.3c2.1,2,5.1,3,8.9,3c2.4,0,5.2-0.4,8.3-1.2c0.2,0,0.4-0.1,0.5-0.1c0.9,0,1.8,0.6,2,1.6
		c0.3,1.1-0.4,2.3-1.5,2.5c-3.4,0.9-6.5,1.3-9.3,1.3c-5,0-8.9-1.4-11.8-4.2c-7.5-7.2-4.6-21.1-4.5-21.2c0.1-0.6,0.6-1.2,1.2-1.5
		c0.3-0.1,0.6-0.2,0.8-0.2c0.4,0,0.7,0.1,1.1,0.3c6.9,4.1,11.5,5.9,15.1,5.9c2.4,0,4-0.8,5.5-1.4c0.7-0.3,1.5-0.7,2.4-1
		c0.7-0.3,1.4-0.5,2.1-0.8c3.7-1.4,7.2-2.7,12.8-2.7c0.9,0,1.8,0,2.7,0.1c22.1,1.5,38.9,20.7,37.4,42.8
		c-0.8,12.4-7.2,23.5-17.5,30.5l-2.2,1.5l18.8,14.9l19.9-9.9c1.5-0.8,3.2-1.2,5-1.2c1.4,0,2.7,0.3,4,0.8c2.9,1.1,5.2,3.5,6.3,6.4
		c2,5.3-0.3,11.3-5.3,13.9l-26.9,13.8c-1.9,1-4,1.5-6.1,1.5c-3,0-6-1-8.3-2.9l-7.3-5.5l-6.6,32.3C263.9,303,263.1,303.7,262.1,303.7
		z"/>
	<path class="st0" d="M256.3,208.3c-6.6,0-12.5-3.2-15.8-6.3l-0.5-0.5l-0.7,0c-4.7-0.3-8-1.8-9.3-2.4c-0.5-0.3-0.9-0.7-1-1.2
		s-0.1-1.1,0.1-1.6c0.4-0.7,1.1-1.1,1.9-1.1c0.3,0,0.6,0.1,0.9,0.2c0.4,0.2,4.1,2,9,2c5.7,0,10.6-2.5,14.3-7.3
		c0.4-0.5,1-0.8,1.6-0.8c0.5,0,0.9,0.1,1.3,0.4c0.9,0.7,1.1,2,0.4,2.9c-2.3,3-5.1,5.3-8.3,6.8l-4.3,2.1l4.5,1.6c1.9,0.7,3.9,1,5.8,1
		c3.6,0,7.2-1.2,10.5-3.5c0.4-0.3,0.8-0.4,1.2-0.4c0.7,0,1.3,0.3,1.7,0.9c0.3,0.5,0.4,1,0.3,1.6s-0.4,1-0.9,1.3
		C265,206.9,260.7,208.3,256.3,208.3z"/>
	<path class="st0" d="M256.3,208.3c-6.6,0-12.5-3.2-15.8-6.3l-0.5-0.5l-0.7,0c-4.7-0.3-8-1.8-9.3-2.4c-0.5-0.3-0.9-0.7-1-1.2
		s-0.1-1.1,0.1-1.6c0.4-0.7,1.1-1.1,1.9-1.1c0.3,0,0.6,0.1,0.9,0.2c0.4,0.2,4.1,2,9,2c5.7,0,10.6-2.5,14.3-7.3
		c0.4-0.5,1-0.8,1.6-0.8c0.5,0,0.9,0.1,1.3,0.4c0.9,0.7,1.1,2,0.4,2.9c-2.3,3-5.1,5.3-8.3,6.8l-4.3,2.1l4.5,1.6c1.9,0.7,3.9,1,5.8,1
		c3.6,0,7.2-1.2,10.5-3.5c0.4-0.3,0.8-0.4,1.2-0.4c0.7,0,1.3,0.3,1.7,0.9c0.3,0.5,0.4,1,0.3,1.6s-0.4,1-0.9,1.3
		C265,206.9,260.7,208.3,256.3,208.3z"/>
	<path class="st0" d="M89.6,212.4c-0.9,0-1.6-0.5-1.9-1.3c-0.6-1.5-0.6-3.1,0.1-4.6c0.6-1.4,1.8-2.6,3.2-3.2l0.7,6.8
		c0.1,0.9-0.4,1.8-1.3,2.1C90.1,212.3,89.9,212.4,89.6,212.4z M96.8,209.5c-0.7,0-1.3-0.3-1.7-0.8l-4.1-5.4c0.7-0.3,1.4-0.4,2.2-0.4
		c0.8,0,1.6,0.2,2.3,0.5c1.5,0.6,2.6,1.8,3.2,3.3c0.4,1.1-0.1,2.3-1.2,2.7C97.3,209.5,97.1,209.5,96.8,209.5L96.8,209.5z"/>
	<path class="st0" d="M89.6,212.4c-0.9,0-1.6-0.5-1.9-1.3c-0.6-1.5-0.6-3.1,0.1-4.6c0.6-1.4,1.8-2.6,3.2-3.2l0.7,6.8
		c0.1,0.9-0.4,1.8-1.3,2.1C90.1,212.3,89.9,212.4,89.6,212.4z M96.8,209.5c-0.7,0-1.3-0.3-1.7-0.8l-4.1-5.4c0.7-0.3,1.4-0.4,2.2-0.4
		c0.8,0,1.6,0.2,2.3,0.5c1.5,0.6,2.6,1.8,3.2,3.3c0.4,1.1-0.1,2.3-1.2,2.7C97.3,209.5,97.1,209.5,96.8,209.5L96.8,209.5z"/>
	<path class="st0" d="M114.9,202.3c-0.9,0-1.6-0.5-1.9-1.3c-1.2-3,0.3-6.5,3.3-7.7l0.7,6.8c0.1,0.9-0.4,1.8-1.3,2.1
		C115.4,202.2,115.2,202.3,114.9,202.3z M122.1,199.4c-0.6,0-1.3-0.3-1.7-0.8l-4.1-5.4c0.7-0.3,1.4-0.4,2.2-0.4
		c0.8,0,1.6,0.2,2.3,0.5c1.5,0.6,2.6,1.8,3.2,3.3c0.2,0.5,0.2,1.1,0,1.6c-0.2,0.5-0.6,0.9-1.1,1.1
		C122.7,199.4,122.4,199.4,122.1,199.4L122.1,199.4z"/>
	<path class="st0" d="M114.9,202.3c-0.9,0-1.6-0.5-1.9-1.3c-1.2-3,0.3-6.5,3.3-7.7l0.7,6.8c0.1,0.9-0.4,1.8-1.3,2.1
		C115.4,202.2,115.2,202.3,114.9,202.3z M122.1,199.4c-0.6,0-1.3-0.3-1.7-0.8l-4.1-5.4c0.7-0.3,1.4-0.4,2.2-0.4
		c0.8,0,1.6,0.2,2.3,0.5c1.5,0.6,2.6,1.8,3.2,3.3c0.2,0.5,0.2,1.1,0,1.6c-0.2,0.5-0.6,0.9-1.1,1.1
		C122.7,199.4,122.4,199.4,122.1,199.4L122.1,199.4z"/>
	<path class="st0" d="M232.1,215.7c-0.3,0-0.5-0.1-0.8-0.1c-0.8-0.3-1.3-1-1.3-1.8l-0.3-4.2l-3,2.9c-0.4,0.4-0.9,0.6-1.4,0.6l0,0
		c-0.3,0-0.5-0.1-0.8-0.1c-1.1-0.4-1.6-1.6-1.2-2.7c0.6-1.4,1.6-2.6,3-3.2c0.7-0.3,1.5-0.5,2.3-0.5c0.7,0,1.4,0.1,2.1,0.4
		c2.9,1.1,4.4,4.5,3.3,7.4C233.7,215.1,232.9,215.7,232.1,215.7z"/>
	<path class="st0" d="M232.1,215.7c-0.3,0-0.5-0.1-0.8-0.1c-0.8-0.3-1.3-1-1.3-1.8l-0.3-4.2l-3,2.9c-0.4,0.4-0.9,0.6-1.4,0.6l0,0
		c-0.3,0-0.5-0.1-0.8-0.1c-1.1-0.4-1.6-1.6-1.2-2.7c0.6-1.4,1.6-2.6,3-3.2c0.7-0.3,1.5-0.5,2.3-0.5c0.7,0,1.4,0.1,2.1,0.4
		c2.9,1.1,4.4,4.5,3.3,7.4C233.7,215.1,232.9,215.7,232.1,215.7z"/>
	<path class="st0" d="M256.1,225c-0.3,0-0.5-0.1-0.8-0.1c-0.8-0.3-1.3-1-1.3-1.8l-0.3-4.2l-3,2.9c-0.4,0.4-0.9,0.6-1.4,0.6
		c-0.3,0-0.5-0.1-0.8-0.1c-0.5-0.2-0.9-0.6-1.1-1.1c-0.2-0.5-0.2-1.1,0-1.6c0.9-2.2,3-3.7,5.4-3.7c0.7,0,1.4,0.1,2.1,0.4
		c1.4,0.6,2.6,1.6,3.2,3s0.7,3,0.1,4.4C257.7,224.4,256.9,225,256.1,225z"/>
	<path class="st0" d="M256.1,225c-0.3,0-0.5-0.1-0.8-0.1c-0.8-0.3-1.3-1-1.3-1.8l-0.3-4.2l-3,2.9c-0.4,0.4-0.9,0.6-1.4,0.6
		c-0.3,0-0.5-0.1-0.8-0.1c-0.5-0.2-0.9-0.6-1.1-1.1c-0.2-0.5-0.2-1.1,0-1.6c0.9-2.2,3-3.7,5.4-3.7c0.7,0,1.4,0.1,2.1,0.4
		c1.4,0.6,2.6,1.6,3.2,3s0.7,3,0.1,4.4C257.7,224.4,256.9,225,256.1,225z"/>
	<path class="st0" d="M189.9,113c-1.1,0-2.1-0.9-2.1-2.1l0-42.7c0-0.6,0.2-1.1,0.6-1.5s0.9-0.6,1.5-0.6c1.1,0,2.1,0.9,2.1,2.1
		l0,42.7C192,112.1,191,113,189.9,113L189.9,113z"/>
	<path class="st0" d="M189.9,113c-1.1,0-2.1-0.9-2.1-2.1l0-42.7c0-0.6,0.2-1.1,0.6-1.5s0.9-0.6,1.5-0.6c1.1,0,2.1,0.9,2.1,2.1
		l0,42.7C192,112.1,191,113,189.9,113L189.9,113z"/>
	<path class="st0" d="M242.7,122.9c-0.4,0-0.7-0.1-1.1-0.3c-0.5-0.3-0.8-0.7-0.9-1.3c-0.1-0.5-0.1-1.1,0.2-1.6l20.8-35
		c0.4-0.6,1-1,1.8-1c0.4,0,0.7,0.1,1.1,0.3c1,0.6,1.3,1.9,0.7,2.8l-20.8,35C244.1,122.6,243.4,122.9,242.7,122.9z"/>
	<path class="st0" d="M242.7,122.9c-0.4,0-0.7-0.1-1.1-0.3c-0.5-0.3-0.8-0.7-0.9-1.3c-0.1-0.5-0.1-1.1,0.2-1.6l20.8-35
		c0.4-0.6,1-1,1.8-1c0.4,0,0.7,0.1,1.1,0.3c1,0.6,1.3,1.9,0.7,2.8l-20.8,35C244.1,122.6,243.4,122.9,242.7,122.9z"/>
	<path class="st0" d="M289.1,142c-0.6,0-1.1-0.2-1.5-0.7c-0.4-0.4-0.6-0.9-0.5-1.5c0-0.6,0.3-1.1,0.7-1.4l21.7-19.5
		c0.4-0.3,0.9-0.5,1.4-0.5c0.6,0,1.1,0.3,1.5,0.7c0.4,0.4,0.6,0.9,0.5,1.5c0,0.6-0.3,1.1-0.7,1.4l-21.7,19.5
		C290.2,141.8,289.7,142,289.1,142z"/>
	<path class="st0" d="M289.1,142c-0.6,0-1.1-0.2-1.5-0.7c-0.4-0.4-0.6-0.9-0.5-1.5c0-0.6,0.3-1.1,0.7-1.4l21.7-19.5
		c0.4-0.3,0.9-0.5,1.4-0.5c0.6,0,1.1,0.3,1.5,0.7c0.4,0.4,0.6,0.9,0.5,1.5c0,0.6-0.3,1.1-0.7,1.4l-21.7,19.5
		C290.2,141.8,289.7,142,289.1,142z"/>
	<path class="st0" d="M141.3,122.9c-0.7,0-1.4-0.4-1.8-1l-20.8-35c-0.3-0.5-0.4-1-0.2-1.6s0.5-1,0.9-1.3c0.3-0.2,0.7-0.3,1.1-0.3
		c0.7,0,1.4,0.4,1.8,1l20.8,35c0.3,0.5,0.4,1,0.2,1.6s-0.5,1-0.9,1.3C142,122.8,141.7,122.9,141.3,122.9z"/>
	<path class="st0" d="M141.3,122.9c-0.7,0-1.4-0.4-1.8-1l-20.8-35c-0.3-0.5-0.4-1-0.2-1.6s0.5-1,0.9-1.3c0.3-0.2,0.7-0.3,1.1-0.3
		c0.7,0,1.4,0.4,1.8,1l20.8,35c0.3,0.5,0.4,1,0.2,1.6s-0.5,1-0.9,1.3C142,122.8,141.7,122.9,141.3,122.9z"/>
	<path class="st0" d="M94.8,142c-0.5,0-1-0.2-1.4-0.5L71.8,122c-0.8-0.8-0.9-2.1-0.2-2.9c0.4-0.4,0.9-0.7,1.6-0.7
		c0.5,0,1,0.2,1.4,0.5l21.7,19.5c0.8,0.8,0.9,2.1,0.2,2.9C96,141.7,95.4,142,94.8,142z"/>
	<path class="st0" d="M94.8,142c-0.5,0-1-0.2-1.4-0.5L71.8,122c-0.8-0.8-0.9-2.1-0.2-2.9c0.4-0.4,0.9-0.7,1.6-0.7
		c0.5,0,1,0.2,1.4,0.5l21.7,19.5c0.8,0.8,0.9,2.1,0.2,2.9C96,141.7,95.4,142,94.8,142z"/>
	<path class="st0" d="M109.4,225.2c-3.3,0-6.5-1.4-8.7-3.9c-0.8-0.9-0.7-2.2,0.2-2.9c0.4-0.3,0.9-0.5,1.4-0.5c0.6,0,1.2,0.3,1.6,0.7
		c1.4,1.6,3.4,2.5,5.6,2.5c0.9,0,1.8-0.2,2.7-0.5c2.9-1.1,4.8-3.9,4.8-7.1c0-1.1,0.9-2.1,2.1-2.1l0,0c1.2,0,2.1,0.9,2.1,2.1
		c0.1,4.8-2.9,9.3-7.4,11C112.2,224.9,110.8,225.2,109.4,225.2L109.4,225.2z"/>
	<path class="st0" d="M109.4,225.2c-3.3,0-6.5-1.4-8.7-3.9c-0.8-0.9-0.7-2.2,0.2-2.9c0.4-0.3,0.9-0.5,1.4-0.5c0.6,0,1.2,0.3,1.6,0.7
		c1.4,1.6,3.4,2.5,5.6,2.5c0.9,0,1.8-0.2,2.7-0.5c2.9-1.1,4.8-3.9,4.8-7.1c0-1.1,0.9-2.1,2.1-2.1l0,0c1.2,0,2.1,0.9,2.1,2.1
		c0.1,4.8-2.9,9.3-7.4,11C112.2,224.9,110.8,225.2,109.4,225.2L109.4,225.2z"/>
</g>
</svg>
