<?xml version="1.0" encoding="utf-8"?>
<!-- Generator: Adobe Illustrator 24.0.1, SVG Export Plug-In . SVG Version: 6.00 Build 0)  -->
<svg version="1.1" id="Layer_1" xmlns="http://www.w3.org/2000/svg" xmlns:xlink="http://www.w3.org/1999/xlink" x="0px" y="0px"
	 viewBox="0 0 360 360" style="enable-background:new 0 0 360 360;" xml:space="preserve">
<style type="text/css">
	.st0{fill:#434344;}
</style>
<g>
	<path class="st0" d="M178.4,223.9v-1.6l6.5-5.3l1.6,0.8v1.9h16.8l-7.7-12.5l0.3-1.4l4.2-2.6l1.4,0.3l8.4,13.6
		c1.2,2,1.3,4.4,0.1,6.5c-1,1.8-2.8,2.9-4.8,2.9h-18.6v1.9l-1.6,0.8L178.4,223.9z"/>
	<path class="st0" d="M204.9,220.3c0.1,0.1,0.1,0.3,0,0.4h-19.4v-2.9l-6.5,5.3l6.5,5.3v-2.9h19.6c1.6,0,3.1-0.9,4-2.4
		c0.9-1.7,0.9-3.8-0.1-5.5l-8.4-13.6l-4.2,2.6L204.9,220.3z"/>
	<path class="st0" d="M156.7,226.6c-2,0-3.8-1.1-4.9-2.9c-1.1-2-1.1-4.5,0.1-6.5l9.3-15l-1.6-1l0.2-1.8l8.1-2.8l1.3,0.8l1.1,8.5
		l-1.5,1l-1.7-1.1l-8.6,13.9h16.4l1,1v4.9l-1,1L156.7,226.6L156.7,226.6z"/>
	<path class="st0" d="M156.7,225.6h18.3v-4.9h-18c0-0.1,0-0.3,0-0.4l9.8-15.8l2.6,1.6l-1.1-8.5l-8.1,2.8l2.4,1.5l-9.8,15.8
		c-1,1.7-1.1,3.8-0.1,5.5C153.5,224.7,155,225.6,156.7,225.6z"/>
	<path class="st0" d="M188.1,200.5l-0.2-1.8l1.7-1.1l-8.7-14.1l-8,12.9l-1.4,0.3l-4.2-2.6l-0.3-1.4l9.2-14.8c1-1.7,2.8-2.7,4.7-2.7
		s3.7,1,4.7,2.7l9.8,15.9l1.8-1.1l1.5,1l-1,8.8l-1.3,0.8L188.1,200.5z"/>
	<path class="st0" d="M180.9,181.6l10.1,16.3l-2.6,1.6l8.4,2.8l1-8.8l-2.6,1.7l-10.4-16.7c-0.9-1.4-2.3-2.2-3.9-2.2s-3,0.8-3.9,2.2
		l-9.2,14.8l4.2,2.6L180.9,181.6z"/>
	<path class="st0" d="M211.3,286.6c-7.2,0-13.1-5.9-13.1-13.1V269h-38.8c-1.7,9.8-10.2,17-20.1,17c-11.3,0-20.4-9.2-20.4-20.4
		c0-8,4.7-15.3,12-18.6l-9-93.9h-7c-1.9,0-3.4-1.6-3.4-3.4v-28.6c0-2.6,1.2-5,3.2-6.7c2.8-6.2,8.1-10.9,14.5-13l83.2-26.6
		c2.4-0.8,4.9-1.2,7.3-1.2c3.8,0,7.6,0.9,11,2.7c5.7,2.9,9.9,7.9,11.9,14c0.3,0.9,0.2,1.8-0.2,2.6s-1.1,1.4-2,1.7l-97,31.1h101.9
		c1.9,0,3.4,1.5,3.5,3.4v20.6c0,1.9-1.6,3.4-3.4,3.4H240l-10.8,112.8c-0.2,1.8-1.6,3.1-3.4,3.1h-1.4v4.4
		C224.4,280.7,218.5,286.6,211.3,286.6z M138,252.1c-7,0.7-12.2,6.5-12.2,13.5c0,7.5,6.1,13.5,13.5,13.5s13.5-6.1,13.5-13.5
		s-6.1-13.5-13.5-13.5C138.9,252.1,138.4,252.1,138,252.1L138,252.1z M206.2,273.5c0,2.8,2.3,5.1,5.1,5.1c2.8,0,5.1-2.3,5.1-5.1l0,0
		V269h-10.2V273.5z M222.6,262.1l10.5-109h-90.9l4.5,40l-0.9,1.1l-4.9,0.6l-1.1-0.9l-4.6-40.8h-6.6l8.9,92.1c0,0,0.1,0,0.1,0
		c0.5,0,1.1-0.1,1.6-0.1c0.6,0,1.3,0,2,0.1c0.1,0,0.3,0,0.4,0.1l0.2,0c0.4,0.1,0.9,0.1,1.3,0.2c0.2,0,0.4,0.1,0.6,0.1l0.4,0.1
		c0.3,0.1,0.6,0.1,0.9,0.2c0.2,0.1,0.8,0.3,0.8,0.3c0.4,0.1,0.7,0.3,1.1,0.4c0.2,0.1,0.4,0.2,0.6,0.3l0.1,0.1c0.3,0.1,0.6,0.3,1,0.5
		c0.3,0.1,0.5,0.3,0.7,0.4c0.3,0.2,0.6,0.4,0.9,0.6c0.2,0.1,0.5,0.3,0.7,0.5c0.3,0.2,0.6,0.4,0.8,0.6c0.2,0.2,0.4,0.4,0.6,0.5
		c0.3,0.3,0.6,0.5,0.8,0.7c0.2,0.2,0.4,0.4,0.6,0.5c0.2,0.2,0.4,0.4,0.6,0.7l0.1,0.1c0.2,0.2,0.3,0.4,0.5,0.6
		c0.3,0.3,0.5,0.6,0.7,0.9l0.1,0.1c0.1,0.1,0.2,0.3,0.3,0.4c0.2,0.4,0.5,0.7,0.7,1.1c0.1,0.1,0.2,0.3,0.3,0.5
		c0.6,1.1,1.1,2.3,1.5,3.5c0,0.1,0.1,0.5,0.1,0.5c0.1,0.5,0.3,0.9,0.4,1.4c0,0.1,0.1,0.3,0.1,0.5l0.1,0.3L222.6,262.1L222.6,262.1z
		 M134.9,146.3v-24.8c0-1.2-0.9-2.1-2.1-2.1H120c-0.2,0-0.3,0-0.6,0.1c-0.1,0-0.2,0.1-0.3,0.1c-0.6,0.3-0.9,0.9-0.9,1.5v25.2H134.9z
		 M241.7,146.2v-13.7h-99.9v13.7H241.7z M133.1,112.4c4,0,7.4,2.8,8.4,6.6l93-29.8c-1.6-2.9-4.1-5.3-7.1-6.8
		c-2.4-1.3-5.1-1.9-7.8-1.9c-1.8,0-3.5,0.3-5.2,0.8l-83.2,26.6c-2.8,0.9-5.2,2.4-7.2,4.5L133.1,112.4L133.1,112.4z"/>
	<path class="st0" d="M245.2,126.7H140.8v-1.3L240,93.7c1.3-0.4,2-1.8,1.6-3.1c-1.9-5.8-5.9-10.6-11.4-13.4
		c-5.5-2.8-11.7-3.3-17.5-1.5l-83.2,26.6c-6.3,2-11.4,6.6-14,12.7c-1.8,1.4-3,3.6-3,6.1v28.6c0,1.4,1.1,2.4,2.4,2.4h7.9l9.2,95.5
		c-7.1,2.9-12,9.9-12,18c0,10.7,8.7,19.4,19.4,19.4c9.9,0,18.1-7.4,19.3-17h40.6v5.4c0,6.7,5.4,12.1,12.1,12.1s12.1-5.4,12.1-12.1
		V268h2.4c1.3,0,2.3-1,2.4-2.2l10.9-113.7h6c1.4,0,2.4-1.1,2.4-2.4v-20.6C247.6,127.8,246.5,126.7,245.2,126.7z M130.9,107
		l83.2-26.6c4.6-1.5,9.5-1.1,13.8,1.2c3.6,1.8,6.4,4.7,8.1,8.3l-95.2,30.5c0,0,0,0,0,0c-0.4-3.8-3.6-6.9-7.6-6.9h-0.3h-10.9
		C124.2,110.4,127.3,108.2,130.9,107z M117.3,121.1c0-1.1,0.6-2,1.5-2.4c0.1-0.1,0.2-0.1,0.4-0.2c0.3-0.1,0.6-0.2,0.9-0.2
		c0,0,0,0,0,0h12.8c1.7,0,3.1,1.4,3.1,3.1v2.2v5.5v18.1h-11h-7.7C117.3,147.3,117.3,121.1,117.3,121.1z M139.3,280.1
		c-8,0-14.5-6.5-14.5-14.5c0-7.5,5.8-13.8,13.1-14.5c0,0,0,0,0,0c0.4,0,0.9-0.1,1.4-0.1c8,0,14.5,6.5,14.5,14.5
		S147.3,280.1,139.3,280.1z M217.4,273.5c0,3.4-2.7,6.1-6.1,6.1s-6.1-2.7-6.1-6.1V268h12.2L217.4,273.5L217.4,273.5z M223.5,263.1
		h-64.9c0-0.3-0.1-0.6-0.2-0.9c0-0.2-0.1-0.5-0.1-0.7c-0.1-0.4-0.2-0.9-0.3-1.3c-0.1-0.2-0.1-0.4-0.1-0.5c-0.4-1.2-0.9-2.3-1.4-3.4
		c-0.1-0.1-0.2-0.3-0.3-0.4c-0.2-0.4-0.4-0.8-0.7-1.1c-0.1-0.2-0.3-0.4-0.4-0.5c-0.2-0.3-0.4-0.6-0.7-0.9c-0.1-0.2-0.3-0.4-0.5-0.6
		c-0.2-0.3-0.5-0.5-0.7-0.8c-0.2-0.2-0.4-0.4-0.6-0.5c-0.3-0.2-0.5-0.5-0.8-0.7c-0.2-0.2-0.4-0.3-0.6-0.5c-0.3-0.2-0.5-0.4-0.8-0.6
		c-0.2-0.1-0.4-0.3-0.6-0.4c-0.3-0.2-0.6-0.4-0.9-0.5c-0.2-0.1-0.5-0.3-0.7-0.4c-0.3-0.2-0.6-0.3-0.9-0.4c-0.2-0.1-0.5-0.2-0.7-0.3
		c-0.3-0.1-0.7-0.3-1-0.4c-0.2-0.1-0.5-0.2-0.7-0.3c-0.4-0.1-0.7-0.2-1.1-0.3c-0.2-0.1-0.5-0.1-0.7-0.2c-0.4-0.1-0.8-0.1-1.2-0.2
		c-0.2,0-0.4-0.1-0.6-0.1c-0.6-0.1-1.3-0.1-1.9-0.1c-0.5,0-1.1,0-1.6,0.1c-0.3,0-0.7-0.1-1-0.1l-9.1-94h8.6l4.7,41.7l4.9-0.6
		l-4.6-41.1h93.1L223.5,263.1z M242.7,147.2h-5.8h-96.1v-15.7h101.9V147.2z"/>
	<polygon class="st0" points="197.8,142.9 196.8,141.9 196.8,137 197.8,136 229.4,136 230.4,137 230.4,141.9 229.4,142.9 	"/>
	<rect x="197.8" y="137" class="st0" width="31.6" height="4.9"/>
</g>
</svg>
