<?xml version="1.0" encoding="utf-8"?>
<!-- Generator: Adobe Illustrator 24.0.1, SVG Export Plug-In . SVG Version: 6.00 Build 0)  -->
<svg version="1.1" id="Layer_1" xmlns="http://www.w3.org/2000/svg" xmlns:xlink="http://www.w3.org/1999/xlink" x="0px" y="0px"
	 viewBox="0 0 360 360" style="enable-background:new 0 0 360 360;" xml:space="preserve">
<style type="text/css">
	.st0{display:none;}
	.st1{display:inline;}
	.st2{fill:#434344;}
</style>
<g class="st0">
	<path class="st1" d="M339.5,293.9h-10.8v-17.8c0-1.7-1.4-3-3-3h-3.5v-48.2V105.6c0-25.2-20.5-45.6-45.6-45.6H83.6
		C58.4,60,38,80.4,38,105.6v12.9c0,1.7,1.4,3.1,3,3.1h17.3v19.2c0,1.7,1.4,3.1,3,3.1h16.3v22.1c0,1.7,1.4,3.1,3.1,3.1h8.2v8.3
		c0,5,3.4,9.1,7.9,10.5v34.1H57.3c-10.6,0-19.3,8.7-19.3,19.3v31.9h-3.5c-1.7,0-3,1.4-3,3v17.8H20.5c-1.7,0-3,1.4-3,3s1.4,3,3,3
		h13.9h291.2h13.9c1.7,0,3-1.4,3-3C342.5,295.3,341.1,293.9,339.5,293.9z M44,115.4v-2.3v-7.5c0-21.8,17.7-39.5,39.5-39.5h192.9
		c21.8,0,39.5,17.7,39.5,39.5v113.9v2.3h-2.3H205.3H203v-2.3v-53.2c0-28.1-22.9-51-51-51h-13.6H61.3h-15L44,115.4L44,115.4z
		 M64.4,137.7v-2.3v-11.6v-2.3h2.3h66.4h2.3v2.3v11.6v2.3h-2.3h-14H80.7h-14H64.4z M83.7,162.9v-2.3v-14.5v-2.3H86h27.7h2.3v2.3
		v14.5v2.3h-2.3h-5.9H92H86H83.7z M95,177.3v-6V169h2.3h5.1h2.3v2.3v6c0,2.7-2.2,4.9-4.9,4.9C97.2,182.1,95,180,95,177.3z
		 M102.9,187.8c4.6-1.3,7.9-5.5,7.9-10.5V169h8.2c1.7,0,3.1-1.4,3.1-3.1v-22.1h16.3c1.7,0,3.1-1.4,3.1-3.1v-19.2h10.6
		c24.7,0,44.9,20.1,44.9,44.9v55.4h-94L102.9,187.8L102.9,187.8z M44,270.8v-29.6c0-7.3,5.9-13.2,13.2-13.2H200h113.7h2.3v2.3v40.5
		v2.3h-2.3H152.9v-15.4v-2.3h2.3h138.1c1.7,0,3-1.4,3-3.1c0-1.7-1.4-3.1-3-3.1H149.9c-1.7,0-3.1,1.4-3.1,3.1v20.8H46.3H44V270.8z
		 M320.2,293.9H39.8h-2.3v-2.3v-10.1v-2.3h2.3H41h278h1.2h2.3v2.3v10.1v2.3H320.2z"/>
	<path class="st1" d="M256.8,177.1c22.8,0,41.4-18.6,41.4-41.4s-18.6-41.4-41.4-41.4c-22.8,0-41.4,18.6-41.4,41.4
		C215.4,158.5,234,177.1,256.8,177.1z M256.8,100.4c19.5,0,35.3,15.8,35.3,35.3S276.3,171,256.8,171c-19.5,0-35.3-15.8-35.3-35.3
		C221.5,116.2,237.4,100.4,256.8,100.4z"/>
	<path class="st1" d="M256.8,152.6c1.7,0,3-1.4,3-3.1c0-1.7-1.4-3.1-3-3.1c-6,0-10.8-4.9-10.8-10.8s4.9-10.8,10.8-10.8
		s10.8,4.9,10.8,10.8c0,1.7,1.4,3.1,3,3.1s3-1.4,3-3.1c0-9.3-7.6-16.9-16.9-16.9c-9.3,0-16.9,7.6-16.9,16.9
		C239.9,145,247.5,152.6,256.8,152.6z"/>
	<path class="st1" d="M244.4,194.3h-18.6c-1.7,0-3.1,1.4-3.1,3.1c0,1.7,1.4,3.1,3.1,3.1h18.6c1.7,0,3.1-1.4,3.1-3.1
		C247.4,195.6,246.1,194.3,244.4,194.3z"/>
	<path class="st1" d="M266.6,197.3c0,1.7,1.4,3.1,3,3.1h29c1.7,0,3-1.4,3-3.1c0-1.7-1.4-3.1-3-3.1h-29
		C268,194.3,266.6,195.6,266.6,197.3z"/>
</g>
<g>
	<path class="st2" d="M161.5,188.5c4.9,4.2,10.9,6.3,16.8,6.3s11.9-2.1,16.9-6.3c1.3-1.1,1.4-3,0.4-4.3c-1.1-1.3-3-1.4-4.3-0.4
		c-7.6,6.4-18.3,6.4-25.8,0c-1.3-1.1-3.2-0.9-4.3,0.4C160.1,185.5,160.2,187.4,161.5,188.5L161.5,188.5z"/>
	<path class="st2" d="M161.5,188.5c4.9,4.2,10.9,6.3,16.8,6.3s11.9-2.1,16.9-6.3c1.3-1.1,1.4-3,0.4-4.3c-1.1-1.3-3-1.4-4.3-0.4
		c-7.6,6.4-18.3,6.4-25.8,0c-1.3-1.1-3.2-0.9-4.3,0.4C160.1,185.5,160.2,187.4,161.5,188.5L161.5,188.5z"/>
	<path class="st2" d="M202.5,172.4c1.7,0,3.1-1.4,3.1-3.1v-6.1c0-1.7-1.4-3.1-3.1-3.1s-3.1,1.4-3.1,3.1v6.1
		C199.5,171.1,200.9,172.4,202.5,172.4z"/>
	<path class="st2" d="M202.5,172.4c1.7,0,3.1-1.4,3.1-3.1v-6.1c0-1.7-1.4-3.1-3.1-3.1s-3.1,1.4-3.1,3.1v6.1
		C199.5,171.1,200.9,172.4,202.5,172.4z"/>
	<path class="st2" d="M154.2,172.4c1.7,0,3.1-1.4,3.1-3.1v-6.1c0-1.7-1.4-3.1-3.1-3.1c-1.7,0-3.1,1.4-3.1,3.1v6.1
		C151.1,171.1,152.5,172.4,154.2,172.4z"/>
	<path class="st2" d="M154.2,172.4c1.7,0,3.1-1.4,3.1-3.1v-6.1c0-1.7-1.4-3.1-3.1-3.1c-1.7,0-3.1,1.4-3.1,3.1v6.1
		C151.1,171.1,152.5,172.4,154.2,172.4z"/>
	<path class="st2" d="M258.5,145.9c-1.8-6.4-1.8-12.8,0-19.2c0.5-1.9-0.1-4-1.6-5.3c-1.5-1.3-3.7-1.5-5.5-0.7c-4,2-7.2,3.9-10,5.8
		c-3.5-31.7-30.4-56.5-63-56.5c-35,0-63.4,28.4-63.4,63.4v3.1c0,1,0.3,1.9,0.8,2.6c-0.5,1.6-0.8,3.2-0.8,4.9c0,2,0.4,4,1.1,5.8
		c-4.5,2.7-7.6,7.6-7.6,13.3c0,5.1,2.5,9.6,6.3,12.4c-1.7,3.1-2.6,6.7-2.6,10.3c0,5.3,1.9,10.3,5.4,14.3c0.3,0.4,0.3,1,0,1.4
		c-4.3,4.8-6.6,10.9-6.6,17.3c0,5.7,1.8,11.1,5.2,15.6c-8.1,6.5-13.3,16.5-13.3,27.7v4.9c0,6.2,5,11.2,11.2,11.2h104.5
		c1.7,0,3.1-1.4,3.1-3s-1.4-3-3.1-3h-13.2v-10.2h9.1c5,0,9.1-4.1,9.1-9.1v-19.7c13.8,2.4,24.4,14.5,24.4,29v4.9
		c0,2.8-2.3,5.1-5.1,5.1h-10.2c-1.7,0-3.1,1.4-3.1,3s1.4,3,3.1,3h10.2c6.2,0,11.2-5,11.2-11.2v-4.9c0-11.2-5.2-21.2-13.3-27.8
		c3.4-4.5,5.2-9.9,5.2-15.6c0-6.4-2.3-12.5-6.6-17.3c-0.3-0.4-0.3-1,0-1.4c3.5-3.9,5.4-9,5.4-14.3c0-3.7-0.9-7.2-2.6-10.3
		c3.8-2.8,6.3-7.3,6.3-12.4c0-5.6-3.1-10.6-7.6-13.3c0.5-1.3,0.8-2.6,1-4c3.7,2.8,7.2,4.7,9.8,5.9c0.7,0.3,1.5,0.5,2.2,0.5
		c1.2,0,2.4-0.4,3.3-1.2C258.5,149.9,259.1,147.9,258.5,145.9L258.5,145.9z M121,133.6c0-31.6,25.7-57.3,57.3-57.3
		s57.3,25.7,57.3,57.3v2H157c-1.7,0-3.1,1.4-3.1,3.1c0,1.7,1.4,3.1,3.1,3.1h53.9v1c0,6.2,5,11.2,11.2,11.2h1v13.8
		c0,24.7-20.1,44.7-44.7,44.7s-44.7-20.1-44.7-44.7v-13.8h1c6.2,0,11.2-5,11.2-11.2v-4.1c0-1.7-1.4-3.1-3.1-3.1H121L121,133.6
		L121,133.6z M198.1,232.8h7.1v11H196c-5,0-9.1,4.1-9.1,9.1v5.7c-5.7,2.1-11.4,2.1-17.1,0v-5.7c0-5-4.1-9.1-9.1-9.1h-9.1v-11h7.1
		c2.8,0,5.1-2.3,5.1-5.1v-11.3c4.6,1.4,9.6,2.1,14.6,2.1s10-0.8,14.6-2.1v11.3C193,230.5,195.3,232.8,198.1,232.8z M153.8,256h-11.4
		c-1.7,0-3.1-1.4-3.1-3.1v-20.1h6.1V246c0,2.1,1.7,3.9,3.9,3.9h11.4c1.7,0,3.1,1.4,3.1,3.1v7.7v0v11.6h-6.1v-12.4
		C157.6,257.7,155.9,256,153.8,256z M169.8,265c2.8,0.8,5.7,1.3,8.5,1.3s5.7-0.4,8.5-1.3v7.2h-17.1L169.8,265L169.8,265z M121,144.2
		c0-0.8,0.1-1.6,0.3-2.4h18.4v1c0,2.8-2.3,5.1-5.1,5.1h-10.8c-0.7,0-1.4,0.1-2.1,0.1C121.3,146.8,121,145.5,121,144.2z M123.9,153.9
		h3.7v6.3h-3.9c-1.7,0-3.1,1.4-3.1,3.1s1.4,3.1,3.1,3.1h3.9v1.4c0,1.6,0.1,3.3,0.2,4.9h-3.9c-5.2,0-9.3-4.2-9.3-9.4
		S118.7,153.9,123.9,153.9z M117,218.9c0-4.9,1.8-9.6,5-13.2c2.4-2.7,2.4-6.8,0-9.4c-2.5-2.8-3.9-6.4-3.9-10.2
		c0-2.8,0.7-5.4,2.1-7.8c1.2,0.3,2.4,0.4,3.6,0.4h4.9c3.5,15.8,14.4,28.9,28.9,35.4v12.6h-19.3c-6.2,0-12.1,1.6-17.2,4.4
		C118.4,227.6,117,223.4,117,218.9L117,218.9z M108.8,267.1v-4.9c0-14.5,10.6-26.6,24.4-29v19.7c0,5,4.1,9.1,9.1,9.1h9.1v10.2h-37.6
		C111.1,272.2,108.8,269.9,108.8,267.1z M214.3,256h-11.4c-2.1,0-3.9,1.7-3.9,3.9v12.4H193v-11.6v0v-7.7c0-1.7,1.4-3.1,3.1-3.1h11.4
		c2.1,0,3.9-1.7,3.9-3.9v-13.2h6.1v20.1C217.4,254.6,216,256,214.3,256z M238.5,186c0,3.8-1.4,7.4-3.9,10.2c-2.4,2.7-2.4,6.8,0,9.4
		c3.3,3.6,5,8.3,5,13.2c0,4.4-1.5,8.7-4.2,12.2c-5.1-2.8-10.9-4.4-17.2-4.4h-19.3v-12.6c14.5-6.5,25.4-19.6,28.9-35.4h4.9
		c1.3,0,2.5-0.1,3.6-0.4C237.8,180.6,238.5,183.3,238.5,186L238.5,186z M232.8,172.6h-3.9c0.1-1.6,0.2-3.2,0.2-4.9v-1.4h3.9
		c1.7,0,3.1-1.4,3.1-3.1s-1.4-3.1-3.1-3.1h-3.9v-6.3h3.7c5.2,0,9.4,4.2,9.4,9.4S238,172.6,232.8,172.6z M232.8,147.8h-10.8
		c-2.8,0-5.1-2.3-5.1-5.1v-1h18.4c0.2,0.8,0.3,1.6,0.3,2.4c0,1.3-0.3,2.6-0.8,3.8C234.2,147.9,233.5,147.8,232.8,147.8L232.8,147.8z
		 M241.9,138.3c-0.1-0.1-0.2-0.2-0.3-0.3c0.1-0.4,0.2-0.9,0.2-1.3v-2.4c0,0,0.1-0.1,0.1-0.1c2.6-2.4,5.8-4.6,10.2-6.8
		c-1.4,6-1.3,12.1,0,18.1C249.2,143.8,245.5,141.5,241.9,138.3L241.9,138.3z"/>
	<path class="st2" d="M258.5,145.9c-1.8-6.4-1.8-12.8,0-19.2c0.5-1.9-0.1-4-1.6-5.3c-1.5-1.3-3.7-1.5-5.5-0.7c-4,2-7.2,3.9-10,5.8
		c-3.5-31.7-30.4-56.5-63-56.5c-35,0-63.4,28.4-63.4,63.4v3.1c0,1,0.3,1.9,0.8,2.6c-0.5,1.6-0.8,3.2-0.8,4.9c0,2,0.4,4,1.1,5.8
		c-4.5,2.7-7.6,7.6-7.6,13.3c0,5.1,2.5,9.6,6.3,12.4c-1.7,3.1-2.6,6.7-2.6,10.3c0,5.3,1.9,10.3,5.4,14.3c0.3,0.4,0.3,1,0,1.4
		c-4.3,4.8-6.6,10.9-6.6,17.3c0,5.7,1.8,11.1,5.2,15.6c-8.1,6.5-13.3,16.5-13.3,27.7v4.9c0,6.2,5,11.2,11.2,11.2h104.5
		c1.7,0,3.1-1.4,3.1-3s-1.4-3-3.1-3h-13.2v-10.2h9.1c5,0,9.1-4.1,9.1-9.1v-19.7c13.8,2.4,24.4,14.5,24.4,29v4.9
		c0,2.8-2.3,5.1-5.1,5.1h-10.2c-1.7,0-3.1,1.4-3.1,3s1.4,3,3.1,3h10.2c6.2,0,11.2-5,11.2-11.2v-4.9c0-11.2-5.2-21.2-13.3-27.8
		c3.4-4.5,5.2-9.9,5.2-15.6c0-6.4-2.3-12.5-6.6-17.3c-0.3-0.4-0.3-1,0-1.4c3.5-3.9,5.4-9,5.4-14.3c0-3.7-0.9-7.2-2.6-10.3
		c3.8-2.8,6.3-7.3,6.3-12.4c0-5.6-3.1-10.6-7.6-13.3c0.5-1.3,0.8-2.6,1-4c3.7,2.8,7.2,4.7,9.8,5.9c0.7,0.3,1.5,0.5,2.2,0.5
		c1.2,0,2.4-0.4,3.3-1.2C258.5,149.9,259.1,147.9,258.5,145.9L258.5,145.9z M121,133.6c0-31.6,25.7-57.3,57.3-57.3
		s57.3,25.7,57.3,57.3v2H157c-1.7,0-3.1,1.4-3.1,3.1c0,1.7,1.4,3.1,3.1,3.1h53.9v1c0,6.2,5,11.2,11.2,11.2h1v13.8
		c0,24.7-20.1,44.7-44.7,44.7s-44.7-20.1-44.7-44.7v-13.8h1c6.2,0,11.2-5,11.2-11.2v-4.1c0-1.7-1.4-3.1-3.1-3.1H121L121,133.6
		L121,133.6z M198.1,232.8h7.1v11H196c-5,0-9.1,4.1-9.1,9.1v5.7c-5.7,2.1-11.4,2.1-17.1,0v-5.7c0-5-4.1-9.1-9.1-9.1h-9.1v-11h7.1
		c2.8,0,5.1-2.3,5.1-5.1v-11.3c4.6,1.4,9.6,2.1,14.6,2.1s10-0.8,14.6-2.1v11.3C193,230.5,195.3,232.8,198.1,232.8z M153.8,256h-11.4
		c-1.7,0-3.1-1.4-3.1-3.1v-20.1h6.1V246c0,2.1,1.7,3.9,3.9,3.9h11.4c1.7,0,3.1,1.4,3.1,3.1v7.7v0v11.6h-6.1v-12.4
		C157.6,257.7,155.9,256,153.8,256z M169.8,265c2.8,0.8,5.7,1.3,8.5,1.3s5.7-0.4,8.5-1.3v7.2h-17.1L169.8,265L169.8,265z M121,144.2
		c0-0.8,0.1-1.6,0.3-2.4h18.4v1c0,2.8-2.3,5.1-5.1,5.1h-10.8c-0.7,0-1.4,0.1-2.1,0.1C121.3,146.8,121,145.5,121,144.2z M123.9,153.9
		h3.7v6.3h-3.9c-1.7,0-3.1,1.4-3.1,3.1s1.4,3.1,3.1,3.1h3.9v1.4c0,1.6,0.1,3.3,0.2,4.9h-3.9c-5.2,0-9.3-4.2-9.3-9.4
		S118.7,153.9,123.9,153.9z M117,218.9c0-4.9,1.8-9.6,5-13.2c2.4-2.7,2.4-6.8,0-9.4c-2.5-2.8-3.9-6.4-3.9-10.2
		c0-2.8,0.7-5.4,2.1-7.8c1.2,0.3,2.4,0.4,3.6,0.4h4.9c3.5,15.8,14.4,28.9,28.9,35.4v12.6h-19.3c-6.2,0-12.1,1.6-17.2,4.4
		C118.4,227.6,117,223.4,117,218.9L117,218.9z M108.8,267.1v-4.9c0-14.5,10.6-26.6,24.4-29v19.7c0,5,4.1,9.1,9.1,9.1h9.1v10.2h-37.6
		C111.1,272.2,108.8,269.9,108.8,267.1z M214.3,256h-11.4c-2.1,0-3.9,1.7-3.9,3.9v12.4H193v-11.6v0v-7.7c0-1.7,1.4-3.1,3.1-3.1h11.4
		c2.1,0,3.9-1.7,3.9-3.9v-13.2h6.1v20.1C217.4,254.6,216,256,214.3,256z M238.5,186c0,3.8-1.4,7.4-3.9,10.2c-2.4,2.7-2.4,6.8,0,9.4
		c3.3,3.6,5,8.3,5,13.2c0,4.4-1.5,8.7-4.2,12.2c-5.1-2.8-10.9-4.4-17.2-4.4h-19.3v-12.6c14.5-6.5,25.4-19.6,28.9-35.4h4.9
		c1.3,0,2.5-0.1,3.6-0.4C237.8,180.6,238.5,183.3,238.5,186L238.5,186z M232.8,172.6h-3.9c0.1-1.6,0.2-3.2,0.2-4.9v-1.4h3.9
		c1.7,0,3.1-1.4,3.1-3.1s-1.4-3.1-3.1-3.1h-3.9v-6.3h3.7c5.2,0,9.4,4.2,9.4,9.4S238,172.6,232.8,172.6z M232.8,147.8h-10.8
		c-2.8,0-5.1-2.3-5.1-5.1v-1h18.4c0.2,0.8,0.3,1.6,0.3,2.4c0,1.3-0.3,2.6-0.8,3.8C234.2,147.9,233.5,147.8,232.8,147.8L232.8,147.8z
		 M241.9,138.3c-0.1-0.1-0.2-0.2-0.3-0.3c0.1-0.4,0.2-0.9,0.2-1.3v-2.4c0,0,0.1-0.1,0.1-0.1c2.6-2.4,5.8-4.6,10.2-6.8
		c-1.4,6-1.3,12.1,0,18.1C249.2,143.8,245.5,141.5,241.9,138.3L241.9,138.3z"/>
</g>
</svg>
