<?xml version="1.0" encoding="utf-8"?>
<!-- Generator: Adobe Illustrator 24.0.1, SVG Export Plug-In . SVG Version: 6.00 Build 0)  -->
<svg version="1.1" id="Layer_1" xmlns="http://www.w3.org/2000/svg" xmlns:xlink="http://www.w3.org/1999/xlink" x="0px" y="0px"
	 viewBox="0 0 360 360" style="enable-background:new 0 0 360 360;" xml:space="preserve">
<style type="text/css">
	.st0{fill:#434344;}
</style>
<g>
	<path class="st0" d="M112.4,201.1c-1.7,0-3.1-1.4-3.1-3.1v-16.2c0-17.6,14.3-32,32-32c7.2,0,14.1,2.4,19.8,6.8c1.3,1,1.6,3,0.5,4.3
		c-1,1.3-3,1.6-4.3,0.5c-4.6-3.6-10.1-5.5-16-5.5c-14.3,0-25.8,11.6-25.8,25.9v16.2C115.4,199.8,114.1,201.1,112.4,201.1z"/>
	<path class="st0" d="M141.3,145.9c-9.3,0-16.8-7.5-16.8-16.8s7.5-16.8,16.8-16.8s16.8,7.5,16.8,16.8
		C158.1,138.4,150.6,145.9,141.3,145.9z M141.3,118.4c-5.9,0-10.7,4.8-10.7,10.7s4.8,10.7,10.7,10.7c5.9,0,10.7-4.8,10.7-10.7
		C152,123.2,147.2,118.4,141.3,118.4z"/>
	<path class="st0" d="M127.5,185.5c-1.7,0-3.1-1.4-3.1-3.1v-5c0-1.7,1.4-3.1,3.1-3.1s3.1,1.4,3.1,3.1v5
		C130.6,184.1,129.2,185.5,127.5,185.5z"/>
	<path class="st0" d="M252.7,201.1c-1.7,0-3.1-1.4-3.1-3.1v-16.2c0-14.3-11.6-25.9-25.8-25.9c-5.9,0-11.4,1.9-16,5.5
		c-1.3,1-3.3,0.8-4.3-0.5c-1-1.3-0.8-3.3,0.5-4.3c5.7-4.5,12.5-6.8,19.7-6.8c17.6,0,31.9,14.3,31.9,32v16.2
		C255.8,199.8,254.4,201.1,252.7,201.1z"/>
	<path class="st0" d="M223.8,145.9c-9.3,0-16.8-7.5-16.8-16.8s7.5-16.8,16.8-16.8s16.8,7.5,16.8,16.8
		C240.6,138.4,233.1,145.9,223.8,145.9z M223.8,118.4c-5.9,0-10.7,4.8-10.7,10.7s4.8,10.7,10.7,10.7s10.7-4.8,10.7-10.7
		C234.5,123.2,229.7,118.4,223.8,118.4z"/>
	<path class="st0" d="M237.5,185.5c-1.7,0-3.1-1.4-3.1-3.1v-5c0-1.7,1.4-3.1,3.1-3.1s3.1,1.4,3.1,3.1v5
		C240.6,184.1,239.2,185.5,237.5,185.5z"/>
	<path class="st0" d="M160.9,148.3c-0.7,0-1.4-0.3-2-0.8c-1.3-1.1-1.4-3.1-0.3-4.3c6-6.7,14.4-10.4,23.9-10.4
		c8.5,0,17,3.8,23.2,10.3c1.2,1.2,1.1,3.2-0.1,4.3c-1.2,1.2-3.2,1.1-4.3-0.1c-5.1-5.3-11.9-8.4-18.8-8.4c-7.7,0-14.5,3-19.3,8.3
		C162.6,148,161.8,148.3,160.9,148.3z"/>
	<path class="st0" d="M182.5,128.8c-9.3,0-16.8-7.5-16.8-16.8s7.5-16.8,16.8-16.8s16.8,7.5,16.8,16.8S191.8,128.8,182.5,128.8z
		 M182.5,101.3c-5.9,0-10.7,4.8-10.7,10.7c0,5.9,4.8,10.7,10.7,10.7c5.9,0,10.7-4.8,10.7-10.7C193.2,106.1,188.4,101.3,182.5,101.3z
		"/>
	<path class="st0" d="M182.5,300.1c-37.1,0-67.2-30.1-67.2-67.2c0-37.1,30.1-67.2,67.2-67.2c37.1,0,67.2,30.1,67.2,67.2
		C249.8,270,219.6,300.1,182.5,300.1z M182.5,171.8c-33.7,0-61.1,27.4-61.1,61.1c0,33.7,27.4,61.1,61.1,61.1s61.1-27.4,61.1-61.1
		C243.6,199.3,216.2,171.8,182.5,171.8z"/>
	<path class="st0" d="M182.8,300.1c-21,0-37.4-29.5-37.4-67.2s16.4-67.2,37.4-67.2s37.4,29.5,37.4,67.2
		C220.2,270.6,203.8,300.1,182.8,300.1z M182.8,171.8c-17,0-31.3,28-31.3,61.1s14.3,61.1,31.3,61.1s31.3-28,31.3-61.1
		S199.8,171.8,182.8,171.8z"/>
	<path class="st0" d="M182.5,270.4c-37.7,0-67.2-16.4-67.2-37.4s29.5-37.4,67.2-37.4c37.7,0,67.2,16.4,67.2,37.4
		S220.2,270.4,182.5,270.4z M182.5,201.6c-33.1,0-61.1,14.3-61.1,31.3s28,31.3,61.1,31.3c33.1,0,61.1-14.3,61.1-31.3
		C243.6,216,215.7,201.6,182.5,201.6z"/>
	<path class="st0" d="M182.5,300.1c-1.7,0-3.1-1.4-3.1-3.1V168.8c0-1.7,1.4-3.1,3.1-3.1c1.7,0,3.1,1.4,3.1,3.1v128.3
		C185.6,298.8,184.2,300.1,182.5,300.1z"/>
	<path class="st0" d="M246.7,236H118.4c-1.7,0-3.1-1.4-3.1-3.1c0-1.7,1.4-3.1,3.1-3.1h128.3c1.7,0,3.1,1.4,3.1,3.1
		C249.8,234.6,248.4,236,246.7,236z"/>
	<path class="st0" d="M260.4,300.1H105.1c-1.7,0-3.1-1.4-3.1-3.1s1.4-3.1,3.1-3.1h155.3c1.7,0,3,1.4,3,3.1S262.1,300.1,260.4,300.1z
		"/>
</g>
</svg>
