<?xml version="1.0" encoding="utf-8"?>
<!-- Generator: Adobe Illustrator 24.0.1, SVG Export Plug-In . SVG Version: 6.00 Build 0)  -->
<svg version="1.1" id="Layer_1" xmlns="http://www.w3.org/2000/svg" xmlns:xlink="http://www.w3.org/1999/xlink" x="0px" y="0px"
	 viewBox="0 0 512 512" style="enable-background:new 0 0 512 512;" xml:space="preserve">
<style type="text/css">
	.st0{fill:#FFFFFF;}
</style>
<path class="st0" d="M132.8,239.9c-2.7,7.2-0.6,15.3,5.3,20.2c11.1,11.1,33.8,51.1,45.1,79.2c7.7,19.2,24.6,38.1,37.4,50.5
	c5.5,5.4,8.6,12.8,8.6,20.6v2.1c0,9.6,7.8,17.4,17.4,17.4h92.8c9.6,0,17.4-7.8,17.4-17.4v-17.8c-0.1-1.5,0.5-2.9,1.5-3.9
	c21.4-19.6,21.6-52.2,21.6-53.6v-91.8c0.2-12.4-9.1-22.9-21.5-24.1c-4.6-0.3-9.3,0.8-13.3,3.2v-9c0-8.4-4.4-16.1-11.7-20.2
	c-7.3-4.1-16.2-4-23.3,0.4c-0.7-7.8-5.4-14.7-12.4-18.3c-7-3.6-15.3-3.3-22.1,0.7v-9.6c14.4-8.2,23.3-23.5,23.2-40
	c0-25.6-20.8-46.4-46.4-46.4s-46.4,20.8-46.4,46.4c-0.1,16.5,8.8,31.8,23.2,40v93.4c0.2,6.8-0.8,13.7-2.8,20.2
	c-0.6,1.9-2.2,3.4-4.2,3.9c-1.9,0.5-3.8,0-5.2-1.4c-4.5-4.3-8.6-9.1-12-14.4c-10.1-15.1-35.4-43.2-51.2-43.2
	C144.8,226.9,136.6,231.9,132.8,239.9z M217.5,128.5c0-19.2,15.6-34.8,34.8-34.8s34.8,15.6,34.8,34.8c0.1,9.9-4.2,19.4-11.6,26v-26
	c0-12.8-10.4-23.2-23.2-23.2s-23.2,10.4-23.2,23.2v26C221.7,147.9,217.5,138.4,217.5,128.5z M195.3,276.7c3.9,6,8.5,11.5,13.7,16.4
	c4.3,4,10.3,5.6,16,4.2c5.8-1.4,10.5-5.8,12.4-11.4c2.4-7.7,3.5-15.8,3.4-23.9V128.5c0-6.4,5.2-11.6,11.6-11.6s11.6,5.2,11.6,11.6
	v121.8c0,3.2,2.6,5.8,5.8,5.8c3.2,0,5.8-2.6,5.8-5.8v-52.2c0-6.4,5.2-11.6,11.6-11.6c6.4,0,11.6,5.2,11.6,11.6v52.2
	c0,3.2,2.6,5.8,5.8,5.8c3.2,0,5.8-2.6,5.8-5.8v-34.8c0-6.4,5.2-11.6,11.6-11.6s11.6,5.2,11.6,11.6v40.6c0,3.2,2.6,5.8,5.8,5.8
	c3.2,0,5.8-2.6,5.8-5.8v-11.6c0-3.1,1.2-6,3.4-8.2c2.4-2.4,5.7-3.6,9-3.4c6.3,0.8,10.9,6.2,10.7,12.5v91.8c0,0.3-0.3,29-17.9,45.1
	c-3.4,3.2-5.4,7.8-5.3,12.5v17.8c0,3.2-2.6,5.8-5.8,5.8h-92.8c-3.2,0-5.8-2.6-5.8-5.8v-2.1c0-10.9-4.4-21.3-12.1-28.9
	c-9.8-9.5-27.4-28.3-34.7-46.5c-11.9-29.8-35.5-71-47.7-83.1c-2.8-2.8-3.7-5.3-2.7-7.6c2.1-3.6,6-5.8,10.2-5.7
	C161.6,238.7,183,258.2,195.3,276.7z"/>
<path class="st0" d="M350.9,331.4c3.2,0,5.8-2.6,5.8-5.8v-34.8c0-3.2-2.6-5.8-5.8-5.8c-3.2,0-5.8,2.6-5.8,5.8v34.8
	C345.1,328.8,347.7,331.4,350.9,331.4z"/>
<path class="st0" d="M345.1,366.2c1.5,0,3-0.6,4.1-1.7c4.4-4.1,7.1-9.7,7.5-15.7c0-3.1-2.5-5.7-5.7-5.7c-3.2-0.1-5.8,2.4-5.9,5.6
	c-0.4,2.9-1.9,5.6-4.1,7.6c-1.7,1.7-2.2,4.2-1.3,6.3C340.6,364.8,342.7,366.2,345.1,366.2z"/>
<path class="st0" d="M258.1,406.8h5.8c3.2,0,5.8-2.6,5.8-5.8c0-3.2-2.6-5.8-5.8-5.8h-5.8c-3.2,0-5.8,2.6-5.8,5.8
	C252.3,404.2,254.9,406.8,258.1,406.8z"/>
<path class="st0" d="M287.1,406.8h40.6c3.2,0,5.8-2.6,5.8-5.8c0-3.2-2.6-5.8-5.8-5.8h-40.6c-3.2,0-5.8,2.6-5.8,5.8
	C281.3,404.2,283.9,406.8,287.1,406.8z"/>
<path class="st0" d="M205.9,178c2.3,0,4.4-1.4,5.3-3.5c0.9-2.1,0.5-4.6-1.1-6.3c-20.1-21.2-21.2-54.1-2.5-76.6
	c1.4-1.6,1.8-3.8,1.1-5.8c-0.7-2-2.5-3.4-4.5-3.7c-2.1-0.3-4.2,0.5-5.5,2.1c-22.4,27-21.1,66.5,3,92
	C202.8,177.3,204.3,178,205.9,178z"/>
<path class="st0" d="M306.4,162.6c1.4,0.7,3,0.8,4.4,0.4c1.5-0.5,2.7-1.5,3.4-2.9c12.7-24.7,9.4-54.5-8.3-75.9
	c-1.3-1.7-3.4-2.5-5.5-2.1c-2.1,0.3-3.8,1.8-4.5,3.7c-0.7,2-0.3,4.2,1.1,5.8c14.8,17.8,17.5,42.7,6.9,63.2
	C302.4,157.7,303.6,161.2,306.4,162.6z"/>
</svg>
