<?xml version="1.0" encoding="utf-8"?>
<!-- Generator: Adobe Illustrator 24.0.1, SVG Export Plug-In . SVG Version: 6.00 Build 0)  -->
<svg version="1.1" id="Capa_1" xmlns="http://www.w3.org/2000/svg" xmlns:xlink="http://www.w3.org/1999/xlink" x="0px" y="0px"
	 viewBox="0 0 512 512" style="enable-background:new 0 0 512 512;" xml:space="preserve">
<style type="text/css">
	.st0{fill:#14B6CB;}
</style>
<g>
	<g>
		<path class="st0" d="M384.4,183.1h-15.7c-2.3,0-4.3,1.5-5,3.8l-5.2,18h-23v-35c0-3.1,2.6-5.7,5.7-5.7h11.6c5.4,0,9.7,4.3,9.7,9.7
			c0,2.9,2.3,5.2,5.2,5.2h11.2c2.9,0,5.2-2.3,5.2-5.2v-13.4c0-21.1-17.1-38.1-38.1-38.1h-41.5c-2.3,0-4.3,1.5-5,3.8l-0.6,2h-1.4
			l-1.9-3.2c-1-1.6-2.7-2.6-4.5-2.6h-17.7c-2.9,0-5.2,2.3-5.2,5.2v36.5c0,2.9,2.3,5.2,5.2,5.2h17.7c1.9,0,3.5-1,4.5-2.6l1.9-3.2h0.8
			l1,6.8v34.6h-16.5v-2.2c0-0.9-0.2-1.9-0.7-2.7l-16.7-28.7c-1-1.6-2.7-2.6-4.5-2.6s-3.5,1-4.5,2.6l-16.7,28.7
			c-0.5,0.8-0.7,1.7-0.7,2.7v2.2H227l12.7-76.4c0.2-1.5-0.2-3.1-1.1-4.3c-1-1.2-2.4-1.9-3.9-1.9h-64.1c-2.9,0-5.2,2.3-5.2,5.2v77.3
			h-11.7l-5.2-18c-0.6-2.3-2.7-3.8-5-3.8h-15.8c-2.9,0-5.2,2.3-5.2,5.2v196.1c0,2.9,2.3,5.2,5.2,5.2h256.7c2.9,0,5.2-2.3,5.2-5.2
			V188.3C389.6,185.4,387.3,183.1,384.4,183.1z M355.4,215.3l-11.3,38.6h-2.6v-29.2c0-3.5-1.2-6.8-3.3-9.4H355.4z M294.4,153.1
			c-1.9,0-3.5,1-4.5,2.6l-1.9,3.2h-9.5v-26h9.5l1.9,3.2c1,1.6,2.7,2.6,4.5,2.6h8.3c2.3,0,4.3-1.5,5-3.8l0.6-2h37.7
			c15.3,0,27.8,12.5,27.8,27.8v8.1h-1.4c-2.3-8.6-10.1-15-19.5-15h-11.6c-7.1,0-13,4.6-15.2,10.9h-17l-1-7.1
			c-0.4-2.6-2.6-4.4-5.2-4.4C302.7,153.1,294.4,153.1,294.4,153.1z M326.4,220c2.6,0,4.7,2.1,4.7,4.7v29.2h-27.6v-29.2
			c0-2.6,2.1-4.7,4.7-4.7H326.4z M309.6,209.6V175h15.5v34.5L309.6,209.6L309.6,209.6z M282.6,215.3h13.7c-2,2.6-3.3,5.9-3.3,9.4
			v29.2h-10.4V215.3z M260.7,184.3l7.6,13.1H253L260.7,184.3z M249.2,207.9h22.9v46h-22.9V207.9z M238.8,215.3v38.6h-20l6.4-38.6
			H238.8z M194.9,132.9h14.2l-2,12.6h-12.2V132.9z M175.6,132.9h8.9v17.7c0,2.9,2.3,5.2,5.2,5.2h22c2.6,0,4.7-1.9,5.2-4.4l3-18.5
			h8.7l-6,35.9h-46.8v-35.9H175.6z M175.6,179.1h45.1l-12.5,74.8h-32.6V179.1z M165.2,215.3v29.5l-8.6-29.4L165.2,215.3L165.2,215.3
			z M379.1,316.5h-77.3c-2.9,0-5.2,2.3-5.2,5.2c0,2.9,2.3,5.2,5.2,5.2h77.3v31.3h-90.5c-2.9,0-5.2,2.3-5.2,5.2
			c0,2.9,2.3,5.2,5.2,5.2h90.5v10.5H132.9V193.5h6.5l5.3,18.1l0,0l14.3,48.9c0.6,2.3,2.7,3.8,5,3.8h184.1c2.3,0,4.3-1.5,5-3.8
			l19.6-67h6.5L379.1,316.5L379.1,316.5z"/>
	</g>
</g>
<g>
	<g>
		<path class="st0" d="M152.2,359.8c-1-1-2.3-1.5-3.7-1.5c-1.4,0-2.7,0.6-3.7,1.5c-1,1-1.5,2.3-1.5,3.7s0.6,2.7,1.5,3.7
			s2.3,1.5,3.7,1.5c1.4,0,2.7-0.6,3.7-1.5c1-1,1.5-2.3,1.5-3.7S153.1,360.8,152.2,359.8z"/>
	</g>
</g>
<g>
	<g>
		<path class="st0" d="M152.2,282.6c-1-1-2.3-1.5-3.7-1.5c-1.4,0-2.7,0.6-3.7,1.5c-1,1-1.5,2.3-1.5,3.7c0,1.4,0.6,2.7,1.5,3.7
			s2.3,1.5,3.7,1.5c1.4,0,2.7-0.6,3.7-1.5c1-1,1.5-2.3,1.5-3.7C153.7,284.9,153.1,283.5,152.2,282.6z"/>
	</g>
</g>
<g>
	<g>
		<path class="st0" d="M367.2,282.6c-1-1-2.3-1.5-3.7-1.5s-2.7,0.6-3.7,1.5c-1,1-1.5,2.3-1.5,3.7c0,1.4,0.6,2.7,1.5,3.7
			c1,1,2.3,1.5,3.7,1.5s2.7-0.6,3.7-1.5c1-1,1.5-2.3,1.5-3.7C368.8,284.9,368.2,283.5,367.2,282.6z"/>
	</g>
</g>
<g>
	<g>
		<path class="st0" d="M271.2,359.8c-1-1-2.3-1.5-3.7-1.5s-2.7,0.6-3.7,1.5c-1,1-1.5,2.3-1.5,3.7s0.6,2.7,1.5,3.7
			c1,1,2.3,1.5,3.7,1.5s2.7-0.6,3.7-1.5c1-1,1.5-2.3,1.5-3.7S272.2,360.8,271.2,359.8z"/>
	</g>
</g>
<g>
	<g>
		<path class="st0" d="M238.8,337.4h-74.4c-2.9,0-5.2,2.3-5.2,5.2c0,2.9,2.3,5.2,5.2,5.2h74.4c2.9,0,5.2-2.3,5.2-5.2
			C244,339.8,241.7,337.4,238.8,337.4z"/>
	</g>
</g>
<g>
	<g>
		<path class="st0" d="M205.8,300.7h-57.3c-2.9,0-5.2,2.3-5.2,5.2c0,2.9,2.3,5.2,5.2,5.2h57.3c2.9,0,5.2-2.3,5.2-5.2
			C211,303.1,208.7,300.7,205.8,300.7z"/>
	</g>
</g>
<g>
	<g>
		<path class="st0" d="M279.5,316.5h-0.4c-2.9,0-5.2,2.3-5.2,5.2c0,2.9,2.3,5.2,5.2,5.2h0.4c2.9,0,5.2-2.3,5.2-5.2
			C284.7,318.9,282.4,316.5,279.5,316.5z"/>
	</g>
</g>
</svg>
