<?xml version="1.0" encoding="utf-8"?>
<!-- Generator: Adobe Illustrator 24.0.1, SVG Export Plug-In . SVG Version: 6.00 Build 0)  -->
<svg version="1.1" id="Capa_1" xmlns="http://www.w3.org/2000/svg" xmlns:xlink="http://www.w3.org/1999/xlink" x="0px" y="0px"
	 viewBox="0 0 496 496" style="enable-background:new 0 0 496 496;" xml:space="preserve">
<style type="text/css">
	.st0{fill:#14B6CB;}
</style>
<g>
	<g>
		<path class="st0" d="M251.9,240.7l-14.2-7.1c-1.8-0.9-2.9-2.7-2.9-4.7v-14.7h5.3c5.9,0,10.6-4.8,10.6-10.6v-21.2
			c0-5.9-4.8-10.6-10.6-10.6h-95.5c-5.9,0-10.6,4.8-10.6,10.6v21.2c0,5.9,4.8,10.6,10.6,10.6h5.3v14.7c0,2-1.1,3.8-2.9,4.7
			l-14.2,7.1c-9,4.5-14.7,13.6-14.7,23.7v135.5c0,8.8,7.1,15.9,15.9,15.9h116.7c8.8,0,15.9-7.1,15.9-15.9V264.4
			C266.6,254.3,261,245.2,251.9,240.7z M144.5,203.6v-21.2h15.9V193h10.6v-10.6H187V193h10.6v-10.6h15.9V193h10.6v-10.6H240l0,21.2
			H144.5z M256,399.9c0,2.9-2.4,5.3-5.3,5.3H133.9c-2.9,0-5.3-2.4-5.3-5.3V384H256V399.9z M256,373.4H128.6v-95.5H256V373.4z
			 M256,267.2H128.6v-2.8c0-6.1,3.4-11.5,8.8-14.2l14.2-7.1c5.4-2.7,8.8-8.2,8.8-14.2v-14.7h63.7v14.7c0,6.1,3.4,11.5,8.8,14.2
			l14.2,7.1c5.4,2.7,8.8,8.2,8.8,14.2V267.2z"/>
	</g>
</g>
<g>
	<g>
		<path class="st0" d="M208.2,307v-21.2h-31.8V307h-21.2v31.8h21.2v21.2h31.8v-21.2h21.2V307H208.2z M218.8,328.3h-21.2v21.2H187
			v-21.2h-21.2v-10.6H187v-21.2h10.6v21.2h21.2V328.3z"/>
	</g>
</g>
<g>
	<g>
		<path class="st0" d="M378,131.8v-9.6h-95.5v9.6h31.8v37.5l-5.3,14.4v10.3h-26.5v9.6h21.2v129.2h10.6v19.1h10.6V414h10.6v-62.2
			h10.6v-19.1h10.6V203.5H378v-9.6h-26.5v-10.3l-5.3-14.4v-37.5H378z M319.6,185.1l5.3-14.4v-39h10.6v39l5.3,14.4v8.8h-21.2V185.1z
			 M335.6,342.2h-10.6v-9.6h10.6V342.2z M346.2,213.1h-21.2v9.6h21.2V237h-10.6v9.6h10.6v14.4h-21.2v9.6h21.2v14.4h-10.6v9.6h10.6
			v28.7h-31.8V203.5h31.8V213.1z"/>
	</g>
</g>
</svg>
