<?xml version="1.0" encoding="utf-8"?>
<!-- Generator: Adobe Illustrator 24.0.1, SVG Export Plug-In . SVG Version: 6.00 Build 0)  -->
<svg version="1.1" id="Layer_1" xmlns="http://www.w3.org/2000/svg" xmlns:xlink="http://www.w3.org/1999/xlink" x="0px" y="0px"
	 viewBox="0 0 512 512" style="enable-background:new 0 0 512 512;" xml:space="preserve">
<style type="text/css">
	.st0{fill:#FFFFFF;}
	.st1{fill:#14B6CB;}
</style>
<path class="st0" d="M215.8,160c-1,0-1.9,0.3-2.7,0.8v9.6c0,2.6-0.2,5.2-0.7,7.7c1,0.8,2.1,1.3,3.4,1.3c3.8,0,6.9-4.4,6.9-9.7
	C222.7,164.4,219.6,160,215.8,160L215.8,160z"/>
<path class="st0" d="M120.5,170.5v-9.6c-0.8-0.5-1.8-0.8-2.7-0.8c-3.8,0-6.9,4.4-6.9,9.7c0,5.4,3.1,9.7,6.9,9.7
	c1.2,0,2.4-0.5,3.4-1.3C120.7,175.7,120.5,173.1,120.5,170.5L120.5,170.5z"/>
<path class="st0" d="M166.8,216.7c-6.4,0-12.6-1.3-18.2-3.7v0.6c0,10,8.1,18.2,18.2,18.2s18.2-8.1,18.2-18.2V213
	C179.3,215.4,173.2,216.7,166.8,216.7z"/>
<path class="st0" d="M204.7,136.2c-2.6-4.4-3.4-9.1-3.4-9.1s-43.9,23.8-80.8,15.1v28.3c0,25.6,20.7,46.3,46.3,46.3
	S213,196,213,170.5l-0.1-25.3C212.9,145.2,207.3,140.5,204.7,136.2z"/>
<path class="st0" d="M204,302.1h34.7v34.7H204L204,302.1z"/>
<path class="st0" d="M107.9,336.9h9.1c5.5,0,10-4.5,10-10v-18.2c0-5.5-4.5-10-10-10h-9.1c-10.5,0-19.1,8.6-19.1,19.1
	C88.8,328.4,97.4,336.9,107.9,336.9z"/>
<path class="st0" d="M282.7,166.3c0.9,0,1.8,0.3,2.6,0.8v9.3c0,2.5,0.2,5,0.6,7.4c-1,0.8-2.1,1.3-3.3,1.3c-3.7,0-6.6-4.2-6.6-9.4
	C276.1,170.5,279.1,166.3,282.7,166.3z"/>
<path class="st0" d="M374.4,176.4v-9.3c0.8-0.5,1.7-0.8,2.6-0.8c3.7,0,6.6,4.2,6.6,9.4c0,5.2-3,9.4-6.6,9.4c-1.2,0-2.3-0.5-3.3-1.3
	C374.2,181.4,374.4,178.9,374.4,176.4z"/>
<path class="st0" d="M329.9,220.9c6.2,0,12.1-1.3,17.5-3.6v0.5c0,9.7-7.8,17.5-17.5,17.5s-17.5-7.8-17.5-17.5v-0.5
	C317.8,219.6,323.7,220.9,329.9,220.9z"/>
<path class="st0" d="M329.9,220.9c24.6,0,44.5-19.9,44.5-44.5v-27.9c0-24.6-19.9-44.5-44.5-44.5c-24.6,0-44.5,19.9-44.5,44.5v27.9
	C285.4,201,305.3,220.9,329.9,220.9z"/>
<path class="st0" d="M380.1,336.9H371c-5.5,0-10-4.5-10-10v-18.2c0-5.5,4.5-10,10-10h9.1c10.5,0,19.1,8.6,19.1,19.1
	C399.2,328.3,390.6,336.9,380.1,336.9z"/>
<path class="st0" d="M279.7,336.9h9.1c5.5,0,10-4.5,10-10v-18.2c0-5.5-4.5-10-10-10h-9.1c-10.5,0-19.1,8.6-19.1,19.1
	C260.6,328.3,269.1,336.9,279.7,336.9z"/>
<path class="st0" d="M432.5,336.9h-369c-6.2,0-11.3,5-11.3,11.3v9.9c0-6.2,5-11.3,11.3-11.3h369c6.2,0,11.3,5,11.3,11.3v-9.9
	C443.8,341.9,438.7,336.9,432.5,336.9z"/>
<g>
	<path class="st1" d="M146.5,159.4c-2.6,0-4.6,2.1-4.6,4.6c0,2.6,2.1,4.6,4.6,4.6c2.6,0,4.6-2.1,4.6-4.6
		C151.2,161.4,149.1,159.4,146.5,159.4z"/>
	<path class="st1" d="M187.4,159.4c-2.6,0-4.6,2.1-4.6,4.6c0,2.6,2.1,4.6,4.6,4.6c2.6,0,4.6-2.1,4.6-4.6
		C192,161.4,189.9,159.4,187.4,159.4z"/>
	<path class="st1" d="M167,187.9c4.7,0,8.6-3.8,8.6-8.6v-3.1c0-1.8-1.5-3.3-3.3-3.3c-1.8,0-3.3,1.5-3.3,3.3v3.1c0,1.1-0.9,2-2,2
		c-1.1,0-2-0.9-2-2v-3.1c0-1.8-1.5-3.3-3.3-3.3c-1.8,0-3.3,1.5-3.3,3.3v3.1C158.4,184,162.2,187.9,167,187.9z"/>
	<path class="st1" d="M183.6,156.3l9.1,1.6c0.2,0,0.4,0,0.6,0c1.6,0,3-1.1,3.2-2.7c0.3-1.8-0.9-3.5-2.7-3.8l-9.1-1.6
		c-1.8-0.3-3.5,0.9-3.8,2.7C180.6,154.2,181.8,155.9,183.6,156.3z"/>
	<path class="st1" d="M149.1,149.7l-9.1,1.6c-1.8,0.3-3,2-2.7,3.8c0.3,1.6,1.7,2.7,3.2,2.7c0.2,0,0.4,0,0.6,0l9.1-1.6
		c1.8-0.3,3-2,2.7-3.8S151,149.4,149.1,149.7z"/>
	<path class="st1" d="M179.8,193.9c1.1-1.4,0.8-3.5-0.6-4.6c-1.4-1.1-3.5-0.8-4.6,0.6c-0.1,0.1-2.8,3.5-7.6,3.5
		c-4.9,0-7.5-3.2-7.6-3.4c-1.1-1.5-3.1-1.8-4.6-0.7c-1.5,1.1-1.8,3.1-0.7,4.6c0.2,0.3,4.5,6.1,12.9,6.1
		C175.2,200,179.7,194.2,179.8,193.9L179.8,193.9z"/>
	<path class="st1" d="M349.3,165.7c-2.5,0-4.5,2-4.5,4.5s2,4.5,4.5,4.5s4.5-2,4.5-4.5C353.8,167.7,351.8,165.7,349.3,165.7z"/>
	<path class="st1" d="M310,165.7c-2.5,0-4.5,2-4.5,4.5s2,4.5,4.5,4.5s4.5-2,4.5-4.5S312.5,165.7,310,165.7z"/>
	<path class="st1" d="M329.7,193.3c4.6,0,8.4-3.8,8.4-8.4v-3c0-1.8-1.5-3.3-3.3-3.3s-3.3,1.5-3.3,3.3v3c0,1-0.8,1.8-1.8,1.8
		s-1.8-0.8-1.8-1.8v-3c0-1.8-1.5-3.3-3.3-3.3c-1.8,0-3.3,1.5-3.3,3.3v3C321.3,189.5,325.1,193.3,329.7,193.3z"/>
	<path class="st1" d="M312.5,154.7l-8.7,1.5c-1.8,0.3-3,2-2.7,3.8c0.3,1.6,1.7,2.7,3.2,2.7c0.2,0,0.4,0,0.6,0l8.7-1.5
		c1.8-0.3,3-2,2.7-3.8C316,155.6,314.4,154.4,312.5,154.7z"/>
	<path class="st1" d="M345.7,161.2l8.7,1.5c0.2,0,0.4,0,0.6,0c1.6,0,3-1.1,3.2-2.7c0.3-1.8-0.9-3.5-2.7-3.8l-8.7-1.5
		c-1.8-0.3-3.5,0.9-3.8,2.7C342.7,159.2,343.9,160.9,345.7,161.2z"/>
	<path class="st1" d="M342.2,199c1.1-1.5,0.7-3.5-0.7-4.6c-1.5-1.1-3.5-0.7-4.6,0.7c0,0-2.4,3.2-7.2,3.2c-4.6,0-7.2-3.1-7.2-3.3
		c-1.1-1.4-3.2-1.7-4.6-0.6c-1.5,1.1-1.7,3.2-0.6,4.6c0.2,0.2,4.5,5.9,12.5,5.9C337.9,204.9,342.1,199.2,342.2,199z"/>
	<path class="st1" d="M259.3,367.1h-23.9c-1.8,0-3.3,1.5-3.3,3.3s1.5,3.3,3.3,3.3h23.9c1.8,0,3.3-1.5,3.3-3.3
		S261.2,367.1,259.3,367.1z"/>
	<path class="st1" d="M432.5,333.6h-30V277c0-29.3-20.9-53.7-48.5-59.3c10.9-6.4,19-16.9,22.2-29.4c0.3,0,0.6,0.1,0.9,0.1
		c5.6,0,9.9-5.6,9.9-12.7c0-4.2-1.5-7.8-3.9-10.1v-22.1c0-24.8-20.1-44.9-44.9-44.9h-16.5c-1,0-2,0.1-3,0.2c0-0.1,0-0.1,0-0.2
		c-0.1-3.8-2.5-6.8-5.5-6.8c-2.2,0-4.1,1.8-4.9,4.3c-2.2-1.5-4.8-1.7-6.5-0.3c-2.1,1.6-2.3,5-0.6,7.9c-14.5,7.4-24.5,22.5-24.5,40
		v22.1c-2.4,2.3-3.9,5.9-3.9,10.1c0,7.1,4.4,12.7,9.9,12.7c0.3,0,0.6-0.1,0.9-0.1c3.2,12.5,11.3,23,22.2,29.4
		c-27.7,5.6-48.5,30.1-48.5,59.3v56.6h-15.2v-31.4V275c0-16.6-6.5-31.6-17-42.9c-0.1-0.2-0.3-0.3-0.5-0.5
		c-8.8-9.2-20.3-15.7-33.2-18.2c11.5-6.6,20-17.6,23.3-30.7c0.3,0,0.7,0.1,1,0.1c5.7,0,10.2-5.7,10.2-13c0-4.3-1.6-8-4-10.3v-14.5
		c0-18.1-8.7-34.2-22.2-44.3c1.7-2,6.7-8.3,4.6-11c-2.5-3.2-10.6,3.2-10.6,3.2s-2.4-8.6-5.8-7.8c-2.4,0.5-2.9,5-3,7.7
		c-5.7-2-11.8-3.1-18.2-3.1c-17.3,0-32.8,8-42.9,20.5c-1.9,0.4-3.6,0.6-5,0.5c-8.6-0.4-12-10.1-16.7-7.2c-4,2.5-3.6,24.8,9.7,34.7
		c-0.3,2.2-0.4,4.4-0.4,6.7v14.5c-2.4,2.4-4,6.1-4,10.3c0,7.3,4.5,13,10.2,13c0.3,0,0.7-0.1,1-0.1c3.3,13.1,11.9,24.1,23.3,30.7
		c-12.9,2.5-24.3,9-33,18.2c-0.3,0.2-0.6,0.5-0.8,0.9c-7.7,8.4-13.2,18.8-15.5,30.4l-8.4-4.7c-1-0.6-2.2-0.6-3.2,0
		c-1,0.5-1.6,1.6-1.7,2.7l-1,18.1c0,0.1,0,0.2,0,0.3c0,0.1,0,0.2,0,0.3c0.1,0.4,0.2,0.8,0.3,1.1l12.3,22.4
		c-3.5,3.9-5.6,9.1-5.6,14.7c0,5.8,2.2,11.1,5.9,15.1v0.6H63.5c-8,0-14.6,6.5-14.6,14.6v11c0,8,6.5,14.6,14.6,14.6h14.1v34
		c0,1.8,1.5,3.3,3.3,3.3H100c1.8,0,3.3-1.5,3.3-3.3v-34h118.1c1.8,0,3.3-1.5,3.3-3.3c0-1.8-1.5-3.3-3.3-3.3H63.5c-4.4,0-8-3.6-8-8
		v-11c0-4.4,3.6-8,8-8h369c4.4,0,8,3.6,8,8v11c0,4.4-3.6,8-8,8H273.4c-1.8,0-3.3,1.5-3.3,3.3c0,1.8,1.5,3.3,3.3,3.3h119.4v34
		c0,1.8,1.5,3.3,3.3,3.3h19.1c1.8,0,3.3-1.5,3.3-3.3v-34h14.1c8,0,14.6-6.5,14.6-14.6v-11C447.1,340.1,440.5,333.6,432.5,333.6
		L432.5,333.6z M96.7,373.7v30.7H84.2v-30.7H96.7z M263.9,317.8c0-8.7,7.1-15.8,15.8-15.8h9.1c3.7,0,6.7,3,6.7,6.7v18.2
		c0,3.7-3,6.7-6.6,6.7h-9.2C270.9,333.5,263.9,326.5,263.9,317.8z M329.9,238.7c9.4,0,17.4-6.3,19.9-15c10.7,1.6,20.5,6.3,28.2,13.2
		c-7.5,4.6-12.8,12.1-14.7,20.7h-66.9c-1.9-8.6-7.1-16.1-14.7-20.7c7.7-6.9,17.5-11.6,28.2-13.2
		C312.5,232.3,320.5,238.7,329.9,238.7L329.9,238.7z M316.5,222.3c4.3,1.2,8.8,1.9,13.4,1.9s9.2-0.7,13.4-1.9
		c-1.9,5.7-7.1,9.8-13.4,9.8C323.6,232.1,318.3,227.9,316.5,222.3z M380.1,333.6h-9.2c-3.7,0-6.6-3-6.6-6.7v-18.2
		c0-3.7,3-6.7,6.7-6.7h9.1c8.7,0,15.8,7.1,15.8,15.8C395.9,326.5,388.8,333.5,380.1,333.6z M377.8,295.4H371
		c-7.3,0-13.3,6-13.3,13.3v18.2c0,2.4,0.7,4.7,1.9,6.7h-25.8v-69.3h44L377.8,295.4z M327.2,264.3v69.3h-27c1.2-2,1.9-4.2,1.9-6.7
		v-18.2c0-7.3-6-13.3-13.3-13.3h-5.6v-31.1H327.2z M395.9,301.9c-3.1-3.1-7.1-5.3-11.5-6.1V261c0-1.8-1.5-3.3-3.3-3.3h-11
		c1.9-6.7,6.5-12.4,12.7-15.8c8.2,9.4,13.1,21.7,13.1,35.1L395.9,301.9z M377.4,181.7c0,0,0-0.1,0-0.1c0.2-1.7,0.3-3.5,0.3-5.2v-6.6
		c1.4,0.6,2.7,2.9,2.7,5.9C380.4,178.9,378.9,181.4,377.4,181.7L377.4,181.7z M282.4,181.7c-1.5-0.4-3-2.8-3-6c0-3,1.3-5.3,2.7-5.9
		v6.6c0,1.8,0.1,3.5,0.3,5.2C282.4,181.6,282.4,181.7,282.4,181.7L282.4,181.7z M288.6,176.4v-26.5c3.2-0.8,8.3-2.2,12.7-4.8
		c7.1-4.2,11.1-12,11.1-12s9.5,10.6,27.6,16.1c11.8,3.6,25.1,4,31.1,3.9v23.3c0,22.7-18.5,41.2-41.2,41.2S288.6,199.1,288.6,176.4
		L288.6,176.4z M277,241.8c6.3,3.4,10.8,9.1,12.7,15.8h-9.9c-1.8,0-3.3,1.5-3.3,3.3v34.7c-4.9,0.7-9.3,3-12.7,6.3V277
		C263.9,263.5,268.9,251.3,277,241.8L277,241.8z M235.5,298.8h-28.2v-36.6c0-10.1,5.6-19.2,14.4-23.9c8.5,9.8,13.7,22.6,13.7,36.7
		L235.5,298.8z M97.2,274.4l11.6,21.1h-0.9c-4.3,0-8.3,1.2-11.7,3.3l-10.1-18.3L97.2,274.4z M123.7,327c0,3.4-2.6,6.2-5.9,6.6h-10.6
		c-8.3-0.4-15-7.3-15-15.7c0-8.7,7.1-15.8,15.8-15.8h9.1c3.7,0,6.7,3,6.7,6.7L123.7,327L123.7,327z M116.6,233.4
		c8.1-7.3,18.3-12.3,29.6-13.9c2.6,9,10.8,15.6,20.6,15.6c9.8,0,18-6.6,20.6-15.6c11.3,1.6,21.5,6.6,29.6,13.9
		c-10,6.1-16.2,16.9-16.2,28.9v71.3h-68v-71.3C132.8,250.3,126.6,239.5,116.6,233.4L116.6,233.4z M152.6,218
		c4.5,1.3,9.2,2.1,14.1,2.1c4.9,0,9.6-0.7,14.1-2.1c-1.9,6.1-7.5,10.5-14.1,10.5C160.1,228.4,154.5,224,152.6,218z M216,176.2
		c0-0.1,0-0.1,0-0.2c0.2-1.8,0.3-3.6,0.3-5.5v-7c1.5,0.5,3,3.1,3,6.3C219.4,173.3,217.6,175.9,216,176.2z M117.5,176.2
		c-1.6-0.2-3.4-2.9-3.4-6.4c0-3.3,1.5-5.8,3-6.3v7c0,1.9,0.1,3.7,0.3,5.5C117.5,176,117.5,176.1,117.5,176.2z M123.8,170.5v-24.3
		c30.8,5.4,64.4-9,75.4-14.3c0.6,1.8,1.5,4,2.7,6.1c2.1,3.5,5.8,7.1,7.8,8.8l0.1,23.7c0,23.7-19.3,43-43,43S123.8,194.2,123.8,170.5
		z M111.7,238.3c8.8,4.7,14.4,13.8,14.4,23.9v36.9c-2.4-2.3-5.6-3.7-9.1-3.7h-0.7l-14.9-27.2c-0.2-0.3-0.5-0.6-0.8-0.9
		c-0.1-0.1-0.2-0.1-0.3-0.2c-0.1-0.1-0.2-0.1-0.3-0.2l-1.4-0.8C100.4,255.7,105,246.1,111.7,238.3L111.7,238.3z M91.7,269.8
		l-6.4,3.5l0.4-6.9L91.7,269.8z M207.3,333.6v-28.1h28.1v28.1H207.3z M411.8,404.4h-12.5v-30.7h12.5V404.4z"/>
</g>
</svg>
