<?xml version="1.0" encoding="utf-8"?>
<!-- Generator: Adobe Illustrator 24.0.1, SVG Export Plug-In . SVG Version: 6.00 Build 0)  -->
<svg version="1.1" id="OutlineExpand" xmlns="http://www.w3.org/2000/svg" xmlns:xlink="http://www.w3.org/1999/xlink" x="0px"
	 y="0px" viewBox="0 0 512 512" style="enable-background:new 0 0 512 512;" xml:space="preserve">
<style type="text/css">
	.st0{fill:#14B6CB;}
</style>
<path class="st0" d="M191.9,183.1v-4.5c0-9.6-7.8-17.5-17.5-17.5h-35c-9.6,0-17.5,7.8-17.5,17.5v27.9c0,9.4,3.6,18,9.3,24.6H122
	c-16.1,0-29.1,13.1-29.1,29.1v52.4c0,6.6,2.3,12.6,6,17.5H87c-3.2,0-5.8,2.6-5.8,5.8v23.3c0,3.2,2.6,5.8,5.8,5.8h5.8v23.3h11.7
	v-23.3h174.8v11.7H291v-11.7h134c3.2,0,5.8-2.6,5.8-5.8V167c0-3.2-2.6-5.8-5.8-5.8H250.2c-3.2,0-5.8,2.6-5.8,5.8v95l-17.7-20.7
	c-5.5-6.5-13.6-10.2-22.1-10.2h-21.6c4.4-4.9,7.5-11,8.6-17.5 M180.3,207.8c0,6.6-2.8,12.8-7.6,17.3c-4.9,4.5-11.3,6.6-18,5.9
	c-11.8-1.1-21-11.9-21-24.5v-27.9c0-3.2,2.6-5.8,5.8-5.8h35c3.2,0,5.8,2.6,5.8,5.8v5.8c0,0.9,0.2,1.8,0.6,2.6 M165,242.8l-8.1,16.1
	l-8.1-16.1H165z M104.5,312.7v-52.4c0-9.6,7.8-17.5,17.5-17.5h13.9l15.9,31.7c1,2,3,3.2,5.2,3.2c2.2,0,4.2-1.2,5.2-3.2l15.9-31.7
	h26.5c5.1,0,10,2.2,13.3,6.1l28,32.7c1.1,1.2,2.6,2,4.2,2c1.6,0.1,3.2-0.6,4.3-1.7l30.8-30.8l15.1,15.1l-37.7,37.7
	c-6.8,6.8-17.9,6.8-24.7,0l-18.5-18.5c-1.7-1.7-4.2-2.2-6.4-1.3c-2.2,0.9-3.6,3-3.6,5.4v40.8h-29.1v-17.5c0-9.6-7.8-17.5-17.5-17.5
	h-23.3v-11.7h-11.7V301c0,3.2,2.6,5.8,5.8,5.8h29.1c3.2,0,5.8,2.6,5.8,5.8v17.5H122C112.3,330.2,104.5,322.3,104.5,312.7
	L104.5,312.7z M221,330.2v-26.7l8.5,8.5c4.2,4.2,9.4,6.8,14.8,7.9v10.3H221z M291,353.5H92.9v-11.7H291V353.5z M419.1,353.5H302.6
	V336c0-3.2-2.6-5.8-5.8-5.8H256v-10.3c5.4-1.1,10.6-3.7,14.8-7.9l41.8-41.8c2.3-2.3,2.3-6,0-8.2l-13.4-13.4l30.8-30.8l-8.2-8.2
	L291,240.4l-1.7-1.7c-2.3-2.3-6-2.3-8.2,0l-25,25v-90.8h163.1V353.5z"/>
<path class="st0" d="M325.9,196.8l32.4,16.2c0.8,0.4,1.7,0.6,2.6,0.6s1.8-0.2,2.6-0.6l35-17.5l-5.2-10.4l-32.3,16.2l-32.4-16.2
	c-1.6-0.8-3.6-0.8-5.2,0l-35,17.5l5.2,10.4L325.9,196.8z"/>
<path class="st0" d="M331.7,248.6h69.9v11.7h-69.9V248.6z"/>
<path class="st0" d="M331.7,271.9h69.9v11.7h-69.9V271.9z"/>
<path class="st0" d="M331.7,295.2h69.9v11.7h-69.9V295.2z"/>
<path class="st0" d="M331.7,318.5h69.9v11.7h-69.9V318.5z"/>
</svg>
