<?xml version="1.0" encoding="utf-8"?>
<!-- Generator: Adobe Illustrator 24.0.1, SVG Export Plug-In . SVG Version: 6.00 Build 0)  -->
<svg version="1.1" id="Capa_1" xmlns="http://www.w3.org/2000/svg" xmlns:xlink="http://www.w3.org/1999/xlink" x="0px" y="0px"
	 viewBox="0 0 512 512" style="enable-background:new 0 0 512 512;" xml:space="preserve">
<style type="text/css">
	.st0{fill:#FFFFFF;}
</style>
<g>
	<g>
		<path class="st0" d="M89.9,333.3c0,9.9,8.1,18,18,18h98.7v30c-16.4,1.7-29.2,15.5-29.2,32.3c0,3.6,2.9,6.5,6.5,6.5
			c33.1,0,196.9,0,231.6,0c3.6,0,6.5-2.9,6.5-6.5V357c0-31.5-24.3-57.4-55.1-60c8.3-8.1,13.4-19.4,13.4-31.8v-47.5
			c0-3.6-2.9-6.5-6.5-6.5h-47.2c-19.6,0-35.5,15.9-35.5,35.5v18.5c0,12.3,5,23.5,13.2,31.6h-41.9v-13.2c0-24.7-18.6-45.1-42.4-48
			c4.7-5.8,7.6-13.2,7.6-21.3v-26.6c0-0.3,0-0.5,0-0.8c0-0.5,0-0.9,0-1.4v-16.8c0-3.6-2.9-6.5-6.5-6.5h-33.9
			c-15.1,0-27.3,12.2-27.3,27.3v6.4v5.4v13c0,8.1,2.8,15.5,7.6,21.3c-19.7,2.4-35.3,12.2-39.3,32.2c-2.7,13.3,2.7,29.5-6,29.9
			l-31.9,1.7 M115.7,122.9 M304.2,265.2v-18.5c0-12.4,10.1-22.5,22.5-22.5h40.7v41c0,17.4-14.2,31.6-31.6,31.6
			S304.2,282.6,304.2,265.2z M172.8,189.5c0-7.9,6.4-14.4,14.4-14.4h27.5v10.4c0,5.1-4.2,9.3-9.3,9.3h-32.5V189.5z M172.8,207.8
			h32.5c3.3,0,6.5-0.7,9.3-2.1v8.5h0c0,11.5-9.4,20.9-20.9,20.9s-20.9-9.4-20.9-20.9C172.8,214.3,172.8,207.8,172.8,207.8z
			 M201.3,248.1L201.3,248.1l-7.6,7.6l-7.6-7.6L201.3,248.1L201.3,248.1z M137.9,283.6c0-17.8,13.2-32.5,30.3-35.1l20.9,20.9
			c1.3,1.3,2.9,1.9,4.6,1.9s3.3-0.6,4.6-1.9l20.9-20.9c17.1,2.5,30.3,17.3,30.3,35.1v13.2H137.9V283.6z M249.5,407.1h-57.9
			c2.7-7.6,9.9-13,18.4-13h39.5V407.1z M249.5,357v24.1h-29.9v-29.8h30.1C249.6,353.2,249.5,355.1,249.5,357z M108,338.3
			c-2.8,0-5.1-2.3-5.1-5v-23.5h169.5c-9.2,7.3-16.2,17.2-19.9,28.5H108z M409.1,381.1h-49.6c-3.6,0-6.5,2.9-6.5,6.5
			c0,3.6,2.9,6.5,6.5,6.5h49.6v13H262.5V357c0-26,21-47.1,47-47.2h19.2c0,0,0.1,0,0.1,0h33.1c26,0,47.2,21.2,47.2,47.2V381.1z"/>
		<path class="st0" d="M184,418.1c-2.5,0-4.5-2-4.5-4.5c0-15.7,11.8-28.7,27.4-30.3l1.8-0.2v-33.8H108c-8.8,0-16-7.2-16-16l0.3-32.1
			l30-1.6c7.4-0.3,7.2-8.4,7.1-17c-0.1-4.6-0.2-9.8,0.7-14.5c4.4-22,22.9-28.8,37.6-30.6l3.6-0.4l-2.3-2.8c-4.6-5.7-7.1-12.8-7.1-20
			v-24.8c0-14,11.4-25.3,25.3-25.3h33.9c2.5,0,4.5,2,4.5,4.5v16.8c0,0.4,0,0.9,0,1.3l0,0.2l0,0.2c0,0.2,0,0.4,0,0.5v26.6
			c0,7.3-2.5,14.4-7.1,20l-2.3,2.8l3.6,0.4c23.2,2.9,40.7,22.7,40.7,46v15.2h48.8l-3.4-3.4c-8.1-8.1-12.6-18.8-12.6-30.2v-18.5
			c0-18.5,15-33.5,33.5-33.5h47.2c2.5,0,4.5,2,4.5,4.5v47.5c0,11.5-4.5,22.3-12.8,30.4l-3.1,3.1l4.3,0.4c29.9,2.5,53.3,28,53.3,58
			v56.6c0,2.5-2,4.5-4.5,4.5H184z M309.4,307.8c-27,0.2-48.9,22.2-48.9,49.2v52.1h150.6v-17h-51.6c-2.5,0-4.5-2-4.5-4.5
			s2-4.5,4.5-4.5h51.6V357c0-27.1-22.1-49.2-49.2-49.2h-33.1l-0.1,0L309.4,307.8L309.4,307.8z M210,392.1c-9.1,0-17.2,5.8-20.3,14.3
			l-0.9,2.7h62.8v-17H210z M217.7,383.1h33.9V357c0-1.8,0.1-3.7,0.3-5.5l0.2-2.2h-34.3V383.1z M100.9,333.3c0,3.9,3.2,7,7.1,7h146
			l0.5-1.4c3.6-10.9,10.2-20.4,19.3-27.6l4.5-3.6H100.9V333.3z M167.9,246.5c-18.2,2.7-32,18.6-32,37v15.2h115.6v-15.2
			c0-18.4-13.7-34.4-32-37l-1-0.1l-21.7,21.7c-0.8,0.8-2,1.3-3.2,1.3c-1.2,0-2.3-0.5-3.2-1.3l-21.7-21.7L167.9,246.5z M326.7,222.2
			c-13.5,0-24.5,11-24.5,24.5v18.5c0,18.5,15.1,33.6,33.6,33.6s33.6-15.1,33.6-33.6v-43H326.7z M193.7,258.5l12.4-12.4h-24.8
			L193.7,258.5z M170.8,214.3c0,12.6,10.3,22.9,22.9,22.9s22.9-10.3,22.9-22.9l0-11.7l-2.8,1.3c-2.7,1.2-5.5,1.9-8.5,1.9h-34.5
			V214.3z M187.2,173.1c-9,0-16.4,7.3-16.4,16.4v7.3h34.5c6.2,0,11.3-5.1,11.3-11.3v-12.4H187.2z"/>
	</g>
</g>
<g>
	<g>
		<path class="st0" d="M193.9,87.9c-3.6,0-6.5,2.9-6.5,6.5v35c0,3.6,2.9,6.5,6.5,6.5c3.6,0,6.5-2.9,6.5-6.5v-35
			C200.3,90.8,197.4,87.9,193.9,87.9z"/>
		<path class="st0" d="M193.9,133.9c-2.5,0-4.5-2-4.5-4.5v-35c0-2.5,2-4.5,4.5-4.5c2.5,0,4.5,2,4.5,4.5v35
			C198.3,131.9,196.3,133.9,193.9,133.9z"/>
	</g>
</g>
<g>
	<g>
		<path class="st0" d="M248.8,113.4c-2.5-2.5-6.6-2.5-9.2,0l-11.4,11.4c-2.5,2.5-2.5,6.6,0,9.2c1.3,1.3,2.9,1.9,4.6,1.9
			c1.7,0,3.3-0.6,4.6-1.9l11.4-11.4C251.4,120,251.4,115.9,248.8,113.4z"/>
		<path class="st0" d="M232.9,133.8c-1.2,0-2.3-0.5-3.2-1.3c-1.7-1.7-1.7-4.6,0-6.3l11.4-11.4c0.8-0.8,2-1.3,3.2-1.3
			c1.2,0,2.3,0.5,3.2,1.3s1.3,2,1.3,3.2c0,1.2-0.5,2.3-1.3,3.2L236,132.5C235.2,133.4,234.1,133.8,232.9,133.8z"/>
	</g>
</g>
<g>
	<g>
		<path class="st0" d="M159.3,124.8l-11.5-11.5c-2.5-2.5-6.6-2.5-9.2,0c-2.5,2.5-2.5,6.6,0,9.2l11.5,11.5c1.3,1.3,2.9,1.9,4.6,1.9
			s3.3-0.6,4.6-1.9C161.8,131.5,161.8,127.4,159.3,124.8z"/>
		<path class="st0" d="M154.7,133.9c-1.2,0-2.3-0.5-3.2-1.3L140,121.1c-1.7-1.7-1.7-4.6,0-6.3c0.8-0.8,2-1.3,3.2-1.3
			s2.3,0.5,3.2,1.3l11.5,11.5c0.8,0.8,1.3,2,1.3,3.2c0,1.2-0.5,2.3-1.3,3.2C157,133.5,155.9,133.9,154.7,133.9z"/>
	</g>
</g>
</svg>
