<?xml version="1.0" encoding="utf-8"?>
<!-- Generator: Adobe Illustrator 24.0.1, SVG Export Plug-In . SVG Version: 6.00 Build 0)  -->
<svg version="1.1" id="Capa_1" xmlns="http://www.w3.org/2000/svg" xmlns:xlink="http://www.w3.org/1999/xlink" x="0px" y="0px"
	 viewBox="0 0 512 512" style="enable-background:new 0 0 512 512;" xml:space="preserve">
<style type="text/css">
	.st0{fill:#FFFFFF;}
</style>
<g id="XMLID_34_">
	<g id="XMLID_1873_">
		<path id="XMLID_1877_" class="st0" d="M301.1,127.9c-45.8,0-83,37.2-83,83s37.2,83,83,83s83-37.2,83-83
			C384.1,165.2,346.8,127.9,301.1,127.9z M301.1,140.5c38.8,0,70.4,31.6,70.4,70.4s-31.6,70.4-70.4,70.4s-70.4-31.6-70.4-70.4
			S262.2,140.5,301.1,140.5z"/>
		<path id="XMLID_1878_" class="st0" d="M339.4,172.6c2.5,2.5,2.5,6.4,0,8.9c-2.5,2.5-6.4,2.5-8.9,0c-7.9-7.9-18.3-12.2-29.4-12.2
			s-21.6,4.3-29.4,12.2c-1.2,1.2-2.8,1.8-4.4,1.8s-3.2-0.6-4.4-1.8c-2.5-2.5-2.5-6.4,0-8.9c10.2-10.2,23.9-15.9,38.3-15.9
			C315.5,156.7,329.2,162.4,339.4,172.6L339.4,172.6z"/>
		<path id="XMLID_1881_" class="st0" d="M95,390.4c0,7.1,2.8,13.8,7.8,18.8c5,5,11.7,7.8,18.8,7.8c7.1,0,13.8-2.8,18.8-7.8
			l75.6-75.6c3.5,2,7.4,3,11.3,3c5.8,0,11.5-2.2,15.9-6.6l12.5-12.5c14,6,29.3,9.3,45.5,9.3c63.9,0,115.9-52,115.9-115.9
			c0-52.6-35.5-98.7-86.3-112.1c-3.4-0.9-6.8,1.1-7.7,4.5c-0.9,3.4,1.1,6.8,4.5,7.7c45.3,12,76.9,53.1,76.9,99.9
			c0,57-46.4,103.4-103.4,103.4s-103.4-46.4-103.4-103.4c0-46.9,31.6-88,76.9-99.9c3.4-0.9,5.4-4.3,4.5-7.7
			c-0.9-3.4-4.3-5.4-7.7-4.5c-50.8,13.4-86.3,59.5-86.3,112.1c0,16.1,3.3,31.5,9.3,45.5l-12.5,12.5c-7.4,7.4-8.5,18.6-3.6,27.2
			l-75.6,75.6C97.8,376.6,95,383.3,95,390.4L95,390.4z M220.2,321.2l-29.3-29.3c-3.9-3.9-3.9-10.2,0-14.1l9.5-9.5
			c10.3,18.1,25.3,33.1,43.4,43.4l-9.5,9.5C230.3,325,224,325,220.2,321.2z M107.6,390.4c0-3.7,1.5-7.3,4.1-9.9l75-75l19.8,19.8
			l-75,75c-2.6,2.6-6.2,4.1-9.9,4.1c-3.7,0-7.3-1.5-9.9-4.1C109,397.7,107.6,394.2,107.6,390.4L107.6,390.4z"/>
		<path id="XMLID_1884_" class="st0" d="M301.1,107.6c-1.7,0-3.3-0.7-4.4-1.8c-1.2-1.2-1.8-2.8-1.8-4.4s0.7-3.3,1.8-4.4
			c1.2-1.2,2.8-1.8,4.4-1.8s3.3,0.7,4.4,1.8c1.2,1.2,1.8,2.8,1.8,4.4s-0.7,3.3-1.8,4.4C304.3,106.9,302.7,107.6,301.1,107.6z"/>
	</g>
</g>
</svg>
