<?xml version="1.0" encoding="utf-8"?>
<!-- Generator: Adobe Illustrator 24.0.1, SVG Export Plug-In . SVG Version: 6.00 Build 0)  -->
<svg version="1.1" id="Line_expand" xmlns="http://www.w3.org/2000/svg" xmlns:xlink="http://www.w3.org/1999/xlink" x="0px"
	 y="0px" viewBox="0 0 512 512" style="enable-background:new 0 0 512 512;" xml:space="preserve">
<style type="text/css">
	.st0{fill:#FFFFFF;}
</style>
<g>
	<path class="st0" d="M156.9,114.1h187.5v55.7h10.1v-45.6h5.1v45.6h10.1v-50.7c0-2.8-2.3-5.1-5.1-5.1h-10.1v-5.1
		c0-2.8-2.3-5.1-5.1-5.1H151.9c-2.8,0-5.1,2.3-5.1,5.1v91.2h10.1V114.1z"/>
	<path class="st0" d="M156.9,210.4h-10.1v182.4c0,2.8,2.3,5.1,5.1,5.1h172.3v-10.1H156.9V210.4z"/>
	<path class="st0" d="M243.1,210.4c2.8,0,5.1-2.3,5.1-5.1v-76c0-2.8-2.3-5.1-5.1-5.1h-70.9c-2.8,0-5.1,2.3-5.1,5.1v76
		c0,2.8,2.3,5.1,5.1,5.1H243.1z M177.2,134.4H238v65.9h-60.8V134.4z"/>
	<path class="st0" d="M258.3,199.3h76v10.1h-76V199.3z"/>
	<path class="st0" d="M167.1,230.9h111.5V241H167.1V230.9z"/>
	<path class="st0" d="M167.1,266.3h50.7v10.1h-50.7V266.3z"/>
	<path class="st0" d="M227.9,266.3h60.8v10.1h-60.8L227.9,266.3L227.9,266.3z"/>
	<path class="st0" d="M167.1,301.6h111.5v10.1H167.1V301.6z"/>
	<path class="st0" d="M334.3,149.3c0-2.8-2.3-5.1-5.1-5.1h-65.9c-2.8,0-5.1,2.3-5.1,5.1v25.3c0,2.8,2.3,5.1,5.1,5.1h65.9
		c2.8,0,5.1-2.3,5.1-5.1V149.3z M324.1,169.6h-55.7v-15.2h55.7V169.6z"/>
	<path class="st0" d="M167.1,352.3c0,14,11.3,25.3,25.3,25.3s25.3-11.3,25.3-25.3S206.4,327,192.4,327
		C178.4,326.9,167.1,338.3,167.1,352.3z M207.6,352.3c0,8.4-6.8,15.2-15.2,15.2s-15.2-6.8-15.2-15.2s6.8-15.2,15.2-15.2
		C200.8,337.1,207.6,343.9,207.6,352.3z"/>
	<path class="st0" d="M227.9,352.3c0,14,11.3,25.3,25.3,25.3c14,0,25.3-11.3,25.3-25.3S267.2,327,253.2,327
		C239.2,326.9,227.9,338.3,227.9,352.3z M268.4,352.3c0,8.4-6.8,15.2-15.2,15.2c-8.4,0-15.2-6.8-15.2-15.2s6.8-15.2,15.2-15.2
		C261.6,337.1,268.4,343.9,268.4,352.3z"/>
	<path class="st0" d="M404.9,274.7l-26.1-78.2c-3.3-9.8-12.5-16.5-22.8-16.5h-6.6c-2.8,0-5.1,2.3-5.1,5.1v76h-2.6l-2.9-3.6
		c-10.5-13.1-29.6-15.2-42.7-4.8l0,0l-5.6,4.4c-2.1,1.7-2.5,4.8-0.9,7l44.6,59.4v79.4c0,2.8,2.3,5.1,5.1,5.1h45.6
		c2.8,0,5.1-2.3,5.1-5.1v-45.6h-10.1v40.5h-35.5v-76c0-1.1-0.4-2.2-1-3L300.7,262l1.7-1.4c8.7-7,21.5-5.6,28.5,3.2l0,0l4.4,5.6
		c1,1.2,2.4,1.9,4,1.9h10.1c2.8,0,5.1-2.3,5.1-5.1v-76h1.5c6,0,11.3,3.8,13.2,9.5l25.8,77.4v8.4l-14.9,39.7
		c-0.2,0.6-0.3,1.2-0.3,1.8v20.3H390V328l14.9-39.7c0.2-0.6,0.3-1.2,0.3-1.8v-10.1C405.2,275.7,405.1,275.2,404.9,274.7L404.9,274.7
		z"/>
</g>
</svg>
