<?xml version="1.0" encoding="utf-8"?>
<!-- Generator: Adobe Illustrator 24.0.1, SVG Export Plug-In . SVG Version: 6.00 Build 0)  -->
<svg version="1.1" id="Capa_1" xmlns="http://www.w3.org/2000/svg" xmlns:xlink="http://www.w3.org/1999/xlink" x="0px" y="0px"
	 viewBox="0 0 512 512" style="enable-background:new 0 0 512 512;" xml:space="preserve">
<style type="text/css">
	.st0{fill:#FFFFFF;}
</style>
<g>
	<g>
		<path class="st0" d="M390.8,152.1c-4.2-4.2-11-4.2-15.2,0l-129.3,129l-46.7-50.7c-4-4.4-10.8-4.7-15.2-0.6
			c-4.4,4-4.7,10.9-0.6,15.2l54.3,58.9c2,2.2,4.8,3.4,7.7,3.5c0.1,0,0.2,0,0.2,0c2.8,0,5.6-1.1,7.6-3.1l137.3-136.9
			C395,163.1,395,156.3,390.8,152.1z"/>
	</g>
</g>
<g>
	<g>
		<path class="st0" d="M388.2,245.2c-6,0-10.8,4.8-10.8,10.8c0,67-54.5,121.4-121.4,121.4c-67,0-121.4-54.5-121.4-121.4
			c0-67,54.5-121.4,121.4-121.4c6,0,10.8-4.8,10.8-10.8c0-6-4.8-10.8-10.8-10.8c-78.9,0-143,64.1-143,143c0,78.8,64.1,143,143,143
			c78.8,0,143-64.2,143-143C399,250,394.2,245.2,388.2,245.2z"/>
	</g>
</g>
</svg>
