<?xml version="1.0" encoding="utf-8"?>
<!-- Generator: Adobe Illustrator 24.0.1, SVG Export Plug-In . SVG Version: 6.00 Build 0)  -->
<svg version="1.1" id="Layer_1" xmlns="http://www.w3.org/2000/svg" xmlns:xlink="http://www.w3.org/1999/xlink" x="0px" y="0px"
	 viewBox="0 0 100 100" style="enable-background:new 0 0 100 100;" xml:space="preserve">
<style type="text/css">
	.st0{fill:#FFFFFF;}
</style>
<path class="st0" d="M50.1,83c-1.4,0-2.8-0.6-3.8-1.6c-2.1-2.1-2.1-5.3-0.1-7.8c0.3-0.4,0.4-1,0.6-1.6c0-0.2,0.1-0.3,0.1-0.5
	c-3.9-0.6-7.3-2-10.3-4.2c-0.9,0.7-1.2,1.4-1.3,2.4c-0.1,2.8-2.4,4.9-5.4,4.9l-0.2,0c-2.9-0.1-5.2-2.4-5.2-5.3c-0.1-3,2.1-5.4,5-5.5
	c1,0,1.6-0.4,2.3-1.2c-2.3-3-3.7-6.4-4.4-10.2c-0.2,0-0.4,0-0.6,0c-0.6,0-1.1,0.2-1.5,0.7c-1,0.9-2.2,1.5-3.6,1.5
	c-1.5,0-2.9-0.6-4-1.7c-2-2.1-2-5.5,0-7.6c1-1.1,2.4-1.7,3.9-1.7c1.3,0,2.6,0.5,3.6,1.3c0.4,0.3,1,0.5,1.5,0.8
	c0.1,0,0.2,0.1,0.3,0.1c0.1-0.5,0.3-1,0.4-1.5c0.4-1.4,0.7-2.8,1.2-4c0.5-1.3,1.2-2.5,1.9-3.8c0.3-0.5,0.5-0.9,0.8-1.4
	c-0.5-0.6-1-1-1.9-1c-0.1,0-0.3,0-0.5,0c-0.2,0-0.4,0-0.6,0c-3.2,0-6-2.9-6.1-6.3c0-1.8,0.6-3.4,1.8-4.7c1.2-1.2,2.9-1.9,4.6-1.9
	c1.9,0,3.7,0.8,4.9,2.2c1.1,1.3,1.6,2.8,1.5,4.4c-0.1,1.1,0.1,1.7,1,2.4c3.2-2.3,6.7-3.8,10.7-4.4c0-0.1-0.1-0.2-0.1-0.3
	c-0.2-0.5-0.4-1-0.7-1.4c-1.9-2.4-1.8-5.7,0.4-7.7c1-0.9,2.3-1.4,3.7-1.4c1.4,0,2.7,0.5,3.7,1.5c2.1,2,2.3,5.3,0.3,7.7
	c-0.3,0.3-0.5,0.8-0.7,1.3c0,0.1-0.1,0.2-0.1,0.3c4.1,0.7,7.5,2.1,10.9,4.5c0-0.1,0.1-0.2,0.1-0.3c0.2-0.6,0.5-1.1,0.5-1.5
	c0.3-3,2.6-5.1,5.5-5.1c3,0,5.4,2.4,5.4,5.3c0.1,2.9-2.1,5.3-5.1,5.6c-0.5,0.1-1,0.3-1.6,0.5c-0.1,0-0.2,0.1-0.3,0.1
	c0.5,1.3,1.1,1.5,1.9,1.5c0.1,0,0.2,0,0.4,0c0.5-0.1,1.1-0.1,1.8-0.1c0.4,0,0.8,0,1.2,0c0.4,0,0.8,0,1.2,0c0,0,0.5,0,0.5,0
	c1.1,0,1.6,0.5,1.9,1.5c0.6,2.7,1.8,3.8,4.6,4.4c0.6,0.1,1.5,0.8,1.5,1.5c0,0.9,0.1,1.9,0.1,2.8c0.2,3.4,0.3,6.9,0.2,10.4
	c-0.2,5.7-2.8,10.6-7.5,14.3c-2.3,1.8-4.8,3.6-7.2,5.3c-1.4,1-2.7,2-4.1,3c-0.4,0.3-0.8,0.5-1.2,0.5c-0.4,0-0.8-0.2-1.3-0.5
	c-2.2-1.6-4.4-3.2-6.6-4.8l-1.8-1.3c-0.2-0.1-0.4-0.3-0.6-0.4c0.1,0.2,0.2,0.5,0.3,0.6c2.1,2.4,2.1,5.7,0,7.8
	C52.9,82.4,51.5,83,50.1,83z M38.1,65.4c2.8,2,5.7,3.1,9,3.7c1,0.2,1.7,0.5,1.9,0.9c0.7,1.2,0,4.4-1,5.5c-1.1,1.1-1.2,3-0.1,4.1
	c0.6,0.6,1.3,0.9,2.2,0.9c0.8,0,1.5-0.3,2.1-0.8c0.6-0.6,0.9-1.4,0.9-2.3c0-0.7-0.3-1.3-0.8-1.8c-1.1-0.9-1.5-2-1.3-3.4
	c0.1-0.8-0.1-1.3-0.9-2c-4.4-4.2-6.6-9.5-6.3-15.7c0-0.8,0-1.5,0-2.3c0-0.1,0-0.2,0-0.3c-1,0.3-1.8,0.5-2.5,0.5
	c-1.5,0-2.7-0.6-3.6-1.9c-1.3-1.9-1.2-4.3,0.3-5.8c0.9-0.9,2.2-1.5,3.4-1.7c0.1,0,0.2,0,0.4,0c0.7,0,1.5,0.2,2.2,0.5
	c0.1,0,0.2,0.1,0.4,0.1c0.1-0.2,0.1-0.4,0.3-0.6c0.4-0.5,1.1-0.7,1.6-0.7c2.2-0.2,3.8-1.7,4.2-3.9c0.3-1.6,1.1-1.9,2.3-1.9
	c2.1,0,4.1,0,6.1,0l7.8,0c0-0.1-0.1-0.2-0.1-0.2c-0.3-0.8-0.5-1.5-0.1-2l0.3-0.4c0.8-1,1.7-2.2,3.4-2.2c0.2,0,0.3,0,0.5,0
	c0.1,0,0.2,0,0.3,0c0.7,0,1.3-0.4,1.6-0.7c0.6-0.6,0.9-1.4,0.9-2.3c0-1.6-1.3-2.8-2.8-2.9c0,0,0,0,0,0c-1,0-1.9,0.4-2.4,1
	c-0.3,0.3-0.6,0.9-0.6,1.7c0.2,1.9-0.9,2.9-1.9,3.8l-0.3,0.3c-0.3,0.3-0.9,0.3-1.1,0.3c-0.2,0-0.7,0-1-0.3
	c-3.1-2.4-6.6-3.9-10.6-4.5c-0.6-0.1-1.4-0.8-1.5-1.4c0-0.2,0-0.5,0-0.7c-0.1-1.2-0.2-2.6,1.3-3.7c0.5-0.4,0.8-0.9,0.8-1.6
	c0-0.9-0.3-1.8-0.9-2.4c-0.5-0.5-1.3-0.8-2-0.8c-0.8,0-1.5,0.3-2,0.8c-0.6,0.6-1,1.5-1,2.3c0,0.7,0.3,1.3,0.8,1.7
	c1.3,1.1,1.4,2.4,1.4,3.6l0,0.1c0,1.4-0.5,2-1.9,2.2c-3.6,0.5-6.8,1.8-9.6,3.9c0.2,0.2,0.4,0.4,0.6,0.6c1,0.9,1.9,1.8,2.8,2.7
	c0.3,0.3,0.4,0.8,0.5,1.2c0,0.1,0.1,0.3,0.1,0.4l-0.7,0.7c-0.1,0-0.3-0.1-0.4-0.1c-0.4-0.1-0.9-0.2-1.2-0.5
	c-2.4-2.3-4.5-4.4-6.4-6.4c-0.5-0.5-0.6-1.2-0.7-1.9l0-0.2c-0.1-0.4-0.1-0.8-0.1-1.2c0-0.6,0-1.2-0.2-1.7c-0.5-1.4-1.9-2.3-3.5-2.3
	c-0.4,0-0.9,0.1-1.3,0.2c-2,0.7-3.1,2.7-2.6,4.7c0.5,1.8,2,3,3.9,3c0.2,0,0.4,0,0.6,0c0.3,0,0.5-0.1,0.8-0.1c0.7,0,1.2,0.1,1.5,0.4
	c1.6,1.4,3.1,3,4.7,4.6c0.3,0.3,0.3,0.7,0.4,1.1c0,0.1,0,0.2,0.1,0.4l-0.6,0.6c-0.1,0-0.3,0-0.4,0c-0.4,0-0.8-0.1-1.2-0.4
	c-0.5-0.4-0.8-0.9-1.2-1.4c0,0,0,0-0.1-0.1c-2,2.8-3.2,5.9-3.7,9.7c0,0.1-0.2,1.2-0.9,1.5c-0.3,0.2-0.8,0.3-1.3,0.3
	c-1.2,0-2.9-0.5-3.7-1.3c-0.6-0.6-1.3-0.9-2.2-0.9c-0.7,0-1.4,0.3-2,0.8c-1.2,1.1-1.3,2.9-0.2,4.1c0.6,0.6,1.5,1.1,2.3,1.1
	c0.7,0,1.3-0.3,1.7-0.7c1.1-1.3,2.4-1.4,3.6-1.4l0.3,0c0.1,0,0.2,0,0.3,0c1.7,0,2.1,1.1,2.3,2.3c0.5,3.1,1.7,6,3.7,8.7l1.1-1.1
	c1.5-1.5,2.9-3,4.4-4.4c0.3-0.3,0.8-0.4,1.2-0.5c0.1,0,0.3,0,0.4-0.1l0.7,0.7c0,0.1-0.1,0.3-0.1,0.4c-0.1,0.4-0.2,0.9-0.5,1.2
	c-2.8,2.9-5.7,5.7-8.4,8.4c-0.5,0.4-1.3,0.8-1.9,0.8l-0.1,0c-2,0-3.3,1.1-3.3,2.8c0,0.8,0.3,1.6,0.8,2.2c0.6,0.6,1.3,0.9,2.1,0.9
	c0.9,0,1.6-0.3,2.2-0.9c0.5-0.6,0.8-1.4,0.8-2.4c0-0.6,0.2-1.5,0.7-2c1.5-1.6,3.3-3.4,5.3-5.3c0.3-0.3,0.8-0.4,1.1-0.4
	c0.1,0,0.3,0,0.4-0.1l0.7,0.6c0,0.1-0.1,0.3-0.1,0.4c-0.1,0.4-0.1,0.9-0.5,1.2c-0.6,0.6-1.3,1.2-2,1.8
	C38.3,65.2,38.2,65.3,38.1,65.4z M46.5,47.5c-0.1,2.4-0.2,4.7-0.3,7.1c-0.2,5.9,1.8,10.7,6.1,14.3C55,71,57.8,73,60.5,75
	c1.1,0.8,2.3,1.6,3.4,2.4c1.1-0.8,2.2-1.6,3.3-2.4c2.7-2,5.5-4,8.2-6.1c2.4-1.9,5.3-5.1,5.7-9.9c0.3-3.4,0.2-6.9,0.2-10.2
	c0-1.4-0.1-2.7-0.1-4c-3.5-1.1-4.6-2.1-6-5.5c0-0.1-0.3-0.3-0.4-0.3c-4,0-8.1,0-12.1,0c-3.2,0-6.5,0-9.7,0c-0.1,0-0.3,0.1-0.3,0.2
	c-0.8,2.9-2.8,4.8-6,5.6L46.5,47.5z M41.5,45.3c-1.2,0-2.2,1-2.3,2.2c0,0.6,0.2,1.2,0.6,1.7c0.4,0.5,1,0.7,1.6,0.7c0,0,0,0,0,0
	c1.3,0,2.3-1,2.3-2.2c0-0.6-0.2-1.2-0.6-1.7C42.8,45.6,42.2,45.3,41.5,45.3v-0.5V45.3z"/>
<path class="st0" d="M77.7,24.6c-2.3-0.1-4-1.9-4-4.2c0-2.2,1.9-4,4.1-4c2.3,0,4.1,1.8,4.1,4.1c0,2.2-1.8,4.1-4.1,4.1L77.7,24.6z
	 M77.8,19c-0.8,0-1.5,0.7-1.6,1.5c0,0.4,0.2,0.8,0.4,1.1c0.3,0.3,0.7,0.5,1.2,0.5c0.9,0,1.6-0.7,1.6-1.5c0-0.4-0.2-0.8-0.5-1.1
	C78.7,19.2,78.3,19,77.8,19l0-0.5L77.8,19z"/>
<path class="st0" d="M35.1,83c-2.2,0-4-1.8-4.1-3.9c0-1.1,0.4-2.2,1.1-3c0.8-0.8,1.8-1.2,2.9-1.3h0c2.3,0,4.1,1.8,4.1,4
	c0,2.2-1.8,4.1-4,4.1L35.1,83z M35.1,77.4c-0.8,0-1.5,0.6-1.6,1.5c0,0.4,0.1,0.8,0.4,1.1c0.3,0.3,0.7,0.5,1.1,0.5c0,0,0,0,0,0
	c0.5,0,0.9-0.2,1.2-0.5c0.3-0.3,0.5-0.7,0.5-1.1C36.7,78.1,36,77.4,35.1,77.4v-0.5V77.4z"/>
<path class="st0" d="M78.2,35.2c-0.6-0.1-1.4-0.8-1.5-1.4c-0.1-0.5,0.2-0.8,0.6-1.3c0.2-0.2,0.3-0.4,0.5-0.7l0.9,0
	c0.2,0.3,0.3,0.5,0.5,0.7c0.3,0.5,0.6,0.8,0.6,1.3c0,0.6-0.9,1.4-1.4,1.4L78.2,35.2z"/>
<path class="st0" d="M19.7,68c-0.6-0.1-1.3-0.9-1.4-1.5c0-0.2,0-0.5,0.3-0.8c0.2-0.3,0.7-0.7,1.2-0.7c0,0,0,0,0,0
	c0.5,0,0.8,0.3,1.3,0.6c0.2,0.1,0.4,0.3,0.7,0.5l0,0.9c-0.3,0.2-0.5,0.3-0.7,0.5c-0.4,0.3-0.8,0.6-1.2,0.6L19.7,68z"/>
<path class="st0" d="M63.1,23.1c-0.6-0.2-1.2-1-1.3-1.6c0-0.2,0.1-0.5,0.3-0.8c0.3-0.3,0.7-0.6,1.2-0.6c0.5,0,0.8,0.3,1.3,0.7
	c0.2,0.2,0.4,0.3,0.6,0.5l-0.1,0.9c-0.3,0.1-0.5,0.3-0.7,0.4c-0.4,0.3-0.8,0.5-1.1,0.5L63.1,23.1z"/>
<path class="st0" d="M22.2,38.5c-0.2-0.3-0.3-0.5-0.5-0.7c-0.4-0.5-0.7-0.8-0.6-1.3c0.1-0.6,0.9-1.3,1.5-1.4l0.1,0
	c0.6,0,1.4,0.8,1.4,1.4c0,0.5-0.2,0.8-0.6,1.3c-0.1,0.2-0.3,0.4-0.5,0.7L22.2,38.5z"/>
<path class="st0" d="M32.1,19.9c-0.2-0.2-0.3-0.4-0.4-0.6c-0.3-0.4-0.6-0.8-0.6-1.3c0-0.6,0.9-1.4,1.4-1.4l0.2,0
	c0.6,0.2,1.3,0.9,1.4,1.5c0.1,0.5-0.2,0.8-0.6,1.3c-0.2,0.2-0.3,0.4-0.5,0.6L32.1,19.9z"/>
<path class="st0" d="M77.2,79.7c-0.2-0.2-0.4-0.4-0.5-0.6c-0.4-0.4-0.7-0.8-0.6-1.2c0.1-0.6,0.7-1.3,1.3-1.5l0.2,0
	c0.5,0,1.4,0.8,1.5,1.4c0,0.5-0.2,0.8-0.6,1.3c-0.1,0.2-0.3,0.4-0.4,0.6L77.2,79.7z"/>
<path class="st0" d="M61.4,65.8c-0.4,0-0.9-0.2-1.3-0.7c-1-1-2-2.1-3.1-3.1c-0.9-0.9-1.8-1.8-2.7-2.8c-1.5-1.6-1.5-3.9,0-5.3
	c0.7-0.7,1.6-1.1,2.6-1.1c1,0,1.9,0.4,2.7,1.2c0.5,0.5,1,1,1.5,1.5c0.1,0.1,0.2,0.2,0.4,0.4c0.7-0.7,1.3-1.3,2-2
	c2.1-2.1,4.1-4.2,6.2-6.1c0.8-0.8,2.1-1.3,3.3-1.3l0.1,0c1.3,0,2.4,0.9,3,2.5c0.5,1.4,0.2,2.7-1,3.9c-2.1,2.2-4.3,4.3-6.4,6.4
	l-2.3,2.3l-1.1,1.1c-0.8,0.8-1.6,1.6-2.4,2.5C62.4,65.4,62,65.8,61.4,65.8z M56.8,55.3c-0.3,0-0.5,0.1-0.8,0.4
	c-0.2,0.2-0.9,0.9,0.1,1.9c1.3,1.3,2.6,2.6,3.9,4l1.3,1.4l10.3-10.3c0.2-0.2,0.4-0.3,0.5-0.5c0.4-0.4,0.9-0.8,1.1-1.2
	c0.2-0.4,0.3-1,0.1-1.3c-0.1-0.3-0.7-0.6-1.1-0.6c-0.3,0-0.8,0.3-1.3,0.8c-2.8,2.8-5.6,5.6-8.3,8.3c-0.3,0.3-0.8,0.7-1.4,0.7
	c-0.5,0-0.9-0.2-1.4-0.7c-0.7-0.8-1.5-1.5-2.2-2.2C57.6,55.6,57.2,55.3,56.8,55.3z"/>
<path class="st0" d="M48.6,36.1c-0.7,0-1.2-0.5-1.8-1l-0.6,0c-0.3,0-0.6,0-0.9,0c-0.3,0-0.4-0.2-0.5-0.5c-0.1-0.3-0.2-0.9,0.2-1.2
	l0.2-0.2c0.5-0.4,1-0.8,1.5-0.8l0.1,0c0.6,0.1,1.1,0.4,1.6,0.7c0.1,0.1,0.2,0.1,0.3,0.2c0.9-0.6,1.5-1,2.1-1c0.6,0,1,0.3,1.7,0.8
	c0.7-0.5,1.2-0.8,1.8-0.8c0.6,0,1.1,0.4,1.7,0.9c0.5-0.5,1.2-0.9,1.9-0.9c0.6,0,1.2,0.3,1.7,0.8c0,0,0,0,0,0c0.1,0,0.2,0,0.4,0
	c0.1,0,0.2,0,0.2,0c0.6,0.1,1.2,0.3,1.3,0.8c0.1,0.5-0.2,1.2-0.6,1.5c-0.4,0.3-0.9,0.5-1.3,0.5c-0.7,0-1.3-0.4-1.7-0.8
	c-0.7,0.5-1.3,0.8-1.9,0.8c-0.6,0-1.1-0.3-1.7-0.8c-0.8,0.6-1.3,0.9-1.9,0.9c-0.6,0-1.1-0.3-1.7-0.8C49.8,35.7,49.2,36.1,48.6,36.1z
	"/>
<path class="st0" d="M33.5,52.3c-0.8-0.2-1.6-1.2-1.6-2c0-0.3,0.1-0.6,0.4-1c0.3-0.4,0.9-0.8,1.4-0.8c0.6,0,1.1,0.4,1.5,0.8
	c0.1,0.1,0.3,0.3,0.4,0.4l0.2,0.5l0,0.6l-0.3,0.5c-0.2,0.1-0.3,0.2-0.5,0.3c-0.4,0.3-0.9,0.7-1.4,0.7L33.5,52.3z"/>
</svg>
