<?xml version="1.0" encoding="utf-8"?>
<!-- Generator: Adobe Illustrator 24.0.1, SVG Export Plug-In . SVG Version: 6.00 Build 0)  -->
<svg version="1.1" id="Layer_1" xmlns="http://www.w3.org/2000/svg" xmlns:xlink="http://www.w3.org/1999/xlink" x="0px" y="0px"
	 viewBox="0 0 100 100" style="enable-background:new 0 0 100 100;" xml:space="preserve">
<style type="text/css">
	.st0{fill:#FFFFFF;}
</style>
<g>
	<path class="st0" d="M23.5,72.3c2.6,0,5,0,7.4,0c8.6,0,17.1,0,25.7,0c0.5,0,1.1-0.1,1.5,0.2c0.3,0.2,0.7,0.7,0.7,1
		c0,0.3-0.4,0.8-0.8,1c-0.3,0.2-0.7,0.1-1.1,0.1c-10.8,0-21.5,0-32.3,0c-2.8,0-3.5-0.7-3.5-3.5c0-8.4,0-16.7,0-25.1c0-0.5,0-1,0-1.6
		c-0.3-0.1-0.6-0.2-0.8-0.2c-1.9-0.5-3.1-1.7-3.4-3.6c-0.3-1.8,0.3-3.4,1.8-4.4c7.6-5.1,15.3-10.2,23-15.3c2-1.3,4.1-1.3,6.1,0
		c7.7,5,15.3,10.1,22.9,15.2c1.6,1.1,2.3,2.8,1.9,4.7c-0.4,2.1-1.9,3.2-4.2,3.6c0,1,0,2.1,0,3.2c0,0.8-0.2,1.6-1.2,1.5
		c-0.9,0-1.2-0.8-1-1.5c0.6-2.9-0.9-4.5-3.2-5.9c-6.1-3.8-12-7.9-18.1-12c-0.4,0.2-0.7,0.4-1.1,0.7c-6.5,4.3-12.9,8.6-19.3,12.9
		c-0.4,0.3-0.9,1-0.9,1.5c-0.1,8.9,0,17.9,0,26.8C23.4,71.7,23.4,71.9,23.5,72.3z M70.3,39.3c-0.3-0.4-0.8-1.2-1.6-1.7
		c-7.1-4.8-14.3-9.5-21.4-14.3c-2.1-1.4-3.2-1.4-5.3,0C35,28,27.8,32.7,20.7,37.5c-0.4,0.3-0.9,0.5-1.1,0.8C19.4,39,19,40,19.3,40.6
		c0.3,0.6,1.2,1.2,1.9,1.3c0.6,0.1,1.4-0.3,2-0.7c6.7-4.5,13.5-8.9,20.2-13.4c1-0.6,1.7-0.7,2.6,0c4.8,3.3,9.6,6.4,14.4,9.7
		c2.1,1.4,4.2,2.8,6.3,4.2C68.4,42.6,70.3,41.7,70.3,39.3z"/>
	<path class="st0" d="M46.1,50c3.3,0.2,4.9,2.5,6.5,4.8c0.8,1.2,1.9,2.3,2.6,3.6c0.3,0.6,0.4,1.6,0.1,2.3c-0.4,0.9-1.4,0.8-2.2,0.4
		c-0.8-0.4-1.7-0.8-2.7-1.3c0,2.6,0,5.1,0,7.5c0,2-0.8,2.8-2.8,2.8c-2,0-3.9,0-5.9,0c-1.8,0-2.5-0.8-2.6-2.6c0-2.5,0-4.9,0-7.8
		c-1.1,0.5-1.9,0.8-2.6,1.2c-0.9,0.4-1.7,0.6-2.4-0.3c-0.8-0.9-0.4-1.7,0.2-2.5c1.4-1.8,2.7-3.6,4-5.4c0.8-1.2,1.8-1.9,3.2-2.3
		c0.6-0.1,1.2-0.4,1.9-0.6c-2.8-1.9-3.6-3.6-3-5.7c0.6-1.9,2.3-3.2,4.3-3.2c2.1,0,3.7,1.3,4.3,3.4C49.6,46.5,48.7,48.1,46.1,50z
		 M37.3,58.1c0.7-0.3,0.9-0.4,1.2-0.5c2.3-1.1,2.7-0.8,2.7,1.8c0,2.8,0,5.6,0,8.4c2.4,0,4.6,0,6.9,0c0-0.6,0-1,0-1.5
		c0-2.4,0-4.9,0.1-7.3c0-2.1,0.6-2.4,2.4-1.6c0.4,0.2,0.8,0.4,1.5,0.6c-2.1-2.9-3.6-6-7.6-5.9C40.7,52.2,39.4,55.3,37.3,58.1z
		 M46.9,45.5c0-1.2-1-2.3-2.2-2.3c-1.1,0-2.1,1-2.2,2.1c-0.1,1.2,0.9,2.3,2.1,2.3C45.9,47.7,46.9,46.7,46.9,45.5z"/>
	<path class="st0" d="M59.3,62.2c0-2.8,0-5.5,0-8.3c0-1.1,0.4-1.7,1.4-2c7.2-2.7,14.4-2.7,21.6-0.1c1.2,0.4,1.7,1,1.7,2.3
		C84,59.6,84,64.9,84,70.3c0,1-0.3,1.7-1.2,2.3c-3.4,2.3-6.7,4.6-10,7c-0.8,0.6-1.5,0.7-2.4,0c-3.3-2.4-6.7-4.8-10.1-7.1
		c-0.8-0.5-1.1-1.1-1.1-2.1C59.3,67.8,59.3,65,59.3,62.2C59.3,62.2,59.3,62.2,59.3,62.2z M81.7,62.3C81.7,62.3,81.7,62.3,81.7,62.3
		c0-2.4,0-4.8,0-7.1c0-0.8-0.2-1.2-1-1.5c-6.1-2-12.1-2-18.2,0c-0.7,0.2-1,0.5-1,1.4c0,4.9,0,9.8,0.1,14.7c0,0.5,0.4,1.1,0.8,1.4
		c2.8,2,5.6,4,8.5,5.9c0.4,0.2,1.2,0.3,1.5,0c2.9-2,5.8-4,8.6-6c0.4-0.3,0.7-1,0.7-1.5C81.8,67.2,81.7,64.8,81.7,62.3z"/>
	<path class="st0" d="M70.8,66.1c1.7-1.7,3.2-3.3,4.8-4.8c0.3-0.3,0.6-0.7,0.9-0.8c0.5-0.1,1.1,0,1.6,0c0,0.5,0.2,1.2-0.1,1.5
		c-2,2.2-4.2,4.3-6.3,6.3c-0.3,0.3-1.3,0.3-1.7,0c-1.2-1-2.4-2.2-3.5-3.5c-0.3-0.3-0.1-1.1-0.2-1.6c0.6,0,1.3-0.2,1.7,0.1
		C69,64,69.8,65,70.8,66.1z"/>
</g>
</svg>
