<?xml version="1.0" encoding="utf-8"?>
<!-- Generator: Adobe Illustrator 24.0.1, SVG Export Plug-In . SVG Version: 6.00 Build 0)  -->
<svg version="1.1" id="Layer_1" xmlns="http://www.w3.org/2000/svg" xmlns:xlink="http://www.w3.org/1999/xlink" x="0px" y="0px"
	 viewBox="0 0 100 100" style="enable-background:new 0 0 100 100;" xml:space="preserve">
<style type="text/css">
	.st0{fill:#FFFFFF;}
</style>
<path class="st0" d="M31.6,22.7c-3.5,0-7.1,0-11.2,0c0.5,0.7,0.7,1.4,1.1,1.8c1,0.8,1.6,1.8,1.6,3.1c0,3.5,0,6.9,0,10.4
	c0,1.2-0.5,1.8-1.7,1.8c-1.4,0-2.7,0-4.1,0c-1,0-1.5-0.5-1.5-1.5c0-3.6-0.1-7.2,0.1-10.8c0-0.9,0.7-2.1,1.4-2.7c0.8-0.7,1-1.2,1-2.2
	c0-2.8,0-5.6,0-8.4c0.9,0,1.5,0,2.4,0c0,1.9,0,3.9,0,6c1.3,0,2.4,0,4.1,0c-0.5-0.7-0.7-1.4-1.1-1.7c-1.4-1.2-2-2.6-1.5-4.2
	c0.5-1.5,1.8-2.5,3.4-2.6c1.6,0,3.1,1,3.6,2.6c0.5,1.5-0.1,3-1.5,4.1c-0.4,0.3-0.6,0.9-1,1.5c3.1,0.7,5,0.4,5-0.9
	c-0.7,0-1.4-0.1-2.2-0.1c0-0.7,0-1.5,0-2.3c2.3,0,4.7,0,7.1,0c0,0.7,0,1.5,0,2.3c-0.7,0-1.4,0-2.1,0c-0.1,0.1-0.2,0.2-0.3,0.4
	c0.4,0.4,0.7,0.8,1.3,1.5c0,0.2,0,0.9,0,1.4c-0.5,0.5-0.9,0.8-1.3,1.2c0,0.2,0,0.3,0,0.5c2.3-0.4,2.8,0.7,2.7,2.5
	c0,0.5,0.4,1.1,0.9,1.5c2.2,1.8,2.8,4,2.8,6.7c-0.1,15.7,0,31.4-0.1,47.2c0,3.7-1.9,5.6-5.5,5.6c-1.3,0-2.5,0-3.8,0
	c-3.3,0-5.3-2-5.3-5.3c0-12.5,0-24.9,0-37.4c0-3.7,0.1-7.3,0-11c-0.1-2.1,0.6-3.8,2.2-5.1c1-0.8,1.8-1.7,1.5-3.2
	c-0.1-1,0.5-1.4,1.5-1.5c0.4,0,0.7-0.5,1-0.7C31.7,22.9,31.7,22.8,31.6,22.7z M28.1,38.6c0,14.7,0,29.2,0,43.8c0,1.6,1,2.5,2.6,2.5
	c1.4,0,2.7,0,4.1,0c2.2,0,3-0.9,3-3.1c0-13.9,0-27.9,0-41.8c0-0.5-0.1-1-0.1-1.5C34.5,38.6,31.3,38.6,28.1,38.6z M28.2,35.9
	c3.2,0,6.3,0,9.5,0c0.4-2.5,0.2-4.8-2-6.5c-0.9-0.7-1.4-1.9-2.1-3.1c-0.4,0-1.1,0-1.8,0c0.1,0.1,0.2,0.2,0.3,0.3
	c-0.5,0.8-0.8,1.9-1.5,2.4C28.3,30.9,27.6,33.1,28.2,35.9z M18.4,31.2c0,2,0,4,0,5.9c0.8,0,1.5,0,2.2,0c0-2,0-4,0-5.9
	C19.8,31.2,19.1,31.2,18.4,31.2z M18.1,28.6c1.1,0,1.8,0,2.9,0c-0.3-0.8-0.5-1.5-0.9-2.1c-0.1-0.2-1-0.2-1.2,0
	C18.5,27.1,18.4,27.8,18.1,28.6z M27.3,15.3c-0.8-0.6-1.3-1.1-1.8-1.1c-0.4,0-1.1,0.8-1.1,1.1c0.1,0.5,0.7,1.1,1.2,1.2
	C26,16.5,26.5,15.8,27.3,15.3z"/>
<path class="st0" d="M51.1,23.7c-0.6-0.6-0.9-1-1.5-1.6c0-0.3,0-1,0-1.5c0.4-0.4,0.9-0.8,1.3-1.2c-0.1-0.1-0.2-0.3-0.3-0.4
	c-0.7,0-1.4,0-2.2,0c0-0.8,0-1.6,0-2.4c2.3,0,4.7,0,7.2,0c0,0.7,0,1.4,0,2.3c-0.7,0-1.4,0-2.2,0c-0.1,0.1-0.2,0.3-0.3,0.4
	c0.3,0.4,0.7,0.8,1,1.2c0.1-0.1,0.2-0.1,0.3-0.2c0,0.7,0,1.4,0,1.9c-0.5,0.5-0.9,0.8-1.5,1.4c2.7,0.5,2.6,0.5,2.8,2.7
	c0.1,0.5,0.4,1.2,0.8,1.5c2.3,1.8,2.9,4.1,2.9,7c-0.1,15.6-0.1,31.1-0.1,46.7c0,4.1-1.8,5.9-5.9,5.9c-1.2,0-2.3,0-3.5,0
	c-3.3,0-5.3-2-5.3-5.3c0-14.6,0-29.2,0-43.8c0-1,0.1-1.9,0-2.9c-0.4-3.1,0.5-5.7,3-7.7c0.4-0.3,0.6-0.9,0.6-1.4
	C48.5,24,48.5,24,51.1,23.7z M47.2,38.5c0,2.5,0,4.8,0,7.2c0,12,0,24.1,0,36.1c0,2.2,0.9,3,3,3.1c1.1,0,2.1,0,3.2,0
	c2.8,0,3.5-0.7,3.5-3.5c0-13.7,0-27.4,0-41.2c0-0.5,0-1.1,0-1.7C53.6,38.5,50.5,38.5,47.2,38.5z M47.3,35.9c3.2,0,6.4,0,9.4,0
	c0.7-2.9-0.1-5.1-2.3-6.9c-0.7-0.6-1-1.7-1.6-2.7c-0.4,0-1.2,0-1.9,0c0.1,0.1,0.2,0.2,0.3,0.3c-0.5,0.8-0.8,1.9-1.5,2.4
	C47.4,30.9,46.7,33.1,47.3,35.9z"/>
<path class="st0" d="M36.5,41c0,0.8,0,1.5,0,2.3c-2.4,0-4.8,0-7.2,0c0-0.7,0-1.4,0-2.3C31.7,41,34,41,36.5,41z"/>
<path class="st0" d="M36.5,44.7c0,0.8,0,1.5,0,2.3c-1.2,0-2.3,0-3.5,0c0-0.7,0-1.5,0-2.3C34.2,44.7,35.3,44.7,36.5,44.7z"/>
<path class="st0" d="M31.6,47c-0.8,0-1.5,0-2.3,0c0-0.8,0-1.5,0-2.3c0.7,0,1.5,0,2.3,0C31.6,45.4,31.6,46.1,31.6,47z"/>
<path class="st0" d="M48.4,43.3c0-0.8,0-1.5,0-2.3c2.4,0,4.7,0,7.1,0c0,0.7,0,1.4,0,2.3C53.3,43.3,50.9,43.3,48.4,43.3z"/>
<path class="st0" d="M55.6,44.7c0,0.7,0,1.4,0,2.2c-1.2,0-2.3,0-3.5,0c0-0.7,0-1.4,0-2.2C53.2,44.7,54.3,44.7,55.6,44.7z"/>
<path class="st0" d="M48.4,46.9c0-0.8,0-1.5,0-2.2c0.8,0,1.5,0,2.3,0c0,0.7,0,1.4,0,2.2C50,46.9,49.3,46.9,48.4,46.9z"/>
<path class="st0" d="M69.9,23c-0.6-0.6-0.9-1-1.5-1.6c0-0.3,0-1,0-1.5c0.4-0.4,0.9-0.8,1.3-1.2c-0.1-0.1-0.2-0.3-0.3-0.4
	c-0.7,0-1.4,0-2.2,0c0-0.8,0-1.6,0-2.4c2.3,0,4.7,0,7.2,0c0,0.7,0,1.4,0,2.3c-0.7,0-1.4,0-2.2,0c-0.1,0.1-0.2,0.3-0.3,0.4
	c0.3,0.4,0.7,0.8,1,1.2c0.1-0.1,0.2-0.1,0.3-0.2c0,0.7,0,1.4,0,1.9c-0.5,0.5-0.9,0.8-1.5,1.4c2.7,0.5,2.6,0.5,2.8,2.7
	c0.1,0.5,0.4,1.2,0.8,1.5c2.3,1.8,2.9,4.1,2.9,7c-0.1,15.6-0.1,31.1-0.1,46.7c0,4.1-1.8,5.9-5.9,5.9c-1.2,0-2.3,0-3.5,0
	c-3.3,0-5.3-2-5.3-5.3c0-14.6,0-29.2,0-43.8c0-1,0.1-1.9,0-2.9c-0.4-3.1,0.5-5.7,3-7.7c0.4-0.3,0.6-0.9,0.6-1.4
	C67.3,23.3,67.3,23.3,69.9,23z M66,37.9c0,2.5,0,4.8,0,7.2c0,12,0,24.1,0,36.1c0,2.2,0.9,3,3,3.1c1.1,0,2.1,0,3.2,0
	c2.8,0,3.5-0.7,3.5-3.5c0-13.7,0-27.4,0-41.2c0-0.5,0-1.1,0-1.7C72.4,37.9,69.3,37.9,66,37.9z M66.1,35.2c3.2,0,6.4,0,9.4,0
	c0.7-2.9-0.1-5.1-2.3-6.9c-0.7-0.6-1-1.7-1.6-2.7c-0.4,0-1.2,0-1.9,0c0.1,0.1,0.2,0.2,0.3,0.3c-0.5,0.8-0.8,1.9-1.5,2.4
	C66.2,30.2,65.5,32.4,66.1,35.2z"/>
<path class="st0" d="M67.2,42.6c0-0.8,0-1.5,0-2.3c2.4,0,4.7,0,7.1,0c0,0.7,0,1.4,0,2.3C72.1,42.6,69.7,42.6,67.2,42.6z"/>
<path class="st0" d="M74.4,44c0,0.7,0,1.4,0,2.2c-1.2,0-2.3,0-3.5,0c0-0.7,0-1.4,0-2.2C72,44,73.1,44,74.4,44z"/>
<path class="st0" d="M67.2,46.2c0-0.8,0-1.5,0-2.2c0.8,0,1.5,0,2.3,0c0,0.7,0,1.4,0,2.2C68.8,46.2,68.1,46.2,67.2,46.2z"/>
</svg>
