<?xml version="1.0" encoding="utf-8"?>
<!-- Generator: Adobe Illustrator 24.0.1, SVG Export Plug-In . SVG Version: 6.00 Build 0)  -->
<svg version="1.1" id="Layer_1" xmlns="http://www.w3.org/2000/svg" xmlns:xlink="http://www.w3.org/1999/xlink" x="0px" y="0px"
	 viewBox="0 0 100 100" style="enable-background:new 0 0 100 100;" xml:space="preserve">
<style type="text/css">
	.st0{fill:#FFFFFF;}
</style>
<g>
	<path class="st0" d="M35.5,26.9c0.1-0.5,0.6-0.9,0.9-1.3c0.4,0.4,0.8,0.8,1.1,1.2c0.1,0.1,0,0.4,0.1,0.8c0.4,0,0.8-0.1,1.1,0.1
		c0.5,0.3,0.9,0.7,1.3,1.1c-0.5,0.3-0.9,0.7-1.4,1c-0.1,0.1-0.3,0-0.4,0C35.5,29.8,35.2,29.5,35.5,26.9z"/>
	<path class="st0" d="M78.1,56.2c-2.5-0.1-3.6,0.4-4.1,2c-0.8,2.8,0,4.8,2.4,6.2c0,0.2,0,0.5,0,0.8c0,2.2,0,4.3,0,6.5
		c-0.1,3-2.1,5.6-4.9,6.6c-4.8,1.6-9.5-1.9-9.5-7.1c0-12.6,0-25.2,0-37.8c0-6.2-3.9-10.2-10-10.2c-3.2,0-6.5,0-9.7,0
		c-0.4,0-0.9,0-1.4,0c0-0.7,0-1.1,0-1.6c0-0.5,0-0.9,0-1.3c2-0.5,2.2-0.8,2.2-2.7c0-0.4,0-0.8,0-1.2c-0.1-1.1-0.7-1.7-1.8-1.7
		c-3.1,0-6.2,0-9.3,0c-0.5,0-1.2,0.3-1.5,0.8c-1.2,1.6-0.1,4.4,1.9,4.9c0.1,1.6,0.3,3.1-1.1,4.4c-0.7,0.6-0.9,1.9-1.3,2.8
		c-0.2,0.4-0.4,0.9-0.8,1.1c-4.3,2.2-6.2,5.7-6.2,10.4c0,6.9,0,13.7,0,20.6c0,6,0,12,0,18c0,4.8,3.1,7.8,7.8,7.8c4.1,0,8.1,0,12.2,0
		c4.3,0,7.5-3.2,7.5-7.4c0-13.3,0.1-26.7,0-40c0-3.7-1.7-6.8-4.9-8.6c-1.8-1-2.4-2.3-2.7-4.2c3.2,0,6.3,0,9.4,0c4.7,0,7.7,3,7.7,7.7
		c0,12.6,0,25.3,0,37.9c0,1,0.1,2,0.4,3c1.2,4.4,5.5,7.3,9.9,6.8c4.8-0.6,8.3-4.4,8.4-9.3c0.1-2.4,0-4.8,0-7.1
		c2.8-1.1,2.7-2.3,2.4-5.8C80.8,57,79.7,56.3,78.1,56.2z M32.2,17.3c0.3-0.2,0.6-0.6,0.9-0.6c2.3,0,4.7-0.1,7,0c0.3,0,0.7,0.5,1,0.8
		c-0.1,0.1-0.3,0.3-0.4,0.4c-2.5,0-5,0-7.6,0C32.8,17.9,32.5,17.5,32.2,17.3z M38.6,20.1c0,0.7,0,1.3,0,2c-0.7-0.1-1.4-0.2-2-0.2
		c-0.7,0-1.4,0.1-2.1,0.2c0-0.6,0-1.2,0-2c0.7,0,1.4,0,2,0C37.2,20.1,37.9,20.1,38.6,20.1z M36.6,24c2.6,0,4.7,2.1,4.7,4.8
		c0,2.7-2,4.7-4.7,4.7c-2.7,0-4.8-2.1-4.8-4.8C31.8,26.1,34,24,36.6,24z M43.2,30.6c3.8,1.5,5.6,5.5,4.8,10.7c-0.5,0-1,0-1.4,0
		c-4.7,0-9.3,0-14,0c-0.7,0-1.6-0.1-1.7,1c0,1.2,0.9,1.1,1.7,1.1c4.6,0,9.2,0,13.8,0c0.5,0,1,0,1.6,0c0,0.5,0.1,0.9,0.1,1.3
		c0,10.8,0,21.7,0,32.5c0,4.2-2,6.2-6.2,6.2c-3.7,0-7.5,0-11.2,0c-3.8,0-5.9-2.2-5.9-5.9c0-10.8,0-21.7,0-32.5c0-0.5,0-0.9,0-1.5
		c0.9,0,1.8,0.1,2.5,0c0.5-0.1,0.8-0.6,1.3-1c-0.4-0.3-0.8-0.9-1.2-1c-0.8-0.2-1.6,0-2.4,0c-0.8-5.1,1-9.1,4.8-10.7
		c1.2,3,3.3,5,6.7,4.9C39.9,35.5,42.1,33.7,43.2,30.6z M78.9,59.8c0,2.2-0.2,2.4-1.9,2.1c-0.4-0.1-0.7-0.6-0.9-1
		c-0.1-0.2,0-0.5,0-0.8c0-1-0.2-1.9,1.5-1.9C79.1,58.2,78.9,59.2,78.9,59.8z"/>
	<path class="st0" d="M89.2,38.8c0.9-1.6,1.1-3.3,0.5-5.1c-0.2-0.7-0.6-1.4-1.4-1c-0.4,0.2-0.5,1-0.5,1.6c-0.1,0.9,0.3,2-0.1,2.8
		c-1,2-2.2,3.9-3.4,5.9c-3.5-7.1-10.4-6.7-13.6,0c-1-1.6-1.8-3.1-2.7-4.5c-0.9-1.3-1.3-2.7-0.8-4.3c0.1-0.4-0.3-1-0.5-1.5
		c-0.5,0.3-1.2,0.5-1.4,1c-0.8,1.7-0.5,3.4,0.4,5c0.7,1.2,1.3,2.5,2.2,3.5c1.7,2.1,2,4,0.5,6.5c-1.7,3-0.5,7.8,2.1,10
		c0.3,0.3,1,0.2,1.5,0.3c0-0.5,0.1-1.1,0-1.6c-0.1-0.3-0.4-0.6-0.6-0.9c-1.3-1.8-2.1-3.9-1.4-6c1-2.9,2.3-5.9,3.9-8.5
		c1.9-3.1,5.6-3,7.5,0.1c1.6,2.6,2.6,5.6,3.9,8.4c0.1,0.3,0.1,0.7,0.1,1.1c0.1,2.1-0.8,3.9-2.1,5.6c-0.5,0.6-0.8,1.3-0.1,1.8
		c0.4,0.2,1.3-0.1,1.7-0.5c0.6-0.6,1.1-1.5,1.5-2.3c1.4-2.9,1.5-5.8-0.2-8.6c-0.9-1.4-0.9-2.6,0.1-4C87.4,42.1,88.2,40.4,89.2,38.8z
		"/>
	<path class="st0" d="M77.5,44.9c0.6,0.9,1,1.7,1.6,2.2c0.3,0.3,0.9,0.3,1.4,0.4c0.1-0.5,0.5-1.2,0.3-1.5c-0.8-1.2-1.3-2.9-3.1-3
		c-1.9-0.1-2.4,1.5-3.2,2.6c-0.1,0.1-0.2,0.2-0.2,0.3c0,0.5,0.1,1,0.2,1.5c0.5-0.1,1.2-0.1,1.5-0.4C76.4,46.6,76.8,45.8,77.5,44.9z"
		/>
	<path class="st0" d="M38.2,29.8c0.1,0,0.3,0.1,0.4,0c0.5-0.3,1-0.6,1.4-1c-0.4-0.4-0.8-0.8-1.3-1.1c-0.2-0.1-0.6-0.1-1.1-0.1
		c0-0.4,0.1-0.6-0.1-0.8c-0.3-0.4-0.7-0.8-1.1-1.2c-0.3,0.4-0.9,0.8-0.9,1.3C35.2,29.5,35.5,29.8,38.2,29.8z"/>
</g>
</svg>
