<?xml version="1.0" encoding="utf-8"?>
<!-- Generator: Adobe Illustrator 24.0.1, SVG Export Plug-In . SVG Version: 6.00 Build 0)  -->
<svg version="1.1" id="Layer_1" xmlns="http://www.w3.org/2000/svg" xmlns:xlink="http://www.w3.org/1999/xlink" x="0px" y="0px"
	 viewBox="0 0 100 100" style="enable-background:new 0 0 100 100;" xml:space="preserve">
<style type="text/css">
	.st0{fill:#434343;}
</style>
<path class="st0" d="M30.3,67.3c-1.2-1.8-2.4-3.6-3.7-5.5c-0.6,0.3-1.3,0.9-2,0.9c-0.7,0-1.4-0.4-2.2-0.7c0.3-0.7,0.4-1.5,0.8-2
	c0.5-0.5,1.3-0.8,2.1-1.2c-0.5-2.4-1-4.7-1.5-7.2c-1.6-0.2-3-0.6-4.3,1.4c-1.5,2.5-5.1,2.6-7.3,0.7c-2.2-2-2.3-5.4-0.1-7.5
	c2.1-2,5.8-2,7.3,0.5c1.2,2,2.7,1.7,4.3,1.6c0.5-2.5,1-4.8,1.5-7.3c-0.6-0.3-1.4-0.6-1.9-1.1c-0.5-0.5-1-1.5-0.8-2
	c0.3-1,1.3-1.1,2.2-0.6c0.6,0.3,1.2,0.6,1.8,0.9c1.3-1.9,2.5-3.7,3.8-5.5c-1.1-1.2-1.9-2.5-4.2-2c-2.9,0.7-5.5-1.9-5.5-4.9
	c0-3,2.5-5.3,5.5-5.1c3,0.2,5.2,2.9,4.6,5.9c-0.3,1.3,0,2,0.9,2.9c3.6,3.5,3.2,2.9,0.4,6.3c-7.4,9.2-6.5,22.6,2.1,30.8
	c8.6,8.3,22,8.6,31.1,0.7c2.2-1.9,2.2-1.9,4.3,0.2c0.4,0.4,0.9,0.8,1.3,1.3c0.6,0.8,1.3,1,2.3,0.7c2.2-0.6,4.4,0.4,5.5,2.3
	c1.1,1.9,0.9,4.3-0.6,6c-1.4,1.6-3.7,2.1-5.7,1.3c-2.1-0.8-3.3-2.8-3.1-5.1c0.2-2.5,0.2-2.5-1.9-4.3c-1.8,1.2-3.6,2.4-5.4,3.7
	c0.2,1.3,2.1,2.8,0.2,3.8c-2.2,1.1-2.2-1.6-3.2-2.5c-2.4,0.5-4.7,1-7.1,1.5c-0.6,2.1-0.4,2.8,1.3,4.2c2.3,1.8,2.6,5.2,0.6,7.4
	c-2,2.2-5.4,2.3-7.5,0.1c-2-2.1-2-5.7,0.4-7.3c1.9-1.2,1.8-2.7,1.6-4.5c-1.3-0.2-2.5-0.3-3.7-0.6c-1.2-0.3-2.4-0.6-3.5-0.9
	c-1.1,1-1.1,3.7-3.3,2.6c-2-1-0.1-2.5,0.2-3.9c-1.8-1.2-3.5-2.4-5.4-3.7c-1.3,1.1-2.5,2-2,4.2c0.6,2.9-1.9,5.4-4.8,5.5
	c-3,0.1-5.3-2.2-5.3-5.2c0-2.9,2.5-5.4,5.3-4.9C28.1,69.7,29.2,68.9,30.3,67.3z M17.7,49.4c-0.5-0.4-1.2-1.2-2-1.3
	c-1.2-0.2-2,0.7-2,2c0,1.1,0.7,1.9,1.9,1.9C16.9,52,17.5,51.2,17.7,49.4z M52.1,83.8c-0.5-0.4-1.2-1.2-2.1-1.3c-1.2-0.2-2,0.7-2,2
	c0,1.2,0.8,1.9,1.9,1.9C51.2,86.3,51.9,85.5,52.1,83.8z M25.3,27.8c1.7-0.3,2.5-1,2.4-2.3c-0.1-1.2-0.9-1.9-2-1.8
	c-1.2,0.1-2.1,0.9-1.8,2.1C24,26.6,24.8,27.3,25.3,27.8z M27.8,74.8c-0.2-1.7-0.9-2.5-2.2-2.5c-1.2,0-1.9,0.8-1.9,1.9
	c0,1.2,0.8,2.1,2,1.9C26.6,76.1,27.2,75.2,27.8,74.8z M73.7,76.4c1.7-0.2,2.5-0.9,2.5-2.1c0-1.2-0.8-1.9-1.9-1.9
	c-1.2,0-2.1,0.8-1.9,2C72.5,75.2,73.4,75.8,73.7,76.4z"/>
<path class="st0" d="M76.1,51.7c-0.2,1.3-0.3,2.5-0.6,3.7c-0.2,1.1-0.6,2.3-0.9,3.5c0.7,0.4,1.6,0.7,2.1,1.2c0.5,0.5,0.6,1.3,0.8,2
	c-0.7,0.2-1.4,0.7-2.1,0.7c-0.7,0-1.3-0.6-2.1-1c-0.3,0.4-0.5,0.9-0.8,1.3c-0.5,0.9-1.2,1.5-2.2,0.9c-1.1-0.6-0.9-1.4-0.5-2.5
	c1-2.7,2.3-5.3,2.8-8.1c1.4-9-1.7-16.5-9-21.9c-7.3-5.4-15.3-6-23.6-2.3c-0.2,0.1-0.3,0.1-0.5,0.2c-1.1,0.5-2.3,1.6-3.2,0
	c-0.9-1.6,0.7-2,1.8-2.9c-0.3-0.7-0.9-1.3-0.9-2c0-0.7,0.4-1.4,0.7-2.2c0.7,0.3,1.5,0.4,2,0.8c0.5,0.5,0.8,1.3,1.2,2.1
	c2.4-0.5,4.7-1,7.2-1.5c0.2-1.5,0.6-3-1.4-4.3c-2.5-1.5-2.6-5.1-0.6-7.3c2-2.2,5.5-2.3,7.5-0.1c2,2.1,2,5.8-0.5,7.3
	c-2,1.2-1.7,2.7-1.6,4.3c2.4,0.5,4.8,1,7.3,1.5c0.3-0.6,0.6-1.5,1.1-1.9c0.5-0.5,1.5-1,2-0.8c1,0.3,1,1.3,0.6,2.2
	c-0.3,0.6-0.6,1.2-0.9,1.8c1.9,1.3,3.6,2.5,5.5,3.8c1.2-1.1,2.5-1.9,2-4.2c-0.7-2.9,1.8-5.4,4.8-5.5c3-0.1,5.3,2.2,5.3,5.1
	c0,2.9-2.5,5.2-5.4,5c-2.5-0.1-2.5-0.1-4.3,1.9c1.2,1.8,2.4,3.6,3.8,5.5c0.5-0.3,1.2-0.6,1.8-0.9c0.9-0.4,2-0.4,2.3,0.6
	c0.2,0.6-0.3,1.5-0.8,2c-0.5,0.5-1.3,0.8-2,1.1c0.5,2.4,1,4.7,1.5,7.1c2.1,0.7,2.8,0.4,4.2-1.3c1.8-2.3,5.1-2.6,7.3-0.7
	c2.2,2,2.3,5.4,0.2,7.5c-2.1,2-5.7,2-7.3-0.4C79.4,51.4,77.9,51.5,76.1,51.7z M49.4,17.7c1.7-0.2,2.6-0.8,2.6-2.1
	c0-1.2-0.7-1.9-1.9-2c-1.2,0-2.2,0.7-2,2C48.2,16.4,49,17.1,49.4,17.7z M82.3,50.5c0.5,0.4,1.2,1.3,1.9,1.4c1.2,0.3,2-0.6,2.1-1.9
	c0.1-1.2-0.7-1.9-1.8-2C83.3,48,82.6,48.7,82.3,50.5z M73.9,23.6c-0.4,0.5-1.3,1.2-1.5,2c-0.3,1.2,0.6,2,1.8,2.1
	c1.2,0.1,1.9-0.6,2-1.8C76.3,24.6,75.6,23.9,73.9,23.6z"/>
<path class="st0" d="M39.3,37.8c3.9,0,7.1,3.1,7.1,7c0.1,3.9-3.2,7.2-7.1,7.2c-3.9,0-7-3.2-7-7.1C32.3,41,35.4,37.9,39.3,37.8z
	 M43.3,45c0-2.2-1.7-4-3.9-4.1c-2.2-0.1-4.1,1.7-4.1,4c0,2.2,1.8,4,3.9,4C41.5,49,43.3,47.2,43.3,45z"/>
<path class="st0" d="M64.5,42.6c0,2.6-2.2,4.7-4.8,4.7c-2.6,0-4.7-2.2-4.7-4.8c0-2.6,2.2-4.7,4.8-4.6C62.4,37.9,64.5,40,64.5,42.6z
	 M59.7,44.9c0.8-1.1,1.6-1.7,1.6-2.3c0-0.6-0.9-1.5-1.4-1.6c-0.5,0-1.5,0.9-1.6,1.4C58.2,43.1,59,43.7,59.7,44.9z"/>
<path class="st0" d="M56.7,61.5c0,2.6-2.2,4.7-4.8,4.7c-2.6,0-4.7-2.2-4.7-4.8c0-2.6,2.2-4.7,4.8-4.7C54.7,56.8,56.8,58.9,56.7,61.5
	z M51.9,59.1c-0.7,1.1-1.5,1.8-1.4,2.4c0.1,0.6,1,1.5,1.6,1.4c0.5,0,1.4-1,1.5-1.5C53.6,60.8,52.7,60.2,51.9,59.1z"/>
<path class="st0" d="M50.1,31c1.2,0.2,2,0.8,1.9,2.1c0,1.2-0.8,1.9-2,1.9c-1.2,0-2-0.7-2-2C48,31.8,48.8,31.1,50.1,31z"/>
<path class="st0" d="M65.3,58.6c-1.3-0.1-2-0.8-2-2c0-1.2,0.8-2,2.1-1.9c1.2,0,1.9,0.7,1.9,1.9C67.3,57.8,66.6,58.5,65.3,58.6z"/>
<path class="st0" d="M40.7,60.5c-0.1,1.3-0.7,2.1-2,2.1c-1.3,0-2-0.7-2-2c0-1.2,0.7-1.9,1.9-1.9C39.9,58.6,40.6,59.3,40.7,60.5z"/>
</svg>
