<?xml version="1.0" encoding="utf-8"?>
<!-- Generator: Adobe Illustrator 24.0.1, SVG Export Plug-In . SVG Version: 6.00 Build 0)  -->
<svg version="1.1" id="Layer_1" xmlns="http://www.w3.org/2000/svg" xmlns:xlink="http://www.w3.org/1999/xlink" x="0px" y="0px"
	 viewBox="0 0 100 100" style="enable-background:new 0 0 100 100;" xml:space="preserve">
<style type="text/css">
	.st0{fill:#434343;}
</style>
<g>
	<path class="st0" d="M55.6,85c-1.8,0-3.3-1.5-3.3-3.3v-9.5c0-1.8,1.5-3.3,3.3-3.3h0.7V58.4c0-1.3,0.1-2.6,0.4-3.8
		c0.3-1.2,0.9-2.6,2.2-3.9l2.6-2.6c0.3-0.3,0.7-0.5,1.1-0.5c0.4,0,0.8,0.2,1.1,0.5c0.6,0.7,0.6,1.6,0,2.2l-2.6,2.6
		c-0.7,0.7-1.1,1.7-1.4,2.5c-0.2,0.8-0.3,1.9-0.3,3v10.5h12.5V66c0-0.7,0.1-1.3,0.3-1.8c0.2-0.6,0.6-1.1,1-1.6l8.6-8.6
		c0.3-0.3,0.5-0.6,0.6-1c0.1-0.4,0.2-0.8,0.2-1.2V29.1c0-0.8-0.3-1.6-0.9-2.1c-0.6-0.6-1.3-0.9-2.1-0.9c-0.8,0-1.6,0.3-2.1,0.9
		c-0.5,0.5-0.9,1.3-0.9,2.1v13.5c0.9,1,1.4,2.4,1.4,3.9c0,1.7-0.6,3.2-1.8,4.4l-6.4,6.4c-0.3,0.3-0.7,0.5-1.1,0.5
		c-0.4,0-0.8-0.2-1.1-0.5C67.2,57,67,56.6,67,56.2c0-0.4,0.2-0.8,0.5-1.1l6.4-6.4c0.5-0.5,0.9-1.3,0.9-2.1s-0.3-1.6-0.9-2.1
		c-0.5-0.5-1.3-0.9-2.1-0.9s-1.6,0.3-2.1,0.9l-2.6,2.6c-0.3,0.3-0.7,0.5-1.1,0.5c-0.4,0-0.8-0.2-1.1-0.5c-0.6-0.6-0.6-1.6,0-2.2
		l2.6-2.6c1.2-1.2,2.7-1.8,4.4-1.8c0.5,0,1.1,0.1,1.7,0.3V29.1c0-1.6,0.6-3.1,1.8-4.4c1.2-1.2,2.8-1.8,4.4-1.8
		c1.6,0,3.1,0.6,4.4,1.8c1.2,1.2,1.8,2.8,1.8,4.4v22.6c0,0.7-0.2,1.5-0.5,2.4c-0.3,0.6-0.7,1.3-1.3,2l-8.6,8.6
		c-0.1,0.1-0.3,0.4-0.3,0.5C75.1,65.5,75,65.7,75,66v2.8h0.7c1.8,0,3.3,1.5,3.3,3.3v9.5c0,1.8-1.5,3.3-3.3,3.3H55.6z M55.6,71.9
		c-0.1,0-0.3,0.1-0.3,0.3v9.5c0,0.1,0.1,0.3,0.3,0.3h20c0.1,0,0.3-0.1,0.3-0.3v-9.5c0-0.1-0.2-0.3-0.3-0.3H55.6z M26.3,85
		c-1.8,0-3.3-1.5-3.3-3.3v-9.5c0-1.8,1.5-3.3,3.3-3.3h0.7V66c0-0.3-0.1-0.5-0.2-0.8c0-0.1-0.1-0.2-0.2-0.4c-0.1-0.1-0.1-0.2-0.2-0.2
		L18,56.1c-0.5-0.5-0.9-1.2-1.3-2c-0.3-0.9-0.5-1.7-0.5-2.4v-9.1c0-0.8,0.6-1.6,1.6-1.6c0.8,0,1.6,0.6,1.6,1.6v9.1
		c0,0.4,0.1,0.8,0.2,1.2c0.2,0.4,0.4,0.7,0.6,0.9l8.6,8.6c0.5,0.5,0.8,1,1,1.7c0.2,0.6,0.3,1.2,0.3,1.8v2.8h12.5V58.4
		c0-1.1-0.1-2.1-0.4-3c-0.3-1-0.7-1.8-1.3-2.5l-8.6-8.6c-0.5-0.5-1.3-0.9-2.1-0.9s-1.6,0.3-2.1,0.9c-0.5,0.5-0.9,1.3-0.9,2.1
		s0.3,1.6,0.9,2.1l6.4,6.4c0.3,0.3,0.5,0.7,0.5,1.1c0,0.4-0.2,0.8-0.5,1.1c-0.3,0.3-0.7,0.5-1.1,0.5c-0.4,0-0.8-0.2-1.1-0.5
		l-6.4-6.4c-1.2-1.2-1.8-2.7-1.8-4.4c0-1.4,0.5-2.7,1.4-3.8V29.1c0-0.8-0.3-1.6-0.9-2.1c-0.5-0.5-1.3-0.9-2.1-0.9
		c-0.8,0-1.6,0.3-2.1,0.9c-0.5,0.5-0.9,1.3-0.9,2.1l-0.1,8.7c0,0.8-0.6,1.6-1.6,1.6c-0.8,0-1.6-0.6-1.6-1.6v-8.6
		c0-1.6,0.6-3.1,1.8-4.4c1.2-1.2,2.8-1.8,4.4-1.8c1.6,0,3.1,0.6,4.4,1.8c1.2,1.2,1.8,2.8,1.8,4.4v11.5c0.6-0.2,1.2-0.3,1.7-0.3
		c1.7,0,3.2,0.6,4.4,1.8l8.6,8.6c1.3,1.3,1.8,2.8,2.1,3.9c0.3,1.1,0.4,2.4,0.4,3.8v10.5h0.7c1.8,0,3.3,1.5,3.3,3.3v9.5
		c0,1.8-1.5,3.3-3.3,3.3H26.3z M26.3,71.9c-0.1,0-0.3,0.1-0.3,0.3v9.5c0,0.1,0.1,0.3,0.3,0.3h20c0.1,0,0.3-0.1,0.3-0.3v-9.5
		c0-0.1-0.1-0.3-0.3-0.3H26.3z M70.9,81c-1.2,0-2.2-0.5-2.9-1.3c-0.8-0.8-1.2-1.8-1.2-2.9c0-1.2,0.5-2.2,1.3-2.9
		c0.8-0.7,1.9-1.1,2.9-1.1c1.1,0,2.2,0.4,2.9,1.2c0.8,0.8,1.2,1.9,1.2,2.9c0,1.2-0.5,2.2-1.3,2.9C73,80.6,71.9,81,70.9,81z
		 M70.9,75.9c-0.2,0-0.5,0.1-0.7,0.3c-0.2,0.2-0.3,0.5-0.3,0.7s0.1,0.5,0.3,0.7c0.2,0.2,0.5,0.3,0.7,0.3s0.5-0.1,0.7-0.3
		s0.3-0.5,0.3-0.7s-0.1-0.5-0.3-0.7C71.3,76,71.1,75.9,70.9,75.9z M31,81c-1.2,0-2.2-0.5-2.9-1.3C27.4,79,27,78,27,76.8
		s0.4-2.2,1.2-2.9c0.7-0.6,1.8-1.2,2.9-1.2c1.1,0,2.2,0.4,2.9,1.2c0.7,0.7,1.2,1.8,1.2,2.9S34.7,79,34,79.8C33.2,80.6,32.1,81,31,81
		z M31.1,75.9c-0.2,0-0.5,0.1-0.7,0.3c-0.2,0.2-0.3,0.5-0.3,0.7s0.1,0.5,0.3,0.7c0.2,0.2,0.5,0.3,0.7,0.3c0.2,0,0.5-0.1,0.7-0.3
		c0.2-0.2,0.3-0.4,0.3-0.6c-0.1-0.3-0.2-0.5-0.4-0.8C31.6,76,31.4,75.9,31.1,75.9z M51,46.6c-0.6,0-1.3-0.2-1.8-0.7L45,41.7
		c-0.5-0.5-0.8-1.2-0.8-1.9c0-0.6,0.2-1.3,0.7-1.8l1.8-1.8c0.4-0.4,0.7-1,0.7-1.7c0-0.6-0.2-1.2-0.7-1.7s-1-0.7-1.7-0.7
		s-1.2,0.2-1.7,0.7l-1.8,1.8c-0.5,0.5-1.2,0.8-1.9,0.8c-0.6,0-1.3-0.2-1.8-0.7l-4.2-4.2c-0.5-0.5-0.7-1.3-0.7-1.9
		c0-0.6,0.2-1.3,0.7-1.8l6-6.2c0.3-0.3,0.7-0.5,1.1-0.5c0.4,0,0.8,0.2,1.1,0.5c0.3,0.3,0.5,0.7,0.5,1.1s-0.2,0.8-0.5,1.1L36,28.4
		l3.6,3.6l1.5-1.5c1-1,2.4-1.6,3.9-1.6c1.5,0,2.9,0.6,3.9,1.6c1,1,1.6,2.4,1.6,3.9c0,1.5-0.6,2.9-1.6,3.9l-1.5,1.5l3.6,3.6l3.6-3.6
		L53,38.4c-1-1-1.6-2.4-1.6-3.9s0.6-2.9,1.6-3.9c1-1,2.4-1.6,3.9-1.6s2.9,0.6,3.9,1.6l1.5,1.5l3.6-3.6l-4.1-4.1
		c-0.4-0.5-0.5-1-0.5-1.6c0-0.5,0.2-1,0.5-1.6l0.1-0.1l1.9-1.9c0.4-0.4,0.7-1,0.7-1.7s-0.2-1.2-0.7-1.7c-0.4-0.4-1-0.7-1.7-0.7
		c-0.6,0-1.2,0.2-1.7,0.7l-1.8,1.8c-0.5,0.5-1.3,0.7-1.8,0.7c-0.7,0-1.3-0.2-1.9-0.7l-4-4.1l-5.8,5.8c-0.3,0.3-0.7,0.5-1.1,0.5
		c-0.4,0-0.8-0.2-1.1-0.5c-0.6-0.6-0.6-1.6,0-2.2l6.1-6.1c0.5-0.5,1.3-0.7,1.8-0.7c0.6,0,1.3,0.2,1.8,0.7l3.9,3.9l1.5-1.5
		c1-1,2.4-1.6,3.9-1.6s2.9,0.6,3.9,1.6c1,1,1.6,2.4,1.6,3.9c0,1.5-0.6,2.9-1.6,3.9l-1.5,1.5l3.8,3.8c0.5,0.5,0.7,1.3,0.7,1.9
		c0,0.6-0.2,1.3-0.7,1.8l-4,4.2c-0.5,0.5-1.3,0.7-1.9,0.7c-0.6,0-1.3-0.2-1.8-0.7l-1.8-1.8c-0.4-0.4-1-0.7-1.7-0.7
		c-0.7,0-1.3,0.2-1.8,0.7c-0.9,0.9-0.9,2.5,0,3.5l1.7,1.7c0.5,0.5,0.8,1.2,0.8,1.9c0,0.6-0.2,1.3-0.7,1.8l-4.2,4.2
		C52.4,46.3,51.8,46.6,51,46.6z"/>
	<path class="st0" d="M18.7,37.8c0,0.6-0.5,1.1-1.1,1.1c-0.6,0-1.1-0.5-1.1-1.1v-8.6c0-1.6,0.6-2.9,1.7-4c1-1,2.5-1.7,4-1.7
		c1.6,0,2.9,0.6,4,1.7c1,1,1.7,2.5,1.7,4v12.1c0.7-0.3,1.5-0.5,2.2-0.5c1.5,0,2.9,0.6,4,1.7l8.6,8.6c1.1,1.1,1.7,2.4,2,3.7
		c0.3,1.2,0.4,2.4,0.4,3.7v10.9h1.2c1.6,0,2.9,1.3,2.9,2.9v9.5c0,1.6-1.3,2.9-2.9,2.9h-20c-1.6,0-2.9-1.3-2.9-2.9v-9.5
		c0-1.6,1.3-2.9,2.9-2.9h1.2V66c0-0.4-0.1-0.6-0.2-0.9c-0.1-0.3-0.3-0.5-0.5-0.7l-8.6-8.6c-0.6-0.6-0.9-1.2-1.2-1.8
		c-0.3-0.7-0.5-1.5-0.5-2.2v-9.1c0-0.6,0.5-1.1,1.1-1.1c0.6,0,1.1,0.5,1.1,1.1v9.1c0,0.5,0.1,0.9,0.3,1.4c0.2,0.4,0.5,0.8,0.7,1.1
		l8.6,8.6c0.5,0.5,0.7,0.9,0.9,1.5c0.2,0.6,0.3,1.1,0.3,1.7v3.3h13.4V58.4c0-1-0.1-2.1-0.4-3.1c-0.3-1-0.7-1.9-1.5-2.7L32.6,44
		c-0.6-0.6-1.6-1-2.5-1s-1.8,0.4-2.5,1c-0.6,0.6-1,1.6-1,2.5s0.4,1.8,1,2.5l6.4,6.4c0.5,0.5,0.5,1.1,0,1.6c-0.5,0.5-1.1,0.5-1.6,0
		l-6.4-6.4c-1.1-1.1-1.7-2.6-1.7-4c0-1.3,0.5-2.6,1.4-3.7V29.1c0-1-0.4-1.8-1-2.5c-0.6-0.6-1.6-1-2.5-1c-1,0-1.8,0.4-2.5,1
		c-0.6,0.6-1,1.6-1,2.5L18.7,37.8L18.7,37.8z M70.9,73.3c1,0,1.9,0.4,2.6,1c0.6,0.6,1.1,1.6,1.1,2.6s-0.4,1.9-1.1,2.6
		c-0.6,0.6-1.6,1.1-2.6,1.1c-1,0-1.9-0.4-2.6-1.1c-0.6-0.6-1.1-1.6-1.1-2.6c0-1,0.4-1.9,1.1-2.6C68.9,73.7,69.9,73.3,70.9,73.3z
		 M71.9,75.8c-0.3-0.3-0.6-0.5-1-0.5s-0.7,0.2-1,0.5c-0.3,0.3-0.5,0.6-0.5,1s0.2,0.7,0.5,1c0.3,0.3,0.6,0.5,1,0.5s0.7-0.2,1-0.5
		c0.3-0.3,0.5-0.6,0.5-1S72.1,76.1,71.9,75.8z M31,73.3c1,0,1.9,0.4,2.6,1c0.6,0.6,1,1.6,1,2.6s-0.4,1.9-1,2.6
		C33,80.1,32,80.5,31,80.5c-1,0-1.9-0.4-2.6-1.1c-0.6-0.6-1-1.6-1-2.6c0-1,0.4-1.9,1-2.6C29.2,73.7,30.1,73.3,31,73.3z M32.1,75.8
		c-0.3-0.3-0.6-0.5-1-0.5c-0.4,0-0.7,0.2-1,0.5c-0.3,0.3-0.5,0.6-0.5,1s0.2,0.7,0.5,1c0.3,0.3,0.6,0.5,1,0.5c0.4,0,0.7-0.2,1-0.5
		c0.3-0.3,0.5-0.6,0.5-1C32.5,76.5,32.3,76.1,32.1,75.8z M39.9,20.8c0.5-0.5,1.1-0.5,1.6,0c0.5,0.5,0.5,1.1,0,1.6l-6.1,6v0.1
		l4.1,4.1h0.1l1.7-1.7c1-1,2.3-1.5,3.6-1.5c1.3,0,2.6,0.5,3.6,1.5c1,1,1.5,2.3,1.5,3.6c0,1.3-0.5,2.6-1.5,3.6l-1.7,1.7v0.1l4.1,4.1
		H51c1.4-1.4,2.8-2.8,4.1-4.1v-0.1L53.4,38c-1-1-1.5-2.3-1.5-3.6l0,0c0-1.3,0.5-2.6,1.5-3.6c1-1,2.3-1.5,3.6-1.5l0,0
		c1.3,0,2.6,0.5,3.6,1.5c0.6,0.6,1.2,1.2,1.7,1.7h0.1l4.1-4.1v-0.1l-4.2-4.2c-0.1-0.1-0.1-0.1-0.2-0.2c-0.3-0.4-0.4-0.8-0.4-1.3
		s0.2-0.9,0.5-1.4l0.1-0.1l1.8-1.8c0.6-0.6,0.8-1.3,0.8-2s-0.3-1.5-0.8-2c-0.6-0.6-1.3-0.8-2-0.8c-0.7,0-1.5,0.3-2,0.8l-1.8,1.8
		c-0.4,0.4-1,0.6-1.5,0.6c-0.6,0-1.1-0.2-1.6-0.6L51,12.8h-0.1l-6.1,6.1c-0.5,0.5-1.1,0.5-1.6,0c-0.5-0.5-0.5-1.1,0-1.6l6.1-6.1
		c0.4-0.4,1-0.6,1.5-0.6c0.5,0,1.1,0.2,1.5,0.6l4.2,4.2h0.1l1.7-1.7c1-1,2.3-1.5,3.6-1.5c1.3,0,2.6,0.5,3.6,1.5c1,1,1.5,2.3,1.5,3.6
		c0,1.3-0.5,2.6-1.5,3.6l-1.7,1.7v0.1l4.1,4.1c0.4,0.4,0.6,1,0.6,1.6c0,0.5-0.2,1.1-0.6,1.5l-4,4.2c-0.4,0.4-1,0.6-1.6,0.6
		c-0.5,0-1.1-0.2-1.5-0.6L59,32.3c-1.1-1.1-2.9-1.1-4.1,0c-1.1,1.1-1.1,2.9,0,4.1l1.7,1.7c0.4,0.4,0.6,1,0.6,1.6
		c0,0.5-0.2,1.1-0.6,1.5l-4.2,4.2c-0.4,0.5-0.9,0.6-1.5,0.6c-0.5,0-1.1-0.2-1.5-0.6l-4.2-4.2c-0.4-0.4-0.6-1-0.6-1.6
		c0-0.5,0.2-1.1,0.6-1.5l1.8-1.8c0.6-0.6,0.8-1.3,0.8-2s-0.3-1.5-0.8-2c-0.6-0.6-1.3-0.8-2-0.8c-0.7,0-1.5,0.3-2,0.8l-1.8,1.7
		c-0.4,0.4-1,0.6-1.6,0.6c-0.5,0-1.1-0.2-1.5-0.6L33.9,30c-0.4-0.4-0.6-1-0.6-1.6c0-0.5,0.2-1.1,0.6-1.5L39.9,20.8z M75.6,71.4h-20
		c-0.4,0-0.7,0.3-0.7,0.7v9.5c0,0.4,0.3,0.7,0.7,0.7h20c0.4,0,0.7-0.3,0.7-0.7v-9.5C76.4,71.8,76,71.4,75.6,71.4L75.6,71.4z
		 M55.6,69.3h1.2V58.4c0-1.1,0.1-2.4,0.4-3.7c0.4-1.3,0.9-2.6,2-3.7l2.6-2.6c0.5-0.5,1.1-0.5,1.6,0c0.5,0.5,0.5,1.1,0,1.6l-2.6,2.6
		c-0.7,0.7-1.2,1.7-1.5,2.7c-0.3,1-0.4,2.1-0.4,3.1v10.9h13.4V66c0-0.6,0.1-1.2,0.3-1.7c0.2-0.6,0.6-1,0.9-1.5l8.6-8.6
		c0.4-0.4,0.6-0.7,0.7-1.1c0.2-0.5,0.3-0.9,0.3-1.4V29.1c0-1-0.4-1.8-1-2.5c-0.6-0.6-1.5-1-2.5-1c-0.9,0-1.8,0.4-2.5,1
		c-0.6,0.6-1,1.6-1,2.5v13.7c0.9,1,1.4,2.4,1.4,3.7c0,1.5-0.6,2.9-1.7,4L69.4,57c-0.5,0.5-1.1,0.5-1.6,0c-0.5-0.5-0.5-1.1,0-1.6
		l6.4-6.4c0.6-0.6,1-1.6,1-2.5s-0.4-1.8-1-2.5c-0.6-0.6-1.6-1-2.5-1c-0.9,0-1.8,0.4-2.5,1l-2.6,2.6c-0.5,0.5-1.1,0.5-1.6,0
		c-0.5-0.5-0.5-1.1,0-1.6l2.6-2.6c1.1-1.1,2.6-1.7,4-1.7c0.7,0,1.5,0.2,2.2,0.5V29.1c0-1.6,0.6-2.9,1.7-4c1-1,2.5-1.7,4-1.7
		c1.6,0,2.9,0.6,4,1.7c1,1,1.7,2.5,1.7,4v22.6c0,0.7-0.2,1.5-0.5,2.2c-0.3,0.6-0.7,1.3-1.2,1.8l-8.6,8.6c-0.2,0.2-0.4,0.5-0.5,0.7
		c-0.1,0.3-0.2,0.6-0.2,0.9v3.3h1.2c1.6,0,2.9,1.3,2.9,2.9v9.5c0,1.6-1.3,2.9-2.9,2.9H55.6c-1.6,0-2.9-1.3-2.9-2.9v-9.5
		C52.7,70.6,54,69.3,55.6,69.3L55.6,69.3z M26.3,71.4c-0.4,0-0.7,0.3-0.7,0.7v9.5c0,0.4,0.3,0.7,0.7,0.7h20c0.4,0,0.7-0.3,0.7-0.7
		v-9.5c0-0.4-0.3-0.7-0.7-0.7H26.3z"/>
</g>
</svg>
