<?xml version="1.0" encoding="utf-8"?>
<!-- Generator: Adobe Illustrator 24.0.1, SVG Export Plug-In . SVG Version: 6.00 Build 0)  -->
<svg version="1.1" id="Layer_1" xmlns="http://www.w3.org/2000/svg" xmlns:xlink="http://www.w3.org/1999/xlink" x="0px" y="0px"
	 viewBox="0 0 252 252" style="enable-background:new 0 0 252 252;" xml:space="preserve">
<style type="text/css">
	.st0{fill:#2F2C52;}
</style>
<g>
	<path class="st0" d="M171.9,82.1c-1.5-1.5-3.9-1.5-5.4,0c-1.5,1.5-1.5,3.9,0,5.4c1.5,1.5,3.9,1.5,5.4,0c0.7-0.7,1.1-1.7,1.1-2.7
		C173,83.7,172.6,82.8,171.9,82.1z"/>
	<path class="st0" d="M86.1,135.4H55.7c-2.1,0-3.8,1.7-3.8,3.8l0,0v30.5c0,2.1,1.7,3.8,3.8,3.8h30.5c2.1,0,3.8-1.7,3.8-3.8v-30.5
		C89.9,137.1,88.2,135.4,86.1,135.4L86.1,135.4z M82.3,165.9H59.5V143h22.9V165.9z"/>
	<path class="st0" d="M221.6,107.9c-1.4-0.6-3.1-0.3-4.1,0.8l-38.8,38.8l-45.2,45.2l-23.7,23.7c-1.5,1.5-1.5,3.9,0,5.4
		c0.7,0.7,1.7,1.1,2.7,1.1h107.8c2.1,0,3.8-1.7,3.8-3.8V111.4C224,109.9,223.1,108.5,221.6,107.9L221.6,107.9z M216.4,215.4h-94.8
		l14.5-14.5l3.6,3.6c1.5,1.5,3.9,1.4,5.4-0.1c1.4-1.5,1.4-3.8,0-5.3l-3.6-3.6l9.7-9.7l3.6,3.6c1.5,1.5,3.9,1.4,5.4-0.1
		c1.4-1.5,1.4-3.8,0-5.3l-3.6-3.6l9.7-9.7l3.6,3.6c1.5,1.5,3.9,1.5,5.4,0c1.5-1.5,1.5-3.9,0-5.3l-3.6-3.6l9.7-9.7l3.6,3.6
		c1.5,1.5,3.9,1.5,5.4,0.1c1.5-1.5,1.5-3.9,0.1-5.4c0,0-0.1-0.1-0.1-0.1l-3.6-3.6l9.7-9.7l3.6,3.6c1.5,1.5,3.9,1.4,5.4-0.1
		c1.4-1.5,1.4-3.8,0-5.3l-3.6-3.6l14.5-14.5L216.4,215.4z"/>
	<path class="st0" d="M202.6,153.9c-1.4-0.6-3.1-0.3-4.1,0.8l-42.8,42.8c-1.5,1.5-1.5,3.9,0,5.4c0.7,0.7,1.7,1.1,2.7,1.1h42.8
		c2.1,0,3.8-1.7,3.8-3.8v-42.8C205,155.8,204,154.5,202.6,153.9L202.6,153.9z M197.3,196.3h-29.8l29.8-29.8V196.3z"/>
	<path class="st0" d="M205.4,84.9c-1-1.1-2.6-1.4-4-0.9l-26,9.5c-0.5,0.2-1,0.5-1.4,0.9l-7.3,7.3l-47.8-47.8c-1.5-1.5-3.9-1.5-5.4,0
		l0,0L56,111.4H42l74.2-74.2L157,77.9c1.5,1.5,3.9,1.4,5.4-0.1c1.5-1.5,1.5-3.9,0-5.3l-43.4-43.4c-1.5-1.5-3.9-1.5-5.4,0l-83.4,83.4
		c-1.5,1.5-1.5,3.9,0,5.4c0.7,0.7,1.7,1.1,2.7,1.1h3.8v100.2c0,2.1,1.7,3.8,3.8,3.8H101c2.1,0,3.8-1.6,3.9-3.8
		c0-2.1-1.6-3.8-3.8-3.9c0,0-0.1,0-0.1,0H44.2V119h13.4c1,0,2-0.4,2.7-1.1L116.2,62l45,45.1l-56.5,56.5v-34.2h26.7
		c2.1,0,3.8-1.8,3.8-3.9c0-2.1-1.7-3.7-3.8-3.8H101c-2.1,0-3.8,1.7-3.8,3.8v44.2c0,0.4,0.1,0.9,0.2,1.3l-3.4,3.4c-6,6-6,15.8,0,21.9
		s15.8,6,21.9,0l32.1-32.1c1.5-1.5,1.5-3.9,0.1-5.4c-1.5-1.5-3.9-1.5-5.4-0.1c0,0-0.1,0.1-0.1,0.1L118.3,183l-11.1-11.1l69.6-69.6
		l11.1,11.1L161.3,140c-1.5,1.5-1.4,3.9,0.1,5.4c1.5,1.4,3.8,1.4,5.3,0l29.2-29.2c0.4-0.4,0.7-0.9,0.9-1.4l9.5-26
		C206.8,87.5,206.4,85.9,205.4,84.9L205.4,84.9z M112.9,188.4l-2.4,2.4c-3.1,3.1-8,3.1-11.1,0s-3.1-8,0-11.1l0,0l2.4-2.4
		L112.9,188.4z M191.7,106.5l-8-8l12.6-4.6L191.7,106.5z"/>
	<path class="st0" d="M157.2,149.5c-1.5-1.5-3.9-1.5-5.4,0s-1.5,3.9,0,5.4c1.5,1.5,3.9,1.5,5.4,0c0.7-0.7,1.1-1.7,1.1-2.7
		C158.3,151.1,157.9,150.2,157.2,149.5z"/>
	<path class="st0" d="M116.2,85.5c-8,0-14.5,6.5-14.5,14.5s6.5,14.5,14.5,14.5s14.5-6.5,14.5-14.5C130.7,92,124.2,85.5,116.2,85.5
		L116.2,85.5z M116.2,106.8c-3.8,0-6.9-3.1-6.9-6.9c0-3.8,3.1-6.9,6.9-6.9c3.8,0,6.9,3.1,6.9,6.9l0,0
		C123.1,103.8,120,106.8,116.2,106.8L116.2,106.8z"/>
</g>
</svg>
