<?xml version="1.0" encoding="utf-8"?>
<!-- Generator: Adobe Illustrator 24.0.1, SVG Export Plug-In . SVG Version: 6.00 Build 0)  -->
<svg version="1.1" id="Layer_1" xmlns="http://www.w3.org/2000/svg" xmlns:xlink="http://www.w3.org/1999/xlink" x="0px" y="0px"
	 viewBox="0 0 264 264" style="enable-background:new 0 0 264 264;" xml:space="preserve">
<style type="text/css">
	.st0{fill:#2F2C52;}
</style>
<g>
	<path class="st0" d="M204.5,98H31c-1.6,0-3,1.3-3,3l0,0v83.3c0,1.6,1.3,3,3,3l0,0h118c1.6,0,3-1.3,3-2.9c0-1.6-1.3-3-2.9-3
		c0,0-0.1,0-0.1,0h-115v-77.4h167.6v7.4c0,1.6,1.3,3,3,3l0,0h0c1.6,0,3-1.3,3-3l0,0v-10.4C207.5,99.3,206.2,98,204.5,98L204.5,98z"
		/>
	<path class="st0" d="M184.4,84.1L45.5,52.9c-1.6-0.4-3.2,0.6-3.6,2.3v0L35,86.4c-0.4,1.6,0.7,3.2,2.3,3.6s3.2-0.7,3.6-2.3l0,0
		l6.3-28.3L183,89.9c0.2,0.1,0.4,0.1,0.7,0.1c1.6,0,3-1.3,3-3C186.7,85.7,185.7,84.5,184.4,84.1L184.4,84.1z"/>
	<path class="st0" d="M167.5,66.9L84.2,32.2c-1.4-0.6-3.1,0-3.8,1.4l-6.9,13.9c-0.8,1.4-0.2,3.3,1.2,4.1c1.4,0.8,3.3,0.2,4.1-1.2
		c0-0.1,0.1-0.1,0.1-0.2v0l5.7-11.4l80.7,33.6c1.5,0.7,3.3,0.1,4-1.4c0.7-1.5,0-3.3-1.5-4C167.6,67,167.6,67,167.5,66.9L167.5,66.9z
		"/>
	<path class="st0" d="M169.6,111.9h-27.6c-1.6,0-3,1.3-3,2.9s1.3,3,2.9,3c0,0,0.1,0,0.1,0h27.6c1.6,0,3-1.4,2.9-3
		C172.5,113.2,171.2,111.9,169.6,111.9z"/>
	<path class="st0" d="M114.3,112.1c-16.9,0-30.6,13.7-30.6,30.6s13.7,30.5,30.6,30.5s30.6-13.7,30.6-30.6S131.1,112.1,114.3,112.1
		L114.3,112.1z M114.3,167.6c-13.8,0-25-11.2-25-25s11.2-25,25-25s25,11.2,25,25S128.1,167.6,114.3,167.6L114.3,167.6z"/>
	<path class="st0" d="M197.6,121.8c-18.4,0-38.2,4.4-38.2,13.9V219c0,9.5,19.8,13.9,38.2,13.9s38.2-4.4,38.2-13.9v-83.3
		C235.8,126.1,216,121.8,197.6,121.8L197.6,121.8z M228.8,218.9c-0.5,1.9-10.9,7-31.2,7s-30.7-5.1-31.2-6.9v-5.5
		c7.4,3.7,19.6,5.5,31.2,5.5s23.9-1.8,31.2-5.5V218.9z M228.8,205c-0.5,1.9-10.9,7-31.2,7s-30.7-5.1-31.2-6.9v-5.5
		c7.4,3.7,19.6,5.5,31.2,5.5s23.9-1.8,31.2-5.5V205z M228.8,191.1c-0.5,1.9-10.9,7-31.2,7s-30.7-5.1-31.2-6.9v-5.5
		c7.4,3.7,19.6,5.5,31.2,5.5s23.9-1.8,31.2-5.5V191.1z M228.8,177.3c-0.5,1.9-10.9,7-31.2,7s-30.7-5.1-31.2-6.9v-5.5
		c7.4,3.7,19.6,5.5,31.2,5.5s23.9-1.8,31.2-5.5V177.3z M228.8,163.4c-0.5,1.9-10.9,7-31.2,7s-30.7-5.1-31.2-6.9V158
		c7.4,3.7,19.6,5.5,31.2,5.5s23.9-1.8,31.2-5.5V163.4z M228.8,149.5c-0.5,1.9-10.9,7-31.2,7s-30.7-5.1-31.2-6.9v-5.5
		c7.4,3.7,19.6,5.5,31.2,5.5s23.9-1.8,31.2-5.5V149.5z M197.6,142.6c-20.3,0-30.7-5.1-31.2-6.9v0c0.6-1.9,11-7,31.2-7
		c20.1,0,30.5,5,31.2,6.9C228.1,137.6,217.7,142.6,197.6,142.6L197.6,142.6z"/>
	<path class="st0" d="M86.5,167.4H60.3l-12.4-13.6v-22.6l13.7-13.4h24.9c1.6,0,3-1.3,3-3s-1.3-3-3-3c0,0,0,0,0,0H60.4
		c-0.8,0-1.5,0.3-2.1,0.8l-15.5,15.1c-0.6,0.7-0.9,1.5-0.9,2.4v24.7c0,0.7,0.3,1.5,0.8,2l14.1,15.4c0.6,0.6,1.4,1,2.2,1h27.6
		c1.6,0,3-1.3,3-2.9s-1.3-3-2.9-3C86.6,167.4,86.6,167.4,86.5,167.4z"/>
	<path class="st0" d="M116,139.1h-3.5c-1.1,0-1.7-0.6-1.7-0.9s0.7-0.9,1.7-0.9h8.7c1.9,0,3.5-1.6,3.5-3.5s-1.6-3.5-3.5-3.5h-3.5
		c0-1.9-1.6-3.5-3.5-3.5s-3.5,1.6-3.5,3.5v0.2c-3.9,0.5-6.8,3.8-6.9,7.6c0.3,4.6,4.1,8.1,8.7,7.8h3.5c1.1,0,1.7,0.6,1.7,0.9
		s-0.7,0.9-1.7,0.9h-8.7c-1.9,0-3.5,1.6-3.5,3.5c0,1.9,1.6,3.5,3.5,3.5h3.5c0,1.9,1.6,3.5,3.5,3.5s3.5-1.5,3.5-3.5v-0.2
		c3.9-0.5,6.8-3.8,6.9-7.6C124.4,142.4,120.6,138.9,116,139.1z"/>
</g>
</svg>
