<?xml version="1.0" encoding="utf-8"?>
<!-- Generator: Adobe Illustrator 24.0.1, SVG Export Plug-In . SVG Version: 6.00 Build 0)  -->
<svg version="1.1" id="Layer_1" xmlns="http://www.w3.org/2000/svg" xmlns:xlink="http://www.w3.org/1999/xlink" x="0px" y="0px"
	 viewBox="0 0 290 290" style="enable-background:new 0 0 290 290;" xml:space="preserve">
<style type="text/css">
	.st0{fill:#2F2C52;}
</style>
<g>
	<path class="st0" d="M245.5,74.8c-8.6,0-15.5,6.9-15.5,15.5c0,8.6,7,15.5,15.5,15.5c8.6,0,15.5-6.9,15.5-15.5l0,0
		C261,81.8,254,74.8,245.5,74.8z M245.5,98.1c-4.3,0-7.8-3.5-7.8-7.8s3.5-7.8,7.8-7.8s7.8,3.5,7.8,7.8l0,0
		C253.2,94.6,249.8,98.1,245.5,98.1z"/>
	<path class="st0" d="M43.8,202.8c-8.6,0-15.5,7-15.5,15.5s6.9,15.5,15.5,15.5s15.5-7,15.5-15.5l0,0
		C59.3,209.8,52.4,202.8,43.8,202.8z M43.8,226.1c-4.3,0-7.8-3.5-7.8-7.8s3.5-7.8,7.8-7.8s7.8,3.5,7.8,7.8l0,0
		C51.5,222.6,48.1,226.1,43.8,226.1z"/>
	<path class="st0" d="M238,79.7l-33.5-16.2c-1.9-0.9-4.2-0.2-5.2,1.8c-1,1.9-0.2,4.2,1.8,5.2c0,0,0,0,0,0l33.5,16.1
		c1.9,0.9,4.3,0.1,5.2-1.9C240.6,82.9,239.9,80.6,238,79.7L238,79.7z"/>
	<path class="st0" d="M202.8,230c-8.6,0-15.5,7-15.5,15.5c0,8.6,7,15.5,15.5,15.5c8.6,0,15.5-7,15.5-15.5l0,0
		C218.3,236.9,211.4,230,202.8,230z M202.8,253.2c-4.3,0-7.8-3.5-7.8-7.8s3.5-7.8,7.8-7.8s7.8,3.5,7.8,7.8l0,0
		C210.6,249.8,207.1,253.2,202.8,253.2z"/>
	<path class="st0" d="M195.3,234.9l-33.5-16.1c-1.9-1-4.2-0.2-5.2,1.8c-0.9,1.9-0.2,4.2,1.8,5.2c0,0,0,0,0.1,0l33.5,16.1
		c1.9,1,4.2,0.2,5.2-1.8C198.1,238.2,197.3,235.8,195.3,234.9C195.3,234.9,195.3,234.9,195.3,234.9z"/>
	<path class="st0" d="M144.6,133c-8.6,0-15.5,6.9-15.5,15.5s6.9,15.5,15.5,15.5c8.6,0,15.5-6.9,15.5-15.5l0,0
		C160.1,139.9,153.2,133,144.6,133z M144.6,156.3c-4.3,0-7.8-3.5-7.8-7.8s3.5-7.8,7.8-7.8s7.8,3.5,7.8,7.8l0,0
		C152.4,152.8,148.9,156.3,144.6,156.3z"/>
	<path class="st0" d="M137.8,138.3l-25.7-20c-1.7-1.4-4.1-1.1-5.5,0.6s-1.1,4.1,0.6,5.5c0,0,0.1,0.1,0.1,0.1l25.7,20
		c1.7,1.4,4.1,1.1,5.5-0.6s1.1-4.1-0.6-5.5C137.9,138.4,137.9,138.4,137.8,138.3z"/>
	<path class="st0" d="M214.5,129.1c-23.6,0-42.7,19.1-42.7,42.7s19.1,42.7,42.7,42.7c23.6,0,42.7-19.1,42.7-42.7
		C257.1,148.2,238,129.1,214.5,129.1z M214.5,206.7c-19.3,0-34.9-15.6-34.9-34.9s15.6-34.9,34.9-34.9s34.9,15.6,34.9,34.9l0,0
		C249.3,191,233.7,206.7,214.5,206.7z"/>
	<path class="st0" d="M214.5,144.6c-8.6,0-15.5,6.9-15.5,15.5c0,8.6,7,15.5,15.5,15.5s15.5-7,15.5-15.5l0,0
		C230,151.6,223,144.6,214.5,144.6L214.5,144.6z M214.5,167.9c-4.3,0-7.8-3.5-7.8-7.8s3.5-7.8,7.8-7.8s7.8,3.5,7.8,7.8l0,0
		C222.2,164.4,218.7,167.9,214.5,167.9z"/>
	<path class="st0" d="M225.7,183.4h-22.5c-6.5-0.1-11.9,5.1-12,11.7v10.2c0,1.4,0.7,2.7,1.9,3.4c13.2,7.7,29.5,7.7,42.7,0
		c1.2-0.7,1.9-2,1.9-3.4v-10.2C237.6,188.6,232.3,183.3,225.7,183.4L225.7,183.4z M230,203c-9.8,4.8-21.2,4.8-31,0v-7.9
		c0.1-2.3,2-4,4.3-3.9h22.5c2.3-0.1,4.2,1.7,4.3,3.9L230,203L230,203z"/>
	<path class="st0" d="M121.4,175.7c-23.6,0-42.7,19.1-42.7,42.7S97.8,261,121.4,261s42.7-19.1,42.7-42.7
		C164,194.8,144.9,175.7,121.4,175.7z M121.4,253.2c-19.3,0-34.9-15.6-34.9-34.9s15.6-34.9,34.9-34.9s34.9,15.6,34.9,34.9l0,0
		C156.3,237.6,140.6,253.2,121.4,253.2z"/>
	<path class="st0" d="M121.4,191.2c-8.6,0-15.5,7-15.5,15.5c0,8.6,6.9,15.5,15.5,15.5s15.5-7,15.5-15.5l0,0
		C136.9,198.1,129.9,191.2,121.4,191.2z M121.4,214.5c-4.3,0-7.8-3.5-7.8-7.8s3.5-7.8,7.8-7.8s7.8,3.5,7.8,7.8l0,0
		C129.1,211,125.6,214.5,121.4,214.5z"/>
	<path class="st0" d="M132.6,230h-22.5c-6.6-0.1-11.9,5.1-12,11.7v10.2c0,1.4,0.7,2.7,1.9,3.4c13.2,7.7,29.5,7.7,42.7,0
		c1.2-0.7,1.9-2,1.9-3.4v-10.2C144.5,235.1,139.1,229.9,132.6,230z M136.9,249.6c-9.8,4.8-21.2,4.8-31,0v-7.9c0.1-2.3,2-4,4.3-3.9
		h22.5c2.3-0.1,4.2,1.7,4.3,3.9L136.9,249.6L136.9,249.6z"/>
	<path class="st0" d="M70.9,78.7c-23.6,0-42.7,19.1-42.7,42.7S47.4,164,70.9,164s42.7-19.1,42.7-42.7
		C113.6,97.8,94.5,78.7,70.9,78.7z M70.9,156.3c-19.3,0-34.9-15.6-34.9-34.9s15.6-34.9,34.9-34.9s34.9,15.6,34.9,34.9l0,0
		C105.8,140.6,90.2,156.3,70.9,156.3z"/>
	<path class="st0" d="M70.9,94.2c-8.6,0-15.5,6.9-15.5,15.5c0,8.6,6.9,15.5,15.5,15.5s15.5-6.9,15.5-15.5
		C86.4,101.2,79.5,94.2,70.9,94.2z M70.9,117.5c-4.3,0-7.8-3.5-7.8-7.8s3.5-7.8,7.8-7.8s7.8,3.5,7.8,7.8l0,0
		C78.7,114,75.2,117.5,70.9,117.5z"/>
	<path class="st0" d="M82.2,133H59.7c-6.6-0.1-11.9,5.1-12,11.7v10.2c0,1.4,0.7,2.7,1.9,3.4c13.2,7.7,29.5,7.7,42.7,0
		c1.2-0.7,1.9-2,1.9-3.4v-10.2C94.1,138.1,88.7,132.9,82.2,133L82.2,133z M86.5,152.6c-9.8,4.8-21.2,4.8-31,0v-7.9
		c0.1-2.3,2-4,4.3-3.9h22.5c2.3-0.1,4.2,1.7,4.3,3.9L86.5,152.6L86.5,152.6z"/>
	<path class="st0" d="M164,28.3c-23.6,0-42.7,19.1-42.7,42.7s19.1,42.7,42.7,42.7s42.7-19.1,42.7-42.7l0,0
		C206.7,47.4,187.6,28.3,164,28.3L164,28.3z M164,105.9c-19.3,0-34.9-15.6-34.9-34.9S144.7,36,164,36s34.9,15.6,34.9,34.9
		C198.9,90.2,183.3,105.8,164,105.9L164,105.9z"/>
	<path class="st0" d="M164,43.8c-8.6,0-15.5,6.9-15.5,15.5s6.9,15.5,15.5,15.5c8.6,0,15.5-6.9,15.5-15.5
		C179.5,50.7,172.6,43.8,164,43.8z M164,67.1c-4.3,0-7.8-3.5-7.8-7.8s3.5-7.8,7.8-7.8s7.8,3.5,7.8,7.8l0,0
		C171.8,63.6,168.3,67.1,164,67.1z"/>
	<path class="st0" d="M175.3,82.6h-22.5c-6.6-0.1-11.9,5.1-12,11.7v10.2c0,1.4,0.7,2.7,1.9,3.4c13.2,7.7,29.5,7.7,42.7,0
		c1.2-0.7,1.9-2,1.9-3.4V94.3C187.2,87.7,181.8,82.5,175.3,82.6z M179.5,102.2c-9.8,4.8-21.2,4.8-31,0v-7.9c0.1-2.3,2-4,4.3-3.9
		h22.5c2.3-0.1,4.2,1.7,4.3,3.9L179.5,102.2L179.5,102.2z"/>
	<path class="st0" d="M128.2,68.4c-1.4-1.6-3.9-1.8-5.5-0.4L95.9,91c-1.6,1.4-1.8,3.9-0.4,5.5c1.4,1.6,3.9,1.8,5.5,0.4l0,0l26.9-23
		C129.4,72.5,129.6,70.1,128.2,68.4C128.2,68.4,128.2,68.4,128.2,68.4z"/>
	<path class="st0" d="M213.7,130.7l-23.3-31c-1.3-1.7-3.8-2-5.5-0.7c-1.6,1.3-2,3.6-0.8,5.3l23.3,31c1.3,1.7,3.8,2,5.5,0.7
		C214.5,134.7,214.9,132.4,213.7,130.7z"/>
	<path class="st0" d="M181.8,184.6c-1.3-1.7-3.7-2.1-5.4-0.8l-21.7,16.3c-1.7,1.3-2.1,3.7-0.8,5.4c1.3,1.7,3.7,2.1,5.4,0.8L181,190
		C182.8,188.8,183.1,186.3,181.8,184.6L181.8,184.6L181.8,184.6z"/>
	<path class="st0" d="M82.6,214.5H55.4c-2.1,0-3.9,1.7-3.9,3.9c0,2.1,1.7,3.9,3.9,3.9h27.1c2.1,0,3.9-1.7,3.9-3.9
		C86.4,216.2,84.7,214.5,82.6,214.5z"/>
	<path class="st0" d="M70.9,28.3c-8.6,0-15.5,6.9-15.5,15.5s6.9,15.5,15.5,15.5c8.6,0,15.5-6.9,15.5-15.5
		C86.4,35.2,79.5,28.3,70.9,28.3z M70.9,51.6c-4.3,0-7.8-3.5-7.8-7.8s3.5-7.8,7.8-7.8s7.8,3.5,7.8,7.8l0,0
		C78.7,48.1,75.2,51.5,70.9,51.6z"/>
	<path class="st0" d="M70.9,51.6c-2.1,0-3.9,1.7-3.9,3.9l0,0v27.1c0,2.1,1.7,3.9,3.9,3.9s3.9-1.7,3.9-3.9V55.4
		C74.8,53.3,73.1,51.6,70.9,51.6L70.9,51.6z"/>
</g>
</svg>
