<?xml version="1.0" encoding="utf-8"?>
<!-- Generator: Adobe Illustrator 24.0.1, SVG Export Plug-In . SVG Version: 6.00 Build 0)  -->
<svg version="1.1" id="Layer_1" xmlns="http://www.w3.org/2000/svg" xmlns:xlink="http://www.w3.org/1999/xlink" x="0px" y="0px"
	 viewBox="0 0 268 268" style="enable-background:new 0 0 268 268;" xml:space="preserve">
<style type="text/css">
	.st0{fill:#2F2C52;}
</style>
<g>
	<path class="st0" d="M104.5,160.8c0,2.1,1.7,3.8,3.8,3.8h15c2.1,0,3.8-1.7,3.8-3.8v-22.5c0-2.1-1.7-3.8-3.8-3.8h-15
		c-2.1,0-3.8,1.7-3.8,3.8V160.8z M112,142h7.5v15H112V142z"/>
	<path class="st0" d="M108.3,119.5h15c2.1,0,3.8-1.7,3.8-3.8V93.3c0-2.1-1.7-3.8-3.8-3.8h-15c-2.1,0-3.8,1.7-3.8,3.8v22.5
		C104.5,117.8,106.2,119.5,108.3,119.5z M112,97h7.5v15H112V97z"/>
	<path class="st0" d="M80.2,92.7l54.3-32.6l54.3,32.6c1.8,1.1,4.1,0.4,5.1-1.3c1-1.8,0.5-4-1.3-5.1l-54.4-32.7V29.5H157V37h-11.3
		c-2.1,0-3.8,1.7-3.8,3.8s1.7,3.8,3.8,3.8h15c2.1,0,3.8-1.7,3.8-3.8v-15c0-2.1-1.7-3.8-3.8-3.8h-26.3c-2.1,0-3.8,1.7-3.8,3.8v27.9
		L76.3,86.3c-1.8,1.1-2.4,3.4-1.3,5.1C76.1,93.2,78.4,93.8,80.2,92.7L80.2,92.7z"/>
	<path class="st0" d="M63.3,164.5c2.1,0,3.8-1.7,3.8-3.8v-22.5c0-2.1-1.7-3.8-3.8-3.8h-15c-2.1,0-3.8,1.7-3.8,3.8v7.5
		c0,2.1,1.7,3.8,3.8,3.8s3.8-1.7,3.8-3.8V142h7.5v18.8C59.5,162.8,61.2,164.5,63.3,164.5z"/>
	<path class="st0" d="M89.5,213.3V104.5c0-2.1-1.7-3.8-3.8-3.8s-3.8,1.7-3.8,3.8v108.8c0,2.1,1.7,3.8,3.8,3.8S89.5,215.3,89.5,213.3
		z"/>
	<path class="st0" d="M70.8,232h127.5c2.1,0,3.8-1.7,3.8-3.8s-1.7-3.8-3.8-3.8h-33.8V187h3.8c2.1,0,3.8-1.7,3.8-3.8
		s-1.7-3.8-3.8-3.8l0,0h-67.5c-2.1,0-3.8,1.7-3.8,3.8s1.7,3.8,3.8,3.8h3.8v37.5H70.8c-2.1,0-3.8,1.7-3.8,3.8S68.7,232,70.8,232z
		 M138.3,209.5c2.1,0,3.8-1.7,3.8-3.8s-1.7-3.8-3.8-3.8v-15H157v37.5h-18.8V209.5z M112,187h18.8v15c-2.1,0-3.8,1.7-3.8,3.8
		s1.7,3.8,3.8,3.8v15H112V187z"/>
	<path class="st0" d="M220.8,183.3h-15c-2.1,0-3.8,1.7-3.8,3.8v22.5c0,2.1,1.7,3.8,3.8,3.8h15c2.1,0,3.8-1.7,3.8-3.8V187
		C224.5,184.9,222.8,183.3,220.8,183.3z M217,205.8h-7.5v-15h7.5V205.8z"/>
	<path class="st0" d="M220.8,138.3h-15c-2.1,0-3.8,1.7-3.8,3.8v22.5c0,2.1,1.7,3.8,3.8,3.8h15c2.1,0,3.8-1.7,3.8-3.8V142
		C224.5,139.9,222.8,138.3,220.8,138.3z M217,160.8h-7.5v-15h7.5V160.8z"/>
	<path class="st0" d="M213.3,239.5H55.8c-2.1,0-3.8,1.7-3.8,3.8s1.7,3.8,3.8,3.8h157.5c2.1,0,3.8-1.7,3.8-3.8
		S215.3,239.5,213.3,239.5z"/>
	<path class="st0" d="M243.3,104.5c-2.1,0-3.8,1.7-3.8,3.8v3.8h-41.3c-2.1,0-3.8,1.7-3.8,3.8s1.7,3.8,3.8,3.8h41.3v123.8
		c0,2.1,1.7,3.8,3.8,3.8s3.8-1.7,3.8-3.8l0,0v-135C247,106.2,245.3,104.5,243.3,104.5z"/>
	<path class="st0" d="M142,160.8c0,2.1,1.7,3.8,3.8,3.8h15c2.1,0,3.8-1.7,3.8-3.8v-22.5c0-2.1-1.7-3.8-3.8-3.8h-15
		c-2.1,0-3.8,1.7-3.8,3.8V160.8z M149.5,142h7.5v15h-7.5V142z"/>
	<path class="st0" d="M59.5,205.8c0-0.5-0.2-48.8-18.8-48.8S22,205.3,22,205.8c0,8.9,6.3,16.6,15,18.4v19.1c0,2.1,1.7,3.8,3.8,3.8
		s3.8-1.7,3.8-3.8v-19.1C53.2,222.3,59.5,214.7,59.5,205.8z M40.8,217c-6.2,0-11.2-5-11.3-11.3c0-18.7,5-41.3,11.3-41.3
		S52,187.1,52,205.8C52,212,47,217,40.8,217z"/>
	<path class="st0" d="M187,213.3V100.8c0-2.1-1.7-3.8-3.8-3.8s-3.8,1.7-3.8,3.8v112.5c0,2.1,1.7,3.8,3.8,3.8S187,215.3,187,213.3z"
		/>
	<path class="st0" d="M145.8,119.5h15c2.1,0,3.8-1.7,3.8-3.8V93.3c0-2.1-1.7-3.8-3.8-3.8h-15c-2.1,0-3.8,1.7-3.8,3.8v22.5
		C142,117.8,143.7,119.5,145.8,119.5z M149.5,97h7.5v15h-7.5V97z"/>
	<path class="st0" d="M25.8,153.3c2.1,0,3.8-1.7,3.8-3.8v-30h41.3c2.1,0,3.8-1.7,3.8-3.8s-1.7-3.8-3.8-3.8H29.5v-3.8
		c0-2.1-1.7-3.8-3.8-3.8c-2.1,0-3.8,1.7-3.8,3.8v41.3C22,151.6,23.7,153.3,25.8,153.3z"/>
</g>
</svg>
