<?xml version="1.0" encoding="utf-8"?>
<!-- Generator: Adobe Illustrator 24.0.1, SVG Export Plug-In . SVG Version: 6.00 Build 0)  -->
<svg version="1.1" id="Layer_1" xmlns="http://www.w3.org/2000/svg" xmlns:xlink="http://www.w3.org/1999/xlink" x="0px" y="0px"
	 viewBox="0 0 244 244" style="enable-background:new 0 0 244 244;" xml:space="preserve">
<style type="text/css">
	.st0{fill:#2F2C52;}
</style>
<g>
	<path class="st0" d="M186.5,28.4c-15.9,0-28.7,12.9-28.7,28.7s12.9,28.7,28.7,28.7s28.7-12.9,28.7-28.7S202.3,28.4,186.5,28.4
		L186.5,28.4z M186.5,78.7c-11.9,0-21.6-9.6-21.5-21.6s9.6-21.6,21.6-21.6c11.9,0,21.5,9.6,21.5,21.6C208,69,198.4,78.7,186.5,78.7
		L186.5,78.7z"/>
	<path class="st0" d="M182.9,14h7.2v7.2h-7.2V14z"/>
	<path class="st0" d="M153.4,29.2l5.1-5.1l5.1,5.1l-5.1,5.1L153.4,29.2z"/>
	<path class="st0" d="M143.3,53.5h7.2v7.2h-7.2V53.5z"/>
	<path class="st0" d="M153.4,85.1l5.1-5.1l5.1,5.1l-5.1,5.1L153.4,85.1z"/>
	<path class="st0" d="M182.9,93h7.2v7.2h-7.2V93z"/>
	<path class="st0" d="M209.3,85.1l5.1-5.1l5.1,5.1l-5.1,5.1L209.3,85.1z"/>
	<path class="st0" d="M222.4,53.5h7.2v7.2h-7.2V53.5z"/>
	<path class="st0" d="M209.3,29.2l5.1-5.1l5.1,5.1l-5.1,5.1L209.3,29.2z"/>
	<path class="st0" d="M154.1,100.2H17.6c-2,0-3.6,1.6-3.6,3.6l0,0V190c0,2,1.6,3.6,3.6,3.6h7.2V226c0,2,1.6,3.6,3.6,3.6h14.4
		c2,0,3.6-1.6,3.6-3.6v-32.3h79V226c0,2,1.6,3.6,3.6,3.6h14.4c2,0,3.6-1.6,3.6-3.6v-32.3h7.2c2,0,3.6-1.6,3.6-3.6v-86.2
		C157.7,101.8,156.1,100.2,154.1,100.2C154.1,100.2,154.1,100.2,154.1,100.2L154.1,100.2z M39.1,222.4H32v-28.7h7.2L39.1,222.4z
		 M139.8,222.4h-7.2v-28.7h7.2V222.4z M150.5,186.5H21.2v-79h129.3V186.5z"/>
	<path class="st0" d="M32,143.3h28.7c2,0,3.6-1.6,3.6-3.6l0,0v-21.6c0-2-1.6-3.6-3.6-3.6l0,0H32c-2,0-3.6,1.6-3.6,3.6l0,0v21.6
		C28.4,141.7,30,143.3,32,143.3L32,143.3z M35.6,121.8h21.6v14.4H35.6V121.8z"/>
	<path class="st0" d="M71.5,143.3h28.7c2,0,3.6-1.6,3.6-3.6l0,0v-21.6c0-2-1.6-3.6-3.6-3.6l0,0H71.5c-2,0-3.6,1.6-3.6,3.6l0,0v21.6
		C67.9,141.7,69.5,143.3,71.5,143.3L71.5,143.3L71.5,143.3z M75.1,121.8h21.6v14.4H75.1V121.8z"/>
	<path class="st0" d="M111,143.3h28.7c2,0,3.6-1.6,3.6-3.6l0,0v-21.6c0-2-1.6-3.6-3.6-3.6l0,0H111c-2,0-3.6,1.6-3.6,3.6l0,0v21.6
		C107.4,141.7,109,143.3,111,143.3L111,143.3L111,143.3z M114.6,121.8h21.6v14.4h-21.6V121.8z"/>
	<path class="st0" d="M32,179.3h28.7c2,0,3.6-1.6,3.6-3.6v-21.6c0-2-1.6-3.6-3.6-3.6H32c-2,0-3.6,1.6-3.6,3.6v21.6
		C28.4,177.7,30,179.3,32,179.3z M35.6,157.7h21.6v14.4H35.6V157.7z"/>
	<path class="st0" d="M71.5,179.3h28.7c2,0,3.6-1.6,3.6-3.6v-21.6c0-2-1.6-3.6-3.6-3.6l0,0H71.5c-2,0-3.6,1.6-3.6,3.6v21.6
		C67.9,177.7,69.5,179.3,71.5,179.3L71.5,179.3z M75.1,157.7h21.6v14.4H75.1V157.7z"/>
	<path class="st0" d="M111,179.3h28.7c2,0,3.6-1.6,3.6-3.6v-21.6c0-2-1.6-3.6-3.6-3.6l0,0H111c-2,0-3.6,1.6-3.6,3.6v21.6
		C107.4,177.7,109,179.3,111,179.3L111,179.3z M114.6,157.7h21.6v14.4h-21.6V157.7z"/>
	<path class="st0" d="M67.9,82.3h14.4v-7.2h-5.7l19-19c1.4-1.4,1.4-3.7,0-5.1c-0.7-0.7-1.6-1.1-2.5-1.1h-9.3l11.8-11.8L90.5,33
		l-18,18c-1.4,1.4-1.4,3.7,0,5.1c0.7,0.7,1.6,1.1,2.5,1.1h9.3L71.5,70v-5.7h-7.2v14.4C64.3,80.7,65.9,82.3,67.9,82.3L67.9,82.3
		L67.9,82.3z"/>
	<path class="st0" d="M103.8,93h14.4v-7.2h-5.7l19-19c1.4-1.4,1.4-3.7,0-5.1c-0.7-0.7-1.6-1.1-2.5-1.1h-9.3l11.8-11.8l-5.1-5.1
		l-18,18c-1.4,1.4-1.4,3.7,0,5.1c0.7,0.7,1.6,1.1,2.5,1.1h9.3l-12.9,12.9v-5.7h-7.2v14.4C100.2,91.4,101.8,93,103.8,93L103.8,93
		L103.8,93z"/>
</g>
</svg>
