<?xml version="1.0" encoding="utf-8"?>
<!-- Generator: Adobe Illustrator 24.0.1, SVG Export Plug-In . SVG Version: 6.00 Build 0)  -->
<svg version="1.1" id="Layer_1" xmlns="http://www.w3.org/2000/svg" xmlns:xlink="http://www.w3.org/1999/xlink" x="0px" y="0px"
	 viewBox="0 0 286 286" style="enable-background:new 0 0 286 286;" xml:space="preserve">
<style type="text/css">
	.st0{fill:#FFFFFF;}
	.st1{fill:#2F2C52;}
</style>
<path class="st0" d="M116.1,61.8h-12.3c-2.1-6-8.8-9.2-14.8-7.1c-6,2.1-9.2,8.8-7.1,14.8c2.1,6,8.8,9.2,14.8,7.1
	c3.3-1.2,5.9-3.8,7.1-7.1h12.3c2.1,0,3.9-1.7,3.9-3.9S118.3,61.8,116.1,61.8z M92.9,69.6c-2.1,0-3.9-1.7-3.9-3.9s1.7-3.9,3.9-3.9
	s3.9,1.7,3.9,3.9l0,0C96.8,67.8,95.1,69.6,92.9,69.6z"/>
<path class="st1" d="M220.6,27H65.9c-2.1,0-3.9,1.7-3.9,3.9v15.5c0,2.1,1.7,3.9,3.9,3.9h3.9v89c0,2.1,1.7,3.9,3.9,3.9h34.8v7.7H77.5
	c-6.4,0-11.6,5.2-11.6,11.6v7.7c0,2.1,1.7,3.9,3.9,3.9h4c1.3,23.5,14.3,44.7,34.7,56.4v24.9c0,2.1,1.7,3.9,3.9,3.9l0,0h61.9
	c2.1,0,3.9-1.7,3.9-3.9v-24.9c20.4-11.7,33.4-32.9,34.7-56.4h4c2.1,0,3.9-1.7,3.9-3.9v-7.7c0-6.4-5.2-11.6-11.6-11.6l0,0h-31V143
	h34.8c2.1,0,3.9-1.7,3.9-3.9v-89h3.9c2.1,0,3.9-1.7,3.9-3.9V30.9C224.5,28.7,222.7,27,220.6,27L220.6,27L220.6,27z M170.3,251.3
	h-54.1v-17.1c17.3,7.2,36.8,7.2,54.1,0V251.3z M172.4,224.7c-30.2,16.1-67.6,4.7-83.7-25.5c-4.2-7.8-6.6-16.4-7.1-25.2H205
	C203.7,195.4,191.3,214.6,172.4,224.7L172.4,224.7z M209,158.5c2.1,0,3.9,1.7,3.9,3.9v3.9H73.6v-3.9c0-2.1,1.7-3.9,3.9-3.9H209z
	 M116.1,150.8V143h54.1v7.7H116.1z M209,135.3H77.5v-7.7H209L209,135.3z M209,119.9H77.5V50.2H209L209,119.9z M216.7,42.5h-147v-7.7
	h147L216.7,42.5L216.7,42.5z"/>
</svg>
