<?xml version="1.0" encoding="utf-8"?>
<!-- Generator: Adobe Illustrator 24.0.1, SVG Export Plug-In . SVG Version: 6.00 Build 0)  -->
<svg version="1.1" id="Capa_1" xmlns="http://www.w3.org/2000/svg" xmlns:xlink="http://www.w3.org/1999/xlink" x="0px" y="0px"
	 viewBox="0 0 512 512" style="enable-background:new 0 0 512 512;" xml:space="preserve">
<style type="text/css">
	.st0{fill:#6f6f6f;}
</style>
<g>
	<g>
		<path class="st0" d="M164.8,240.9c-3.5,0-6.3-2.8-6.3-6.3s2.8-6.3,6.3-6.3h136.8c3.5,0,6.3,2.8,6.3,6.3c0,1.7-0.6,3.3-1.8,4.4
			c-1.2,1.2-2.8,1.8-4.4,1.8H164.8z"/>
		<path class="st0" d="M164.8,294.1c-3.5,0-6.3-2.8-6.3-6.3s2.8-6.3,6.3-6.3h83.1c3.5,0,6.3,2.8,6.3,6.3s-2.8,6.3-6.3,6.3H164.8z"/>
		<path class="st0" d="M151.6,421.6c-25.4,0-46.1-20.7-46.1-46.1V141.7c0-25.4,20.7-46.1,46.1-46.1h163.3
			c25.4,0,46.1,20.7,46.1,46.1v81.7c0,3.5-2.8,6.3-6.3,6.3c-3.5,0-6.3-2.8-6.3-6.3v-81.7c0-18.5-15.1-33.6-33.6-33.6H151.6
			c-18.5,0-33.6,15.1-33.6,33.6v233.8c0,18.5,15.1,33.6,33.6,33.6H196c3.5,0,6.3,2.8,6.3,6.3c0,3.5-2.8,6.3-6.3,6.3H151.6z"/>
		<path class="st0" d="M255.7,421.6c-1.7,0-3.3-0.7-4.5-1.9c-1.6-1.6-2.2-4-1.5-6.2l15.9-52.3c0.3-1,0.9-1.9,1.6-2.6l72.9-72.8
			c6.2-6.2,14.4-9.6,23.2-9.6c8.8,0,17,3.4,23.2,9.6c6.2,6.2,9.6,14.4,9.6,23.2c0,8.8-3.4,17-9.6,23.2l-72.8,72.6
			c-0.8,0.8-1.7,1.3-2.8,1.6l-53.6,14.9C256.9,421.5,256.3,421.6,255.7,421.6z M278.4,365.1l-1.8,2.9l-7.9,26l8.6,8.8l27-7.5
			l3.1-1.8l48.9-48.8l0-9.9L337.5,316l-9.9,0L278.4,365.1z M363.3,288.8c-5.4,0-10.5,2.1-14.3,5.9l-2.6,2.6v9.9l18.8,18.8h9.9
			l2.6-2.6c7.9-7.9,7.9-20.8,0-28.7C373.8,290.9,368.7,288.8,363.3,288.8z"/>
		<path class="st0" d="M164.8,187.8c-3.5,0-6.3-2.8-6.3-6.3s2.8-6.3,6.3-6.3h136.8c3.5,0,6.3,2.8,6.3,6.3s-2.8,6.3-6.3,6.3H164.8z"
			/>
	</g>
</g>
</svg>
