<?xml version="1.0" encoding="utf-8"?>
<!-- Generator: Adobe Illustrator 24.0.1, SVG Export Plug-In . SVG Version: 6.00 Build 0)  -->
<svg version="1.1" id="Capa_1" xmlns="http://www.w3.org/2000/svg" xmlns:xlink="http://www.w3.org/1999/xlink" x="0px" y="0px"
	 viewBox="0 0 512 512" style="enable-background:new 0 0 512 512;" xml:space="preserve">
<style type="text/css">
	.st0{display:none;}
	.st1{display:inline;}
	.st2{fill:#6f6f6f;}
</style>
<g class="st0">
	<g class="st1">
		<path class="st2" d="M164.8,240.9c-3.5,0-6.3-2.8-6.3-6.3s2.8-6.3,6.3-6.3h136.8c3.5,0,6.3,2.8,6.3,6.3c0,1.7-0.6,3.3-1.8,4.4
			c-1.2,1.2-2.8,1.8-4.4,1.8H164.8z"/>
		<path class="st2" d="M164.8,294.1c-3.5,0-6.3-2.8-6.3-6.3s2.8-6.3,6.3-6.3h83.1c3.5,0,6.3,2.8,6.3,6.3s-2.8,6.3-6.3,6.3H164.8z"/>
		<path class="st2" d="M151.6,421.6c-25.4,0-46.1-20.7-46.1-46.1V141.7c0-25.4,20.7-46.1,46.1-46.1h163.3
			c25.4,0,46.1,20.7,46.1,46.1v81.7c0,3.5-2.8,6.3-6.3,6.3c-3.5,0-6.3-2.8-6.3-6.3v-81.7c0-18.5-15.1-33.6-33.6-33.6H151.6
			c-18.5,0-33.6,15.1-33.6,33.6v233.8c0,18.5,15.1,33.6,33.6,33.6H196c3.5,0,6.3,2.8,6.3,6.3c0,3.5-2.8,6.3-6.3,6.3H151.6z"/>
		<path class="st2" d="M255.7,421.6c-1.7,0-3.3-0.7-4.5-1.9c-1.6-1.6-2.2-4-1.5-6.2l15.9-52.3c0.3-1,0.9-1.9,1.6-2.6l72.9-72.8
			c6.2-6.2,14.4-9.6,23.2-9.6c8.8,0,17,3.4,23.2,9.6c6.2,6.2,9.6,14.4,9.6,23.2c0,8.8-3.4,17-9.6,23.2l-72.8,72.6
			c-0.8,0.8-1.7,1.3-2.8,1.6l-53.6,14.9C256.9,421.5,256.3,421.6,255.7,421.6z M278.4,365.1l-1.8,2.9l-7.9,26l8.6,8.8l27-7.5
			l3.1-1.8l48.9-48.8l0-9.9L337.5,316l-9.9,0L278.4,365.1z M363.3,288.8c-5.4,0-10.5,2.1-14.3,5.9l-2.6,2.6v9.9l18.8,18.8h9.9
			l2.6-2.6c7.9-7.9,7.9-20.8,0-28.7C373.8,290.9,368.7,288.8,363.3,288.8z"/>
		<path class="st2" d="M164.8,187.8c-3.5,0-6.3-2.8-6.3-6.3s2.8-6.3,6.3-6.3h136.8c3.5,0,6.3,2.8,6.3,6.3s-2.8,6.3-6.3,6.3H164.8z"
			/>
	</g>
</g>
<g>
	<path class="st2" d="M345.1,148.8c0-24.2-15.8-62.5-58.3-62.5c-17.4,0-32.1,8.2-43.7,24.5c-11.6-16.2-26.3-24.5-43.7-24.5
		c-42.4,0-58.3,38.4-58.3,62.5c0,41.7,32.5,67.8,77,105.8c6.5,5.6,13.3,11.4,20.5,17.6c1.3,1.1,2.9,1.7,4.5,1.7
		c1.6,0,3.2-0.6,4.5-1.7c7.2-6.2,14-12,20.5-17.6C314.7,214.8,345.1,189.6,345.1,148.8L345.1,148.8z M243.1,257.7
		c-5.5-4.8-10.8-9.3-16-13.7c-46.5-39.8-72.1-61.7-72.1-95.2c0-22.7,14.9-48.6,44.4-48.6c15.4,0,27.7,8.8,37.6,27
		c1.2,2.2,3.6,3.6,6.1,3.6s4.9-1.4,6.1-3.6c9.9-18.2,22.3-27,37.6-27c29.1,0,44.4,25.5,44.4,48.6c0,33.5-25.6,55.4-72.1,95.2
		C254,248.4,248.7,252.9,243.1,257.7L243.1,257.7z"/>
	<path class="st2" d="M115.2,358.7l33.5,16.7v37.4c0,3.8,3.1,7,7,7h73.7c3.8,0,7-3.1,7-7v-90.7c0-21.3-16-38.9-37.1-41.1l-0.6-0.1
		c-12.2-1.2-33.9-9.6-42.4-18.1l-15.6-15.6c-5.3-5.3-12.2-8.1-19.7-8.1v-55.6c0-15.3-12.5-27.8-27.8-27.8s-27.8,12.5-27.8,27.8v94.4
		C65.3,312.1,84.6,343.4,115.2,358.7L115.2,358.7z M79.2,183.5c0-7.7,6.2-13.9,13.9-13.9s13.9,6.2,13.9,13.9v59.3
		c-8.5,4.9-13.9,14-13.9,24.1c0,7.4,2.9,14.4,8.1,19.7l35.6,35.6c2.7,2.7,7.1,2.7,9.8,0s2.7-7.1,0-9.8L111,276.7
		c-2.6-2.6-4.1-6.1-4.1-9.8c0-5.9,3.7-11.2,9.3-13.1l0,0c0,0,0,0,0,0c4.8-1.7,10.5-0.7,14.5,3.3l15.6,15.6
		c16.1,16.1,51.3,22.2,51.4,22.2c14,1.4,24.6,13.1,24.6,27.2v83.8h-59.8v-34.7c0-2.6-1.5-5-3.8-6.2l-37.3-18.6
		c-26.1-13-42.2-39.2-42.2-68.4L79.2,183.5z"/>
	<circle class="st2" cx="384.2" cy="341.9" r="7"/>
	<path class="st2" d="M393.2,155.7c-15.3,0-27.8,12.5-27.8,27.8v55.6c-7.4,0-14.4,2.9-19.7,8.1l-15.6,15.6
		c-8.5,8.5-30.2,16.9-42.5,18.1l-0.5,0.1c-21.2,2.1-37.1,19.8-37.1,41.1v90.7c0,3.8,3.1,7,7,7h73.7c3.8,0,7-3.1,7-7v-37.4l22.7-11.4
		c3.4-1.7,4.8-5.9,3.1-9.3c-1.7-3.4-5.9-4.8-9.3-3.1l-26.6,13.3c-2.4,1.2-3.8,3.6-3.8,6.2v34.7H264v-83.8
		c0-14.1,10.6-25.8,24.7-27.2l0.5-0.1c15.1-1.5,40-11.3,50.9-22.1l15.6-15.6c4-4,9.7-5,14.5-3.3c0,0,0,0,0,0l0,0
		c5.5,2,9.3,7.2,9.3,13.1c0,3.7-1.4,7.2-4.1,9.8l-35.6,35.6c-2.7,2.7-2.7,7.1,0,9.8c2.7,2.7,7.1,2.7,9.8,0l35.6-35.6
		c5.3-5.3,8.1-12.2,8.1-19.7c0-10-5.4-19.2-13.9-24.1v-59.3c0-7.7,6.2-13.9,13.9-13.9c7.7,0,13.9,6.2,13.9,13.9v94.4
		c0,12.7-3.2,25.3-9.3,36.5c-1.8,3.4-0.6,7.6,2.8,9.4c3.4,1.8,7.6,0.6,9.4-2.8c7.2-13.2,11-28.1,11-43.1v-94.4
		C421,168.2,408.5,155.7,393.2,155.7L393.2,155.7z"/>
</g>
</svg>
