<?xml version="1.0" encoding="utf-8"?>
<!-- Generator: Adobe Illustrator 24.0.1, SVG Export Plug-In . SVG Version: 6.00 Build 0)  -->
<svg version="1.1" id="Capa_1" xmlns="http://www.w3.org/2000/svg" xmlns:xlink="http://www.w3.org/1999/xlink" x="0px" y="0px"
	 viewBox="0 0 512 512" style="enable-background:new 0 0 512 512;" xml:space="preserve">
<style type="text/css">
	.st0{display:none;}
	.st1{display:inline;}
	.st2{fill:#6f6f6f;}
	.st3{display:inline;fill:#6f6f6f;}
</style>
<g class="st0">
	<g class="st1">
		<path class="st2" d="M164.8,240.9c-3.5,0-6.3-2.8-6.3-6.3s2.8-6.3,6.3-6.3h136.8c3.5,0,6.3,2.8,6.3,6.3c0,1.7-0.6,3.3-1.8,4.4
			c-1.2,1.2-2.8,1.8-4.4,1.8H164.8z"/>
		<path class="st2" d="M164.8,294.1c-3.5,0-6.3-2.8-6.3-6.3s2.8-6.3,6.3-6.3h83.1c3.5,0,6.3,2.8,6.3,6.3s-2.8,6.3-6.3,6.3H164.8z"/>
		<path class="st2" d="M151.6,421.6c-25.4,0-46.1-20.7-46.1-46.1V141.7c0-25.4,20.7-46.1,46.1-46.1h163.3
			c25.4,0,46.1,20.7,46.1,46.1v81.7c0,3.5-2.8,6.3-6.3,6.3c-3.5,0-6.3-2.8-6.3-6.3v-81.7c0-18.5-15.1-33.6-33.6-33.6H151.6
			c-18.5,0-33.6,15.1-33.6,33.6v233.8c0,18.5,15.1,33.6,33.6,33.6H196c3.5,0,6.3,2.8,6.3,6.3c0,3.5-2.8,6.3-6.3,6.3H151.6z"/>
		<path class="st2" d="M255.7,421.6c-1.7,0-3.3-0.7-4.5-1.9c-1.6-1.6-2.2-4-1.5-6.2l15.9-52.3c0.3-1,0.9-1.9,1.6-2.6l72.9-72.8
			c6.2-6.2,14.4-9.6,23.2-9.6c8.8,0,17,3.4,23.2,9.6c6.2,6.2,9.6,14.4,9.6,23.2c0,8.8-3.4,17-9.6,23.2l-72.8,72.6
			c-0.8,0.8-1.7,1.3-2.8,1.6l-53.6,14.9C256.9,421.5,256.3,421.6,255.7,421.6z M278.4,365.1l-1.8,2.9l-7.9,26l8.6,8.8l27-7.5
			l3.1-1.8l48.9-48.8l0-9.9L337.5,316l-9.9,0L278.4,365.1z M363.3,288.8c-5.4,0-10.5,2.1-14.3,5.9l-2.6,2.6v9.9l18.8,18.8h9.9
			l2.6-2.6c7.9-7.9,7.9-20.8,0-28.7C373.8,290.9,368.7,288.8,363.3,288.8z"/>
		<path class="st2" d="M164.8,187.8c-3.5,0-6.3-2.8-6.3-6.3s2.8-6.3,6.3-6.3h136.8c3.5,0,6.3,2.8,6.3,6.3s-2.8,6.3-6.3,6.3H164.8z"
			/>
	</g>
</g>
<g class="st0">
	<path class="st3" d="M345.1,148.8c0-24.2-15.8-62.5-58.3-62.5c-17.4,0-32.1,8.2-43.7,24.5c-11.6-16.2-26.3-24.5-43.7-24.5
		c-42.4,0-58.3,38.4-58.3,62.5c0,41.7,32.5,67.8,77,105.8c6.5,5.6,13.3,11.4,20.5,17.6c1.3,1.1,2.9,1.7,4.5,1.7
		c1.6,0,3.2-0.6,4.5-1.7c7.2-6.2,14-12,20.5-17.6C314.7,214.8,345.1,189.6,345.1,148.8L345.1,148.8z M243.1,257.7
		c-5.5-4.8-10.8-9.3-16-13.7c-46.5-39.8-72.1-61.7-72.1-95.2c0-22.7,14.9-48.6,44.4-48.6c15.4,0,27.7,8.8,37.6,27
		c1.2,2.2,3.6,3.6,6.1,3.6s4.9-1.4,6.1-3.6c9.9-18.2,22.3-27,37.6-27c29.1,0,44.4,25.5,44.4,48.6c0,33.5-25.6,55.4-72.1,95.2
		C254,248.4,248.7,252.9,243.1,257.7L243.1,257.7z"/>
	<path class="st3" d="M115.2,358.7l33.5,16.7v37.4c0,3.8,3.1,7,7,7h73.7c3.8,0,7-3.1,7-7v-90.7c0-21.3-16-38.9-37.1-41.1l-0.6-0.1
		c-12.2-1.2-33.9-9.6-42.4-18.1l-15.6-15.6c-5.3-5.3-12.2-8.1-19.7-8.1v-55.6c0-15.3-12.5-27.8-27.8-27.8s-27.8,12.5-27.8,27.8v94.4
		C65.3,312.1,84.6,343.4,115.2,358.7L115.2,358.7z M79.2,183.5c0-7.7,6.2-13.9,13.9-13.9s13.9,6.2,13.9,13.9v59.3
		c-8.5,4.9-13.9,14-13.9,24.1c0,7.4,2.9,14.4,8.1,19.7l35.6,35.6c2.7,2.7,7.1,2.7,9.8,0s2.7-7.1,0-9.8L111,276.7
		c-2.6-2.6-4.1-6.1-4.1-9.8c0-5.9,3.7-11.2,9.3-13.1l0,0c0,0,0,0,0,0c4.8-1.7,10.5-0.7,14.5,3.3l15.6,15.6
		c16.1,16.1,51.3,22.2,51.4,22.2c14,1.4,24.6,13.1,24.6,27.2v83.8h-59.8v-34.7c0-2.6-1.5-5-3.8-6.2l-37.3-18.6
		c-26.1-13-42.2-39.2-42.2-68.4L79.2,183.5z"/>
	<circle class="st3" cx="384.2" cy="341.9" r="7"/>
	<path class="st3" d="M393.2,155.7c-15.3,0-27.8,12.5-27.8,27.8v55.6c-7.4,0-14.4,2.9-19.7,8.1l-15.6,15.6
		c-8.5,8.5-30.2,16.9-42.5,18.1l-0.5,0.1c-21.2,2.1-37.1,19.8-37.1,41.1v90.7c0,3.8,3.1,7,7,7h73.7c3.8,0,7-3.1,7-7v-37.4l22.7-11.4
		c3.4-1.7,4.8-5.9,3.1-9.3c-1.7-3.4-5.9-4.8-9.3-3.1l-26.6,13.3c-2.4,1.2-3.8,3.6-3.8,6.2v34.7H264v-83.8
		c0-14.1,10.6-25.8,24.7-27.2l0.5-0.1c15.1-1.5,40-11.3,50.9-22.1l15.6-15.6c4-4,9.7-5,14.5-3.3c0,0,0,0,0,0l0,0
		c5.5,2,9.3,7.2,9.3,13.1c0,3.7-1.4,7.2-4.1,9.8l-35.6,35.6c-2.7,2.7-2.7,7.1,0,9.8c2.7,2.7,7.1,2.7,9.8,0l35.6-35.6
		c5.3-5.3,8.1-12.2,8.1-19.7c0-10-5.4-19.2-13.9-24.1v-59.3c0-7.7,6.2-13.9,13.9-13.9c7.7,0,13.9,6.2,13.9,13.9v94.4
		c0,12.7-3.2,25.3-9.3,36.5c-1.8,3.4-0.6,7.6,2.8,9.4c3.4,1.8,7.6,0.6,9.4-2.8c7.2-13.2,11-28.1,11-43.1v-94.4
		C421,168.2,408.5,155.7,393.2,155.7L393.2,155.7z"/>
</g>
<g class="st0">
	<g class="st1">
		<path class="st2" d="M338.8,227.2c-1-1.1-2.5-1.7-4.1-1.7h-34.3c-3.1-0.2-5.7,2.2-5.9,5.2c0,0.7,0.1,1.5,0.3,2.2
			c0.6,1.2,0.9,2.4,1,3.7c0,6.1-5,11.1-11.1,11.1c-6.1,0-11.1-5-11.1-11.1c0-1.3,0.3-2.5,0.7-3.7c1-2.9-0.5-6.1-3.4-7.1
			c-0.7-0.2-1.4-0.3-2.2-0.3h-34v-32.1c0-3.1-2.5-5.5-5.6-5.5c-1.4,0-2.7,0.5-3.7,1.4c-4.5,4.1-11.6,3.8-15.7-0.8
			c-4.1-4.5-3.8-11.6,0.8-15.7c2.1-1.9,4.8-2.9,7.6-2.9c2.7,0,5.4,1,7.4,2.9c2.3,2.1,5.8,1.9,7.8-0.4c0.9-1,1.4-2.3,1.4-3.7v-48.8
			c0-3.1-2.5-5.6-5.6-5.6c-61.3,0.1-110.9,49.9-110.8,111.3c0.1,41.8,23.6,80,60.8,98.8v40.8c-6.6,2.3-11.1,8.6-11.1,15.7
			c0,4.1,1.6,8.1,4.3,11.1c-2.8,3-4.3,7-4.3,11.1c0,9.2,7.5,16.7,16.7,16.7h88.8c9.2,0,16.7-7.5,16.7-16.7c0-4.1-1.6-8.1-4.3-11.1
			c2.8-3,4.3-7,4.3-11.1c0-7-4.5-13.3-11.1-15.7v-40.8c35.7-17.8,59-53.4,61.1-93.2C340.4,229.7,339.8,228.3,338.8,227.2z
			 M273.7,408.7h-88.8c-3.1,0-5.6-2.5-5.6-5.6c0-3.1,2.5-5.6,5.6-5.6h88.8c3.1,0,5.6,2.5,5.6,5.6
			C279.2,406.2,276.7,408.7,273.7,408.7z M273.7,386.4h-88.8c-3.1,0-5.6-2.5-5.6-5.6c0-3.1,2.5-5.6,5.6-5.6h88.8
			c3.1,0,5.6,2.5,5.6,5.6S276.7,386.4,273.7,386.4z M212.6,281H207c-3.1,0-5.6-2.5-5.6-5.6c0-3.1,2.5-5.6,5.6-5.6
			c3.1,0,5.6,2.5,5.6,5.6V281z M223.7,364.2v-72.2h11.1v72.2H223.7z M271.3,316c-2,0.9-3.2,2.9-3.2,5v43.2h-22.2v-72.2h5.6
			c9.2,0,16.7-7.5,16.7-16.7c0-9.2-7.5-16.7-16.7-16.7c-9.2,0-16.7,7.5-16.7,16.7v5.6h-11.1v-5.6c0-9.2-7.5-16.7-16.7-16.7
			s-16.7,7.5-16.7,16.7c0,9.2,7.5,16.7,16.7,16.7h5.6v72.2h-22.2V321c0-2.2-1.3-4.1-3.2-5c-50.1-23.2-71.9-82.6-48.7-132.7
			c15.5-33.6,48.3-55.8,85.3-57.8v33.9c-1.8-0.4-3.7-0.6-5.6-0.6c-12.3,0-22.2,9.9-22.2,22.2c0,12.3,9.9,22.2,22.2,22.2
			c1.9,0,3.7-0.2,5.6-0.7V231c0,3.1,2.5,5.6,5.6,5.6h33.3c0,12.3,9.9,22.2,22.2,22.2s22.2-9.9,22.2-22.2h21.5
			C324.7,271.2,303,301.3,271.3,316z M245.9,281v-5.6c0-3.1,2.5-5.6,5.6-5.6c3.1,0,5.6,2.5,5.6,5.6c0,3.1-2.5,5.6-5.6,5.6H245.9z"/>
	</g>
</g>
<g class="st0">
	<g class="st1">
		<path class="st2" d="M312.5,86.6c-3.1,0-5.6,2.5-5.6,5.6v39.6c-1.8-0.5-3.7-0.7-5.6-0.7c-12.3,0-22.2,9.9-22.2,22.2
			c0,12.3,9.9,22.2,22.2,22.2c1.9,0,3.7-0.2,5.6-0.7v28.5c0,3.1,2.5,5.6,5.6,5.6h33.3c0,12.3,9.9,22.2,22.2,22.2
			c12.3,0,22.2-9.9,22.2-22.2H418c3-0.3,5.3-2.6,5.6-5.6c0-1.8,0-3.6,0-5.6C423.6,136.3,373.9,86.6,312.5,86.6z M383.9,197.7
			c-3.1-0.2-5.7,2.2-5.9,5.2c0,0.7,0.1,1.5,0.3,2.2c0.5,1.2,0.8,2.4,0.8,3.7c0,6.1-5,11.1-11.1,11.1c-6.1,0-11.1-5-11.1-11.1
			c0-1.3,0.3-2.5,0.7-3.7c1-2.9-0.5-6.1-3.4-7.1c-0.7-0.2-1.4-0.3-2.2-0.3h-34v-32.1c0-3.1-2.5-5.5-5.6-5.5c-1.4,0-2.7,0.5-3.7,1.4
			c-4.6,4.1-11.6,3.6-15.7-1c-4.1-4.6-3.6-11.6,1-15.7c4.2-3.7,10.5-3.7,14.7,0c2.3,2.1,5.8,1.9,7.8-0.4c0.9-1,1.4-2.2,1.4-3.5V97.7
			c53,3,94.5,46.8,94.4,99.9L383.9,197.7L383.9,197.7z"/>
	</g>
</g>
<g id="_x30_38---Push-Swing" class="st0">
	<path id="Shape" class="st3" d="M369.2,117c0-14-8.4-26.6-21.4-32c-12.9-5.4-27.8-2.4-37.7,7.5c-9.9,9.9-12.9,24.8-7.5,37.7
		c5.4,12.9,18,21.4,32,21.4C353.7,151.5,369.1,136.1,369.2,117z M311.5,117c0-12.7,10.3-23.1,23.1-23.1s23.1,10.3,23.1,23.1
		c0,12.7-10.3,23.1-23.1,23.1C321.8,140,311.5,129.7,311.5,117z"/>
	<path id="Shape_1_" class="st3" d="M86.5,336.1h121.1c6.4,0,11.5-5.2,11.5-11.5v-23.1c0-6-4.6-10.9-10.5-11.4l33.5-201
		c0.4-3.1-1.7-6-4.8-6.5c-3.1-0.5-6,1.5-6.6,4.6L197,290h-12.4v-57.7c0-6.2-2.5-12.1-6.9-16.5c-4.4-4.3-10.4-6.7-16.6-6.5
		l-39.8-16.4c-8.9-3.1-18.7,1.5-22,10.4c-3.3,8.9,1.2,18.7,10.1,22.1l23.6,9.7c-0.3,2.8-0.2,0.1-0.2,31.8h-17.3
		c-5.6,0-10.9,2.7-14.1,7.3s-4,10.5-2.1,15.8H86.5c-6.4,0-11.5,5.2-11.5,11.5v23.1C75,330.9,80.2,336.1,86.5,336.1z M109.9,207.3
		c1-2.9,4.2-4.5,7.1-3.6l40.6,16.7c3,1.1,4.6,4.3,3.5,7.3c-1,3-4.3,4.6-7.3,3.6l-40.5-16.7C110.4,213.6,108.9,210.3,109.9,207.3z
		 M109.6,284.2c0-3.2,2.6-5.8,5.8-5.8h40.4c3.2,0,5.8-2.6,5.8-5.8s-2.6-5.8-5.8-5.8h-11.5v-27.1c3.6,1.9,7.5,3.1,11.5,3.4
		c8.2,0,15.3-5.8,16.9-13.8c0.6,2.4,0.4-2.2,0.4,60.7h-57.7C112.2,290,109.6,287.4,109.6,284.2z M86.5,301.5h121.1v23.1H86.5V301.5z
		"/>
	<path id="Shape_2_" class="st3" d="M190.3,171.7c0-14.3-11.6-25.9-25.9-25.9s-25.9,11.6-25.9,25.9s11.6,25.9,25.9,25.9
		C178.7,197.7,190.3,186.1,190.3,171.7z M150,171.7c0-8,6.4-14.4,14.4-14.4s14.4,6.4,14.4,14.4s-6.4,14.4-14.4,14.4
		S150,179.7,150,171.7z"/>
	<path id="Shape_3_" class="st3" d="M409.5,393.8h-38.2c2.3-3.8,3.6-8.1,3.6-12.6c0-219.8,0-202.6-0.1-204.2
		c-0.2-7.1-4-13.6-10.2-17.1c-6.2-3.5-13.7-3.5-19.9,0.1l-98.1,55.7c-6.5,3.8-10.4,10.9-10.1,18.4c0.3,7.5,4.9,14.3,11.7,17.4
		c-0.6,5.6,1.3,11.2,5.1,15.4s9.2,6.5,14.9,6.5c6.5,0,6.9-0.9,37.5-17.9v126.7c0,4.1,1.1,8,3.2,11.5h-65.2
		c3.1-5.1,7.4-9.3,12.7-12.2c2.8-1.5,3.8-5,2.3-7.8s-4.9-3.9-7.7-2.4c-3.1,1.8-6.1,3.9-8.8,6.3v-18.5c0-3.2-2.6-5.8-5.8-5.8
		s-5.8,2.6-5.8,5.8v18.5c-2.7-2.4-5.7-4.5-8.8-6.3c-2.8-1.5-6.3-0.4-7.7,2.4s-0.5,6.2,2.3,7.8c5.3,2.9,9.6,7.1,12.7,12.2h-77.6
		c3.1-5.1,7.5-9.3,12.7-12.2c2.8-1.5,3.8-5,2.3-7.8s-4.9-3.9-7.7-2.4c-3.1,1.8-6.1,3.9-8.8,6.3v-18.5c0-3.2-2.6-5.8-5.8-5.8
		c-3.2,0-5.8,2.6-5.8,5.8v18.5c-2.7-2.4-5.7-4.5-8.8-6.3c-2.8-1.5-6.2-0.4-7.7,2.4s-0.5,6.2,2.3,7.8c5.3,2.9,9.6,7.1,12.7,12.2H86.5
		c-6.4,0-11.5,5.2-11.5,11.5v11.5c0,6.4,5.2,11.5,11.5,11.5h322.9c6.4,0,11.5-5.2,11.5-11.5v-11.5
		C421,398.9,415.8,393.8,409.5,393.8L409.5,393.8z M248.3,231c0.6-2.2,2-4.1,4-5.2l98.2-55.8c4.1-2,9.1-0.5,11.4,3.5
		c2.3,4,1,9-2.8,11.5l-98,55.8c-3,1.8-6.8,1.5-9.6-0.6C248.6,238,247.4,234.4,248.3,231L248.3,231z M272.5,260.7
		c-2.7,1.5-6,1.6-8.6,0c-2.7-1.5-4.3-4.4-4.3-7.5c5.4-0.8,4-0.7,46.1-24.6v13.7L272.5,260.7z M317.3,382.2V222l46.1-26.2v185.4
		c0,3.5-1.5,6.9-4,9.4c-3.3,3.1-8.1,4-12.3,2.1c-4.1-1.8-6.8-5.9-6.8-10.5V290c0-3.2-2.6-5.8-5.8-5.8s-5.8,2.6-5.8,5.8v92.3
		c0,4.1,1.1,8,3.2,11.5h-3.2C322.4,393.8,317.3,388.6,317.3,382.2z M86.5,416.8v-11.5h322.9v11.5H86.5z"/>
</g>
<path class="st2" d="M196.2,415c-1.2,0-2.4-0.5-3.2-1.4l-5.8-1.1c-3.4,1.7-7,2.5-10.7,2.5c-13.2,0-24-10.8-24-24v-85.7l-6.7-4.6
	c-2.8,1.1-5.7,1.6-8.7,1.6c-6.4,0-12.5-2.5-17-7l-19.7-19.7c-4.5-4.5-7-10.6-7-17c0-6.4,2.5-12.5,7-17l35.9-36
	c6.2-6.2,16.3-12,27-15.5l2-8c-7.5-7.9-11.6-18.3-11.6-29.1c0-23.4,19.1-42.5,42.5-42.5s42.5,19.1,42.5,42.5
	c0,10.8-4.1,21.2-11.6,29.1l2,8c10.7,3.5,20.8,9.3,27,15.5l36,36c4.5,4.5,7,10.6,7,17c0,6.4-2.5,12.5-7,17l-19,19l-0.1,6.8
	c2.4,2.6,4.2,5.6,5.3,9l4.7,3.4h48.7l4.9-4.9v-50c0-2.4,1.9-4.3,4.3-4.3h52.6c2.4,0,4.3,1.9,4.3,4.3V386c0,16-13,29-29,29L196.2,415
	L196.2,415z M161.1,307.2V391c0,8.5,6.9,15.4,15.4,15.4c8.5,0,15.4-6.9,15.4-15.4v-53.6c0-2.4,1.9-4.3,4.3-4.3h39.4
	c2.4,0,4.3,1.9,4.3,4.3v19.7c0,8.5,6.9,15.4,15.4,15.4c8.5,0,15.4-6.9,15.4-15.4v-39.5c0-8.4-6.8-15.3-15.2-15.4H166L161.1,307.2z
	 M200.5,386.1v15.4l4.9,4.9h163.4c11.2,0,20.3-9.1,20.3-20.3l0,0V268l-4.9-4.9H350l-4.9,4.9v50c0,2.4-1.9,4.3-4.3,4.3h-56.5
	l-4.9,4.9v49.7c0,2.4-1.9,4.3-4.3,4.3h-69.7L200.5,386.1z M200.5,346.6v21l4.9,4.9h23l4.6-6.7c-1.1-2.8-1.6-5.7-1.6-8.7v-10.5
	l-4.9-4.9h-21L200.5,346.6z M235.6,242.7c1.2,0,2.2,0.4,3,1.3l11.6,11.6c0.8,0.8,1.3,1.9,1.3,3c0,1.2-0.4,2.2-1.3,3.1l-5.8,5.8
	c-2.9,2.9-4.5,6.7-4.5,10.7v0.3c0,4.1,1.6,7.9,4.5,10.8c2.7,2.7,6.3,4.3,10.2,4.5l0.2,0h0.8h0.2c3.9-0.1,7.6-1.7,10.3-4.5l19.7-19.7
	c2.9-2.9,4.5-6.8,4.5-10.9c0-4.1-1.6-8-4.5-10.9l-36-36c-8.8-8.8-26.6-16.2-39-16.2h-29.6c-12.4,0-30.3,7.4-39,16.2l-36,36
	c-2.9,2.9-4.5,6.8-4.5,10.9c0,4.1,1.6,8,4.5,10.9l19.7,19.7c2.9,2.9,6.8,4.5,10.9,4.5c4.1,0,8-1.6,10.9-4.5
	c2.9-2.9,4.5-6.7,4.5-10.8v-0.2c0-4.1-1.6-8-4.5-10.8l-5.8-5.8c-0.8-0.8-1.3-1.9-1.3-3.1c0-1.1,0.5-2.2,1.3-3l11.5-11.5
	c0.8-0.8,1.9-1.3,3.1-1.3c0.6,0,1.1,0.1,1.6,0.3c1.6,0.7,2.7,2.2,2.7,4v41.8l4.9,4.9h60.5l4.9-4.9V247c0-1.7,1-3.3,2.7-4
	C234.5,242.8,235.1,242.7,235.6,242.7z M196.2,119.2c-18.7,0-33.9,15.2-33.9,33.9s15.2,33.9,33.9,33.9s33.9-15.2,33.9-33.9
	C230.1,134.4,214.9,119.2,196.2,119.2z"/>
</svg>
