<?xml version="1.0" encoding="utf-8"?>
<!-- Generator: Adobe Illustrator 24.0.1, SVG Export Plug-In . SVG Version: 6.00 Build 0)  -->
<svg version="1.1" id="Layer_1" xmlns="http://www.w3.org/2000/svg" xmlns:xlink="http://www.w3.org/1999/xlink" x="0px" y="0px"
	 viewBox="0 0 278 278" style="enable-background:new 0 0 278 278;" xml:space="preserve">
<style type="text/css">
	.st0{display:none;}
	.st1{display:inline;fill:#2F2C52;}
	.st2{display:inline;}
	.st3{fill:#2F2C52;}
	.st4{display:none;fill:#2F2C52;}
	.st5{fill:#434344;}
</style>
<g class="st0">
	<path class="st1" d="M184.9,95.1c-1.5-1.5-3.9-1.5-5.4,0s-1.5,3.9,0,5.4s3.9,1.5,5.4,0c0.7-0.7,1.1-1.7,1.1-2.7
		C186,96.7,185.6,95.8,184.9,95.1z"/>
	<path class="st1" d="M99.1,148.4H68.7c-2.1,0-3.8,1.7-3.8,3.8l0,0v30.5c0,2.1,1.7,3.8,3.8,3.8h30.5c2.1,0,3.8-1.7,3.8-3.8v-30.5
		C102.9,150.1,101.2,148.4,99.1,148.4L99.1,148.4z M95.3,178.9H72.5V156h22.9L95.3,178.9L95.3,178.9z"/>
	<path class="st1" d="M234.6,120.9c-1.4-0.6-3.1-0.3-4.1,0.8l-38.8,38.8l-45.2,45.2l-23.7,23.7c-1.5,1.5-1.5,3.9,0,5.4
		c0.7,0.7,1.7,1.1,2.7,1.1h107.8c2.1,0,3.8-1.7,3.8-3.8V124.4C237,122.9,236.1,121.5,234.6,120.9L234.6,120.9z M229.4,228.4h-94.8
		l14.5-14.5l3.6,3.6c1.5,1.5,3.9,1.4,5.4-0.1c1.4-1.5,1.4-3.8,0-5.3l-3.6-3.6l9.7-9.7l3.6,3.6c1.5,1.5,3.9,1.4,5.4-0.1
		c1.4-1.5,1.4-3.8,0-5.3l-3.6-3.6l9.7-9.7l3.6,3.6c1.5,1.5,3.9,1.5,5.4,0s1.5-3.9,0-5.3l-3.6-3.6l9.7-9.7l3.6,3.6
		c1.5,1.5,3.9,1.5,5.4,0.1c1.5-1.5,1.5-3.9,0.1-5.4l-0.1-0.1l-3.6-3.6l9.7-9.7l3.6,3.6c1.5,1.5,3.9,1.4,5.4-0.1
		c1.4-1.5,1.4-3.8,0-5.3l-3.6-3.6l14.5-14.5L229.4,228.4z"/>
	<path class="st1" d="M215.6,166.9c-1.4-0.6-3.1-0.3-4.1,0.8l-42.8,42.8c-1.5,1.5-1.5,3.9,0,5.4c0.7,0.7,1.7,1.1,2.7,1.1h42.8
		c2.1,0,3.8-1.7,3.8-3.8v-42.8C218,168.8,217,167.5,215.6,166.9L215.6,166.9z M210.3,209.3h-29.8l29.8-29.8V209.3z"/>
	<path class="st1" d="M218.4,97.9c-1-1.1-2.6-1.4-4-0.9l-26,9.5c-0.5,0.2-1,0.5-1.4,0.9l-7.3,7.3l-47.8-47.8c-1.5-1.5-3.9-1.5-5.4,0
		l0,0L69,124.4H55l74.2-74.2L170,90.9c1.5,1.5,3.9,1.4,5.4-0.1s1.5-3.9,0-5.3L132,42.1c-1.5-1.5-3.9-1.5-5.4,0l-83.4,83.4
		c-1.5,1.5-1.5,3.9,0,5.4c0.7,0.7,1.7,1.1,2.7,1.1h3.8v100.2c0,2.1,1.7,3.8,3.8,3.8H114c2.1,0,3.8-1.6,3.9-3.8
		c0-2.1-1.6-3.8-3.8-3.9H114H57.2V132h13.4c1,0,2-0.4,2.7-1.1L129.2,75l45,45.1l-56.5,56.5v-34.2h26.7c2.1,0,3.8-1.8,3.8-3.9
		c0-2.1-1.7-3.7-3.8-3.8H114c-2.1,0-3.8,1.7-3.8,3.8v44.2c0,0.4,0.1,0.9,0.2,1.3l-3.4,3.4c-6,6-6,15.8,0,21.9s15.8,6,21.9,0
		l32.1-32.1c1.5-1.5,1.5-3.9,0.1-5.4c-1.5-1.5-3.9-1.5-5.4-0.1l-0.1,0.1L131.3,196l-11.1-11.1l69.6-69.6l11.1,11.1L174.3,153
		c-1.5,1.5-1.4,3.9,0.1,5.4c1.5,1.4,3.8,1.4,5.3,0l29.2-29.2c0.4-0.4,0.7-0.9,0.9-1.4l9.5-26C219.8,100.5,219.4,98.9,218.4,97.9
		L218.4,97.9z M125.9,201.4l-2.4,2.4c-3.1,3.1-8,3.1-11.1,0s-3.1-8,0-11.1l0,0l2.4-2.4L125.9,201.4z M204.7,119.5l-8-8l12.6-4.6
		L204.7,119.5z"/>
	<path class="st1" d="M170.2,162.5c-1.5-1.5-3.9-1.5-5.4,0s-1.5,3.9,0,5.4s3.9,1.5,5.4,0c0.7-0.7,1.1-1.7,1.1-2.7
		C171.3,164.1,170.9,163.2,170.2,162.5z"/>
	<path class="st1" d="M129.2,98.5c-8,0-14.5,6.5-14.5,14.5s6.5,14.5,14.5,14.5s14.5-6.5,14.5-14.5S137.2,98.5,129.2,98.5L129.2,98.5
		z M129.2,119.8c-3.8,0-6.9-3.1-6.9-6.9s3.1-6.9,6.9-6.9s6.9,3.1,6.9,6.9l0,0C136.1,116.8,133,119.8,129.2,119.8L129.2,119.8z"/>
</g>
<g class="st0">
	<g class="st2">
		<path class="st3" d="M247.5,79.5c-3.2-3.3-8.5-3.4-11.8-0.2c-0.1,0.1-0.1,0.1-0.2,0.2L100.1,215l-44-44c-3.3-3.2-8.6-3.1-11.8,0.2
			c-3.1,3.2-3.1,8.3,0,11.5l49.9,49.9c3.3,3.3,8.5,3.3,11.8,0L247.4,91.3C250.6,88.1,250.7,82.8,247.5,79.5z"/>
	</g>
</g>
<g class="st0">
	<g class="st2">
		<g>
			<path class="st3" d="M254,229.3l-29.9-29.9c-1.3-1.3-3.5-1.3-4.8,0s-1.3,3.5,0,4.8l3.2,3.2L195.9,234L185,223.1
				c-4-4-9.5-6.1-15.2-5.7l-12.1,0.9c-3.7,0.3-7.3-1.1-9.9-3.7l-34.1-34.1c-1.9-1.9-1.9-4.9,0-6.8c1.9-1.9,4.9-1.9,6.8,0l16,16
				c0.1,0.1,0.2,0.2,0.3,0.2c0.6,0.5,1.4,0.8,2.1,0.8s1.5-0.3,2.1-0.8c0.1-0.1,0.2-0.1,0.3-0.2c1.3-1.3,1.3-3.5,0-4.8l-34.7-34.7
				c-1.1-1.1-1.6-2.5-1.6-4s0.6-2.9,1.6-4c1.1-1.1,2.5-1.6,4-1.6c1.3,0,2.6,0.4,3.6,1.3l35.1,35.1c0.7,0.7,1.5,1,2.4,1
				s1.7-0.3,2.4-1l0,0l0,0c1.3-1.3,1.3-3.5,0-4.8l-49.6-49.6c-2.2-2.2-2.2-5.7,0-7.9c1.1-1.1,2.5-1.6,4-1.6s2.9,0.6,4,1.6l49.5,49.7
				c0.7,0.7,1.5,1,2.4,1s1.7-0.3,2.4-1l0,0l0,0c1.3-1.3,1.3-3.5,0-4.8L122,114.7c-0.6-0.9-0.9-2-0.9-3.1c0-1.5,0.6-2.9,1.6-4
				c1.1-1.1,2.5-1.6,4-1.6s2.9,0.6,4,1.6l38.6,38.6l0.1,0.1l4.3,5.6c1.1,1.5,3.3,1.8,4.8,0.6c1.5-1.1,1.8-3.3,0.6-4.8l-4.5-5.9
				c-0.9-1.5-1.2-3.3-0.7-5.1s1.6-3.2,3.3-4.1c3.1-1.6,6.9-0.6,8.7,2.4c0.1,0.1,19.8,25,19.8,25c2.3,2.9,3.2,6.7,2.5,10.4l-1.7,8.6
				c-0.8,4.2-0.3,8.5,1.6,12.4c0.6,1.2,1.8,1.9,3.1,1.9c0.5,0,1-0.1,1.5-0.3c1.7-0.8,2.4-2.9,1.6-4.5c-1.2-2.5-1.6-5.4-1-8.1
				l1.7-8.6c1.1-5.6-0.3-11.4-3.8-15.9l-0.9-1.2c2.8-3.7,4.2-8.4,3.9-13.1l-0.8-12c-0.3-3.6,1.1-7.2,3.7-9.8L254,82.5
				c1.3-1.3,1.3-3.5,0-4.8l-31.2-31.2c-1.3-1.3-3.5-1.3-4.8,0l-37.2,37.2c-3,3-7.2,4.3-11.4,3.5l-8.5-1.7
				c-5.6-1.1-11.4,0.3-15.8,3.8c-0.1,0-0.1,0.1-0.1,0.1l-6,5.3l-6-5.3l-0.1-0.1c-4.5-3.5-10.2-4.9-15.8-3.8l-8.5,1.7
				c-4.1,0.8-8.4-0.5-11.4-3.5L60,46.5c-1.3-1.3-3.5-1.3-4.8,0L24,77.7c-1.3,1.3-1.3,3.5,0,4.8l37.3,37.3c2.6,2.6,3.9,6.2,3.7,9.8
				l-0.8,12c-0.4,5.3,1.4,10.5,5,14.4c-3.5,3.9-5.3,9.1-5,14.4l0.8,12c0.3,3.6-1.1,7.2-3.7,9.8L24,229.5c-1.3,1.3-1.3,3.5,0,4.8
				l31.2,31.2c0.7,0.7,1.5,1,2.4,1s1.7-0.3,2.4-1l37.2-37.2c3-3,7.2-4.3,11.4-3.5l8.5,1.7c5.6,1.1,11.4-0.3,15.8-3.8
				c0.1-0.1,0.1-0.1,0.2-0.2l6.8-6.3l3.2,3.2c4,4,9.5,6.1,15.2,5.7l12.1-0.9c3.7-0.3,7.3,1.1,9.9,3.7l13.2,13.2l0,0l24.4,24.4
				c0.7,0.7,1.5,1,2.4,1s1.7-0.3,2.4-1l31.4-31.4C255.3,232.8,255.3,230.6,254,229.3L254,229.3z M220.4,53.7l26.4,26.4l-19.4,19.4
				L201,73.1L220.4,53.7z M149.4,94.6c2.9-2.3,6.6-3.1,10.2-2.4l8.5,1.7c6.4,1.3,12.9-0.7,17.5-5.3L196.2,78l26.4,26.4L211.9,115
				c-4,4-6,9.5-5.6,15.1l0.8,12c0.2,2.4-0.4,4.9-1.5,7l-14-17.8c-3.8-5.9-11.4-7.9-17.6-4.6c-3.1,1.7-5.5,4.6-6.5,8L137.6,105
				L149.4,94.6z M31.2,80.1l26.4-26.4L77,73.1L50.6,99.5L31.2,80.1z M57.6,258.3l-26.4-26.4l19.4-19.4L77,238.9L57.6,258.3z
				 M128.6,217.5c-2.9,2.2-6.6,3.1-10.2,2.4l-8.5-1.7c-6.4-1.3-12.9,0.7-17.5,5.3l-10.6,10.6l-26.4-26.4L66.1,197
				c4-4,6-9.5,5.6-15.1l-0.8-12c-0.3-3.6,1.1-7.2,3.7-9.8l11.3-11.3c1.3-1.3,1.3-3.5,0-4.8s-3.5-1.3-4.8,0l-7.1,7.1
				c-2.1-2.5-3.2-5.8-3-9.1l0.8-12c0.4-5.6-1.7-11.1-5.6-15.1l-10.7-10.7l26.4-26.4l10.6,10.6c4.6,4.6,11.1,6.6,17.5,5.3l8.5-1.7
				c3.6-0.7,7.3,0.2,10.2,2.4L134,99l-1.5,1.3c-1.7-0.9-3.7-1.4-5.7-1.4c-3.3,0-6.4,1.3-8.8,3.6c-1.5,1.5-2.5,3.2-3.1,5.2
				c-1.9-1.1-4.1-1.8-6.4-1.8c-3.3,0-6.4,1.3-8.8,3.6c-4.5,4.5-4.8,11.6-0.9,16.5l-6.5,6.5c-1.3,1.3-1.3,3.5,0,4.8s3.5,1.3,4.8,0
				l6.4-6.4l3.2,3.2c-1.8,0.6-3.5,1.6-4.9,3c-2.3,2.3-3.6,5.4-3.6,8.8s1.3,6.4,3.6,8.8l11.2,11.2c-1.5,0.6-2.9,1.5-4.1,2.7
				c-4.5,4.5-4.5,11.9,0,16.4l26.1,26.1L128.6,217.5z M220.2,258.3l-19.5-19.5l26.6-26.6l19.5,19.5L220.2,258.3z"/>
		</g>
	</g>
</g>
<rect x="210.2" y="58" transform="matrix(0.7071 -0.7071 0.7071 0.7071 11.3625 180.7856)" class="st4" width="27.4" height="37.3"/>
<rect x="35.4" y="62.9" transform="matrix(0.7071 -0.7071 0.7071 0.7071 -38.3356 60.6487)" class="st4" width="37.3" height="27.4"/>
<rect x="40.4" y="216.8" transform="matrix(0.7071 -0.7071 0.7071 0.7071 -150.6313 107.2278)" class="st4" width="27.4" height="37.3"/>
<rect x="204.9" y="221.4" transform="matrix(0.7071 -0.7071 0.7071 0.7071 -100.7954 227.0418)" class="st4" width="37.6" height="27.6"/>
<path class="st5" d="M185.2,252.5c-1.3,0-2.3-1-2.3-2.3V186c0-1.6,1.1-3.1,2.7-3.6l0.7-0.9v-6.9c0-2.4,2-4.4,4.4-4.4l1.1-1v-10.5
	c0-1.4-0.5-2.8-1.5-3.9c-4.7-5.7-7.5-14.3-8.1-25.3c-0.4-7-0.2-22.4-0.1-28.9c0-1.4,0-2.3,0-2.7c0.1-4.5,3.8-8.1,8.3-8.1h0.2
	c0.8,0,1.6,0.1,2.5,0.4l1.3-0.9v-4.7c0-4.6,3.7-8.3,8.3-8.3h0.2c1.3,0,2.5,0.3,3.5,0.8l1.3-0.4c1.4-2.7,4.2-4.4,7.3-4.4h0.2
	c4.5,0,8.1,3.7,8.2,8.2l1.3,0.9c0.8-0.3,1.7-0.4,2.5-0.4c4.6,0,8.3,3.7,8.3,8.3v14l1.3,0.9c0.8-0.3,1.7-0.4,2.9-0.4
	c4.5,0.1,8,3.8,7.9,8.5v12.6c0,4.2-0.6,8.2-1.8,12c-2.2,7.2-6.3,13.3-12.4,18.7c-0.4,0.2-0.6,0.4-0.8,0.6c-1.4,1.1-2.2,2.8-2.2,4.7
	v8.5l0.9,1c2.3,0.2,4.2,2.1,4.2,4.4v7.5l0.5,0.8c1.8,1,2.9,2.9,2.9,4.8v62.5c0,1.3-1,2.3-2.3,2.3H185.2z M187.6,187.7v59.3l1,1h44.7
	l1-1v-59.2c0-0.6-0.4-1.1-1.1-1.1h-44.6L187.6,187.7z M190.9,175.8v5.6l1,1h38.1l1-1v-5.6l-1-1h-38.1L190.9,175.8z M190.4,94.2
	c-2.1,0-3.7,1.7-3.7,3.7c0,0.4,0,1.3,0,2.6c-0.1,6.5-0.3,21.8,0.1,28.6c0.6,10,3,17.6,7.1,22.7c1.6,1.9,2.5,4.4,2.5,6.9v10.5l1,1
	h27.6l1-1v-8.5c0-3.3,1.5-6.3,4-8.3l0.1-0.1c0,0,0.2-0.2,0.2-0.2l0.2-0.1c5.6-4.7,9.1-10,11.2-16.6c1-3.3,1.6-6.9,1.6-10.6V112
	c0-2.1-1.6-3.9-3.7-4c-0.1,0-0.2,0-0.4,0c-0.9,0-1.8,0.4-2.5,1.1c-0.7,0.7-1.1,1.7-1.1,2.8v14.4c0,2.6-1.4,5-3.8,6.1
	c-4.1,2.1-7.3,4.7-9.4,7.3c-0.5,0.8-1.4,0.9-1.7,0.9c-0.6,0-1-0.1-1.4-0.4c-0.5-0.4-0.8-0.9-0.9-1.5c-0.1-0.6,0.1-1.2,0.5-1.7
	c2.5-3.2,6.3-6.1,11-8.5c0.8-0.5,1.3-1.3,1.3-2.1V89.2c0-2.1-1.7-3.7-3.7-3.7c-2.1,0-3.7,1.7-3.7,3.7V116c0,1.3-1,2.3-2.3,2.3
	c-1.3,0-2.3-1-2.3-2.3V80.5c0-2.1-1.7-3.7-3.7-3.7H215c-2.1,0-3.7,1.7-3.7,3.7v35.6c0,1.3-1,2.3-2.3,2.3s-2.3-1-2.3-2.3V84.6
	c0-2.1-1.7-3.7-3.7-3.7h-0.2c-2.1,0-3.7,1.7-3.7,3.7v31.6c0,1.3-1,2.3-2.3,2.3s-2.3-1-2.3-2.3V98.1c0-0.9-0.4-1.7-1.1-2.6
	c-0.8-0.8-1.7-1.2-2.7-1.2H190.4z"/>
<path class="st5" d="M41.5,252.2c-1.3,0-2.3-1-2.3-2.3v-8.5c0-1.3,1-2.3,2.3-2.3s2.3,1,2.3,2.3v5.4l1,1h44.9l1-1v-34.9l-1-1H44.9
	c-0.6,0-1.1,0.5-1.1,1.1v14.5c0,1.3-1,2.3-2.3,2.3c-1.3,0-2.3-1-2.3-2.3v-14.5c0-2,1.1-3.8,2.9-4.8l0.5-0.8v-7.5
	c0-2.3,1.9-4.3,4.1-4.4l0.9-1v-8.5c0-1.9-0.8-3.6-2.3-4.8l-0.2-0.1c-0.1-0.1-0.3-0.2-0.4-0.3l-0.2-0.1c-6.2-5.3-10.3-11.5-12.5-18.8
	c-1.2-4.2-1.8-8.1-1.8-12v-12.6c0-4.7,3.5-8.3,8.1-8.5c1.2,0,2.1,0.1,2.9,0.4l1.3-0.9v-13.9c0-4.6,3.7-8.3,8.3-8.3
	c0.8,0,1.6,0.1,2.5,0.4l1.3-0.9c0-4.5,3.7-8.1,8.2-8.1h0.2c3.1,0,5.9,1.7,7.3,4.4l1.2,0.4c1.1-0.5,2.3-0.8,3.5-0.8h0.2
	c4.6,0,8.3,3.7,8.3,8.3v4.7l1.3,0.9c0.8-0.3,1.7-0.4,2.5-0.4h0.2c4.6,0,8.2,3.6,8.3,8.2c0,1.1,0,2.2,0,3.3c0,1,0,2.1,0,3.1l0,3
	c0.1,7.3,0.2,14.9-0.2,22.2c-0.6,10.9-3.3,19.4-8.1,25.3c-0.8,1-1.4,2.4-1.6,3.6l0,0.1v10.5l1,1h0.1c2.4,0,4.4,2,4.4,4.4v6.9
	l0.7,0.9c1.6,0.5,2.7,1.9,2.7,3.6v39.9c0,1.3-1,2.3-2.3,2.3H41.5z M47.1,200.1v5.6l1,1h38.1l1-1v-5.6l-1-1H48.1L47.1,200.1z
	 M48.2,176.7c2.5,2,4,5.1,4,8.3v8.5l1,1h27.7l1-1V183c0-2.5,0.9-4.9,2.5-6.9c4.2-5.1,6.5-12.7,6.9-22.6c0.4-7.2,0.3-14.7,0.2-21.9
	l0-3c0-1,0-2.1,0-3.2c0-1.1,0-2.1,0-3.2c0-2.1-1.7-3.7-3.7-3.7h-0.2c-2.1,0-3.7,1.7-3.7,3.7v18.1c0,1.3-1,2.3-2.3,2.3
	c-1.3,0-2.3-1-2.3-2.3v-31.6c0-2.1-1.7-3.7-3.7-3.7h-0.2c-2.1,0-3.7,1.7-3.7,3.7v31.6c0,1.3-1,2.3-2.3,2.3s-2.3-1-2.3-2.3v-35.5
	c0-2.1-1.7-3.7-3.7-3.7h-0.2c-2.1,0-3.7,1.7-3.7,3.7v35.5c0,1.3-1,2.3-2.3,2.3s-2.3-1-2.3-2.3v-26.9c0-2.1-1.7-3.7-3.7-3.7
	c-2.1,0-3.7,1.7-3.7,3.7v37.2c0,0.6,0.2,1.5,1.2,2.1c2.1,1,7.3,3.8,11,8.6c0.4,0.5,0.5,1.1,0.4,1.7c-0.1,0.6-0.4,1.1-0.8,1.4
	c-0.4,0.3-0.9,0.5-1.4,0.5c-0.7,0-1.3-0.3-1.7-0.9c-2-2.7-5.2-5.1-9.4-7.3c-2.3-1.2-3.8-3.5-3.8-6.1v-14.5c0-1.1-0.4-2-1.1-2.8
	c-0.8-0.7-1.8-1-2.8-1l-0.1,0c-2.1,0.1-3.7,1.9-3.7,4V149c0,3.8,0.5,7.4,1.6,10.6c2.1,6.6,5.6,11.9,11.2,16.7l0.2,0.1
	C47.9,176.5,48,176.6,48.2,176.7z"/>
<path class="st5" d="M106.4,252.7c-1.3,0-2.3-1-2.3-2.3v-88c0-1.8,1.3-3.5,3-3.9l0.7-0.9v-8c0-2.6,2.1-4.7,4.7-4.7h0.5l1-1v-12.2
	c0-1.7-0.6-3.3-1.7-4.6c-5.4-6.5-8.4-16-9.1-28.2c-0.5-7.8-0.2-25-0.1-32.3c0-1.6,0-2.7,0-3.1c0-4.9,4-8.9,9-8.9h0.3
	c1.3,0,2.4,0.3,3.2,0.6l1.3-0.9v-5.8c0-5,4-9,9-9h0.2c1.3,0,2.8,0.4,4.2,1l1.3-0.4c1.6-3.1,4.8-5,8.1-5h0.2c5,0,9,4,9,9v0.4l1.4,0.9
	c0.8-0.4,1.9-0.6,3.1-0.6c5,0,9,4,9,9v16.1l1.3,0.9c1.1-0.4,2.1-0.6,3.1-0.6c0.2,0,0.3,0,0.5,0c5,0.3,8.8,4.2,8.7,9.3v14.6
	c0,4.6-0.6,9-2,13.3c-2.5,8.1-7.1,14.9-13.9,20.9c-0.3,0.2-0.6,0.4-0.9,0.7c-1.6,1.4-2.6,3.4-2.6,5.6v10l1,1c2.7,0,4.8,2.1,4.8,4.7
	v8.6l0.5,0.8c2,1,3.2,3.1,3.2,5.3v8.3c0,1.3-1,2.3-2.3,2.3c-1.3,0-2.3-1-2.3-2.3v-8.3c0-0.8-0.6-1.4-1.4-1.4h-50.5l-1,1v83.3l1,1h51
	l1-1v-59.6c0-1.3,1-2.3,2.3-2.3c1.3,0,2.3,1,2.3,2.3v62.8c0,1.3-1,2.3-2.3,2.3H106.4z M112.4,150.2v7.1l1,1h43.5l1-1v-7.1l-1-1
	h-43.5L112.4,150.2z M112,58.9c-2.5,0-4.5,2-4.5,4.4c0,2.3,0,4.8-0.1,7.1c-0.2,9-0.3,18.6,0.2,27.9c0.7,11.4,3.4,20,8.1,25.6
	c1.8,2.1,2.7,4.8,2.7,7.5v12.2l1,1h31.8l1-1v-10c0-3.6,1.6-6.9,4.4-9.1l0.1-0.1c0.1-0.1,0.1-0.1,0.2-0.2c0.1-0.1,0.3-0.2,0.4-0.3
	c6.2-5.2,10.2-11.2,12.6-18.8c1.2-3.8,1.8-7.8,1.8-12l0.1-14.2c0-2.5-2-4.7-4.4-4.8c0,0,0,0,0,0c-1.3,0-2.4,0.4-3.4,1.3
	c-0.9,0.8-1.5,2-1.5,3.3v16.3c0,2.8-1.6,5.4-4.1,6.6c-2,1-7.2,3.9-10.7,8.3c-0.5,0.8-1.4,0.9-1.7,0.9c-0.6,0-1-0.1-1.4-0.4
	c-1-0.8-1.2-2.1-0.4-3.2c3.9-4.9,9.3-8.1,12.2-9.6c1-0.6,1.6-1.5,1.6-2.6V53.6c0-2.4-2.1-4.5-4.5-4.5c-2.4,0-4.5,2.1-4.5,4.5v30.1
	c0,1.3-1,2.3-2.3,2.3s-2.3-1-2.3-2.3V43.9c0-2.4-2.1-4.5-4.5-4.5h-0.2c-2.4,0-4.5,2.1-4.5,4.5v39.8c0,1.3-1,2.3-2.3,2.3
	s-2.3-1-2.3-2.3V48.3c0-2.4-2.1-4.5-4.5-4.5h-0.2c-2.4,0-4.5,2.1-4.5,4.5v35.4c0,1.3-1,2.3-2.3,2.3c-1.3,0-2.3-1-2.3-2.3V63.4
	c0-2.4-2.1-4.5-4.5-4.5H112z"/>
</svg>
