<?xml version="1.0" encoding="utf-8"?>
<!-- Generator: Adobe Illustrator 24.0.1, SVG Export Plug-In . SVG Version: 6.00 Build 0)  -->
<svg version="1.1" id="Layer_1" xmlns="http://www.w3.org/2000/svg" xmlns:xlink="http://www.w3.org/1999/xlink" x="0px" y="0px"
	 viewBox="0 0 302 302" style="enable-background:new 0 0 302 302;" xml:space="preserve">
<style type="text/css">
	.st0{display:none;}
	.st1{display:inline;fill:#2F2C52;}
	.st2{display:inline;}
	.st3{fill:#2F2C52;}
	.st4{fill:#434344;}
</style>
<g class="st0">
	<path class="st1" d="M196.9,107.1c-1.5-1.5-3.9-1.5-5.4,0s-1.5,3.9,0,5.4s3.9,1.5,5.4,0c0.7-0.7,1.1-1.7,1.1-2.7
		C198,108.7,197.6,107.8,196.9,107.1z"/>
	<path class="st1" d="M111.1,160.4H80.7c-2.1,0-3.8,1.7-3.8,3.8l0,0v30.5c0,2.1,1.7,3.8,3.8,3.8h30.5c2.1,0,3.8-1.7,3.8-3.8v-30.5
		C114.9,162.1,113.2,160.4,111.1,160.4L111.1,160.4z M107.3,190.9H84.5V168h22.9L107.3,190.9L107.3,190.9z"/>
	<path class="st1" d="M246.6,132.9c-1.4-0.6-3.1-0.3-4.1,0.8l-38.8,38.8l-45.2,45.2l-23.7,23.7c-1.5,1.5-1.5,3.9,0,5.4
		c0.7,0.7,1.7,1.1,2.7,1.1h107.8c2.1,0,3.8-1.7,3.8-3.8V136.4C249,134.9,248.1,133.5,246.6,132.9L246.6,132.9z M241.4,240.4h-94.8
		l14.5-14.5l3.6,3.6c1.5,1.5,3.9,1.4,5.4-0.1c1.4-1.5,1.4-3.8,0-5.3l-3.6-3.6l9.7-9.7l3.6,3.6c1.5,1.5,3.9,1.4,5.4-0.1
		c1.4-1.5,1.4-3.8,0-5.3l-3.6-3.6l9.7-9.7l3.6,3.6c1.5,1.5,3.9,1.5,5.4,0s1.5-3.9,0-5.3l-3.6-3.6l9.7-9.7l3.6,3.6
		c1.5,1.5,3.9,1.5,5.4,0.1c1.5-1.5,1.5-3.9,0.1-5.4l-0.1-0.1l-3.6-3.6l9.7-9.7l3.6,3.6c1.5,1.5,3.9,1.4,5.4-0.1
		c1.4-1.5,1.4-3.8,0-5.3l-3.6-3.6l14.5-14.5L241.4,240.4z"/>
	<path class="st1" d="M227.6,178.9c-1.4-0.6-3.1-0.3-4.1,0.8l-42.8,42.8c-1.5,1.5-1.5,3.9,0,5.4c0.7,0.7,1.7,1.1,2.7,1.1h42.8
		c2.1,0,3.8-1.7,3.8-3.8v-42.8C230,180.8,229,179.5,227.6,178.9L227.6,178.9z M222.3,221.3h-29.8l29.8-29.8V221.3z"/>
	<path class="st1" d="M230.4,109.9c-1-1.1-2.6-1.4-4-0.9l-26,9.5c-0.5,0.2-1,0.5-1.4,0.9l-7.3,7.3l-47.8-47.8
		c-1.5-1.5-3.9-1.5-5.4,0l0,0L81,136.4H67l74.2-74.2l40.7,40.7c1.5,1.5,3.9,1.4,5.4-0.1s1.5-3.9,0-5.3l-43.4-43.4
		c-1.5-1.5-3.9-1.5-5.4,0l-83.4,83.4c-1.5,1.5-1.5,3.9,0,5.4c0.7,0.7,1.7,1.1,2.7,1.1h3.8v100.2c0,2.1,1.7,3.8,3.8,3.8H126
		c2.1,0,3.8-1.6,3.9-3.8c0-2.1-1.6-3.8-3.8-3.9H126H69.2V144h13.4c1,0,2-0.4,2.7-1.1L141.2,87l45,45.1l-56.5,56.5v-34.2h26.7
		c2.1,0,3.8-1.8,3.8-3.9c0-2.1-1.7-3.7-3.8-3.8H126c-2.1,0-3.8,1.7-3.8,3.8v44.2c0,0.4,0.1,0.9,0.2,1.3l-3.4,3.4c-6,6-6,15.8,0,21.9
		s15.8,6,21.9,0l32.1-32.1c1.5-1.5,1.5-3.9,0.1-5.4c-1.5-1.5-3.9-1.5-5.4-0.1l-0.1,0.1L143.3,208l-11.1-11.1l69.6-69.6l11.1,11.1
		L186.3,165c-1.5,1.5-1.4,3.9,0.1,5.4c1.5,1.4,3.8,1.4,5.3,0l29.2-29.2c0.4-0.4,0.7-0.9,0.9-1.4l9.5-26
		C231.8,112.5,231.4,110.9,230.4,109.9L230.4,109.9z M137.9,213.4l-2.4,2.4c-3.1,3.1-8,3.1-11.1,0s-3.1-8,0-11.1l0,0l2.4-2.4
		L137.9,213.4z M216.7,131.5l-8-8l12.6-4.6L216.7,131.5z"/>
	<path class="st1" d="M182.2,174.5c-1.5-1.5-3.9-1.5-5.4,0s-1.5,3.9,0,5.4s3.9,1.5,5.4,0c0.7-0.7,1.1-1.7,1.1-2.7
		C183.3,176.1,182.9,175.2,182.2,174.5z"/>
	<path class="st1" d="M141.2,110.5c-8,0-14.5,6.5-14.5,14.5s6.5,14.5,14.5,14.5s14.5-6.5,14.5-14.5S149.2,110.5,141.2,110.5
		L141.2,110.5z M141.2,131.8c-3.8,0-6.9-3.1-6.9-6.9c0-3.8,3.1-6.9,6.9-6.9c3.8,0,6.9,3.1,6.9,6.9l0,0
		C148.1,128.8,145,131.8,141.2,131.8L141.2,131.8z"/>
</g>
<g class="st0">
	<g class="st2">
		<path class="st3" d="M259.5,91.5c-3.2-3.3-8.5-3.4-11.8-0.2c-0.1,0.1-0.1,0.1-0.2,0.2L112.1,227l-44-44c-3.3-3.2-8.6-3.1-11.8,0.2
			c-3.1,3.2-3.1,8.3,0,11.5l49.9,49.9c3.3,3.3,8.5,3.3,11.8,0l141.4-141.4C262.6,100.1,262.7,94.8,259.5,91.5z"/>
	</g>
</g>
<g>
	<path class="st4" d="M260,75.8H92.2v-8c0-2.2-1.8-4-4-4h-32c-2.2,0-4,1.8-4,4v8h-8c-8.8,0-16,7.2-16,16v135.9c0,8.8,7.2,16,16,16
		H260c8.8,0,16-7.2,16-16V91.8C276,83,268.8,75.9,260,75.8z M60.2,71.9h24v4h-24V71.9z M268,227.7c0,4.4-3.6,8-8,8H44.2
		c-4.4,0-8-3.6-8-8V91.8c0-4.4,3.6-8,8-8H260c4.4,0,8,3.6,8,8V227.7z"/>
	<path class="st4" d="M152.1,87.8c-39.7,0-71.9,32.3-71.9,71.9s32.3,71.9,71.9,71.9s71.9-32.3,71.9-71.9S191.8,87.8,152.1,87.8z
		 M152.1,223.7c-35.3,0-63.9-28.6-63.9-63.9s28.6-63.9,63.9-63.9s63.9,28.6,63.9,63.9C216,195.1,187.4,223.7,152.1,223.7z"/>
	<path class="st4" d="M152.1,103.8c-30.9,0-55.9,25-55.9,55.9s25,55.9,55.9,55.9s55.9-25,55.9-55.9C208,128.9,183,103.9,152.1,103.8
		z M152.1,207.7c-26.5,0-48-21.5-48-48s21.5-48,48-48s48,21.5,48,48C200,186.2,178.6,207.7,152.1,207.7z"/>
	<path class="st4" d="M152.1,135.8c-13.2,0-24,10.7-24,24s10.7,24,24,24c13.2,0,24-10.7,24-24C176.1,146.5,165.3,135.8,152.1,135.8z
		 M152.1,175.8c-8.8,0-16-7.2-16-16c0-8.8,7.2-16,16-16s16,7.2,16,16C168.1,168.6,160.9,175.7,152.1,175.8z"/>
	<path class="st4" d="M256,91.8h-36c-2.2,0-4,1.8-4,4v16c0,2.2,1.8,4,4,4h36c2.2,0,4-1.8,4-4v-16C260,93.6,258.2,91.8,256,91.8z
		 M252,107.8h-28v-8h28V107.8z"/>
	<path class="st4" d="M256,223.7h-32c-2.2,0-4,1.8-4,4s1.8,4,4,4h32c2.2,0,4-1.8,4-4S258.2,223.7,256,223.7z"/>
	<path class="st4" d="M256,211.7h-16c-2.2,0-4,1.8-4,4c0,2.2,1.8,4,4,4h16c2.2,0,4-1.8,4-4C260,213.5,258.2,211.7,256,211.7z"/>
	<path class="st4" d="M58.2,87.8c-9.9,0-18,8.1-18,18s8.1,18,18,18s18-8.1,18-18C76.2,95.9,68.1,87.8,58.2,87.8z M58.2,115.8
		c-5.5,0-10-4.5-10-10c0-5.5,4.5-10,10-10s10,4.5,10,10C68.2,111.3,63.7,115.8,58.2,115.8z"/>
</g>
</svg>
