<?xml version="1.0" encoding="utf-8"?>
<!-- Generator: Adobe Illustrator 24.0.1, SVG Export Plug-In . SVG Version: 6.00 Build 0)  -->
<svg version="1.1" id="Layer_1" xmlns="http://www.w3.org/2000/svg" xmlns:xlink="http://www.w3.org/1999/xlink" x="0px" y="0px"
	 viewBox="0 0 302 302" style="enable-background:new 0 0 302 302;" xml:space="preserve">
<style type="text/css">
	.st0{display:none;}
	.st1{display:inline;fill:#2F2C52;}
	.st2{display:inline;}
	.st3{fill:#2F2C52;}
	.st4{fill:#434344;}
</style>
<g class="st0">
	<path class="st1" d="M196.9,107.1c-1.5-1.5-3.9-1.5-5.4,0s-1.5,3.9,0,5.4s3.9,1.5,5.4,0c0.7-0.7,1.1-1.7,1.1-2.7
		C198,108.7,197.6,107.8,196.9,107.1z"/>
	<path class="st1" d="M111.1,160.4H80.7c-2.1,0-3.8,1.7-3.8,3.8l0,0v30.5c0,2.1,1.7,3.8,3.8,3.8h30.5c2.1,0,3.8-1.7,3.8-3.8v-30.5
		C114.9,162.1,113.2,160.4,111.1,160.4L111.1,160.4z M107.3,190.9H84.5V168h22.9L107.3,190.9L107.3,190.9z"/>
	<path class="st1" d="M246.6,132.9c-1.4-0.6-3.1-0.3-4.1,0.8l-38.8,38.8l-45.2,45.2l-23.7,23.7c-1.5,1.5-1.5,3.9,0,5.4
		c0.7,0.7,1.7,1.1,2.7,1.1h107.8c2.1,0,3.8-1.7,3.8-3.8V136.4C249,134.9,248.1,133.5,246.6,132.9L246.6,132.9z M241.4,240.4h-94.8
		l14.5-14.5l3.6,3.6c1.5,1.5,3.9,1.4,5.4-0.1c1.4-1.5,1.4-3.8,0-5.3l-3.6-3.6l9.7-9.7l3.6,3.6c1.5,1.5,3.9,1.4,5.4-0.1
		c1.4-1.5,1.4-3.8,0-5.3l-3.6-3.6l9.7-9.7l3.6,3.6c1.5,1.5,3.9,1.5,5.4,0s1.5-3.9,0-5.3l-3.6-3.6l9.7-9.7l3.6,3.6
		c1.5,1.5,3.9,1.5,5.4,0.1c1.5-1.5,1.5-3.9,0.1-5.4l-0.1-0.1l-3.6-3.6l9.7-9.7l3.6,3.6c1.5,1.5,3.9,1.4,5.4-0.1
		c1.4-1.5,1.4-3.8,0-5.3l-3.6-3.6l14.5-14.5L241.4,240.4z"/>
	<path class="st1" d="M227.6,178.9c-1.4-0.6-3.1-0.3-4.1,0.8l-42.8,42.8c-1.5,1.5-1.5,3.9,0,5.4c0.7,0.7,1.7,1.1,2.7,1.1h42.8
		c2.1,0,3.8-1.7,3.8-3.8v-42.8C230,180.8,229,179.5,227.6,178.9L227.6,178.9z M222.3,221.3h-29.8l29.8-29.8V221.3z"/>
	<path class="st1" d="M230.4,109.9c-1-1.1-2.6-1.4-4-0.9l-26,9.5c-0.5,0.2-1,0.5-1.4,0.9l-7.3,7.3l-47.8-47.8
		c-1.5-1.5-3.9-1.5-5.4,0l0,0L81,136.4H67l74.2-74.2l40.7,40.7c1.5,1.5,3.9,1.4,5.4-0.1s1.5-3.9,0-5.3l-43.4-43.4
		c-1.5-1.5-3.9-1.5-5.4,0l-83.4,83.4c-1.5,1.5-1.5,3.9,0,5.4c0.7,0.7,1.7,1.1,2.7,1.1h3.8v100.2c0,2.1,1.7,3.8,3.8,3.8H126
		c2.1,0,3.8-1.6,3.9-3.8c0-2.1-1.6-3.8-3.8-3.9H126H69.2V144h13.4c1,0,2-0.4,2.7-1.1L141.2,87l45,45.1l-56.5,56.5v-34.2h26.7
		c2.1,0,3.8-1.8,3.8-3.9c0-2.1-1.7-3.7-3.8-3.8H126c-2.1,0-3.8,1.7-3.8,3.8v44.2c0,0.4,0.1,0.9,0.2,1.3l-3.4,3.4c-6,6-6,15.8,0,21.9
		s15.8,6,21.9,0l32.1-32.1c1.5-1.5,1.5-3.9,0.1-5.4c-1.5-1.5-3.9-1.5-5.4-0.1l-0.1,0.1L143.3,208l-11.1-11.1l69.6-69.6l11.1,11.1
		L186.3,165c-1.5,1.5-1.4,3.9,0.1,5.4c1.5,1.4,3.8,1.4,5.3,0l29.2-29.2c0.4-0.4,0.7-0.9,0.9-1.4l9.5-26
		C231.8,112.5,231.4,110.9,230.4,109.9L230.4,109.9z M137.9,213.4l-2.4,2.4c-3.1,3.1-8,3.1-11.1,0s-3.1-8,0-11.1l0,0l2.4-2.4
		L137.9,213.4z M216.7,131.5l-8-8l12.6-4.6L216.7,131.5z"/>
	<path class="st1" d="M182.2,174.5c-1.5-1.5-3.9-1.5-5.4,0s-1.5,3.9,0,5.4s3.9,1.5,5.4,0c0.7-0.7,1.1-1.7,1.1-2.7
		C183.3,176.1,182.9,175.2,182.2,174.5z"/>
	<path class="st1" d="M141.2,110.5c-8,0-14.5,6.5-14.5,14.5s6.5,14.5,14.5,14.5s14.5-6.5,14.5-14.5S149.2,110.5,141.2,110.5
		L141.2,110.5z M141.2,131.8c-3.8,0-6.9-3.1-6.9-6.9c0-3.8,3.1-6.9,6.9-6.9c3.8,0,6.9,3.1,6.9,6.9l0,0
		C148.1,128.8,145,131.8,141.2,131.8L141.2,131.8z"/>
</g>
<g class="st0">
	<g class="st2">
		<path class="st3" d="M259.5,91.5c-3.2-3.3-8.5-3.4-11.8-0.2c-0.1,0.1-0.1,0.1-0.2,0.2L112.1,227l-44-44c-3.3-3.2-8.6-3.1-11.8,0.2
			c-3.1,3.2-3.1,8.3,0,11.5l49.9,49.9c3.3,3.3,8.5,3.3,11.8,0l141.4-141.4C262.6,100.1,262.7,94.8,259.5,91.5z"/>
	</g>
</g>
<g>
	<g>
		<g>
			<path class="st4" d="M266,221.3l-29.9-29.9c-1.3-1.3-3.5-1.3-4.8,0s-1.3,3.5,0,4.8l3.2,3.2L207.9,226L197,215.1
				c-4-4-9.5-6.1-15.2-5.7l-12.1,0.9c-3.7,0.3-7.3-1.1-9.9-3.7l-34.1-34.1c-1.9-1.9-1.9-4.9,0-6.8c1.9-1.9,4.9-1.9,6.8,0l16,16
				c0.1,0.1,0.2,0.2,0.3,0.2c0.6,0.5,1.4,0.8,2.1,0.8s1.5-0.3,2.1-0.8c0.1-0.1,0.2-0.1,0.3-0.2c1.3-1.3,1.3-3.5,0-4.8l-34.7-34.7
				c-1.1-1.1-1.6-2.5-1.6-4s0.6-2.9,1.6-4c1.1-1.1,2.5-1.6,4-1.6c1.3,0,2.6,0.4,3.6,1.3l35.1,35.1c0.7,0.7,1.5,1,2.4,1
				s1.7-0.3,2.4-1l0,0l0,0c1.3-1.3,1.3-3.5,0-4.8l-49.6-49.6c-2.2-2.2-2.2-5.7,0-7.9c1.1-1.1,2.5-1.6,4-1.6s2.9,0.6,4,1.6l49.5,49.7
				c0.7,0.7,1.5,1,2.4,1s1.7-0.3,2.4-1l0,0l0,0c1.3-1.3,1.3-3.5,0-4.8L134,106.7c-0.6-0.9-0.9-2-0.9-3.1c0-1.5,0.6-2.9,1.6-4
				c1.1-1.1,2.5-1.6,4-1.6s2.9,0.6,4,1.6l38.6,38.6l0.1,0.1l4.3,5.6c1.1,1.5,3.3,1.8,4.8,0.6c1.5-1.1,1.8-3.3,0.6-4.8l-4.5-5.9
				c-0.9-1.5-1.2-3.3-0.7-5.1s1.6-3.2,3.3-4.1c3.1-1.6,6.9-0.6,8.7,2.4c0.1,0.1,19.8,25,19.8,25c2.3,2.9,3.2,6.7,2.5,10.4l-1.7,8.6
				c-0.8,4.2-0.3,8.5,1.6,12.4c0.6,1.2,1.8,1.9,3.1,1.9c0.5,0,1-0.1,1.5-0.3c1.7-0.8,2.4-2.9,1.6-4.5c-1.2-2.5-1.6-5.4-1-8.1
				l1.7-8.6c1.1-5.6-0.3-11.4-3.8-15.9l-0.9-1.2c2.8-3.7,4.2-8.4,3.9-13.1l-0.8-12c-0.3-3.6,1.1-7.2,3.7-9.8L266,74.5
				c1.3-1.3,1.3-3.5,0-4.8l-31.2-31.2c-1.3-1.3-3.5-1.3-4.8,0l-37.2,37.2c-3,3-7.2,4.3-11.4,3.5l-8.5-1.7
				c-5.6-1.1-11.4,0.3-15.8,3.8c-0.1,0-0.1,0.1-0.1,0.1l-6,5.3l-6-5.3l-0.1-0.1c-4.5-3.5-10.2-4.9-15.8-3.8l-8.5,1.7
				c-4.1,0.8-8.4-0.5-11.4-3.5L72,38.5c-1.3-1.3-3.5-1.3-4.8,0L36,69.7c-1.3,1.3-1.3,3.5,0,4.8l37.3,37.3c2.6,2.6,3.9,6.2,3.7,9.8
				l-0.8,12c-0.4,5.3,1.4,10.5,5,14.4c-3.5,3.9-5.3,9.1-5,14.4l0.8,12c0.3,3.6-1.1,7.2-3.7,9.8L36,221.5c-1.3,1.3-1.3,3.5,0,4.8
				l31.2,31.2c0.7,0.7,1.5,1,2.4,1s1.7-0.3,2.4-1l37.2-37.2c3-3,7.2-4.3,11.4-3.5l8.5,1.7c5.6,1.1,11.4-0.3,15.8-3.8
				c0.1-0.1,0.1-0.1,0.2-0.2l6.8-6.3l3.2,3.2c4,4,9.5,6.1,15.2,5.7l12.1-0.9c3.7-0.3,7.3,1.1,9.9,3.7l13.2,13.2l0,0l24.4,24.4
				c0.7,0.7,1.5,1,2.4,1s1.7-0.3,2.4-1l31.4-31.4C267.3,224.8,267.3,222.6,266,221.3L266,221.3z M232.4,45.7l26.4,26.4l-19.4,19.4
				L213,65.1L232.4,45.7z M161.4,86.6c2.9-2.3,6.6-3.1,10.2-2.4l8.5,1.7c6.4,1.3,12.9-0.7,17.5-5.3L208.2,70l26.4,26.4L223.9,107
				c-4,4-6,9.5-5.6,15.1l0.8,12c0.2,2.4-0.4,4.9-1.5,7l-14-17.8c-3.8-5.9-11.4-7.9-17.6-4.6c-3.1,1.7-5.5,4.6-6.5,8L149.6,97
				L161.4,86.6z M43.2,72.1l26.4-26.4L89,65.1L62.6,91.5L43.2,72.1z M69.6,250.3l-26.4-26.4l19.4-19.4L89,230.9L69.6,250.3z
				 M140.6,209.5c-2.9,2.2-6.6,3.1-10.2,2.4l-8.5-1.7c-6.4-1.3-12.9,0.7-17.5,5.3l-10.6,10.6l-26.4-26.4L78.1,189
				c4-4,6-9.5,5.6-15.1l-0.8-12c-0.3-3.6,1.1-7.2,3.7-9.8l11.3-11.3c1.3-1.3,1.3-3.5,0-4.8s-3.5-1.3-4.8,0l-7.1,7.1
				c-2.1-2.5-3.2-5.8-3-9.1l0.8-12c0.4-5.6-1.7-11.1-5.6-15.1L67.4,96.3l26.4-26.4l10.6,10.6c4.6,4.6,11.1,6.6,17.5,5.3l8.5-1.7
				c3.6-0.7,7.3,0.2,10.2,2.4l5.3,4.6l-1.5,1.3c-1.7-0.9-3.7-1.4-5.7-1.4c-3.3,0-6.4,1.3-8.8,3.6c-1.5,1.5-2.5,3.2-3.1,5.2
				c-1.9-1.1-4.1-1.8-6.4-1.8c-3.3,0-6.4,1.3-8.8,3.6c-4.5,4.5-4.8,11.6-0.9,16.5l-6.5,6.5c-1.3,1.3-1.3,3.5,0,4.8
				c1.3,1.3,3.5,1.3,4.8,0l6.4-6.4l3.2,3.2c-1.8,0.6-3.5,1.6-4.9,3c-2.3,2.3-3.6,5.4-3.6,8.8s1.3,6.4,3.6,8.8l11.2,11.2
				c-1.5,0.6-2.9,1.5-4.1,2.7c-4.5,4.5-4.5,11.9,0,16.4l26.1,26.1L140.6,209.5z M232.2,250.3l-19.5-19.5l26.6-26.6l19.5,19.5
				L232.2,250.3z"/>
		</g>
	</g>
</g>
</svg>
