<?xml version="1.0" encoding="utf-8"?>
<!-- Generator: Adobe Illustrator 24.0.1, SVG Export Plug-In . SVG Version: 6.00 Build 0)  -->
<svg version="1.1" id="Layer_1" xmlns="http://www.w3.org/2000/svg" xmlns:xlink="http://www.w3.org/1999/xlink" x="0px" y="0px"
	 viewBox="0 0 302 302" style="enable-background:new 0 0 302 302;" xml:space="preserve">
<style type="text/css">
	.st0{display:none;}
	.st1{display:inline;fill:#2F2C52;}
	.st2{display:inline;}
	.st3{fill:#2F2C52;}
	.st4{fill:#434344;}
</style>
<g class="st0">
	<path class="st1" d="M196.9,107.1c-1.5-1.5-3.9-1.5-5.4,0s-1.5,3.9,0,5.4s3.9,1.5,5.4,0c0.7-0.7,1.1-1.7,1.1-2.7
		C198,108.7,197.6,107.8,196.9,107.1z"/>
	<path class="st1" d="M111.1,160.4H80.7c-2.1,0-3.8,1.7-3.8,3.8l0,0v30.5c0,2.1,1.7,3.8,3.8,3.8h30.5c2.1,0,3.8-1.7,3.8-3.8v-30.5
		C114.9,162.1,113.2,160.4,111.1,160.4L111.1,160.4z M107.3,190.9H84.5V168h22.9L107.3,190.9L107.3,190.9z"/>
	<path class="st1" d="M246.6,132.9c-1.4-0.6-3.1-0.3-4.1,0.8l-38.8,38.8l-45.2,45.2l-23.7,23.7c-1.5,1.5-1.5,3.9,0,5.4
		c0.7,0.7,1.7,1.1,2.7,1.1h107.8c2.1,0,3.8-1.7,3.8-3.8V136.4C249,134.9,248.1,133.5,246.6,132.9L246.6,132.9z M241.4,240.4h-94.8
		l14.5-14.5l3.6,3.6c1.5,1.5,3.9,1.4,5.4-0.1c1.4-1.5,1.4-3.8,0-5.3l-3.6-3.6l9.7-9.7l3.6,3.6c1.5,1.5,3.9,1.4,5.4-0.1
		c1.4-1.5,1.4-3.8,0-5.3l-3.6-3.6l9.7-9.7l3.6,3.6c1.5,1.5,3.9,1.5,5.4,0s1.5-3.9,0-5.3l-3.6-3.6l9.7-9.7l3.6,3.6
		c1.5,1.5,3.9,1.5,5.4,0.1c1.5-1.5,1.5-3.9,0.1-5.4l-0.1-0.1l-3.6-3.6l9.7-9.7l3.6,3.6c1.5,1.5,3.9,1.4,5.4-0.1
		c1.4-1.5,1.4-3.8,0-5.3l-3.6-3.6l14.5-14.5L241.4,240.4z"/>
	<path class="st1" d="M227.6,178.9c-1.4-0.6-3.1-0.3-4.1,0.8l-42.8,42.8c-1.5,1.5-1.5,3.9,0,5.4c0.7,0.7,1.7,1.1,2.7,1.1h42.8
		c2.1,0,3.8-1.7,3.8-3.8v-42.8C230,180.8,229,179.5,227.6,178.9L227.6,178.9z M222.3,221.3h-29.8l29.8-29.8V221.3z"/>
	<path class="st1" d="M230.4,109.9c-1-1.1-2.6-1.4-4-0.9l-26,9.5c-0.5,0.2-1,0.5-1.4,0.9l-7.3,7.3l-47.8-47.8
		c-1.5-1.5-3.9-1.5-5.4,0l0,0L81,136.4H67l74.2-74.2l40.7,40.7c1.5,1.5,3.9,1.4,5.4-0.1s1.5-3.9,0-5.3l-43.4-43.4
		c-1.5-1.5-3.9-1.5-5.4,0l-83.4,83.4c-1.5,1.5-1.5,3.9,0,5.4c0.7,0.7,1.7,1.1,2.7,1.1h3.8v100.2c0,2.1,1.7,3.8,3.8,3.8H126
		c2.1,0,3.8-1.6,3.9-3.8c0-2.1-1.6-3.8-3.8-3.9H126H69.2V144h13.4c1,0,2-0.4,2.7-1.1L141.2,87l45,45.1l-56.5,56.5v-34.2h26.7
		c2.1,0,3.8-1.8,3.8-3.9c0-2.1-1.7-3.7-3.8-3.8H126c-2.1,0-3.8,1.7-3.8,3.8v44.2c0,0.4,0.1,0.9,0.2,1.3l-3.4,3.4c-6,6-6,15.8,0,21.9
		s15.8,6,21.9,0l32.1-32.1c1.5-1.5,1.5-3.9,0.1-5.4c-1.5-1.5-3.9-1.5-5.4-0.1l-0.1,0.1L143.3,208l-11.1-11.1l69.6-69.6l11.1,11.1
		L186.3,165c-1.5,1.5-1.4,3.9,0.1,5.4c1.5,1.4,3.8,1.4,5.3,0l29.2-29.2c0.4-0.4,0.7-0.9,0.9-1.4l9.5-26
		C231.8,112.5,231.4,110.9,230.4,109.9L230.4,109.9z M137.9,213.4l-2.4,2.4c-3.1,3.1-8,3.1-11.1,0s-3.1-8,0-11.1l0,0l2.4-2.4
		L137.9,213.4z M216.7,131.5l-8-8l12.6-4.6L216.7,131.5z"/>
	<path class="st1" d="M182.2,174.5c-1.5-1.5-3.9-1.5-5.4,0s-1.5,3.9,0,5.4s3.9,1.5,5.4,0c0.7-0.7,1.1-1.7,1.1-2.7
		C183.3,176.1,182.9,175.2,182.2,174.5z"/>
	<path class="st1" d="M141.2,110.5c-8,0-14.5,6.5-14.5,14.5s6.5,14.5,14.5,14.5s14.5-6.5,14.5-14.5S149.2,110.5,141.2,110.5
		L141.2,110.5z M141.2,131.8c-3.8,0-6.9-3.1-6.9-6.9c0-3.8,3.1-6.9,6.9-6.9c3.8,0,6.9,3.1,6.9,6.9l0,0
		C148.1,128.8,145,131.8,141.2,131.8L141.2,131.8z"/>
</g>
<g class="st0">
	<g class="st2">
		<path class="st3" d="M259.5,91.5c-3.2-3.3-8.5-3.4-11.8-0.2c-0.1,0.1-0.1,0.1-0.2,0.2L112.1,227l-44-44c-3.3-3.2-8.6-3.1-11.8,0.2
			c-3.1,3.2-3.1,8.3,0,11.5l49.9,49.9c3.3,3.3,8.5,3.3,11.8,0l141.4-141.4C262.6,100.1,262.7,94.8,259.5,91.5z"/>
	</g>
</g>
<g>
	<g>
		<path class="st4" d="M239.3,74h-27.4v-9.9c5.3-1.9,9.1-7,9.1-12.9c0-7.6-6.2-13.7-13.7-13.7H88.4c-7.6,0-13.7,6.2-13.7,13.7
			c0,6,3.8,11,9.1,12.9V74H56.4c-2.5,0-4.6,2-4.6,4.6v32c0,20.2,16.4,36.6,36.6,36.6h3.9c0.9,1.5,1.8,3,2.8,4.5
			c6.5,9.4,15.2,16.8,25.4,21.7c-0.1,0.5-0.1,1.1-0.1,1.6c0,6.4,4.4,11.8,10.4,13.3c-5.5,18.3-15.3,37.6-26.8,37.6H93
			c-2.3,0-4.3,1.7-4.5,4l-4.6,36.6c-0.2,1.3,0.2,2.6,1.1,3.6c0.9,1,2.1,1.5,3.4,1.5h118.9c1.3,0,2.6-0.6,3.4-1.5
			c0.9-1,1.3-2.3,1.1-3.6l-4.6-36.6c-0.3-2.3-2.2-4-4.5-4h-11c-7,0-12.9-7.3-16.6-13.5c-4.8-7.9-8.1-17.3-10.2-24
			c5.9-1.5,10.4-6.9,10.4-13.3c0-0.5,0-1.1-0.1-1.6c10.2-4.8,18.9-12.3,25.4-21.7c1-1.5,1.9-3,2.8-4.5h3.9
			c20.2,0,36.6-16.4,36.6-36.6v-32C243.9,76.1,241.8,74,239.3,74L239.3,74z M61,110.6V83.2h22.9v32.3c0,7.8,1.4,15.4,4.1,22.5
			C73.1,137.8,61,125.6,61,110.6z M202.1,262.4H93.6l3.4-27.4h101.6L202.1,262.4z M173.7,225.8H122c2.2-2.4,4.4-5.4,6.4-8.7
			c5.8-9.7,9.7-21,11.8-28.4h15.3c2.1,7.4,5.9,18.7,11.8,28.4C169.3,220.4,171.5,223.4,173.7,225.8z M161.6,179.5h-27.4
			c-2.5,0-4.6-2.1-4.6-4.6s2.1-4.6,4.6-4.6h27.4c2.5,0,4.6,2.1,4.6,4.6S164.1,179.5,161.6,179.5z M171.1,165.1
			c-2.5-2.4-5.9-3.9-9.6-3.9h-27.4c-3.7,0-7.1,1.5-9.6,3.9c-19.3-9.1-31.6-28.2-31.6-49.6V64.9h34.3c2.5,0,4.6-2,4.6-4.6
			c0-2.5-2-4.6-4.6-4.6H88.4c-2.5,0-4.6-2.1-4.6-4.6c0-2.5,2.1-4.6,4.6-4.6h118.9c2.5,0,4.6,2.1,4.6,4.6c0,2.5-2.1,4.6-4.6,4.6
			h-38.9c-2.5,0-4.6,2-4.6,4.6c0,2.5,2,4.6,4.6,4.6h34.3v50.6C202.7,136.9,190.4,156.1,171.1,165.1z M234.7,110.6
			c0,15-12.1,27.2-27,27.4c2.7-7.1,4.1-14.7,4.1-22.5V83.2h22.9V110.6z"/>
	</g>
</g>
</svg>
