<?xml version="1.0" encoding="utf-8"?>
<!-- Generator: Adobe Illustrator 24.0.1, SVG Export Plug-In . SVG Version: 6.00 Build 0)  -->
<svg version="1.1" id="Layer_1" xmlns="http://www.w3.org/2000/svg" xmlns:xlink="http://www.w3.org/1999/xlink" x="0px" y="0px"
	 viewBox="0 0 284 274" style="enable-background:new 0 0 284 274;" xml:space="preserve">
<style type="text/css">
	.st0{display:none;}
	.st1{display:inline;fill:#2F2C52;}
	.st2{display:inline;}
	.st3{fill:#2F2C52;}
	.st4{fill:#434344;}
</style>
<g class="st0">
	<path class="st1" d="M187.9,98.1c-1.5-1.5-3.9-1.5-5.4,0s-1.5,3.9,0,5.4s3.9,1.5,5.4,0c0.7-0.7,1.1-1.7,1.1-2.7
		C189,99.7,188.6,98.8,187.9,98.1z"/>
	<path class="st1" d="M102.1,151.4H71.7c-2.1,0-3.8,1.7-3.8,3.8l0,0v30.5c0,2.1,1.7,3.8,3.8,3.8h30.5c2.1,0,3.8-1.7,3.8-3.8v-30.5
		C105.9,153.1,104.2,151.4,102.1,151.4L102.1,151.4z M98.3,181.9H75.5V159h22.9L98.3,181.9L98.3,181.9z"/>
	<path class="st1" d="M237.6,123.9c-1.4-0.6-3.1-0.3-4.1,0.8l-38.8,38.8l-45.2,45.2l-23.7,23.7c-1.5,1.5-1.5,3.9,0,5.4
		c0.7,0.7,1.7,1.1,2.7,1.1h107.8c2.1,0,3.8-1.7,3.8-3.8V127.4C240,125.9,239.1,124.5,237.6,123.9L237.6,123.9z M232.4,231.4h-94.8
		l14.5-14.5l3.6,3.6c1.5,1.5,3.9,1.4,5.4-0.1c1.4-1.5,1.4-3.8,0-5.3l-3.6-3.6l9.7-9.7l3.6,3.6c1.5,1.5,3.9,1.4,5.4-0.1
		c1.4-1.5,1.4-3.8,0-5.3l-3.6-3.6l9.7-9.7l3.6,3.6c1.5,1.5,3.9,1.5,5.4,0s1.5-3.9,0-5.3l-3.6-3.6l9.7-9.7l3.6,3.6
		c1.5,1.5,3.9,1.5,5.4,0.1c1.5-1.5,1.5-3.9,0.1-5.4l-0.1-0.1l-3.6-3.6l9.7-9.7l3.6,3.6c1.5,1.5,3.9,1.4,5.4-0.1
		c1.4-1.5,1.4-3.8,0-5.3l-3.6-3.6l14.5-14.5L232.4,231.4z"/>
	<path class="st1" d="M218.6,169.9c-1.4-0.6-3.1-0.3-4.1,0.8l-42.8,42.8c-1.5,1.5-1.5,3.9,0,5.4c0.7,0.7,1.7,1.1,2.7,1.1h42.8
		c2.1,0,3.8-1.7,3.8-3.8v-42.8C221,171.8,220,170.5,218.6,169.9L218.6,169.9z M213.3,212.3h-29.8l29.8-29.8V212.3z"/>
	<path class="st1" d="M221.4,100.9c-1-1.1-2.6-1.4-4-0.9l-26,9.5c-0.5,0.2-1,0.5-1.4,0.9l-7.3,7.3l-47.8-47.8
		c-1.5-1.5-3.9-1.5-5.4,0l0,0L72,127.4H58l74.2-74.2L173,93.9c1.5,1.5,3.9,1.4,5.4-0.1s1.5-3.9,0-5.3L135,45.1
		c-1.5-1.5-3.9-1.5-5.4,0l-83.4,83.4c-1.5,1.5-1.5,3.9,0,5.4c0.7,0.7,1.7,1.1,2.7,1.1h3.8v100.2c0,2.1,1.7,3.8,3.8,3.8H117
		c2.1,0,3.8-1.6,3.9-3.8c0-2.1-1.6-3.8-3.8-3.9H117H60.2V135h13.4c1,0,2-0.4,2.7-1.1L132.2,78l45,45.1l-56.5,56.5v-34.2h26.7
		c2.1,0,3.8-1.8,3.8-3.9c0-2.1-1.7-3.7-3.8-3.8H117c-2.1,0-3.8,1.7-3.8,3.8v44.2c0,0.4,0.1,0.9,0.2,1.3l-3.4,3.4c-6,6-6,15.8,0,21.9
		s15.8,6,21.9,0l32.1-32.1c1.5-1.5,1.5-3.9,0.1-5.4c-1.5-1.5-3.9-1.5-5.4-0.1l-0.1,0.1L134.3,199l-11.1-11.1l69.6-69.6l11.1,11.1
		L177.3,156c-1.5,1.5-1.4,3.9,0.1,5.4c1.5,1.4,3.8,1.4,5.3,0l29.2-29.2c0.4-0.4,0.7-0.9,0.9-1.4l9.5-26
		C222.8,103.5,222.4,101.9,221.4,100.9L221.4,100.9z M128.9,204.4l-2.4,2.4c-3.1,3.1-8,3.1-11.1,0s-3.1-8,0-11.1l0,0l2.4-2.4
		L128.9,204.4z M207.7,122.5l-8-8l12.6-4.6L207.7,122.5z"/>
	<path class="st1" d="M173.2,165.5c-1.5-1.5-3.9-1.5-5.4,0s-1.5,3.9,0,5.4s3.9,1.5,5.4,0c0.7-0.7,1.1-1.7,1.1-2.7
		C174.3,167.1,173.9,166.2,173.2,165.5z"/>
	<path class="st1" d="M132.2,101.5c-8,0-14.5,6.5-14.5,14.5s6.5,14.5,14.5,14.5s14.5-6.5,14.5-14.5S140.2,101.5,132.2,101.5
		L132.2,101.5z M132.2,122.8c-3.8,0-6.9-3.1-6.9-6.9s3.1-6.9,6.9-6.9s6.9,3.1,6.9,6.9l0,0C139.1,119.8,136,122.8,132.2,122.8
		L132.2,122.8z"/>
</g>
<g class="st0">
	<g class="st2">
		<path class="st3" d="M250.5,82.5c-3.2-3.3-8.5-3.4-11.8-0.2c-0.1,0.1-0.1,0.1-0.2,0.2L103.1,218l-44-44c-3.3-3.2-8.6-3.1-11.8,0.2
			c-3.1,3.2-3.1,8.3,0,11.5l49.9,49.9c3.3,3.3,8.5,3.3,11.8,0L250.4,94.3C253.6,91.1,253.7,85.8,250.5,82.5z"/>
	</g>
</g>
<g class="st0">
	<g class="st2">
		<path class="st3" d="M115.6,128.7c-2.9-4.7-5.2-9.6-6.9-14.8v75.4l24.3-41.6C126.1,142.5,120.2,136.1,115.6,128.7z"/>
	</g>
</g>
<g class="st0">
	<g class="st2">
		<path class="st3" d="M175.5,34.5c-31.4,0-56.9,25.5-56.9,56.9c0,4.4,0.5,8.7,1.5,12.9c0,0.1,0,0.2,0.1,0.3
			c0.1,0.4,0.2,0.9,0.3,1.4c0,0.1,0.1,0.2,0.1,0.3c0.5,2,1.2,3.9,1.9,5.8c0,0.1,0.1,0.2,0.1,0.3c0.2,0.4,0.3,0.8,0.5,1.2
			c0.1,0.1,0.1,0.2,0.2,0.4c0.2,0.4,0.4,0.8,0.5,1.2c0.1,0.1,0.1,0.2,0.1,0.3c0.6,1.3,1.3,2.6,2,3.8c0.1,0.1,0.1,0.2,0.1,0.3
			c0.2,0.4,0.4,0.7,0.6,1c0.1,0.2,0.2,0.3,0.3,0.5c0.2,0.3,0.4,0.6,0.6,1c0.1,0.2,0.2,0.4,0.3,0.5c0.2,0.3,0.4,0.6,0.6,0.9
			c0.1,0.2,0.2,0.3,0.3,0.5c0.4,0.6,0.9,1.2,1.3,1.8c0.1,0.1,0.2,0.3,0.3,0.4c0.2,0.3,0.4,0.5,0.6,0.8c0.2,0.2,0.3,0.4,0.5,0.6
			c0.2,0.3,0.4,0.5,0.6,0.7c0.2,0.2,0.4,0.4,0.6,0.6c0.2,0.2,0.4,0.5,0.6,0.7s0.4,0.5,0.6,0.7c0.2,0.2,0.4,0.4,0.6,0.6
			c0.3,0.3,0.6,0.6,0.9,0.9c0.2,0.2,0.4,0.4,0.7,0.7s0.6,0.6,0.9,0.8c0.2,0.2,0.4,0.3,0.6,0.5c0.3,0.2,0.5,0.5,0.8,0.7
			c0.2,0.2,0.4,0.3,0.6,0.5c0.3,0.2,0.6,0.5,0.9,0.7c0.2,0.1,0.4,0.3,0.6,0.4c0.3,0.3,0.7,0.5,1,0.8c0.1,0.1,0.3,0.2,0.4,0.3
			c0.5,0.4,1,0.7,1.5,1c0.1,0.1,0.3,0.2,0.4,0.3c0.4,0.3,0.7,0.5,1.1,0.7c0.2,0.1,0.4,0.2,0.6,0.4c0.3,0.2,0.7,0.4,1,0.6
			c0.2,0.1,0.4,0.2,0.6,0.4c0.4,0.2,0.7,0.4,1.1,0.6c0.2,0.1,0.3,0.2,0.5,0.3c0.5,0.3,1.1,0.6,1.6,0.9l9.9,15.2l8.5,13.2l1.1,1.7
			c1.3,1.9,3.4,3.1,5.7,3.1s4.5-1.2,5.7-3.1l1.1-1.7l0.6-1l7.8-12.1l10-15.3c0.6-0.3,1.1-0.6,1.6-0.9c0.2-0.1,0.4-0.2,0.5-0.3
			c0.4-0.2,0.7-0.4,1.1-0.6c0.2-0.1,0.4-0.2,0.6-0.4c0.3-0.2,0.7-0.4,1-0.6c0.2-0.1,0.4-0.2,0.6-0.4c0.4-0.2,0.7-0.5,1-0.7
			c0.2-0.1,0.3-0.2,0.5-0.3c0.5-0.3,1-0.7,1.5-1c0.1-0.1,0.3-0.2,0.4-0.3c0.4-0.3,0.7-0.5,1.1-0.8c0.2-0.1,0.4-0.3,0.6-0.5
			c0.3-0.2,0.5-0.4,0.8-0.7c0.2-0.2,0.4-0.4,0.6-0.5c0.3-0.2,0.5-0.4,0.8-0.7c0.2-0.2,0.4-0.4,0.6-0.6c0.3-0.2,0.5-0.5,0.7-0.7
			s0.4-0.4,0.6-0.6c0.4-0.4,0.8-0.8,1.2-1.2c0.2-0.2,0.4-0.5,0.6-0.7c0.2-0.2,0.4-0.4,0.5-0.6c0.2-0.3,0.5-0.5,0.7-0.8
			c0.2-0.2,0.3-0.4,0.5-0.6c0.2-0.3,0.5-0.5,0.7-0.8c0.1-0.2,0.3-0.4,0.4-0.5c0.2-0.3,0.5-0.6,0.7-0.9c0.1-0.1,0.2-0.2,0.3-0.4
			c0.8-1.1,1.6-2.3,2.4-3.5c0.1-0.1,0.1-0.2,0.2-0.3c0.2-0.4,0.5-0.7,0.7-1.1c0.1-0.1,0.1-0.2,0.2-0.3c0.2-0.4,0.5-0.8,0.7-1.2
			c0-0.1,0.1-0.1,0.1-0.2c1-1.8,1.9-3.7,2.7-5.6c0,0,0,0,0-0.1c0.2-0.5,0.4-1,0.6-1.4v-0.1c1.2-3,2.1-6.1,2.7-9.3l0,0
			c0.7-3.6,1.1-7.3,1.1-11.1C232.5,60.1,206.9,34.5,175.5,34.5z M175.5,122.3c-17,0-30.9-13.9-30.9-30.9s13.9-30.9,30.9-30.9
			s30.9,13.9,30.9,30.9C206.5,108.5,192.6,122.3,175.5,122.3z"/>
	</g>
</g>
<g class="st0">
	<g class="st2">
		<path class="st3" d="M252.4,107.7l-7.8-1.9c-1.7,8.1-4.8,15.8-9.2,22.9c-6.3,10.1-14.9,18.4-25.1,24.2l-10.4,16l24.4,29.8h33.2
			v-84.4C257.6,111.2,255.5,108.4,252.4,107.7z"/>
	</g>
</g>
<g class="st0">
	<g class="st2">
		<path class="st3" d="M29,89.5c-2-0.5-4.2,0-5.8,1.3c-1.7,1.3-2.6,3.3-2.6,5.4v66.1H57c1.8,0,3.6,0.7,4.9,2L95,197.9v-92.3L29,89.5
			z"/>
	</g>
</g>
<g class="st0">
	<g class="st2">
		<path class="st3" d="M158.3,180l-14.5-22.3H143l-34.3,58.9v49.1l60-14.7v-62.8C164.5,186.7,160.8,183.9,158.3,180z"/>
	</g>
</g>
<g class="st0">
	<g class="st2">
		<path class="st3" d="M221.1,212.4c-2,0-4-0.9-5.3-2.5l-23.7-29c-2.5,3.4-5.9,5.9-9.7,7.3v62.4l66.8,16.4c0.5,0.1,1.1,0.2,1.6,0.2
			c1.5,0,3-0.5,4.2-1.5c1.6-1.3,2.6-3.3,2.6-5.4v-47.9L221.1,212.4L221.1,212.4L221.1,212.4z"/>
	</g>
</g>
<g class="st0">
	<g class="st2">
		<path class="st3" d="M54.1,175.9H20.5V242c0,3.1,2.2,5.9,5.2,6.6l69.3,17v-48.2L54.1,175.9z"/>
	</g>
</g>
<g id="Outline" class="st0">
	<path class="st1" d="M153,97.2l5.9-5.9h12.3c1.9,0,3.4,1.5,3.4,3.4V105c0,1.9-1.5,3.4-3.4,3.4h-60.1c-1.9,0-3.4,1.5-3.4,3.3
		l-3.9,109.8l6.9,0.3l3.8-106.5h56.8c5.7,0,10.3-4.6,10.3-10.3V94.8c0-5.7-4.6-10.3-10.3-10.3h-13.7c-0.9,0-1.8,0.4-2.4,1l-5.9,5.9
		h-42.9c2.1-2.8,3.2-6.2,3.2-9.7V66.8c0-9.2-7.4-16.6-16.6-16.6h-8c-9.2,0-16.6,7.4-16.6,16.6v14.9c0,3.5,1.1,6.9,3.2,9.7H65
		c-9.5,0-17.1,7.7-17.2,17.2v58.3c0,5.7,4.6,10.3,10.3,10.3h7.5l2.8,79.1l6.9-0.3l-2.9-79.6c3.8-1.6,6.3-5.4,6.3-9.5V160
		c0-0.9-0.4-1.8-1-2.4l-5.9-5.9v-32.9h-6.9v34.3c0,0.9,0.4,1.8,1,2.4l5.9,5.9v5.4c0,1.9-1.5,3.4-3.4,3.4H57.9
		c-1.9,0-3.4-1.5-3.4-3.4v-58.3c0-5.7,4.6-10.3,10.3-10.3h85.8C151.5,98.2,152.4,97.9,153,97.2z M84.8,91.4c-5.4,0-9.7-4.4-9.7-9.7
		V66.8c0-5.4,4.4-9.7,9.7-9.7h8c5.4,0,9.7,4.4,9.7,9.7v14.9c0,5.4-4.4,9.7-9.7,9.7H84.8L84.8,91.4z"/>
	<rect x="85.4" y="173.7" class="st1" width="6.9" height="82.4"/>
	<path class="st1" d="M164.3,225.2h-6.6c2.1-2.8,3.2-6.2,3.2-9.7v-14.9c0-9.2-7.4-16.6-16.6-16.6h-8c-9.2,0-16.6,7.4-16.6,16.6v14.9
		c0,3.5,1.1,6.9,3.2,9.7h-6.6c-9.5,0-17.1,7.7-17.2,17.2v13.7h6.9v-13.7c0-5.7,4.6-10.3,10.3-10.3h48.1c5.7,0,10.3,4.6,10.3,10.3
		v13.7h6.9v-13.7C181.5,232.9,173.8,225.2,164.3,225.2z M136.3,225.2c-5.4,0-9.7-4.4-9.7-9.7v-14.9c0-5.4,4.4-9.7,9.7-9.7h8
		c5.4,0,9.7,4.4,9.7,9.7v14.9c0,5.4-4.4,9.7-9.7,9.7H136.3L136.3,225.2z"/>
	<path class="st1" d="M233,225.2h-6.6c2.1-2.8,3.2-6.2,3.2-9.7v-14.9c0-9.2-7.4-16.6-16.6-16.6h-8c-9.2,0-16.6,7.4-16.6,16.6v14.9
		c0,3.5,1.1,6.9,3.2,9.7H185v6.9h48c5.7,0,10.3,4.6,10.3,10.3v13.7h6.9v-13.7C250.1,232.9,242.4,225.2,233,225.2z M204.9,225.2
		c-5.4,0-9.7-4.4-9.7-9.7v-14.9c0-5.4,4.4-9.7,9.7-9.7h8c5.4,0,9.7,4.4,9.7,9.7v14.9c0,5.4-4.4,9.7-9.7,9.7H204.9L204.9,225.2z"/>
	<path class="st1" d="M253.5,46.8H123.1c-1.9,0-3.4,1.5-3.4,3.4v13.7c0,1.9,1.5,3.4,3.4,3.4h3.4v17.2h6.9V67.3h109.8V160H133.4
		v-37.8h-6.9v41.2c0,1.9,1.5,3.4,3.4,3.4h116.7c1.9,0,3.4-1.5,3.4-3.4V67.3h3.4c1.9,0,3.4-1.5,3.4-3.4V50.2
		C257,48.3,255.4,46.8,253.5,46.8z M250.1,60.5H126.6v-6.9h123.5V60.5z"/>
	<path class="st1" d="M236.4,98.2c0-13.3-10.8-24-24-24c-1.9,0-3.4,1.5-3.4,3.4v17.2h-17.2c-1.9,0-3.4,1.5-3.4,3.4
		c0,13.3,10.8,24,24,24C225.6,122.3,236.4,111.5,236.4,98.2z M195.5,101.7h16.8c1.9,0,3.4-1.5,3.4-3.4V81.4
		c9.3,1.9,15.3,11,13.4,20.3c-1.9,9.3-11,15.3-20.3,13.4C202.2,113.7,196.9,108.4,195.5,101.7z"/>
	<rect x="150.6" y="129.1" class="st1" width="6.9" height="6.9"/>
	<rect x="164.3" y="129.1" class="st1" width="68.6" height="6.9"/>
	<rect x="143.7" y="142.8" class="st1" width="75.5" height="6.9"/>
</g>
<g id="_x30_43---Bottle-Bin">
	<path id="Shape" class="st4" d="M88.6,73.9L81.5,81c-2.4,2.5-3.8,5.7-3.8,9v2.5h-6.3c-5.3,0-9.6,4.3-9.6,9.6c0,5.3,4.3,9.6,9.6,9.6
		h0.2l5.6,109.2c0.4,8.5,7.4,15.1,15.9,15.1h84.2c8.5,0,15.5-6.7,15.9-15.1l5.6-109.2h0.2c5.3,0,9.6-4.3,9.6-9.6
		c0-5.3-4.3-9.6-9.6-9.6h-3.3c-0.1-0.2-0.1-0.3-0.2-0.5l-3.4-9.5c-0.6-1.6-0.5-3.4,0.2-4.8l2.7-5.9c0.5-0.1,1.2-0.2,1.6-0.3
		c1.6-0.6,2.9-1.7,3.5-3.3l2.7-5.8c0.6-1.6,0.8-3.3,0.2-4.8c-0.6-1.6-1.7-2.9-3.3-3.5l-11.6-5.3c-3.2-1.5-7-0.1-8.5,3.1l-2.8,5.7
		c-1,2-0.8,4.5,0.6,6.3l-2.7,5.8c-0.6,1.6-2,2.8-3.7,3.4l-9.5,3.4c-0.6,0.2-1.4,0.6-2,1.1c-1.9-5.2-6.3-8.9-11.7-10.1v-4.4
		c2-1.2,3.2-3.2,3.2-5.5v-6.3c0-3.5-2.9-6.3-6.3-6.3h-13c-3.5,0-6.3,2.9-6.3,6.3v6.3c0,2.3,1.2,4.4,3.1,5.5l-0.1,4.4
		c-5.9,1.3-10.6,5.7-12.1,11.7l-5-5c-1.2-1.2-1.8-2.9-1.8-4.5v-6.6c2-1.2,3.2-3.2,3.2-5.5v-6.3c0-3.5-2.9-6.3-6.3-6.3H93.6
		c-3.5,0-6.3,2.9-6.3,6.3v6.3c0,2.3,1.2,4.4,3.2,5.5v6.6C90.4,71.1,89.7,72.7,88.6,73.9L88.6,73.9z M186.7,220.5
		c-0.2,5.2-4.4,9-9.6,9H92.9c-5.2,0-9.3-4-9.6-9l-5.6-108.9h114.5L186.7,220.5z M202,102.2c0,1.7-1.4,3.2-3.2,3.2H71.2
		c-1.7,0-3.2-1.4-3.2-3.2s1.4-3.2,3.2-3.2h127.6C200.5,98.9,202,100.3,202,102.2z M185.3,54.2l11.6,5.3l-2.7,5.8L182.6,60
		L185.3,54.2z M163.8,82.4l9.5-3.4c3.1-1.2,5.7-3.5,7.1-6.7l2.4-5l5.7,2.7l-2.4,5.2c-1.4,3-1.6,6.7-0.3,9.8l3,7.8H157l3.1-6.8
		C161,84.2,162.3,82.9,163.8,82.4L163.8,82.4z M131.9,51.1h12.7v6.3h-12.8L131.9,51.1L131.9,51.1z M122.3,82.9
		c0-4.5,3.1-8.4,7.5-9.3c3-0.6,5.3-3.2,5.3-6.2v-3.4h6.3v3.4c0,3,2.1,5.7,5.3,6.2c4.4,1,7.5,4.8,7.5,9.3v0.6l-4.1,8.9h-27.7
		L122.3,82.9L122.3,82.9z M114,85.6c1.2,1.2,1.8,2.8,1.8,4.5v2.5H84v-2.5c0-1.6,0.6-3.3,1.8-4.5l7.1-7.1c2.4-2.5,3.8-5.7,3.8-9v-5.6
		h6.3v5.6c0,3.4,1.4,6.7,3.8,9L114,85.6z M93.6,51.1h12.7v6.3H93.6V51.1z"/>
	<path class="st4" d="M135,205.8c-20.3,0-36.8-16.5-36.8-36.8s16.5-36.8,36.8-36.8s36.8,16.5,36.8,36.8S155.3,205.8,135,205.8z
		 M135,139.1c-16.4,0-30,13.5-30,30c0,16.5,13.5,30,30,30s30-13.5,30-30S151.5,139.1,135,139.1z"/>
	<path id="Shape_1_" class="st4" d="M135,205c19.9,0,36-16.1,36-36s-16-36-36-36c-20,0-36,16.1-36,36C99.1,189,115.1,205,135,205z
		 M135,138.2c17.1,0,30.9,13.9,30.9,30.9s-13.9,30.9-30.9,30.9S104,186.3,104,169.2C104.2,152.1,117.9,138.2,135,138.2z"/>
</g>
</svg>
