<?xml version="1.0" encoding="utf-8"?>
<!-- Generator: Adobe Illustrator 24.0.1, SVG Export Plug-In . SVG Version: 6.00 Build 0)  -->
<svg version="1.1" id="Layer_1" xmlns="http://www.w3.org/2000/svg" xmlns:xlink="http://www.w3.org/1999/xlink" x="0px" y="0px"
	 viewBox="0 0 329 267.1" style="enable-background:new 0 0 329 267.1;" xml:space="preserve">
<style type="text/css">
	.st0{display:none;}
	.st1{display:inline;fill:#2F2C52;}
	.st2{display:inline;}
	.st3{fill:#2F2C52;}
	.st4{fill:#434344;}
</style>
<g class="st0">
	<path class="st1" d="M167.8,49.5c-1.5-1.5-3.9-1.5-5.4,0s-1.5,3.9,0,5.4s3.9,1.5,5.4,0c0.7-0.7,1.1-1.7,1.1-2.7
		C168.9,51.2,168.5,50.2,167.8,49.5z"/>
	<path class="st1" d="M82.1,102.8H51.6c-2.1,0-3.8,1.7-3.8,3.8l0,0v30.5c0,2.1,1.7,3.8,3.8,3.8h30.5c2.1,0,3.8-1.7,3.8-3.8v-30.5
		C85.9,104.6,84.2,102.8,82.1,102.8L82.1,102.8z M78.3,133.3H55.4v-22.9h22.9V133.3z"/>
	<path class="st1" d="M217.6,75.3c-1.4-0.6-3.1-0.3-4.1,0.8L174.7,115l-45.2,45.2l-23.7,23.7c-1.5,1.5-1.5,3.9,0,5.4
		c0.7,0.7,1.7,1.1,2.7,1.1h107.8c2.1,0,3.8-1.7,3.8-3.8V78.9C220,77.3,219,75.9,217.6,75.3L217.6,75.3z M212.3,182.8h-94.8
		l14.5-14.5l3.6,3.6c1.5,1.5,3.9,1.4,5.4-0.1c1.4-1.5,1.4-3.8,0-5.3l-3.6-3.6l9.7-9.7l3.6,3.6c1.5,1.5,3.9,1.4,5.4-0.1
		c1.4-1.5,1.4-3.8,0-5.3l-3.6-3.6l9.7-9.7l3.6,3.6c1.5,1.5,3.9,1.5,5.4,0s1.5-3.9,0-5.3l-3.6-3.6l9.7-9.7l3.6,3.6
		c1.5,1.5,3.9,1.5,5.4,0.1c1.5-1.5,1.5-3.9,0.1-5.4l-0.1-0.1l-3.6-3.6l9.7-9.7l3.6,3.6c1.5,1.5,3.9,1.4,5.4-0.1
		c1.4-1.5,1.4-3.8,0-5.3l-3.6-3.6L212.4,88L212.3,182.8z"/>
	<path class="st1" d="M198.6,121.3c-1.4-0.6-3.1-0.3-4.1,0.8l-42.8,42.8c-1.5,1.5-1.5,3.9,0,5.4c0.7,0.7,1.7,1.1,2.7,1.1h42.8
		c2.1,0,3.8-1.7,3.8-3.8v-42.8C200.9,123.3,200,121.9,198.6,121.3L198.6,121.3z M193.3,163.8h-29.8l29.8-29.8V163.8z"/>
	<path class="st1" d="M201.3,52.3c-1-1.1-2.6-1.4-4-0.9l-26,9.5c-0.5,0.2-1,0.5-1.4,0.9l-7.3,7.3l-47.8-47.8c-1.5-1.5-3.9-1.5-5.4,0
		l0,0L52,78.8H38l74.2-74.2l40.7,40.7c1.5,1.5,3.9,1.4,5.4-0.1s1.5-3.9,0-5.3L114.9-3.5c-1.5-1.5-3.9-1.5-5.4,0L26.1,80
		c-1.5,1.5-1.5,3.9,0,5.4c0.7,0.7,1.7,1.1,2.7,1.1h3.8v100.2c0,2.1,1.7,3.8,3.8,3.8H97c2.1,0,3.8-1.6,3.9-3.8c0-2.1-1.6-3.8-3.8-3.9
		H97H40.2V86.4h13.4c1,0,2-0.4,2.7-1.1l55.9-55.9l45,45.1L100.8,131V96.7h26.7c2.1,0,3.8-1.8,3.8-3.9s-1.7-3.7-3.8-3.8H97
		c-2.1,0-3.8,1.7-3.8,3.8V137c0,0.4,0.1,0.9,0.2,1.3l-3.4,3.4c-6,6-6,15.8,0,21.9s15.8,6,21.9,0l32.1-32.1c1.5-1.5,1.5-3.9,0.1-5.4
		c-1.5-1.5-3.9-1.5-5.4-0.1l-0.1,0.1l-24.3,24.3l-11.1-11.1l69.6-69.6l11.1,11.1l-26.6,26.6c-1.5,1.5-1.4,3.9,0.1,5.4
		c1.5,1.4,3.8,1.4,5.3,0l29.2-29.2c0.4-0.4,0.7-0.9,0.9-1.4l9.5-26C202.7,54.9,202.4,53.3,201.3,52.3L201.3,52.3z M108.8,155.9
		l-2.4,2.4c-3.1,3.1-8,3.1-11.1,0s-3.1-8,0-11.1l0,0l2.4-2.4L108.8,155.9z M187.6,74l-8-8l12.6-4.6L187.6,74z"/>
	<path class="st1" d="M153.2,116.9c-1.5-1.5-3.9-1.5-5.4,0s-1.5,3.9,0,5.4s3.9,1.5,5.4,0c0.7-0.7,1.1-1.7,1.1-2.7
		C154.3,118.6,153.9,117.6,153.2,116.9z"/>
	<path class="st1" d="M112.2,52.9c-8,0-14.5,6.5-14.5,14.5s6.5,14.5,14.5,14.5s14.5-6.5,14.5-14.5C126.6,59.4,120.2,53,112.2,52.9
		L112.2,52.9z M112.2,74.3c-3.8,0-6.9-3.1-6.9-6.9c0-3.8,3.1-6.9,6.9-6.9s6.9,3.1,6.9,6.9l0,0C119,71.2,116,74.3,112.2,74.3
		L112.2,74.3z"/>
</g>
<g class="st0">
	<g class="st2">
		<path class="st3" d="M230.5,33.9c-3.2-3.3-8.5-3.4-11.8-0.2c-0.1,0.1-0.1,0.1-0.2,0.2L83.1,169.4l-44-44
			c-3.3-3.2-8.6-3.1-11.8,0.2c-3.1,3.2-3.1,8.3,0,11.5L77.2,187c3.3,3.3,8.5,3.3,11.8,0L230.3,45.7
			C233.6,42.5,233.7,37.3,230.5,33.9z"/>
	</g>
</g>
<g class="st0">
	<g class="st2">
		<path class="st3" d="M95.6,80.1c-2.9-4.7-5.2-9.6-6.9-14.8v75.4L113,99.1C106.1,94,100.2,87.5,95.6,80.1z"/>
	</g>
</g>
<g class="st0">
	<g class="st2">
		<path class="st3" d="M155.5-14c-31.4,0-56.9,25.5-56.9,56.9c0,4.4,0.5,8.7,1.5,12.9c0,0.1,0,0.2,0.1,0.3c0.1,0.4,0.2,0.9,0.3,1.4
			c0,0.1,0.1,0.2,0.1,0.3c0.5,2,1.2,3.9,1.9,5.8c0,0.1,0.1,0.2,0.1,0.3c0.2,0.4,0.3,0.8,0.5,1.2c0.1,0.1,0.1,0.2,0.2,0.4
			c0.2,0.4,0.4,0.8,0.5,1.2c0.1,0.1,0.1,0.2,0.1,0.3c0.6,1.3,1.3,2.6,2,3.8c0.1,0.1,0.1,0.2,0.1,0.3c0.2,0.4,0.4,0.7,0.6,1
			c0.1,0.2,0.2,0.3,0.3,0.5c0.2,0.3,0.4,0.6,0.6,1c0.1,0.2,0.2,0.4,0.3,0.5c0.2,0.3,0.4,0.6,0.6,0.9c0.1,0.2,0.2,0.3,0.3,0.5
			c0.4,0.6,0.9,1.2,1.3,1.8c0.1,0.1,0.2,0.3,0.3,0.4c0.2,0.3,0.4,0.5,0.6,0.8c0.2,0.2,0.3,0.4,0.5,0.6c0.2,0.3,0.4,0.5,0.6,0.7
			s0.4,0.4,0.6,0.6s0.4,0.5,0.6,0.7s0.4,0.5,0.6,0.7s0.4,0.4,0.6,0.6c0.3,0.3,0.6,0.6,0.9,0.9c0.2,0.2,0.4,0.4,0.7,0.7
			c0.3,0.3,0.6,0.6,0.9,0.8c0.2,0.2,0.4,0.3,0.6,0.5c0.3,0.2,0.5,0.5,0.8,0.7c0.2,0.2,0.4,0.3,0.6,0.5c0.3,0.2,0.6,0.5,0.9,0.7
			c0.2,0.1,0.4,0.3,0.6,0.4c0.3,0.3,0.7,0.5,1,0.8c0.1,0.1,0.3,0.2,0.4,0.3c0.5,0.4,1,0.7,1.5,1c0.1,0.1,0.3,0.2,0.4,0.3
			c0.4,0.3,0.7,0.5,1.1,0.7c0.2,0.1,0.4,0.2,0.6,0.4c0.3,0.2,0.7,0.4,1,0.6c0.2,0.1,0.4,0.2,0.6,0.4c0.4,0.2,0.7,0.4,1.1,0.6
			c0.2,0.1,0.3,0.2,0.5,0.3c0.5,0.3,1.1,0.6,1.6,0.9l9.9,15.2l8.5,13.2l1.1,1.7c1.3,1.9,3.4,3.1,5.7,3.1s4.5-1.2,5.7-3.1l1.1-1.7
			l0.6-1l7.8-12.1l10-15.3c0.6-0.3,1.1-0.6,1.6-0.9c0.2-0.1,0.4-0.2,0.5-0.3c0.4-0.2,0.7-0.4,1.1-0.6c0.2-0.1,0.4-0.2,0.6-0.4
			c0.3-0.2,0.7-0.4,1-0.6c0.2-0.1,0.4-0.2,0.6-0.4c0.4-0.2,0.7-0.5,1-0.7c0.2-0.1,0.3-0.2,0.5-0.3c0.5-0.3,1-0.7,1.5-1
			c0.1-0.1,0.3-0.2,0.4-0.3c0.4-0.3,0.7-0.5,1.1-0.8c0.2-0.1,0.4-0.3,0.6-0.5c0.3-0.2,0.5-0.4,0.8-0.7c0.2-0.2,0.4-0.4,0.6-0.5
			c0.3-0.2,0.5-0.4,0.8-0.7c0.2-0.2,0.4-0.4,0.6-0.6c0.3-0.2,0.5-0.5,0.7-0.7s0.4-0.4,0.6-0.6c0.4-0.4,0.8-0.8,1.2-1.2
			c0.2-0.2,0.4-0.5,0.6-0.7c0.2-0.2,0.4-0.4,0.5-0.6c0.2-0.3,0.5-0.5,0.7-0.8c0.2-0.2,0.3-0.4,0.5-0.6c0.2-0.3,0.5-0.5,0.7-0.8
			c0.1-0.2,0.3-0.4,0.4-0.5c0.2-0.3,0.5-0.6,0.7-0.9c0.1-0.1,0.2-0.2,0.3-0.4c0.8-1.1,1.6-2.3,2.4-3.5c0.1-0.1,0.1-0.2,0.2-0.3
			c0.2-0.4,0.5-0.7,0.7-1.1c0.1-0.1,0.1-0.2,0.2-0.3c0.2-0.4,0.5-0.8,0.7-1.2c0-0.1,0.1-0.1,0.1-0.2c1-1.8,1.9-3.7,2.7-5.6
			c0,0,0,0,0-0.1c0.2-0.5,0.4-1,0.6-1.4V63c1.2-3,2.1-6.1,2.7-9.3l0,0c0.7-3.6,1.1-7.3,1.1-11.1C212.4,11.5,186.9-14,155.5-14z
			 M155.5,73.8c-17,0-30.9-13.9-30.9-30.9S138.5,12,155.5,12s30.9,13.9,30.9,30.9S172.6,73.8,155.5,73.8z"/>
	</g>
</g>
<g class="st0">
	<g class="st2">
		<path class="st3" d="M232.4,59.1l-7.8-1.9c-1.7,8.1-4.8,15.8-9.2,22.9c-6.3,10.1-14.9,18.4-25.1,24.2l-10.4,16l24.4,29.8h33.2
			V65.8C237.6,62.6,235.4,59.9,232.4,59.1z"/>
	</g>
</g>
<g class="st0">
	<g class="st2">
		<path class="st3" d="M8.9,40.9c-2-0.5-4.2,0-5.8,1.3c-1.7,1.3-2.6,3.3-2.6,5.4v66.1H37c1.8,0,3.6,0.7,4.9,2L75,149.4V57L8.9,40.9z
			"/>
	</g>
</g>
<g class="st0">
	<g class="st2">
		<path class="st3" d="M138.3,131.4l-14.5-22.3H123L88.6,168v49.1l60-14.7v-62.8C144.5,138.1,140.8,135.3,138.3,131.4z"/>
	</g>
</g>
<g class="st0">
	<g class="st2">
		<path class="st3" d="M201.1,163.8c-2,0-4-0.9-5.3-2.5l-23.7-29c-2.5,3.4-5.9,5.9-9.7,7.3V202l66.8,16.4c0.5,0.1,1.1,0.2,1.6,0.2
			c1.5,0,3-0.5,4.2-1.5c1.6-1.3,2.6-3.3,2.6-5.4v-47.9L201.1,163.8L201.1,163.8L201.1,163.8z"/>
	</g>
</g>
<g class="st0">
	<g class="st2">
		<path class="st3" d="M34.1,127.3H0.5v66.1c0,3.1,2.2,5.9,5.2,6.6L75,217v-48.2L34.1,127.3z"/>
	</g>
</g>
<g id="Outline" class="st0">
	<path class="st1" d="M133,48.7l5.9-5.9h12.3c1.9,0,3.4,1.5,3.4,3.4v10.3c0,1.9-1.5,3.4-3.4,3.4H91.1c-1.9,0-3.4,1.5-3.4,3.3
		L83.8,173l6.9,0.3l3.8-106.5h56.8c5.7,0,10.3-4.6,10.3-10.3V46.2c0-5.7-4.6-10.3-10.3-10.3h-13.7c-0.9,0-1.8,0.4-2.4,1l-5.9,5.9
		H86.2c2.1-2.8,3.2-6.2,3.2-9.7V18.2C89.4,9,82,1.6,72.8,1.6h-8c-9.2,0-16.6,7.4-16.6,16.6v14.9c0,3.5,1.1,6.9,3.2,9.7h-6.6
		c-9.5,0-17.1,7.7-17.2,17.2v58.3c0,5.7,4.6,10.3,10.3,10.3h7.5l2.8,79.1l6.9-0.3l-2.9-79.6c3.8-1.6,6.3-5.4,6.3-9.5v-6.8
		c0-0.9-0.4-1.8-1-2.4l-5.9-5.9V70.3h-6.9v34.3c0,0.9,0.4,1.8,1,2.4l5.9,5.9v5.4c0,1.9-1.5,3.4-3.4,3.4H37.9c-1.9,0-3.4-1.5-3.4-3.4
		V60c0-5.7,4.6-10.3,10.3-10.3h85.8C131.5,49.7,132.3,49.3,133,48.7z M64.8,42.8c-5.4,0-9.7-4.4-9.7-9.7V18.2c0-5.4,4.4-9.7,9.7-9.7
		h8c5.4,0,9.7,4.4,9.7,9.7v14.9c0,5.4-4.4,9.7-9.7,9.7H64.8L64.8,42.8z"/>
	<rect x="65.3" y="125.2" class="st1" width="6.9" height="82.4"/>
	<path class="st1" d="M144.3,176.6h-6.6c2.1-2.8,3.2-6.2,3.2-9.7V152c0-9.2-7.4-16.6-16.6-16.6h-8c-9.2,0-16.6,7.4-16.6,16.6v14.9
		c0,3.5,1.1,6.9,3.2,9.7h-6.6c-9.5,0-17.1,7.7-17.2,17.2v13.7H86v-13.7c0-5.7,4.6-10.3,10.3-10.3h48.1c5.7,0,10.3,4.6,10.3,10.3
		v13.7h6.9v-13.7C161.4,184.3,153.7,176.7,144.3,176.6z M116.2,176.6c-5.4,0-9.7-4.4-9.7-9.7V152c0-5.4,4.4-9.7,9.7-9.7h8
		c5.4,0,9.7,4.4,9.7,9.7v14.9c0,5.4-4.4,9.7-9.7,9.7H116.2L116.2,176.6z"/>
	<path class="st1" d="M212.9,176.6h-6.6c2.1-2.8,3.2-6.2,3.2-9.7V152c0-9.2-7.4-16.6-16.6-16.6h-8c-9.2,0-16.6,7.4-16.6,16.6v14.9
		c0,3.5,1.1,6.9,3.2,9.7h-6.6v6.9h48c5.7,0,10.3,4.6,10.3,10.3v13.7h6.9v-13.7C230.1,184.3,222.4,176.7,212.9,176.6z M184.9,176.6
		c-5.4,0-9.7-4.4-9.7-9.7V152c0-5.4,4.4-9.7,9.7-9.7h8c5.4,0,9.7,4.4,9.7,9.7v14.9c0,5.4-4.4,9.7-9.7,9.7H184.9L184.9,176.6z"/>
	<path class="st1" d="M233.5-1.8H103.1c-1.9,0-3.4,1.5-3.4,3.4v13.7c0,1.9,1.5,3.4,3.4,3.4h3.4v17.2h6.9V18.8h109.8v92.7H113.4V73.7
		h-6.9v41.2c0,1.9,1.5,3.4,3.4,3.4h116.7c1.9,0,3.4-1.5,3.4-3.4V18.8h3.4c1.9,0,3.4-1.5,3.4-3.4V1.6C236.9-0.3,235.4-1.8,233.5-1.8z
		 M230.1,11.9H106.5V5.1H230v6.8H230.1z"/>
	<path class="st1" d="M216.3,49.7c0-13.3-10.8-24-24-24c-1.9,0-3.4,1.5-3.4,3.4v17.2h-17.2c-1.9,0-3.4,1.5-3.4,3.4
		c0,13.3,10.8,24,24,24C205.6,73.7,216.3,62.9,216.3,49.7z M175.5,53.1h16.8c1.9,0,3.4-1.5,3.4-3.4V32.9c9.3,1.9,15.3,11,13.4,20.3
		c-1.9,9.3-11,15.3-20.3,13.4C182.1,65.1,176.9,59.8,175.5,53.1z"/>
	<rect x="130.5" y="80.6" class="st1" width="6.9" height="6.9"/>
	<rect x="144.3" y="80.6" class="st1" width="68.6" height="6.9"/>
	<rect x="123.7" y="94.3" class="st1" width="75.5" height="6.9"/>
</g>
<g id="Page-1" class="st0">
	<g id="_x30_43---Bottle-Bin" class="st2">
		<path id="Shape" class="st3" d="M80.5,41.5l-8.2,8.2C69.6,52.4,68,56.2,68,60v2.8h-7.3c-6.1,0-11,4.9-11,11s4.9,11,11,11h0.2
			l6.4,125.5c0.5,9.7,8.5,17.4,18.3,17.4h96.8c9.8,0,17.8-7.6,18.3-17.4l6.4-125.5h0.2c6.1,0,11-4.9,11-11s-4.9-11-11-11h-3.8
			c-0.1-0.2-0.1-0.4-0.2-0.6l-4-10.9c-0.7-1.8-0.6-3.9,0.2-5.6l3.1-6.8c0.6-0.1,1.3-0.2,1.9-0.4c1.8-0.7,3.3-2,4.1-3.8l3.1-6.7
			c0.8-1.8,0.9-3.8,0.2-5.6c-0.7-1.8-2-3.3-3.8-4.1l-13.3-6.1c-3.7-1.7-8-0.1-9.7,3.6l-3.1,6.7c-1.1,2.4-0.9,5.2,0.7,7.3l-3.1,6.7
			c-0.8,1.8-2.3,3.2-4.2,3.9l-10.9,4c-0.8,0.3-1.6,0.7-2.4,1.2c-2.2-5.9-7.3-10.3-13.5-11.6v-5.1c2.3-1.3,3.7-3.7,3.7-6.3v-7.3
			c0-4.1-3.3-7.3-7.3-7.3h-14.7c-4.1,0-7.3,3.3-7.3,7.3v7.3c0,2.6,1.4,5,3.6,6.3l-0.1,5.1c-6.8,1.5-12.2,6.6-13.9,13.4l-5.8-5.8
			c-1.4-1.4-2.1-3.3-2.1-5.2v-7.5c2.3-1.3,3.7-3.7,3.7-6.3v-7.3c0-4.1-3.3-7.3-7.3-7.3H86.3c-4.1,0-7.3,3.3-7.3,7.3v7.3
			c0,2.6,1.4,5,3.7,6.3v7.5C82.7,38.2,81.9,40.1,80.5,41.5L80.5,41.5z M193.3,210c-0.3,5.9-5.1,10.4-11,10.4H85.6
			c-5.9,0-10.7-4.6-11-10.4L68.2,84.8h131.6L193.3,210z M210.9,73.8c0,2-1.6,3.7-3.7,3.7H60.7c-2,0-3.7-1.6-3.7-3.7s1.6-3.7,3.7-3.7
			h146.6C209.3,70.2,210.9,71.8,210.9,73.8z M191.7,18.9L205,25l-3.1,6.7l-13.3-6.1L191.7,18.9z M167.1,51.2l10.9-4
			c3.6-1.4,6.6-4.1,8.2-7.6l2.7-5.8l6.6,3.1l-2.7,5.9c-1.6,3.5-1.8,7.6-0.4,11.2l3.3,9h-36.4l3.6-7.8
			C163.7,53.2,165.2,51.9,167.1,51.2L167.1,51.2z M130.3,15.2H145v7.3h-14.7V15.2L130.3,15.2z M119.3,51.8c0-5.2,3.6-9.6,8.7-10.7
			c3.5-0.7,6-3.7,6-7.2v-4h7.3v4c0,3.5,2.5,6.6,6,7.2c5.1,1.1,8.7,5.6,8.7,10.7v0.8l-4.7,10.2h-31.9L119.3,51.8L119.3,51.8z
			 M109.8,54.9c1.4,1.4,2.1,3.2,2.1,5.2v2.8H75.3V60c0-1.9,0.8-3.8,2.1-5.2l8.2-8.2c2.7-2.8,4.3-6.5,4.3-10.4v-6.4h7.3v6.4
			c0,3.9,1.6,7.6,4.3,10.4L109.8,54.9z M86.3,15.2H101v7.3H86.3V15.2z"/>
		<path id="Shape_1_" class="st3" d="M134,202.1c28.3,0,51.3-23,51.3-51.3s-23-51.3-51.3-51.3s-51.3,23-51.3,51.3
			S105.7,202.1,134,202.1z M134,106.8c24.3,0,44,19.7,44,44s-19.7,44-44,44s-44-19.7-44-44S109.7,106.8,134,106.8z"/>
		<path id="Shape_2_" class="st3" d="M126.6,183.8h14.7c6.1,0,11-4.9,11-11v-25.6c0-4.7-2.9-8.8-7.3-10.4v-8c2,0,3.7-1.6,3.7-3.7
			s-1.6-3.7-3.7-3.7h-22c-2,0-3.7,1.6-3.7,3.7s1.6,3.7,3.7,3.7v8c-4.4,1.6-7.3,5.7-7.3,10.4v25.6
			C115.7,178.8,120.6,183.8,126.6,183.8z M123,147.1c0-2,1.6-3.7,3.7-3.7c2,0,3.7-1.6,3.7-3.7v-11h7.3v11c0,2,1.6,3.7,3.7,3.7
			c2,0,3.7,1.6,3.7,3.7v25.6c0,2-1.6,3.7-3.7,3.7h-14.7c-2,0-3.7-1.6-3.7-3.7V147.1L123,147.1z"/>
	</g>
</g>
<g>
	<path class="st4" d="M266.1,145.4c8.6-31.7-5.9-65.1-35-80.4c-34.2-18-76.6-4.8-94.5,29.4c-4.8-1.6-9.8-2.6-14.8-3
		c-31.9-2.2-59.5,21.9-61.7,53.9c-22.2,2-39.3,20.7-39.3,43c0,23.8,19.3,43.2,43.2,43.2h197.4c22,0,40.5-16.6,42.9-38.5
		C306.9,169.4,289.8,148,266.1,145.4z M261.4,223.4H64c-19.4,0-35.1-15.7-35.1-35.1s15.7-35.1,35.1-35.1c2.2,0,4-1.8,4-4
		c0-27.5,22.3-49.7,49.8-49.8c6.6,0,13.1,1.3,19.2,3.8c2,0.8,4.3,0,5.3-2c10.1-22,32.1-36.1,56.3-36c34.2,0,61.9,27.8,61.9,62
		c0,7-1.3,14-3.6,20.7c-0.1,0.4-0.2,0.9-0.2,1.3c0,2.2,1.8,4.1,4,4.1h0.7c19.4,0,35.1,15.7,35.1,35.1S280.8,223.4,261.4,223.4z"/>
</g>
<path class="st4" d="M122.3,189.2c-4.8,0-9.6-1.3-13.8-3.8l-0.1-0.1c-4-2.7-7.1-6.5-8.9-10.9c-1.9-4.6-2.9-9.6-2.9-14.7
	c-0.1-5.1,1-10.3,3.3-15.1c2.2-4.4,5.7-8,9.7-10.2c4.2-2.3,8.9-3.4,13.7-3.4c0.2,0,0.5,0,0.8,0c4.7,0,9.5,1.6,13.5,4.4
	c4,3,6.9,7.4,8.3,12.4l-1.5,2.5l-6.8,1.6l-2.4-1.4c-0.8-2.9-2.4-5.4-4.6-7.2c-2-1.4-4.5-2.2-7-2.2c-0.1,0-0.5,0-0.5,0
	c-0.1,0-0.3,0-0.4,0c-3,0-6,0.9-8.5,2.6c-2.3,1.6-4,4-4.9,6.7c-1,2.9-1.5,6.1-1.5,9.5c-0.1,3.6,0.5,7.3,1.8,11.1
	c0.9,2.6,2.8,4.9,5.3,6.5c2.4,1.4,5.1,2.2,7.8,2.2l0.4,0c3,0,5.9-1,8.2-3c2.5-2.3,4.3-5.4,4.8-8.9l2.5-1.6l6.9,1.8l1.5,2.4
	c-1.2,5.5-4.2,10.5-8.5,14.1l-0.1,0.1c-4.2,3.2-9.4,4.9-14.7,4.9l-0.4,0C123,189.2,122.6,189.2,122.3,189.2z"/>
<path class="st4" d="M138.1,167.9l6.9,1.8c-1.1,5.1-3.9,9.7-7.8,13c-4,3-8.9,4.6-13.9,4.5c-4.8,0.2-9.6-1-13.8-3.5
	c-3.6-2.4-6.5-5.9-8.1-10c-1.9-4.5-2.8-9.2-2.8-14c-0.1-4.9,1-9.8,3.1-14.3c2-3.9,5.1-7.2,8.9-9.3c3.9-2.1,8.3-3.2,12.7-3.2
	c4.7-0.2,9.4,1.3,13.2,4c3.7,2.8,6.3,6.8,7.5,11.3l-6.8,1.6c-0.9-3.3-2.7-6.2-5.3-8.3c-2.5-1.8-5.6-2.7-8.7-2.6
	c-3.6-0.1-7.1,0.9-10.1,2.9c-2.7,1.9-4.7,4.6-5.7,7.8c-1.1,3.2-1.6,6.6-1.6,10.1c-0.1,4,0.6,7.9,1.9,11.7c1.1,3.1,3.3,5.7,6.1,7.5
	c2.7,1.6,5.8,2.5,8.9,2.5c3.6,0.1,7.1-1.1,9.9-3.4C135.6,175.3,137.5,171.7,138.1,167.9z"/>
<path class="st4" d="M176.7,189.3c-0.1,0-0.3,0-0.5,0c-4.7,0-9.5-1.3-13.7-3.9c-4.2-2.5-7.5-6.2-9.6-10.6c-2.3-4.2-3.4-8.9-3.4-13.9
	c-0.4-8,2.2-15.8,7.5-21.8c5-5.2,11.8-8.1,18.9-8.1c0.2,0,0.5,0,0.7,0c0.2,0,0.3,0,0.5,0c4.8,0,9.5,1.3,13.6,3.8
	c4.3,2.5,7.7,6.2,9.7,10.6c2.2,4.6,3.3,9.6,3.3,14.9c0.1,5.1-1.1,10.4-3.4,15.2c-2.2,4.4-5.8,8.1-9.9,10.4
	c-4.2,2.3-8.7,3.4-13.1,3.4C177,189.3,176.8,189.3,176.7,189.3z M176.1,141c-4,0-8,1.7-11,4.5c-3,2.9-4.5,8-4.6,15.4
	c-0.3,5.1,1.4,9.9,4.6,13.6c2.9,3.1,7,4.8,11.3,4.8c4.1,0,8-1.6,10.9-4.4l0.4-0.4c3.2-4,4.9-9,4.6-14.2l0-0.2
	c0.1-3.6-0.6-7.1-2-10.3c-1.1-2.7-3.1-5-5.6-6.5c-2.4-1.5-5-2.3-7.8-2.3c-0.1,0-0.5,0-0.5,0L176.1,141z"/>
<path class="st4" d="M151.5,160.8c-0.4-7.5,2.1-14.8,7-20.4c4.7-4.9,11.3-7.6,18.1-7.4c4.6-0.1,9.1,1.1,13.1,3.5
	c3.9,2.3,7,5.6,8.9,9.7c2.1,4.4,3.1,9.2,3.1,14.1c0.1,4.9-1,9.8-3.2,14.3c-2,4-5.2,7.4-9.1,9.5c-3.9,2.1-8.3,3.3-12.7,3.2
	c-4.7,0.1-9.2-1.2-13.2-3.6c-3.8-2.3-6.9-5.7-8.8-9.8C152.5,169.8,151.5,165.3,151.5,160.8z M158.6,160.9
	c-0.3,5.5,1.5,10.8,5.1,14.9c6.8,7.1,18,7.3,25.1,0.5c0.2-0.2,0.4-0.4,0.5-0.5c3.6-4.4,5.4-10,5.1-15.6c0.1-3.8-0.6-7.6-2.2-11.2
	c-1.3-3-3.5-5.6-6.3-7.4c-2.8-1.8-6-2.7-9.4-2.6c-4.7-0.1-9.3,1.8-12.7,5.1C160.4,147.4,158.7,153,158.6,160.9L158.6,160.9z"/>
<path class="st4" d="M214.8,190l-1-1c0-1.1,0.1-2,0.5-2.9c0.7-1.7,1.6-3.1,2.6-4.2c1.9-2,3.3-3.4,4.8-4.6c2.4-1.8,4.6-3.9,6.4-6.1
	c0.9-1,1.4-2.4,1.5-3.8c0-1.1-0.4-2.1-1.2-2.8c-0.9-0.8-2-1.2-3.3-1.2c-0.2,0-0.2,0-0.3,0c-1.2,0-2.3,0.5-3.2,1.3
	c-0.9,1-1.4,2.3-1.3,3.6l-1.1,1.1l-3.7-0.4l-0.9-1c0.1-2.7,1.3-5.2,3.2-7.1c2-1.6,4.5-2.5,7-2.5c0.1,0,0.3,0,0.4,0
	c0.1,0,0.2,0,0.4,0c2.7,0,5.1,1,7,2.7c1.8,1.7,2.8,4.1,2.8,6.5c0,1.2-0.2,2.4-0.8,3.8c-0.7,1.5-1.5,2.8-2.6,3.9
	c-2,2.1-3.8,3.8-5.7,5.3c-2,1.6-3.4,2.9-4.1,3.6c-0.1,0.1-0.2,0.2-0.3,0.3h12.5l1,1v3.5l-1,1H214.8z"/>
<path class="st4" d="M234.3,185.5v3.5h-19.5c0-0.9,0.1-1.7,0.4-2.5c0.6-1.4,1.4-2.8,2.4-3.9c1.5-1.6,3-3.1,4.7-4.5
	c2.4-1.8,4.6-3.9,6.5-6.3c1-1.2,1.6-2.8,1.7-4.4c0-1.4-0.5-2.7-1.5-3.6c-1.1-1-2.5-1.5-4-1.5c-1.5-0.1-3.1,0.5-4.2,1.6
	c-1.1,1.2-1.7,2.7-1.6,4.4l-3.7-0.4c0.1-2.4,1.1-4.7,2.9-6.4c1.9-1.5,4.3-2.3,6.7-2.2c2.5-0.1,4.9,0.7,6.7,2.4
	c1.6,1.5,2.5,3.6,2.5,5.8c0,1.2-0.3,2.4-0.7,3.5c-0.6,1.3-1.4,2.5-2.4,3.6c-1.8,1.9-3.6,3.6-5.6,5.2c-2.2,1.8-3.6,3.1-4.2,3.7
	c-0.6,0.6-1.1,1.3-1.5,2L234.3,185.5z"/>
</svg>
