<?xml version="1.0" encoding="utf-8"?>
<!-- Generator: Adobe Illustrator 24.0.1, SVG Export Plug-In . SVG Version: 6.00 Build 0)  -->
<svg version="1.1" id="Layer_1" xmlns="http://www.w3.org/2000/svg" xmlns:xlink="http://www.w3.org/1999/xlink" x="0px" y="0px"
	 viewBox="0 0 284 295" style="enable-background:new 0 0 284 295;" xml:space="preserve">
<style type="text/css">
	.st0{display:none;}
	.st1{display:inline;fill:#2F2C52;}
	.st2{display:inline;}
	.st3{fill:#2F2C52;}
	.st4{fill:#434344;}
</style>
<g class="st0">
	<path class="st1" d="M176.9,98.1c-1.5-1.5-3.9-1.5-5.4,0s-1.5,3.9,0,5.4s3.9,1.5,5.4,0c0.7-0.7,1.1-1.7,1.1-2.7
		C178,99.7,177.6,98.8,176.9,98.1z"/>
	<path class="st1" d="M91.1,151.4H60.7c-2.1,0-3.8,1.7-3.8,3.8l0,0v30.5c0,2.1,1.7,3.8,3.8,3.8h30.5c2.1,0,3.8-1.7,3.8-3.8v-30.5
		C94.9,153.1,93.2,151.4,91.1,151.4L91.1,151.4z M87.3,181.9H64.5V159h22.9L87.3,181.9L87.3,181.9z"/>
	<path class="st1" d="M226.6,123.9c-1.4-0.6-3.1-0.3-4.1,0.8l-38.8,38.8l-45.2,45.2l-23.7,23.7c-1.5,1.5-1.5,3.9,0,5.4
		c0.7,0.7,1.7,1.1,2.7,1.1h107.8c2.1,0,3.8-1.7,3.8-3.8V127.4C229,125.9,228.1,124.5,226.6,123.9L226.6,123.9z M221.4,231.4h-94.8
		l14.5-14.5l3.6,3.6c1.5,1.5,3.9,1.4,5.4-0.1c1.4-1.5,1.4-3.8,0-5.3l-3.6-3.6l9.7-9.7l3.6,3.6c1.5,1.5,3.9,1.4,5.4-0.1
		c1.4-1.5,1.4-3.8,0-5.3l-3.6-3.6l9.7-9.7l3.6,3.6c1.5,1.5,3.9,1.5,5.4,0s1.5-3.9,0-5.3l-3.6-3.6l9.7-9.7l3.6,3.6
		c1.5,1.5,3.9,1.5,5.4,0.1c1.5-1.5,1.5-3.9,0.1-5.4l-0.1-0.1l-3.6-3.6l9.7-9.7l3.6,3.6c1.5,1.5,3.9,1.4,5.4-0.1
		c1.4-1.5,1.4-3.8,0-5.3l-3.6-3.6l14.5-14.5L221.4,231.4z"/>
	<path class="st1" d="M207.6,169.9c-1.4-0.6-3.1-0.3-4.1,0.8l-42.8,42.8c-1.5,1.5-1.5,3.9,0,5.4c0.7,0.7,1.7,1.1,2.7,1.1h42.8
		c2.1,0,3.8-1.7,3.8-3.8v-42.8C210,171.8,209,170.5,207.6,169.9L207.6,169.9z M202.3,212.3h-29.8l29.8-29.8V212.3z"/>
	<path class="st1" d="M210.4,100.9c-1-1.1-2.6-1.4-4-0.9l-26,9.5c-0.5,0.2-1,0.5-1.4,0.9l-7.3,7.3l-47.8-47.8
		c-1.5-1.5-3.9-1.5-5.4,0l0,0L61,127.4H47l74.2-74.2L162,93.9c1.5,1.5,3.9,1.4,5.4-0.1s1.5-3.9,0-5.3L124,45.1
		c-1.5-1.5-3.9-1.5-5.4,0l-83.4,83.4c-1.5,1.5-1.5,3.9,0,5.4c0.7,0.7,1.7,1.1,2.7,1.1h3.8v100.2c0,2.1,1.7,3.8,3.8,3.8H106
		c2.1,0,3.8-1.6,3.9-3.8c0-2.1-1.6-3.8-3.8-3.9H106H49.2V135h13.4c1,0,2-0.4,2.7-1.1L121.2,78l45,45.1l-56.5,56.5v-34.2h26.7
		c2.1,0,3.8-1.8,3.8-3.9c0-2.1-1.7-3.7-3.8-3.8H106c-2.1,0-3.8,1.7-3.8,3.8v44.2c0,0.4,0.1,0.9,0.2,1.3l-3.4,3.4c-6,6-6,15.8,0,21.9
		s15.8,6,21.9,0l32.1-32.1c1.5-1.5,1.5-3.9,0.1-5.4c-1.5-1.5-3.9-1.5-5.4-0.1l-0.1,0.1L123.3,199l-11.1-11.1l69.6-69.6l11.1,11.1
		L166.3,156c-1.5,1.5-1.4,3.9,0.1,5.4c1.5,1.4,3.8,1.4,5.3,0l29.2-29.2c0.4-0.4,0.7-0.9,0.9-1.4l9.5-26
		C211.8,103.5,211.4,101.9,210.4,100.9L210.4,100.9z M117.9,204.4l-2.4,2.4c-3.1,3.1-8,3.1-11.1,0s-3.1-8,0-11.1l0,0l2.4-2.4
		L117.9,204.4z M196.7,122.5l-8-8l12.6-4.6L196.7,122.5z"/>
	<path class="st1" d="M162.2,165.5c-1.5-1.5-3.9-1.5-5.4,0s-1.5,3.9,0,5.4s3.9,1.5,5.4,0c0.7-0.7,1.1-1.7,1.1-2.7
		C163.3,167.1,162.9,166.2,162.2,165.5z"/>
	<path class="st1" d="M121.2,101.5c-8,0-14.5,6.5-14.5,14.5s6.5,14.5,14.5,14.5s14.5-6.5,14.5-14.5S129.2,101.5,121.2,101.5
		L121.2,101.5z M121.2,122.8c-3.8,0-6.9-3.1-6.9-6.9s3.1-6.9,6.9-6.9s6.9,3.1,6.9,6.9l0,0C128.1,119.8,125,122.8,121.2,122.8
		L121.2,122.8z"/>
</g>
<g class="st0">
	<g class="st2">
		<path class="st3" d="M239.5,82.5c-3.2-3.3-8.5-3.4-11.8-0.2c-0.1,0.1-0.1,0.1-0.2,0.2L92.1,218l-44-44c-3.3-3.2-8.6-3.1-11.8,0.2
			c-3.1,3.2-3.1,8.3,0,11.5l49.9,49.9c3.3,3.3,8.5,3.3,11.8,0L239.4,94.3C242.6,91.1,242.7,85.8,239.5,82.5z"/>
	</g>
</g>
<g class="st0">
	<g class="st2">
		<path class="st3" d="M104.6,128.7c-2.9-4.7-5.2-9.6-6.9-14.8v75.4l24.3-41.6C115.1,142.5,109.2,136.1,104.6,128.7z"/>
	</g>
</g>
<g class="st0">
	<g class="st2">
		<path class="st3" d="M164.5,34.5c-31.4,0-56.9,25.5-56.9,56.9c0,4.4,0.5,8.7,1.5,12.9c0,0.1,0,0.2,0.1,0.3
			c0.1,0.4,0.2,0.9,0.3,1.4c0,0.1,0.1,0.2,0.1,0.3c0.5,2,1.2,3.9,1.9,5.8c0,0.1,0.1,0.2,0.1,0.3c0.2,0.4,0.3,0.8,0.5,1.2
			c0.1,0.1,0.1,0.2,0.2,0.4c0.2,0.4,0.4,0.8,0.5,1.2c0.1,0.1,0.1,0.2,0.1,0.3c0.6,1.3,1.3,2.6,2,3.8c0.1,0.1,0.1,0.2,0.1,0.3
			c0.2,0.4,0.4,0.7,0.6,1c0.1,0.2,0.2,0.3,0.3,0.5c0.2,0.3,0.4,0.6,0.6,1c0.1,0.2,0.2,0.4,0.3,0.5c0.2,0.3,0.4,0.6,0.6,0.9
			c0.1,0.2,0.2,0.3,0.3,0.5c0.4,0.6,0.9,1.2,1.3,1.8c0.1,0.1,0.2,0.3,0.3,0.4c0.2,0.3,0.4,0.5,0.6,0.8c0.2,0.2,0.3,0.4,0.5,0.6
			c0.2,0.3,0.4,0.5,0.6,0.7s0.4,0.4,0.6,0.6c0.2,0.2,0.4,0.5,0.6,0.7s0.4,0.5,0.6,0.7s0.4,0.4,0.6,0.6c0.3,0.3,0.6,0.6,0.9,0.9
			c0.2,0.2,0.4,0.4,0.7,0.7c0.3,0.3,0.6,0.6,0.9,0.8c0.2,0.2,0.4,0.3,0.6,0.5c0.3,0.2,0.5,0.5,0.8,0.7c0.2,0.2,0.4,0.3,0.6,0.5
			c0.3,0.2,0.6,0.5,0.9,0.7c0.2,0.1,0.4,0.3,0.6,0.4c0.3,0.3,0.7,0.5,1,0.8c0.1,0.1,0.3,0.2,0.4,0.3c0.5,0.4,1,0.7,1.5,1
			c0.1,0.1,0.3,0.2,0.4,0.3c0.4,0.3,0.7,0.5,1.1,0.7c0.2,0.1,0.4,0.2,0.6,0.4c0.3,0.2,0.7,0.4,1,0.6c0.2,0.1,0.4,0.2,0.6,0.4
			c0.4,0.2,0.7,0.4,1.1,0.6c0.2,0.1,0.3,0.2,0.5,0.3c0.5,0.3,1.1,0.6,1.6,0.9l9.9,15.2l8.5,13.2l1.1,1.7c1.3,1.9,3.4,3.1,5.7,3.1
			s4.5-1.2,5.7-3.1l1.1-1.7l0.6-1l7.8-12.1l10-15.3c0.6-0.3,1.1-0.6,1.6-0.9c0.2-0.1,0.4-0.2,0.5-0.3c0.4-0.2,0.7-0.4,1.1-0.6
			c0.2-0.1,0.4-0.2,0.6-0.4c0.3-0.2,0.7-0.4,1-0.6c0.2-0.1,0.4-0.2,0.6-0.4c0.4-0.2,0.7-0.5,1-0.7c0.2-0.1,0.3-0.2,0.5-0.3
			c0.5-0.3,1-0.7,1.5-1c0.1-0.1,0.3-0.2,0.4-0.3c0.4-0.3,0.7-0.5,1.1-0.8c0.2-0.1,0.4-0.3,0.6-0.5c0.3-0.2,0.5-0.4,0.8-0.7
			c0.2-0.2,0.4-0.4,0.6-0.5c0.3-0.2,0.5-0.4,0.8-0.7c0.2-0.2,0.4-0.4,0.6-0.6c0.3-0.2,0.5-0.5,0.7-0.7s0.4-0.4,0.6-0.6
			c0.4-0.4,0.8-0.8,1.2-1.2c0.2-0.2,0.4-0.5,0.6-0.7c0.2-0.2,0.4-0.4,0.5-0.6c0.2-0.3,0.5-0.5,0.7-0.8c0.2-0.2,0.3-0.4,0.5-0.6
			c0.2-0.3,0.5-0.5,0.7-0.8c0.1-0.2,0.3-0.4,0.4-0.5c0.2-0.3,0.5-0.6,0.7-0.9c0.1-0.1,0.2-0.2,0.3-0.4c0.8-1.1,1.6-2.3,2.4-3.5
			c0.1-0.1,0.1-0.2,0.2-0.3c0.2-0.4,0.5-0.7,0.7-1.1c0.1-0.1,0.1-0.2,0.2-0.3c0.2-0.4,0.5-0.8,0.7-1.2c0-0.1,0.1-0.1,0.1-0.2
			c1-1.8,1.9-3.7,2.7-5.6c0,0,0,0,0-0.1c0.2-0.5,0.4-1,0.6-1.4v-0.1c1.2-3,2.1-6.1,2.7-9.3l0,0c0.7-3.6,1.1-7.3,1.1-11.1
			C221.5,60.1,195.9,34.5,164.5,34.5z M164.5,122.3c-17,0-30.9-13.9-30.9-30.9s13.9-30.9,30.9-30.9s30.9,13.9,30.9,30.9
			C195.5,108.5,181.6,122.3,164.5,122.3z"/>
	</g>
</g>
<g class="st0">
	<g class="st2">
		<path class="st3" d="M241.4,107.7l-7.8-1.9c-1.7,8.1-4.8,15.8-9.2,22.9c-6.3,10.1-14.9,18.4-25.1,24.2l-10.4,16l24.4,29.8h33.2
			v-84.4C246.6,111.2,244.5,108.4,241.4,107.7z"/>
	</g>
</g>
<g class="st0">
	<g class="st2">
		<path class="st3" d="M18,89.5c-2-0.5-4.2,0-5.8,1.3C10.5,92,9.5,94,9.5,96.1v66.1H46c1.8,0,3.6,0.7,4.9,2L84,197.9v-92.3L18,89.5z
			"/>
	</g>
</g>
<g class="st0">
	<g class="st2">
		<path class="st3" d="M147.3,180l-14.5-22.3H132l-34.3,58.9v49.1l60-14.7v-62.8C153.5,186.7,149.8,183.9,147.3,180z"/>
	</g>
</g>
<g class="st0">
	<g class="st2">
		<path class="st3" d="M210.1,212.4c-2,0-4-0.9-5.3-2.5l-23.7-29c-2.5,3.4-5.9,5.9-9.7,7.3v62.4l66.8,16.4c0.5,0.1,1.1,0.2,1.6,0.2
			c1.5,0,3-0.5,4.2-1.5c1.6-1.3,2.6-3.3,2.6-5.4v-47.9L210.1,212.4L210.1,212.4L210.1,212.4z"/>
	</g>
</g>
<g class="st0">
	<g class="st2">
		<path class="st3" d="M43.1,175.9H9.5V242c0,3.1,2.2,5.9,5.2,6.6l69.3,17v-48.2L43.1,175.9z"/>
	</g>
</g>
<g id="Outline" class="st0">
	<path class="st1" d="M142,97.2l5.9-5.9h12.3c1.9,0,3.4,1.5,3.4,3.4V105c0,1.9-1.5,3.4-3.4,3.4h-60.1c-1.9,0-3.4,1.5-3.4,3.3
		l-3.9,109.8l6.9,0.3l3.8-106.5h56.8c5.7,0,10.3-4.6,10.3-10.3V94.8c0-5.7-4.6-10.3-10.3-10.3h-13.7c-0.9,0-1.8,0.4-2.4,1l-5.9,5.9
		H95.2c2.1-2.8,3.2-6.2,3.2-9.7V66.8c0-9.2-7.4-16.6-16.6-16.6h-8c-9.2,0-16.6,7.4-16.6,16.6v14.9c0,3.5,1.1,6.9,3.2,9.7h-6.6
		c-9.5,0-17.1,7.7-17.2,17.2v58.3c0,5.7,4.6,10.3,10.3,10.3h7.5l2.8,79.1l6.9-0.3l-2.9-79.6c3.8-1.6,6.3-5.4,6.3-9.5V160
		c0-0.9-0.4-1.8-1-2.4l-5.9-5.9v-32.9h-6.9v34.3c0,0.9,0.4,1.8,1,2.4l5.9,5.9v5.4c0,1.9-1.5,3.4-3.4,3.4H46.9
		c-1.9,0-3.4-1.5-3.4-3.4v-58.3c0-5.7,4.6-10.3,10.3-10.3h85.8C140.5,98.2,141.4,97.9,142,97.2z M73.8,91.4c-5.4,0-9.7-4.4-9.7-9.7
		V66.8c0-5.4,4.4-9.7,9.7-9.7h8c5.4,0,9.7,4.4,9.7,9.7v14.9c0,5.4-4.4,9.7-9.7,9.7H73.8L73.8,91.4z"/>
	<rect x="74.4" y="173.7" class="st1" width="6.9" height="82.4"/>
	<path class="st1" d="M153.3,225.2h-6.6c2.1-2.8,3.2-6.2,3.2-9.7v-14.9c0-9.2-7.4-16.6-16.6-16.6h-8c-9.2,0-16.6,7.4-16.6,16.6v14.9
		c0,3.5,1.1,6.9,3.2,9.7h-6.6c-9.5,0-17.1,7.7-17.2,17.2v13.7H95v-13.7c0-5.7,4.6-10.3,10.3-10.3h48.1c5.7,0,10.3,4.6,10.3,10.3
		v13.7h6.9v-13.7C170.5,232.9,162.8,225.2,153.3,225.2z M125.3,225.2c-5.4,0-9.7-4.4-9.7-9.7v-14.9c0-5.4,4.4-9.7,9.7-9.7h8
		c5.4,0,9.7,4.4,9.7,9.7v14.9c0,5.4-4.4,9.7-9.7,9.7H125.3L125.3,225.2z"/>
	<path class="st1" d="M222,225.2h-6.6c2.1-2.8,3.2-6.2,3.2-9.7v-14.9c0-9.2-7.4-16.6-16.6-16.6h-8c-9.2,0-16.6,7.4-16.6,16.6v14.9
		c0,3.5,1.1,6.9,3.2,9.7H174v6.9h48c5.7,0,10.3,4.6,10.3,10.3v13.7h6.9v-13.7C239.1,232.9,231.4,225.2,222,225.2z M193.9,225.2
		c-5.4,0-9.7-4.4-9.7-9.7v-14.9c0-5.4,4.4-9.7,9.7-9.7h8c5.4,0,9.7,4.4,9.7,9.7v14.9c0,5.4-4.4,9.7-9.7,9.7H193.9L193.9,225.2z"/>
	<path class="st1" d="M242.5,46.8H112.1c-1.9,0-3.4,1.5-3.4,3.4v13.7c0,1.9,1.5,3.4,3.4,3.4h3.4v17.2h6.9V67.3h109.8V160H122.4
		v-37.8h-6.9v41.2c0,1.9,1.5,3.4,3.4,3.4h116.7c1.9,0,3.4-1.5,3.4-3.4V67.3h3.4c1.9,0,3.4-1.5,3.4-3.4V50.2
		C246,48.3,244.4,46.8,242.5,46.8z M239.1,60.5H115.6v-6.9h123.5V60.5z"/>
	<path class="st1" d="M225.4,98.2c0-13.3-10.8-24-24-24c-1.9,0-3.4,1.5-3.4,3.4v17.2h-17.2c-1.9,0-3.4,1.5-3.4,3.4
		c0,13.3,10.8,24,24,24C214.6,122.3,225.4,111.5,225.4,98.2z M184.5,101.7h16.8c1.9,0,3.4-1.5,3.4-3.4V81.4
		c9.3,1.9,15.3,11,13.4,20.3c-1.9,9.3-11,15.3-20.3,13.4C191.2,113.7,185.9,108.4,184.5,101.7z"/>
	<rect x="139.6" y="129.1" class="st1" width="6.9" height="6.9"/>
	<rect x="153.3" y="129.1" class="st1" width="68.6" height="6.9"/>
	<rect x="132.7" y="142.8" class="st1" width="75.5" height="6.9"/>
</g>
<g id="Page-1" class="st0">
	<g id="_x30_43---Bottle-Bin" class="st2">
		<path id="Shape" class="st3" d="M89.6,90l-8.2,8.2c-2.7,2.8-4.3,6.5-4.3,10.4v2.8h-7.3c-6.1,0-11,4.9-11,11s4.9,11,11,11H70
			l6.4,125.5c0.5,9.7,8.5,17.4,18.3,17.4h96.8c9.8,0,17.8-7.6,18.3-17.4l6.4-125.5h0.2c6.1,0,11-4.9,11-11s-4.9-11-11-11h-3.8
			c-0.1-0.2-0.1-0.4-0.2-0.6l-4-10.9c-0.7-1.8-0.6-3.9,0.2-5.6l3.1-6.8c0.6-0.1,1.3-0.2,1.9-0.4c1.8-0.7,3.3-2,4.1-3.8l3.1-6.7
			c0.8-1.8,0.9-3.8,0.2-5.6c-0.7-1.8-2-3.3-3.8-4.1l-13.3-6.1c-3.7-1.7-8-0.1-9.7,3.6L191,71c-1.1,2.4-0.9,5.2,0.7,7.3l-3.1,6.7
			c-0.8,1.8-2.3,3.2-4.2,3.9l-10.9,4c-0.8,0.3-1.6,0.7-2.4,1.2c-2.2-5.9-7.3-10.3-13.5-11.6v-5.1c2.3-1.3,3.7-3.7,3.7-6.3v-7.3
			c0-4.1-3.3-7.3-7.3-7.3h-14.7c-4.1,0-7.3,3.3-7.3,7.3v7.3c0,2.6,1.4,5,3.6,6.3l-0.1,5.1c-6.8,1.5-12.2,6.6-13.9,13.4l-5.8-5.8
			c-1.4-1.4-2.1-3.3-2.1-5.2v-7.5c2.3-1.3,3.7-3.7,3.7-6.3v-7.3c0-4.1-3.3-7.3-7.3-7.3H95.4c-4.1,0-7.3,3.3-7.3,7.3v7.3
			c0,2.6,1.4,5,3.7,6.3v7.5C91.7,86.8,90.9,88.6,89.6,90L89.6,90z M202.4,258.5c-0.3,5.9-5.1,10.4-11,10.4H94.6
			c-5.9,0-10.7-4.6-11-10.4l-6.4-125.2h131.6L202.4,258.5z M220,122.4c0,2-1.6,3.7-3.7,3.7H69.7c-2,0-3.7-1.6-3.7-3.7
			s1.6-3.7,3.7-3.7h146.6C218.3,118.7,220,120.4,220,122.4z M200.7,67.4l13.3,6.1l-3.1,6.7l-13.3-6.1L200.7,67.4z M176.1,99.8
			l10.9-4c3.6-1.4,6.6-4.1,8.2-7.6l2.7-5.8l6.6,3.1l-2.7,5.9c-1.6,3.5-1.8,7.6-0.4,11.2l3.3,9h-36.4l3.6-7.8
			C172.8,101.8,174.3,100.4,176.1,99.8L176.1,99.8z M139.4,63.8H154v7.3h-14.7L139.4,63.8L139.4,63.8z M128.4,100.4
			c0-5.2,3.6-9.6,8.7-10.7c3.5-0.7,6-3.7,6-7.2v-4h7.3v4c0,3.5,2.5,6.6,6,7.2c5.1,1.1,8.7,5.6,8.7,10.7v0.8l-4.7,10.2h-31.9
			L128.4,100.4L128.4,100.4z M118.9,103.4c1.4,1.4,2.1,3.2,2.1,5.2v2.8H84.4v-2.8c0-1.9,0.8-3.8,2.1-5.2l8.2-8.2
			c2.7-2.8,4.3-6.5,4.3-10.4v-6.4h7.3v6.4c0,3.9,1.6,7.6,4.3,10.4L118.9,103.4z M95.4,63.8H110v7.3H95.4V63.8z"/>
		<path id="Shape_1_" class="st3" d="M143,250.6c28.3,0,51.3-23,51.3-51.3S171.4,148,143,148s-51.3,23-51.3,51.3
			C91.7,227.7,114.7,250.6,143,250.6z M143,155.4c24.3,0,44,19.7,44,44s-19.7,44-44,44s-44-19.7-44-44
			C99.1,175.1,118.7,155.4,143,155.4z"/>
		<path id="Shape_2_" class="st3" d="M135.7,232.3h14.7c6.1,0,11-4.9,11-11v-25.6c0-4.7-2.9-8.8-7.3-10.4v-8c2,0,3.7-1.6,3.7-3.7
			S156,170,154,170h-22c-2,0-3.7,1.6-3.7,3.7s1.6,3.7,3.7,3.7v8c-4.4,1.6-7.3,5.7-7.3,10.4v25.6
			C124.7,227.4,129.6,232.3,135.7,232.3z M132,195.7c0-2,1.6-3.7,3.7-3.7s3.7-1.6,3.7-3.7v-11h7.3v11c0,2,1.6,3.7,3.7,3.7
			c2,0,3.7,1.6,3.7,3.7v25.6c0,2-1.6,3.7-3.7,3.7h-14.7c-2,0-3.7-1.6-3.7-3.7V195.7L132,195.7z"/>
	</g>
</g>
<path class="st4" d="M123.5,80.3c-1.4,0-2.5-1.1-2.5-2.5v-6.7c0-1.4,1.1-2.5,2.5-2.5s2.5,1.1,2.5,2.5v6.7
	C126,79.2,124.8,80.3,123.5,80.3z"/>
<path class="st4" d="M145.9,80.3c-1.4,0-2.5-1.1-2.5-2.5v-6.7c0-1.4,1.1-2.5,2.5-2.5s2.5,1.1,2.5,2.5v6.7
	C148.3,79.2,147.2,80.3,145.9,80.3z"/>
<path class="st4" d="M134.7,86.3c-2.5,0-4.6-2.2-4.6-4.8v-3.9c0-1.4,1.1-2.5,2.5-2.5c1.4,0,2.5,1.1,2.5,2.5v2.7l1,1h0.7
	c1.4,0,2.5,1.1,2.5,2.5s-1.1,2.5-2.5,2.5H134.7z"/>
<path class="st4" d="M134.7,97.3c-3.7,0-7.3-1.4-9.9-4.1c-0.5-0.5-0.7-1.1-0.7-1.8c0-0.7,0.3-1.3,0.7-1.8c0.5-0.5,1.1-0.7,1.8-0.7
	c0.7,0,1.3,0.3,1.8,0.7c1.7,1.7,4,2.6,6.4,2.6c2.4,0,4.7-0.9,6.4-2.6c0.5-0.5,1.1-0.7,1.8-0.7c0.7,0,1.3,0.3,1.8,0.7
	c1,1,1,2.6,0,3.5C141.9,95.9,138.4,97.3,134.7,97.3z"/>
<path class="st4" d="M202.5,261.2c-2.7,0-4.8-2.2-4.8-4.8v-27.8c0-3.9,3.2-7.1,7.1-7.1h13.3l1-1v-90.6l-1-1h-0.7c-2.6,0-5-1.6-6.1-4
	l-0.9-0.6H168l-1,1v51.3c0,2.3-1.6,4.3-3.8,4.9l-0.7,1v7.3c0,1.4-1.1,2.5-2.5,2.5s-2.5-1.1-2.5-2.5v-7.1l-1-1h-38l-0.8,1.5
	c1.8,2.9,2.8,6.2,2.8,9.6v50.8l0,0.3l1,1h2.6l1-1v-54.3c0-2.1,1.7-3.9,3.9-3.9h11.5c2.1,0,3.9,1.7,3.9,3.9v54.3l1,1h11.2l1-1v-37.4
	c0-1.4,1.1-2.5,2.5-2.5s2.5,1.1,2.5,2.5v37.4l1,1h0.7c2.7,0,4.8,2.2,4.8,4.8v6.8c0,2.7-2.2,4.8-4.8,4.8h-21.9
	c-2.7,0-4.8-2.2-4.8-4.8v-6.8c0-1.4,0.6-2.7,1.6-3.6l0.3-0.8v-53.7l-1-1H131l-1,1v53.7l0.3,0.7c1,0.9,1.6,2.2,1.6,3.6v6.8
	c0,2.7-2.2,4.8-4.8,4.8H66.6c-9.7,0-17.7-7.9-17.7-17.7v-50.8c0-8.6,6.1-15.9,14.6-17.4l0.6-1.6L63,172c-1.1-1.4-1.2-3.3-0.4-4.9
	c0.8-1.6,2.4-2.6,4.2-2.6h18.1l0.9-0.7l16.5-48.6l0.1-0.3c0.1-5.8,4.2-10.7,9.8-12.1l0.5-1.6c-2.6-3.2-4.4-6.9-5.4-10.9l-1-0.8h-1.1
	c-4.7,0-8.5-3.8-8.5-8.4V76c0-2.8,1.4-5.4,3.7-7l0.4-0.8V49.1c0-13.3,10.9-24,24.4-24c5.6,0,11.2,2,15.5,5.5l0.8,0.2
	c1.4-0.3,2.8-0.4,4.2-0.4c12.5,0,22.7,10,22.7,22.3v15.5l0.4,0.8c2.3,1.6,3.7,4.2,3.7,7v5.2c0,4.6-3.8,8.4-8.5,8.4H163l-1,0.8
	c-0.9,3.8-2.6,7.4-5,10.5l0.8,1.6h24.4c1.4,0,2.5,1.1,2.5,2.5s-1.1,2.5-2.5,2.5h-32.2l-0.5,0.1c-1.3,0.8-2.7,1.5-4.1,2.1l-0.6,0.9
	v0.4c0,5.5-4.5,9.9-10,9.9s-10-4.5-10-9.9v-0.4l-0.6-0.9c-1.4-0.6-2.8-1.3-4.1-2.1l-0.5-0.1h-4.2c-4.4,0-7.9,3.5-7.9,7.8v59.6l0.7,1
	c0.6,0.2,1.2,0.4,1.8,0.7l0.4,0.1H161l1-1v-53.9c0-1.4,1.1-2.5,2.5-2.5h45.3l1-1v-9.8l-1-1h-10.9c-1.4,0-2.5-1.1-2.5-2.5
	s1.1-2.5,2.5-2.5h11.6l0.9-0.6c1.1-2.4,3.5-3.9,6.1-3.9h0.7l1-1v-6.8c0-1.4,1.1-2.5,2.5-2.5s2.5,1.1,2.5,2.5v6.8l1,1h0.7
	c3.7,0,6.7,3,6.7,6.7v17.5c0,3.7-3,6.7-6.7,6.7h-0.7l-1,1v90.6l1,1h13.3c1.9,0,3.7,0.7,5,2.1c1.3,1.3,2.1,3.1,2.1,5v27.8
	c0,2.7-2.2,4.8-4.8,4.8H202.5z M234.9,241.3c1.4,0,2.5,1.1,2.5,2.5v11.4l1,1h1.2l1-1v-18.4l-1-1h-3c-1.4,0-2.5-1.1-2.5-2.5
	c0-1.4,1.1-2.5,2.5-2.5h3l1-1v-1.3c0-1.2-1-2.2-2.2-2.2h-33.5c-1.2,0-2.2,1-2.2,2.2v1.3l1,1h16.1c1.4,0,2.5,1.1,2.5,2.5
	c0,1.4-1.1,2.5-2.5,2.5h-16.1l-1,1v18.4l1,1h1.2l1-1v-11.4c0-1.4,1.1-2.5,2.5-2.5c1.4,0,2.5,1.1,2.5,2.5v11.4l1,1h1.9l1-1v-11.4
	c0-1.4,1.1-2.5,2.5-2.5s2.5,1.1,2.5,2.5v11.4l1,1h1.9l1-1v-11.4c0-1.4,1.1-2.5,2.5-2.5s2.5,1.1,2.5,2.5v11.4l1,1h1.9l1-1v-11.4
	C232.4,242.4,233.5,241.3,234.9,241.3z M142.3,250.7v4.4l1,1h19.6l1-1v-4.4l-1-1h-19.6L142.3,250.7z M119,250.4
	c-0.6,1.5-1.5,2.9-2.5,4.2l0.8,1.6h8.7l1-1v-4.4l-1-1h-6L119,250.4z M68.5,171.1l1,1.4c1,1.4,1.2,3.2,0.5,4.8
	c-0.7,1.6-2.3,2.6-4,2.7c-6.7,0.3-12,5.9-12,12.7v50.8c0,7,5.7,12.7,12.7,12.7h36.1c7,0,12.7-5.7,12.7-12.7v-50.8
	c0-6.8-5.3-12.3-12-12.7c-1.7-0.1-3.3-1.1-4-2.7c-0.7-1.6-0.6-3.4,0.5-4.8l1-1.4l-0.8-1.6H69.3L68.5,171.1z M91.3,163.2l0.9,1.3h9.1
	l1-1v-26.8l-1.9-0.3L91.3,163.2z M217.4,102.9c-0.9,0-1.7,0.8-1.7,1.7v17.5c0,0.9,0.8,1.7,1.7,1.7h8.3c0.9,0,1.7-0.8,1.7-1.7v-17.5
	c0-0.9-0.8-1.7-1.7-1.7H217.4z M130,112.8c0.8,1.9,2.6,3.1,4.7,3.1c2.1,0,3.9-1.2,4.7-3.1l-1.1-1.4c-1.2,0.2-2.5,0.2-3.6,0.2
	c-1.2,0-2.4-0.1-3.6-0.2L130,112.8z M111.6,58.3V84c0,12.5,10.4,22.7,23.1,22.7s23.1-10.2,23.1-22.7V58.3l-1-1h-44.2L111.6,58.3z
	 M162.7,73.6v10l1,1h0.4c1.9,0,3.5-1.5,3.5-3.4V76c0-1.9-1.6-3.4-3.5-3.4h-0.4L162.7,73.6z M105.2,72.6c-1.9,0-3.5,1.5-3.5,3.4v5.2
	c0,1.9,1.6,3.4,3.5,3.4h0.4l1-1v-10l-1-1H105.2z M125.3,30c-10.7,0-19.4,8.6-19.4,19.1v3.8l1.7,0.7c0.7-0.8,1.8-1.3,2.9-1.3h33.2
	l1-1v-2.2C144.7,38.6,136,30,125.3,30z M146.3,36.9c2.2,3.7,3.4,7.9,3.4,12.2v2.2l1,1h8.1c1.1,0,2.1,0.5,2.9,1.3l1.7-0.7v-0.2
	c0-9-7.1-16.6-16.2-17.3L146.3,36.9z"/>
</svg>
