<?xml version="1.0" encoding="utf-8"?>
<!-- Generator: Adobe Illustrator 24.0.1, SVG Export Plug-In . SVG Version: 6.00 Build 0)  -->
<svg version="1.1" id="Layer_1" xmlns="http://www.w3.org/2000/svg" xmlns:xlink="http://www.w3.org/1999/xlink" x="0px" y="0px"
	 viewBox="0 0 474 385" style="enable-background:new 0 0 474 385;" xml:space="preserve">
<style type="text/css">
	.st0{display:none;}
	.st1{display:inline;fill:#2F2C52;}
	.st2{display:inline;}
	.st3{fill:#2F2C52;}
	.st4{display:inline;fill:#2D2C4F;}
	.st5{fill:#434344;}
</style>
<g class="st0">
	<path class="st1" d="M282.9,140.1c-1.5-1.5-3.9-1.5-5.4,0s-1.5,3.9,0,5.4s3.9,1.5,5.4,0c0.7-0.7,1.1-1.7,1.1-2.7
		C284,141.7,283.6,140.8,282.9,140.1z"/>
	<path class="st1" d="M197.1,193.4h-30.5c-2.1,0-3.8,1.7-3.8,3.8l0,0v30.5c0,2.1,1.7,3.8,3.8,3.8h30.5c2.1,0,3.8-1.7,3.8-3.8v-30.5
		C200.9,195.1,199.2,193.4,197.1,193.4L197.1,193.4z M193.3,223.9h-22.9V201h22.9V223.9z"/>
	<path class="st1" d="M332.6,165.9c-1.4-0.6-3.1-0.3-4.1,0.8l-38.8,38.8l-45.2,45.2l-23.7,23.7c-1.5,1.5-1.5,3.9,0,5.4
		c0.7,0.7,1.7,1.1,2.7,1.1h107.8c2.1,0,3.8-1.7,3.8-3.8V169.4C335,167.9,334.1,166.5,332.6,165.9L332.6,165.9z M327.4,273.4h-94.8
		l14.5-14.5l3.6,3.6c1.5,1.5,3.9,1.4,5.4-0.1c1.4-1.5,1.4-3.8,0-5.3l-3.6-3.6l9.7-9.7l3.6,3.6c1.5,1.5,3.9,1.4,5.4-0.1
		c1.4-1.5,1.4-3.8,0-5.3l-3.6-3.6l9.7-9.7l3.6,3.6c1.5,1.5,3.9,1.5,5.4,0s1.5-3.9,0-5.3l-3.6-3.6l9.7-9.7l3.6,3.6
		c1.5,1.5,3.9,1.5,5.4,0.1c1.5-1.5,1.5-3.9,0.1-5.4l-0.1-0.1l-3.6-3.6l9.7-9.7l3.6,3.6c1.5,1.5,3.9,1.4,5.4-0.1
		c1.4-1.5,1.4-3.8,0-5.3l-3.6-3.6l14.5-14.5L327.4,273.4z"/>
	<path class="st1" d="M313.6,211.9c-1.4-0.6-3.1-0.3-4.1,0.8l-42.8,42.8c-1.5,1.5-1.5,3.9,0,5.4c0.7,0.7,1.7,1.1,2.7,1.1h42.8
		c2.1,0,3.8-1.7,3.8-3.8v-42.8C316,213.8,315,212.5,313.6,211.9L313.6,211.9z M308.3,254.3h-29.8l29.8-29.8V254.3z"/>
	<path class="st1" d="M316.4,142.9c-1-1.1-2.6-1.4-4-0.9l-26,9.5c-0.5,0.2-1,0.5-1.4,0.9l-7.3,7.3l-47.8-47.8
		c-1.5-1.5-3.9-1.5-5.4,0l0,0L167,169.4h-14l74.2-74.2l40.7,40.7c1.5,1.5,3.9,1.4,5.4-0.1s1.5-3.9,0-5.3l-43.4-43.4
		c-1.5-1.5-3.9-1.5-5.4,0l-83.4,83.4c-1.5,1.5-1.5,3.9,0,5.4c0.7,0.7,1.7,1.1,2.7,1.1h3.8v100.2c0,2.1,1.7,3.8,3.8,3.8H212
		c2.1,0,3.8-1.6,3.9-3.8c0-2.1-1.6-3.8-3.8-3.9H212h-56.7V177h13.4c1,0,2-0.4,2.7-1.1l55.9-55.9l45,45.1l-56.5,56.5v-34.2h26.7
		c2.1,0,3.8-1.8,3.8-3.9c0-2.1-1.7-3.7-3.8-3.8H212c-2.1,0-3.8,1.7-3.8,3.8v44.2c0,0.4,0.1,0.9,0.2,1.3l-3.4,3.4c-6,6-6,15.8,0,21.9
		c6,6.1,15.8,6,21.9,0l32.1-32.1c1.5-1.5,1.5-3.9,0.1-5.4c-1.5-1.5-3.9-1.5-5.4-0.1l-0.1,0.1L229.3,241l-11.1-11.1l69.6-69.6
		l11.1,11.1L272.3,198c-1.5,1.5-1.4,3.9,0.1,5.4c1.5,1.4,3.8,1.4,5.3,0l29.2-29.2c0.4-0.4,0.7-0.9,0.9-1.4l9.5-26
		C317.8,145.5,317.4,143.9,316.4,142.9L316.4,142.9z M223.9,246.4l-2.4,2.4c-3.1,3.1-8,3.1-11.1,0s-3.1-8,0-11.1l0,0l2.4-2.4
		L223.9,246.4z M302.7,164.5l-8-8l12.6-4.6L302.7,164.5z"/>
	<path class="st1" d="M268.2,207.5c-1.5-1.5-3.9-1.5-5.4,0s-1.5,3.9,0,5.4s3.9,1.5,5.4,0c0.7-0.7,1.1-1.7,1.1-2.7
		C269.3,209.1,268.9,208.2,268.2,207.5z"/>
	<path class="st1" d="M227.2,143.5c-8,0-14.5,6.5-14.5,14.5s6.5,14.5,14.5,14.5s14.5-6.5,14.5-14.5S235.2,143.5,227.2,143.5
		L227.2,143.5z M227.2,164.8c-3.8,0-6.9-3.1-6.9-6.9c0-3.8,3.1-6.9,6.9-6.9c3.8,0,6.9,3.1,6.9,6.9l0,0
		C234.1,161.8,231,164.8,227.2,164.8L227.2,164.8z"/>
</g>
<g class="st0">
	<g class="st2">
		<path class="st3" d="M345.5,124.5c-3.2-3.3-8.5-3.4-11.8-0.2c-0.1,0.1-0.1,0.1-0.2,0.2L198.1,260l-44-44
			c-3.3-3.2-8.6-3.1-11.8,0.2c-3.1,3.2-3.1,8.3,0,11.5l49.9,49.9c3.3,3.3,8.5,3.3,11.8,0l141.4-141.4
			C348.6,133.1,348.7,127.8,345.5,124.5z"/>
	</g>
</g>
<g class="st0">
	<g class="st2">
		<path class="st3" d="M210.6,170.7c-2.9-4.7-5.2-9.6-6.9-14.8v75.4l24.3-41.6C221.1,184.5,215.2,178.1,210.6,170.7z"/>
	</g>
</g>
<g class="st0">
	<g class="st2">
		<path class="st3" d="M270.5,76.5c-31.4,0-56.9,25.5-56.9,56.9c0,4.4,0.5,8.7,1.5,12.9c0,0.1,0,0.2,0.1,0.3
			c0.1,0.4,0.2,0.9,0.3,1.4c0,0.1,0.1,0.2,0.1,0.3c0.5,2,1.2,3.9,1.9,5.8c0,0.1,0.1,0.2,0.1,0.3c0.2,0.4,0.3,0.8,0.5,1.2
			c0.1,0.1,0.1,0.2,0.2,0.4c0.2,0.4,0.4,0.8,0.5,1.2c0.1,0.1,0.1,0.2,0.1,0.3c0.6,1.3,1.3,2.6,2,3.8c0.1,0.1,0.1,0.2,0.1,0.3
			c0.2,0.4,0.4,0.7,0.6,1c0.1,0.2,0.2,0.3,0.3,0.5c0.2,0.3,0.4,0.6,0.6,1c0.1,0.2,0.2,0.4,0.3,0.5c0.2,0.3,0.4,0.6,0.6,0.9
			c0.1,0.2,0.2,0.3,0.3,0.5c0.4,0.6,0.9,1.2,1.3,1.8c0.1,0.1,0.2,0.3,0.3,0.4c0.2,0.3,0.4,0.5,0.6,0.8c0.2,0.2,0.3,0.4,0.5,0.6
			c0.2,0.3,0.4,0.5,0.6,0.7c0.2,0.2,0.4,0.4,0.6,0.6c0.2,0.2,0.4,0.5,0.6,0.7s0.4,0.5,0.6,0.7c0.2,0.2,0.4,0.4,0.6,0.6
			c0.3,0.3,0.6,0.6,0.9,0.9c0.2,0.2,0.4,0.4,0.7,0.7s0.6,0.6,0.9,0.8c0.2,0.2,0.4,0.3,0.6,0.5c0.3,0.2,0.5,0.5,0.8,0.7
			c0.2,0.2,0.4,0.3,0.6,0.5c0.3,0.2,0.6,0.5,0.9,0.7c0.2,0.1,0.4,0.3,0.6,0.4c0.3,0.3,0.7,0.5,1,0.8c0.1,0.1,0.3,0.2,0.4,0.3
			c0.5,0.4,1,0.7,1.5,1c0.1,0.1,0.3,0.2,0.4,0.3c0.4,0.3,0.7,0.5,1.1,0.7c0.2,0.1,0.4,0.2,0.6,0.4c0.3,0.2,0.7,0.4,1,0.6
			c0.2,0.1,0.4,0.2,0.6,0.4c0.4,0.2,0.7,0.4,1.1,0.6c0.2,0.1,0.3,0.2,0.5,0.3c0.5,0.3,1.1,0.6,1.6,0.9l9.9,15.2l8.5,13.2l1.1,1.7
			c1.3,1.9,3.4,3.1,5.7,3.1c2.3,0,4.5-1.2,5.7-3.1l1.1-1.7l0.6-1l7.8-12.1l10-15.3c0.6-0.3,1.1-0.6,1.6-0.9c0.2-0.1,0.4-0.2,0.5-0.3
			c0.4-0.2,0.7-0.4,1.1-0.6c0.2-0.1,0.4-0.2,0.6-0.4c0.3-0.2,0.7-0.4,1-0.6c0.2-0.1,0.4-0.2,0.6-0.4c0.4-0.2,0.7-0.5,1-0.7
			c0.2-0.1,0.3-0.2,0.5-0.3c0.5-0.3,1-0.7,1.5-1c0.1-0.1,0.3-0.2,0.4-0.3c0.4-0.3,0.7-0.5,1.1-0.8c0.2-0.1,0.4-0.3,0.6-0.5
			c0.3-0.2,0.5-0.4,0.8-0.7c0.2-0.2,0.4-0.4,0.6-0.5c0.3-0.2,0.5-0.4,0.8-0.7c0.2-0.2,0.4-0.4,0.6-0.6c0.3-0.2,0.5-0.5,0.7-0.7
			s0.4-0.4,0.6-0.6c0.4-0.4,0.8-0.8,1.2-1.2c0.2-0.2,0.4-0.5,0.6-0.7s0.4-0.4,0.5-0.6c0.2-0.3,0.5-0.5,0.7-0.8
			c0.2-0.2,0.3-0.4,0.5-0.6c0.2-0.3,0.5-0.5,0.7-0.8c0.1-0.2,0.3-0.4,0.4-0.5c0.2-0.3,0.5-0.6,0.7-0.9c0.1-0.1,0.2-0.2,0.3-0.4
			c0.8-1.1,1.6-2.3,2.4-3.5c0.1-0.1,0.1-0.2,0.2-0.3c0.2-0.4,0.5-0.7,0.7-1.1c0.1-0.1,0.1-0.2,0.2-0.3c0.2-0.4,0.5-0.8,0.7-1.2
			c0-0.1,0.1-0.1,0.1-0.2c1-1.8,1.9-3.7,2.7-5.6c0,0,0,0,0-0.1c0.2-0.5,0.4-1,0.6-1.4v-0.1c1.2-3,2.1-6.1,2.7-9.3l0,0
			c0.7-3.6,1.1-7.3,1.1-11.1C327.5,102.1,301.9,76.5,270.5,76.5z M270.5,164.3c-17,0-30.9-13.9-30.9-30.9s13.9-30.9,30.9-30.9
			s30.9,13.9,30.9,30.9C301.5,150.5,287.6,164.3,270.5,164.3z"/>
	</g>
</g>
<g class="st0">
	<g class="st2">
		<path class="st3" d="M347.4,149.7l-7.8-1.9c-1.7,8.1-4.8,15.8-9.2,22.9c-6.3,10.1-14.9,18.4-25.1,24.2l-10.4,16l24.4,29.8h33.2
			v-84.4C352.6,153.2,350.5,150.4,347.4,149.7z"/>
	</g>
</g>
<g class="st0">
	<g class="st2">
		<path class="st3" d="M124,131.5c-2-0.5-4.2,0-5.8,1.3c-1.7,1.3-2.6,3.3-2.6,5.4v66.1H152c1.8,0,3.6,0.7,4.9,2L190,240v-92.3
			L124,131.5z"/>
	</g>
</g>
<g class="st0">
	<g class="st2">
		<path class="st3" d="M253.3,222l-14.5-22.3H238l-34.3,58.9v49.1l60-14.7v-62.8C259.5,228.7,255.8,225.9,253.3,222z"/>
	</g>
</g>
<g class="st0">
	<g class="st2">
		<path class="st3" d="M316.1,254.4c-2,0-4-0.9-5.3-2.5l-23.7-29c-2.5,3.4-5.9,5.9-9.7,7.3v62.4l66.8,16.4c0.5,0.1,1.1,0.2,1.6,0.2
			c1.5,0,3-0.5,4.2-1.5c1.6-1.3,2.6-3.3,2.6-5.4v-47.9L316.1,254.4L316.1,254.4L316.1,254.4z"/>
	</g>
</g>
<g class="st0">
	<g class="st2">
		<path class="st3" d="M149.1,217.9h-33.6V284c0,3.1,2.2,5.9,5.2,6.6l69.3,17v-48.2L149.1,217.9z"/>
	</g>
</g>
<g id="Outline" class="st0">
	<path class="st1" d="M248,139.2l5.9-5.9h12.3c1.9,0,3.4,1.5,3.4,3.4V147c0,1.9-1.5,3.4-3.4,3.4h-60.1c-1.9,0-3.4,1.5-3.4,3.3
		l-3.9,109.8l6.9,0.3l3.8-106.5h56.8c5.7,0,10.3-4.6,10.3-10.3v-10.3c0-5.7-4.6-10.3-10.3-10.3h-13.7c-0.9,0-1.8,0.4-2.4,1l-5.9,5.9
		h-42.9c2.1-2.8,3.2-6.2,3.2-9.7v-14.9c0-9.2-7.4-16.6-16.6-16.6h-8c-9.2,0-16.6,7.4-16.6,16.6v14.9c0,3.5,1.1,6.9,3.2,9.7H160
		c-9.5,0-17.1,7.7-17.2,17.2v58.3c0,5.7,4.6,10.3,10.3,10.3h7.5l2.8,79.1l6.9-0.3l-2.9-79.6c3.8-1.6,6.3-5.4,6.3-9.5V202
		c0-0.9-0.4-1.8-1-2.4l-5.9-5.9v-32.9h-6.9v34.3c0,0.9,0.4,1.8,1,2.4l5.9,5.9v5.4c0,1.9-1.5,3.4-3.4,3.4h-10.3
		c-1.9,0-3.4-1.5-3.4-3.4v-58.3c0-5.7,4.6-10.3,10.3-10.3h85.8C246.5,140.2,247.4,139.9,248,139.2z M179.8,133.4
		c-5.4,0-9.7-4.4-9.7-9.7v-14.9c0-5.4,4.4-9.7,9.7-9.7h8c5.4,0,9.7,4.4,9.7,9.7v14.9c0,5.4-4.4,9.7-9.7,9.7H179.8L179.8,133.4z"/>
	<rect x="180.4" y="215.7" class="st1" width="6.9" height="82.4"/>
	<path class="st1" d="M259.3,267.2h-6.6c2.1-2.8,3.2-6.2,3.2-9.7v-14.9c0-9.2-7.4-16.6-16.6-16.6h-8c-9.2,0-16.6,7.4-16.6,16.6v14.9
		c0,3.5,1.1,6.9,3.2,9.7h-6.6c-9.5,0-17.1,7.7-17.2,17.2v13.7h6.9v-13.7c0-5.7,4.6-10.3,10.3-10.3h48.1c5.7,0,10.3,4.6,10.3,10.3
		v13.7h6.9v-13.7C276.5,274.9,268.8,267.2,259.3,267.2z M231.3,267.2c-5.4,0-9.7-4.4-9.7-9.7v-14.9c0-5.4,4.4-9.7,9.7-9.7h8
		c5.4,0,9.7,4.4,9.7,9.7v14.9c0,5.4-4.4,9.7-9.7,9.7H231.3L231.3,267.2z"/>
	<path class="st1" d="M328,267.2h-6.6c2.1-2.8,3.2-6.2,3.2-9.7v-14.9c0-9.2-7.4-16.6-16.6-16.6h-8c-9.2,0-16.6,7.4-16.6,16.6v14.9
		c0,3.5,1.1,6.9,3.2,9.7H280v6.9h48c5.7,0,10.3,4.6,10.3,10.3v13.7h6.9v-13.7C345.1,274.9,337.4,267.2,328,267.2z M299.9,267.2
		c-5.4,0-9.7-4.4-9.7-9.7v-14.9c0-5.4,4.4-9.7,9.7-9.7h8c5.4,0,9.7,4.4,9.7,9.7v14.9c0,5.4-4.4,9.7-9.7,9.7H299.9L299.9,267.2z"/>
	<path class="st1" d="M348.5,88.8H218.1c-1.9,0-3.4,1.5-3.4,3.4v13.7c0,1.9,1.5,3.4,3.4,3.4h3.4v17.2h6.9v-17.2h109.8V202H228.4
		v-37.8h-6.9v41.2c0,1.9,1.5,3.4,3.4,3.4h116.7c1.9,0,3.4-1.5,3.4-3.4v-96.1h3.4c1.9,0,3.4-1.5,3.4-3.4V92.2
		C352,90.3,350.4,88.8,348.5,88.8z M345.1,102.5H221.6v-6.9h123.5V102.5z"/>
	<path class="st1" d="M331.4,140.2c0-13.3-10.8-24-24-24c-1.9,0-3.4,1.5-3.4,3.4v17.2h-17.2c-1.9,0-3.4,1.5-3.4,3.4
		c0,13.3,10.8,24,24,24C320.6,164.3,331.4,153.5,331.4,140.2z M290.5,143.7h16.8c1.9,0,3.4-1.5,3.4-3.4v-16.8
		c9.3,1.9,15.3,11,13.4,20.3s-11,15.3-20.3,13.4C297.2,155.7,291.9,150.4,290.5,143.7z"/>
	<rect x="245.6" y="171.1" class="st1" width="6.9" height="6.9"/>
	<rect x="259.3" y="171.1" class="st1" width="68.6" height="6.9"/>
	<rect x="238.7" y="184.8" class="st1" width="75.5" height="6.9"/>
</g>
<g id="Page-1" class="st0">
	<g id="_x30_43---Bottle-Bin" class="st2">
		<path id="Shape" class="st3" d="M195.6,132l-8.2,8.2c-2.7,2.8-4.3,6.5-4.3,10.4v2.8h-7.3c-6.1,0-11,4.9-11,11s4.9,11,11,11h0.2
			l6.4,125.5c0.5,9.7,8.5,17.4,18.3,17.4h96.8c9.8,0,17.8-7.6,18.3-17.4l6.4-125.5h0.2c6.1,0,11-4.9,11-11s-4.9-11-11-11h-3.8
			c-0.1-0.2-0.1-0.4-0.2-0.6l-4-10.9c-0.7-1.8-0.6-3.9,0.2-5.6l3.1-6.8c0.6-0.1,1.3-0.2,1.9-0.4c1.8-0.7,3.3-2,4.1-3.8l3.1-6.7
			c0.8-1.8,0.9-3.8,0.2-5.6c-0.7-1.8-2-3.3-3.8-4.1l-13.3-6.1c-3.7-1.7-8-0.1-9.7,3.6L297,113c-1.1,2.4-0.9,5.2,0.7,7.3l-3.1,6.7
			c-0.8,1.8-2.3,3.2-4.2,3.9l-10.9,4c-0.8,0.3-1.6,0.7-2.4,1.2c-2.2-5.9-7.3-10.3-13.5-11.6v-5.1c2.3-1.3,3.7-3.7,3.7-6.3v-7.3
			c0-4.1-3.3-7.3-7.3-7.3h-14.7c-4.1,0-7.3,3.3-7.3,7.3v7.3c0,2.6,1.4,5,3.6,6.3l-0.1,5.1c-6.8,1.5-12.2,6.6-13.9,13.4l-5.8-5.8
			c-1.4-1.4-2.1-3.3-2.1-5.2v-7.5c2.3-1.3,3.7-3.7,3.7-6.3v-7.3c0-4.1-3.3-7.3-7.3-7.3h-14.7c-4.1,0-7.3,3.3-7.3,7.3v7.3
			c0,2.6,1.4,5,3.7,6.3v7.5C197.7,128.8,196.9,130.6,195.6,132L195.6,132z M308.4,300.5c-0.3,5.9-5.1,10.4-11,10.4h-96.8
			c-5.9,0-10.7-4.6-11-10.4l-6.4-125.2h131.6L308.4,300.5z M326,164.4c0,2-1.6,3.7-3.7,3.7H175.7c-2,0-3.7-1.6-3.7-3.7
			s1.6-3.7,3.7-3.7h146.6C324.3,160.7,326,162.4,326,164.4z M306.7,109.4l13.3,6.1l-3.1,6.7l-13.3-6.1L306.7,109.4z M282.1,141.8
			l10.9-4c3.6-1.4,6.6-4.1,8.2-7.6l2.7-5.8l6.6,3.1l-2.7,5.9c-1.6,3.5-1.8,7.6-0.4,11.2l3.3,9h-36.4l3.6-7.8
			C278.8,143.8,280.3,142.4,282.1,141.8L282.1,141.8z M245.4,105.8H260v7.3h-14.7L245.4,105.8L245.4,105.8z M234.4,142.4
			c0-5.2,3.6-9.6,8.7-10.7c3.5-0.7,6-3.7,6-7.2v-4h7.3v4c0,3.5,2.5,6.6,6,7.2c5.1,1.1,8.7,5.6,8.7,10.7v0.8l-4.7,10.2h-31.9
			L234.4,142.4L234.4,142.4z M224.9,145.4c1.4,1.4,2.1,3.2,2.1,5.2v2.8h-36.6v-2.8c0-1.9,0.8-3.8,2.1-5.2l8.2-8.2
			c2.7-2.8,4.3-6.5,4.3-10.4v-6.4h7.3v6.4c0,3.9,1.6,7.6,4.3,10.4L224.9,145.4z M201.4,105.8H216v7.3h-14.7L201.4,105.8L201.4,105.8
			z"/>
		<path id="Shape_1_" class="st3" d="M249,292.6c28.3,0,51.3-23,51.3-51.3S277.4,190,249,190s-51.3,23-51.3,51.3
			C197.7,269.7,220.7,292.6,249,292.6z M249,197.4c24.3,0,44,19.7,44,44s-19.7,44-44,44s-44-19.7-44-44
			C205.1,217.1,224.7,197.4,249,197.4z"/>
		<path id="Shape_2_" class="st3" d="M241.7,274.3h14.7c6.1,0,11-4.9,11-11v-25.6c0-4.7-2.9-8.8-7.3-10.4v-8c2,0,3.7-1.6,3.7-3.7
			S262,212,260,212h-22c-2,0-3.7,1.6-3.7,3.7s1.6,3.7,3.7,3.7v8c-4.4,1.6-7.3,5.7-7.3,10.4v25.6
			C230.7,269.4,235.6,274.3,241.7,274.3z M238,237.7c0-2,1.6-3.7,3.7-3.7s3.7-1.6,3.7-3.7v-11h7.3v11c0,2,1.6,3.7,3.7,3.7
			c2,0,3.7,1.6,3.7,3.7v25.6c0,2-1.6,3.7-3.7,3.7h-14.7c-2,0-3.7-1.6-3.7-3.7V237.7L238,237.7z"/>
	</g>
</g>
<g class="st0">
	<path class="st4" d="M250.9,243.6c0,22.5,0,43.9,0,65.6c-6.4,0-12.3,0-18.6,0c0-18.4,0-36.7,0-55.3c-6.3,0-12.2,0-18.7,0
		c0,18.3,0,36.7,0,55.3c-6.4,0-12.2,0-18.8,0c0-2.1,0-4.2,0-6.3c0-25.8-0.1-51.7,0.1-77.5c0-4-1.3-5.8-5-7.2
		c-12.7-5-25.2-10.5-37.9-15.6c-2.9-1.1-4.2-2.5-4-5.7c0.3-5.6-1.8-12.7,0.9-16.6c2.8-4.1,10-5.2,15.3-7.5
		c6.1-2.6,12.5-4.7,18.4-7.7c8.1-4.1,16.6-5.3,25.6-5c13.5,0.4,27,0.5,40.5,0c21.8-0.9,40.3,16.5,39.5,39.6
		c-0.4,11.5,0.1,23-0.2,34.5c-0.1,3.7,1.4,5,4.5,6.5c15.5,7.6,31.7,10.6,48.9,9.7c10-0.5,20-0.1,31-0.1c-0.6,4.6-0.8,8.8-1.6,12.9
		c-3.6,17.1-12.5,31.4-24.3,44.1c-1.9,2-3.4,1.9-5.6,0.8c-18.6-8.8-32.5-22.5-41.4-41c-1.5-3.1-3.4-4.9-6.5-6.2
		C279.3,255.4,265.6,249.7,250.9,243.6z M250.9,179.2c0,14.3,0,28.2,0.1,42.1c0,0.9,0.9,2.3,1.8,2.6c5.3,2.3,10.6,4.4,16.4,6.8
		c0-12.7,0.5-24.6-0.2-36.6C268.5,185.7,260.9,179.8,250.9,179.2z M194.5,180.6c-7.8,3.2-15,6.2-23.4,9.7c8.5,3.4,15.8,6.4,23.4,9.6
		C194.5,193.1,194.5,187.2,194.5,180.6z"/>
	<path class="st4" d="M222.7,85.5c15.4-0.1,27.9,12.2,28.2,27.7c0.2,15.5-12.5,28.3-28.1,28.3c-15.4-0.1-27.8-12.5-27.8-28
		C194.9,98.1,207.3,85.6,222.7,85.5z"/>
	<path class="st4" d="M334.7,234.8c-5.1-0.1-9.2-4.2-9.2-9.3c0-5.3,4.3-9.4,9.7-9.2c5,0.2,9.1,4.5,8.9,9.5
		C344,230.8,339.8,234.8,334.7,234.8z"/>
	<path class="st4" d="M364.9,202.1c-3.1,2.2-5,4.6-6.4,4.3c-1.8-0.3-3.2-2.8-4.8-4.3c1.5-1.5,2.9-4.2,4.4-4.3
		C359.8,197.8,361.6,200,364.9,202.1z"/>
	<path class="st4" d="M367.5,223.5c2.1,3.2,4.4,5,4.3,6.8c0,1.5-2.9,4.3-4.1,4.1c-1.8-0.3-4.1-2.6-4.4-4.4
		C363,228.6,365.3,226.6,367.5,223.5z"/>
</g>
<path class="st5" d="M226.9,358.5c-3,0-5.3-2.3-5.3-5.3v-54.5l-1-1h-76.7l-1,1v54.5c0,3-2.3,5.3-5.3,5.3c-3,0-5.3-2.3-5.3-5.3v-79.6
	l-1-1H47.9l-1,1v79.6c0,3-2.3,5.3-5.3,5.3c-3,0-5.3-2.3-5.3-5.3V235.9l-1-1H29c-3,0-5.3-2.3-5.3-5.3v-25.1c0-1.4,0.5-2.7,1.5-3.7
	c1-1,2.3-1.5,3.7-1.5H131l1-1v-25.4l-0.9-1c-16.8-1.5-32.4-9.3-43.9-21.8c-11.6-12.6-18-28.9-18-46c0-3,2.3-5.3,5.3-5.3
	s5.3,2.3,5.3,5.3c0,29.9,22.4,54.5,52.1,57.3l1.1-0.7c2.7-9.3,11.4-15.8,21.1-15.8H196c12.1,0,22,9.9,22,22v62.8
	c0,11.7-4.6,22.6-12.9,30.7l0.7,1.7h20.8c2.9,0,5.3,2.3,5.6,5.3l0,85.8C232.2,356.2,229.9,358.5,226.9,358.5z M142.7,273.6v12.6l1,1
	h76.7l1-1v-12.6l-1-1h-76.7L142.7,273.6z M154.2,155.4c-6.3,0-11.5,5.2-11.5,11.5v94.2l1,1h31.4c17.9,0,32.4-14.5,32.4-32.4v-62.8
	c0-6.3-5.2-11.5-11.5-11.5H154.2z M46.8,236v25.1l1,1h83.4l1-1V236l-1-1H47.8L46.8,236z M34.2,210.8v12.6l1,1h95.9l1-1v-12.6l-1-1
	H35.2L34.2,210.8z"/>
<path class="st5" d="M78.8,358.4c-2.3,0-4.3-1.5-5.1-3.6c-0.4-1.3-0.3-2.7,0.3-3.9c0.6-1.3,1.7-2.3,3.1-2.7l20.8-6.9l0.7-0.9v-47.8
	c0-3,2.3-5.3,5.3-5.3c2.9,0,5.3,2.3,5.3,5.1v52.4c0,2.3-1.5,4.3-3.6,5.1l-25.1,8.4C79.9,358.3,79.4,358.4,78.8,358.4z"/>
<path class="st5" d="M445.3,358.6c-3,0-5.3-2.3-5.3-5.3v-54.5l-1-1h-76.5l-1,1v54.5c0,3-2.3,5.3-5.3,5.3s-5.3-2.3-5.3-5.3v-79.6
	l-1-1h-83.4l-1,1v79.6c0,3-2.3,5.3-5.3,5.3s-5.3-2.3-5.3-5.3V236l-1-1h-6.3c-3,0-5.3-2.3-5.3-5.3v-25.1c0-3,2.3-5.3,5.3-5.3h102.1
	l1-1v-25.4l-0.9-1c-16.8-1.5-32.4-9.3-43.9-21.8c-11.6-12.6-18-28.9-18-46c0-3,2.3-5.3,5.3-5.3s5.3,2.3,5.3,5.3
	c0,29.9,22.4,54.5,52.1,57.3l1.1-0.7c2.7-9.3,11.4-15.8,21.1-15.8h41.9c12.1,0,22,9.9,22,22v62.8c0,11.7-4.6,22.6-12.9,30.7l0.7,1.7
	h20.8c2.9,0,5.3,2.4,5.3,5.3v85.9C450.6,356.3,448.3,358.6,445.3,358.6z M361.3,273.6v12.6l1,1H439l1-1v-12.6l-1-1h-76.7
	L361.3,273.6z M361.3,236v25.1l1,1h31.4c15.4,0,28.7-10.9,31.8-25.9l-1-1.2h-62.2L361.3,236z M265.4,236v25.1l1,1h83.4l1-1V236l-1-1
	h-83.4L265.4,236z M372.8,155.4c-3.1,0-6,1.2-8.2,3.4c-2.1,2.2-3.3,5.1-3.2,8.1v56.5l1,1h62.8l1-1v-56.5c0-6.3-5.2-11.5-11.5-11.5
	H372.8z M252.8,210.8v12.6l1,1h95.9l1-1v-12.6l-1-1h-95.9L252.8,210.8z"/>
<path class="st5" d="M297.4,358.4c-2.3,0-4.3-1.5-5.1-3.6c-0.4-1.3-0.3-2.7,0.3-3.9c0.6-1.3,1.7-2.3,3.1-2.7l20.8-6.9l0.7-0.9v-47.8
	c0-3,2.3-5.3,5.3-5.3c2.9,0,5.3,2.3,5.3,5.1v52.4c0,2.3-1.5,4.3-3.6,5.1l-25.1,8.4C298.5,358.3,298,358.4,297.4,358.4z"/>
<path class="st5" d="M393.8,130.2c-23.7,0-43-19.3-43-43c0-13.1,6-25.4,16.4-33.7l0.2-1.3l-1.3-2.2c-0.7-1.2-0.9-2.6-0.5-4
	c0.4-1.4,1.2-2.5,2.4-3.2c0.8-0.5,1.7-0.7,2.6-0.7c1.9,0,3.7,1,4.6,2.6l1.3,2.2l1.2,0.4c3-1.2,6.3-2.1,9.8-2.6l0.9-1v-2.5
	c0-3,2.3-5.3,5.3-5.3s5.3,2.3,5.3,5.3v2.5l0.9,1c3.4,0.5,6.6,1.3,9.8,2.6l1.2-0.4l1.3-2.2c1-1.6,2.7-2.6,4.6-2.6
	c0.9,0,1.8,0.2,2.6,0.7c2.5,1.5,3.4,4.7,1.9,7.2l-1.3,2.2l0.2,1.3c10.4,8.2,16.4,20.5,16.4,33.7
	C436.8,110.9,417.5,130.2,393.8,130.2z M393.8,54.8c-17.9,0-32.4,14.5-32.4,32.4c0,17.9,14.5,32.4,32.4,32.4s32.4-14.5,32.4-32.4
	C426.2,69.3,411.7,54.8,393.8,54.8z"/>
<path class="st5" d="M229.5,142.8c-12.1,0-22-9.9-22-22V118l-1.7-0.7c-8.2,8.3-19.1,12.9-30.7,12.9c-23.8,0-43.1-19.2-43.1-42.9
	c0-23.7,19.3-43,43-43c21.4,0,39.7,16,42.6,37.2l0.8,0.9c18.8,2.8,33,19.4,33,38.4C251.5,132.9,241.6,142.8,229.5,142.8z M218,94.3
	v26.5c0,6.3,5.2,11.5,11.5,11.5s11.5-5.2,11.5-11.5c0-13.2-9-24.5-21.8-27.5L218,94.3z M151.1,65.5c-5.4,6-8.4,13.8-8.4,21.8
	c0,17.9,14.5,32.4,32.4,32.4c15.5,0,28.8-11,31.8-26.2l-0.9-1.2c-20.7-1.8-39.7-11.3-53.4-26.8L151.1,65.5z M175.1,54.8
	c-4.6,0-9.1,1-13.5,3l-0.3,1.6c11.6,12.6,27.4,20.5,44.4,22.2l1.1-1.2C203.6,65.6,190.3,54.8,175.1,54.8z"/>
</svg>
