<?xml version="1.0" encoding="utf-8"?>
<!-- Generator: Adobe Illustrator 24.0.1, SVG Export Plug-In . SVG Version: 6.00 Build 0)  -->
<svg version="1.1" id="Layer_1" xmlns="http://www.w3.org/2000/svg" xmlns:xlink="http://www.w3.org/1999/xlink" x="0px" y="0px"
	 viewBox="0 0 292 292" style="enable-background:new 0 0 292 292;" xml:space="preserve">
<style type="text/css">
	.st0{display:none;}
	.st1{display:inline;fill:#2F2C52;}
	.st2{display:inline;}
	.st3{fill:#2F2C52;}
	.st4{display:none;fill:#2F2C52;}
	.st5{fill:#434344;}
</style>
<g class="st0">
	<path class="st1" d="M191.9,99.1c-1.5-1.5-3.9-1.5-5.4,0s-1.5,3.9,0,5.4s3.9,1.5,5.4,0c0.7-0.7,1.1-1.7,1.1-2.7
		C193,100.7,192.6,99.8,191.9,99.1z"/>
	<path class="st1" d="M106.1,152.4H75.7c-2.1,0-3.8,1.7-3.8,3.8l0,0v30.5c0,2.1,1.7,3.8,3.8,3.8h30.5c2.1,0,3.8-1.7,3.8-3.8v-30.5
		C109.9,154.1,108.2,152.4,106.1,152.4L106.1,152.4z M102.3,182.9H79.5V160h22.9L102.3,182.9L102.3,182.9z"/>
	<path class="st1" d="M241.6,124.9c-1.4-0.6-3.1-0.3-4.1,0.8l-38.8,38.8l-45.2,45.2l-23.7,23.7c-1.5,1.5-1.5,3.9,0,5.4
		c0.7,0.7,1.7,1.1,2.7,1.1h107.8c2.1,0,3.8-1.7,3.8-3.8V128.4C244,126.9,243.1,125.5,241.6,124.9L241.6,124.9z M236.4,232.4h-94.8
		l14.5-14.5l3.6,3.6c1.5,1.5,3.9,1.4,5.4-0.1c1.4-1.5,1.4-3.8,0-5.3l-3.6-3.6l9.7-9.7l3.6,3.6c1.5,1.5,3.9,1.4,5.4-0.1
		c1.4-1.5,1.4-3.8,0-5.3l-3.6-3.6l9.7-9.7l3.6,3.6c1.5,1.5,3.9,1.5,5.4,0s1.5-3.9,0-5.3l-3.6-3.6l9.7-9.7l3.6,3.6
		c1.5,1.5,3.9,1.5,5.4,0.1c1.5-1.5,1.5-3.9,0.1-5.4l-0.1-0.1l-3.6-3.6l9.7-9.7l3.6,3.6c1.5,1.5,3.9,1.4,5.4-0.1
		c1.4-1.5,1.4-3.8,0-5.3l-3.6-3.6l14.5-14.5L236.4,232.4z"/>
	<path class="st1" d="M222.6,170.9c-1.4-0.6-3.1-0.3-4.1,0.8l-42.8,42.8c-1.5,1.5-1.5,3.9,0,5.4c0.7,0.7,1.7,1.1,2.7,1.1h42.8
		c2.1,0,3.8-1.7,3.8-3.8v-42.8C225,172.8,224,171.5,222.6,170.9L222.6,170.9z M217.3,213.3h-29.8l29.8-29.8V213.3z"/>
	<path class="st1" d="M225.4,101.9c-1-1.1-2.6-1.4-4-0.9l-26,9.5c-0.5,0.2-1,0.5-1.4,0.9l-7.3,7.3l-47.8-47.8
		c-1.5-1.5-3.9-1.5-5.4,0l0,0L76,128.4H62l74.2-74.2L177,94.9c1.5,1.5,3.9,1.4,5.4-0.1s1.5-3.9,0-5.3L139,46.1
		c-1.5-1.5-3.9-1.5-5.4,0l-83.4,83.4c-1.5,1.5-1.5,3.9,0,5.4c0.7,0.7,1.7,1.1,2.7,1.1h3.8v100.2c0,2.1,1.7,3.8,3.8,3.8H121
		c2.1,0,3.8-1.6,3.9-3.8c0-2.1-1.6-3.8-3.8-3.9H121H64.2V136h13.4c1,0,2-0.4,2.7-1.1L136.2,79l45,45.1l-56.5,56.5v-34.2h26.7
		c2.1,0,3.8-1.8,3.8-3.9c0-2.1-1.7-3.7-3.8-3.8H121c-2.1,0-3.8,1.7-3.8,3.8v44.2c0,0.4,0.1,0.9,0.2,1.3l-3.4,3.4c-6,6-6,15.8,0,21.9
		s15.8,6,21.9,0l32.1-32.1c1.5-1.5,1.5-3.9,0.1-5.4c-1.5-1.5-3.9-1.5-5.4-0.1l-0.1,0.1L138.3,200l-11.1-11.1l69.6-69.6l11.1,11.1
		L181.3,157c-1.5,1.5-1.4,3.9,0.1,5.4c1.5,1.4,3.8,1.4,5.3,0l29.2-29.2c0.4-0.4,0.7-0.9,0.9-1.4l9.5-26
		C226.8,104.5,226.4,102.9,225.4,101.9L225.4,101.9z M132.9,205.4l-2.4,2.4c-3.1,3.1-8,3.1-11.1,0s-3.1-8,0-11.1l0,0l2.4-2.4
		L132.9,205.4z M211.7,123.5l-8-8l12.6-4.6L211.7,123.5z"/>
	<path class="st1" d="M177.2,166.5c-1.5-1.5-3.9-1.5-5.4,0s-1.5,3.9,0,5.4s3.9,1.5,5.4,0c0.7-0.7,1.1-1.7,1.1-2.7
		C178.3,168.1,177.9,167.2,177.2,166.5z"/>
	<path class="st1" d="M136.2,102.5c-8,0-14.5,6.5-14.5,14.5s6.5,14.5,14.5,14.5s14.5-6.5,14.5-14.5S144.2,102.5,136.2,102.5
		L136.2,102.5z M136.2,123.8c-3.8,0-6.9-3.1-6.9-6.9s3.1-6.9,6.9-6.9c3.8,0,6.9,3.1,6.9,6.9l0,0C143.1,120.8,140,123.8,136.2,123.8
		L136.2,123.8z"/>
</g>
<g class="st0">
	<g class="st2">
		<path class="st3" d="M254.5,83.5c-3.2-3.3-8.5-3.4-11.8-0.2c-0.1,0.1-0.1,0.1-0.2,0.2L107.1,219l-44-44c-3.3-3.2-8.6-3.1-11.8,0.2
			c-3.1,3.2-3.1,8.3,0,11.5l49.9,49.9c3.3,3.3,8.5,3.3,11.8,0L254.4,95.3C257.6,92.1,257.7,86.8,254.5,83.5z"/>
	</g>
</g>
<g class="st0">
	<g class="st2">
		<g>
			<path class="st3" d="M261,233.3l-29.9-29.9c-1.3-1.3-3.5-1.3-4.8,0s-1.3,3.5,0,4.8l3.2,3.2L202.9,238L192,227.1
				c-4-4-9.5-6.1-15.2-5.7l-12.1,0.9c-3.7,0.3-7.3-1.1-9.9-3.7l-34.1-34.1c-1.9-1.9-1.9-4.9,0-6.8c1.9-1.9,4.9-1.9,6.8,0l16,16
				c0.1,0.1,0.2,0.2,0.3,0.2c0.6,0.5,1.4,0.8,2.1,0.8s1.5-0.3,2.1-0.8c0.1-0.1,0.2-0.1,0.3-0.2c1.3-1.3,1.3-3.5,0-4.8l-34.7-34.7
				c-1.1-1.1-1.6-2.5-1.6-4s0.6-2.9,1.6-4c1.1-1.1,2.5-1.6,4-1.6c1.3,0,2.6,0.4,3.6,1.3l35.1,35.1c0.7,0.7,1.5,1,2.4,1
				s1.7-0.3,2.4-1l0,0l0,0c1.3-1.3,1.3-3.5,0-4.8l-49.6-49.6c-2.2-2.2-2.2-5.7,0-7.9c1.1-1.1,2.5-1.6,4-1.6s2.9,0.6,4,1.6l49.5,49.7
				c0.7,0.7,1.5,1,2.4,1s1.7-0.3,2.4-1l0,0l0,0c1.3-1.3,1.3-3.5,0-4.8L129,118.7c-0.6-0.9-0.9-2-0.9-3.1c0-1.5,0.6-2.9,1.6-4
				c1.1-1.1,2.5-1.6,4-1.6s2.9,0.6,4,1.6l38.6,38.6l0.1,0.1l4.3,5.6c1.1,1.5,3.3,1.8,4.8,0.6c1.5-1.1,1.8-3.3,0.6-4.8l-4.5-5.9
				c-0.9-1.5-1.2-3.3-0.7-5.1s1.6-3.2,3.3-4.1c3.1-1.6,6.9-0.6,8.7,2.4c0.1,0.1,19.8,25,19.8,25c2.3,2.9,3.2,6.7,2.5,10.4l-1.7,8.6
				c-0.8,4.2-0.3,8.5,1.6,12.4c0.6,1.2,1.8,1.9,3.1,1.9c0.5,0,1-0.1,1.5-0.3c1.7-0.8,2.4-2.9,1.6-4.5c-1.2-2.5-1.6-5.4-1-8.1
				l1.7-8.6c1.1-5.6-0.3-11.4-3.8-15.9l-0.9-1.2c2.8-3.7,4.2-8.4,3.9-13.1l-0.8-12c-0.3-3.6,1.1-7.2,3.7-9.8L261,86.5
				c1.3-1.3,1.3-3.5,0-4.8l-31.2-31.2c-1.3-1.3-3.5-1.3-4.8,0l-37.2,37.2c-3,3-7.2,4.3-11.4,3.5l-8.5-1.7
				c-5.6-1.1-11.4,0.3-15.8,3.8c-0.1,0-0.1,0.1-0.1,0.1l-6,5.3l-6-5.3l-0.1-0.1c-4.5-3.5-10.2-4.9-15.8-3.8l-8.5,1.7
				c-4.1,0.8-8.4-0.5-11.4-3.5L67,50.5c-1.3-1.3-3.5-1.3-4.8,0L31,81.7c-1.3,1.3-1.3,3.5,0,4.8l37.3,37.3c2.6,2.6,3.9,6.2,3.7,9.8
				l-0.8,12c-0.4,5.3,1.4,10.5,5,14.4c-3.5,3.9-5.3,9.1-5,14.4l0.8,12c0.3,3.6-1.1,7.2-3.7,9.8L31,233.5c-1.3,1.3-1.3,3.5,0,4.8
				l31.2,31.2c0.7,0.7,1.5,1,2.4,1c0.9,0,1.7-0.3,2.4-1l37.2-37.2c3-3,7.2-4.3,11.4-3.5l8.5,1.7c5.6,1.1,11.4-0.3,15.8-3.8
				c0.1-0.1,0.1-0.1,0.2-0.2l6.8-6.3l3.2,3.2c4,4,9.5,6.1,15.2,5.7l12.1-0.9c3.7-0.3,7.3,1.1,9.9,3.7l13.2,13.2l0,0l24.4,24.4
				c0.7,0.7,1.5,1,2.4,1s1.7-0.3,2.4-1l31.4-31.4C262.3,236.8,262.3,234.6,261,233.3L261,233.3z M227.4,57.7l26.4,26.4l-19.4,19.4
				L208,77.1L227.4,57.7z M156.4,98.6c2.9-2.3,6.6-3.1,10.2-2.4l8.5,1.7c6.4,1.3,12.9-0.7,17.5-5.3L203.2,82l26.4,26.4L218.9,119
				c-4,4-6,9.5-5.6,15.1l0.8,12c0.2,2.4-0.4,4.9-1.5,7l-14-17.8c-3.8-5.9-11.4-7.9-17.6-4.6c-3.1,1.7-5.5,4.6-6.5,8L144.6,109
				L156.4,98.6z M38.2,84.1l26.4-26.4L84,77.1l-26.4,26.4L38.2,84.1z M64.6,262.3l-26.4-26.4l19.4-19.4L84,242.9L64.6,262.3z
				 M135.6,221.5c-2.9,2.2-6.6,3.1-10.2,2.4l-8.5-1.7c-6.4-1.3-12.9,0.7-17.5,5.3l-10.6,10.6l-26.4-26.4L73.1,201
				c4-4,6-9.5,5.6-15.1l-0.8-12c-0.3-3.6,1.1-7.2,3.7-9.8l11.3-11.3c1.3-1.3,1.3-3.5,0-4.8s-3.5-1.3-4.8,0l-7.1,7.1
				c-2.1-2.5-3.2-5.8-3-9.1l0.8-12c0.4-5.6-1.7-11.1-5.6-15.1l-10.7-10.7l26.4-26.4l10.6,10.6c4.6,4.6,11.1,6.6,17.5,5.3l8.5-1.7
				c3.6-0.7,7.3,0.2,10.2,2.4l5.3,4.6l-1.5,1.3c-1.7-0.9-3.7-1.4-5.7-1.4c-3.3,0-6.4,1.3-8.8,3.6c-1.5,1.5-2.5,3.2-3.1,5.2
				c-1.9-1.1-4.1-1.8-6.4-1.8c-3.3,0-6.4,1.3-8.8,3.6c-4.5,4.5-4.8,11.6-0.9,16.5l-6.5,6.5c-1.3,1.3-1.3,3.5,0,4.8s3.5,1.3,4.8,0
				l6.4-6.4l3.2,3.2c-1.8,0.6-3.5,1.6-4.9,3c-2.3,2.3-3.6,5.4-3.6,8.8s1.3,6.4,3.6,8.8l11.2,11.2c-1.5,0.6-2.9,1.5-4.1,2.7
				c-4.5,4.5-4.5,11.9,0,16.4l26.1,26.1L135.6,221.5z M227.2,262.3l-19.5-19.5l26.6-26.6l19.5,19.5L227.2,262.3z"/>
		</g>
	</g>
</g>
<rect x="217.2" y="62" transform="matrix(0.7071 -0.7071 0.7071 0.7071 10.5847 186.884)" class="st4" width="27.4" height="37.3"/>
<rect x="42.4" y="66.9" transform="matrix(0.7071 -0.7071 0.7071 0.7071 -39.1082 66.7721)" class="st4" width="37.3" height="27.4"/>
<rect x="47.4" y="220.8" transform="matrix(0.7071 -0.7071 0.7071 0.7071 -151.4255 113.3472)" class="st4" width="27.4" height="37.3"/>
<rect x="211.9" y="225.4" transform="matrix(0.7071 -0.7071 0.7071 0.7071 -101.5528 233.1766)" class="st4" width="37.6" height="27.6"/>
<path class="st4" d="M251.1,104.8c-1.2,0-2.3,0.1-3.4,0.5V90.7c0-5.3-4.3-9.7-9.7-9.7c-1,0-2,0.2-2.9,0.5c-0.1-5.2-4.4-9.5-9.6-9.5
	h-0.2c-3.7,0-6.9,2.1-8.5,5.1c-1.2-0.6-2.6-0.9-4.1-0.9h-0.2c-5.3,0-9.7,4.3-9.7,9.7v4.9c-0.9-0.3-1.9-0.5-2.9-0.5h-0.2
	c-5.3,0-9.6,4.3-9.7,9.5c0,2.2-0.4,24.2,0.1,33.1c0.7,11.7,3.6,20.8,8.7,27c0.8,1,1.3,2.2,1.3,3.5v11H200c-3.1,0-5.6,2.5-5.6,5.6
	v7.2c-2,0.6-3.5,2.5-3.5,4.7V259c0,1.9,1.5,3.4,3.4,3.4h53.5c1.9,0,3.4-1.5,3.4-3.4v-65.3c0-2.5-1.4-4.7-3.5-5.9V180
	c0-3-2.4-5.4-5.3-5.6v-8.9c0-1.7,0.7-3.2,2-4.2c0.2-0.2,0.4-0.4,0.7-0.5l0,0c6.6-5.7,11-12.2,13.4-20.1c1.3-4.1,1.9-8.4,1.9-12.8
	v-13.2C260.5,109.3,256.4,104.9,251.1,104.8z M244.4,193.7L244.4,193.7c0.1,0,0.1,0,0.1,0.1v61.9h-46.7v-62L244.4,193.7L244.4,193.7
	z M201.2,187v-5.8H241v5.8H201.2z M253.8,127.9c0,3.7-0.5,7.3-1.6,10.8c-2.1,6.7-5.7,12.1-11.4,16.9c-0.2,0.1-0.4,0.3-0.5,0.4
	c-2.9,2.3-4.6,5.8-4.6,9.5v8.9h-28.8v-11c0-2.8-1-5.6-2.8-7.8c-4.2-5.1-6.6-12.9-7.2-23.1c-0.5-8.6-0.1-30.4-0.1-32.6
	c0-1.6,1.3-2.9,2.9-2.9h0.2c0.8,0,1.5,0.3,2.1,0.9c0.5,0.6,0.9,1.3,0.9,2.1v18.9c0,1.9,1.5,3.4,3.4,3.4s3.4-1.5,3.4-3.4v-33
	c0-1.6,1.3-2.9,2.9-2.9h0.2c1.6,0,2.9,1.3,2.9,2.9v33c0,1.9,1.5,3.4,3.4,3.4s3.4-1.5,3.4-3.4V81.7c0-1.6,1.3-2.9,2.9-2.9h0.2
	c1.6,0,2.9,1.3,2.9,2.9v37.1c0,1.9,1.5,3.4,3.4,3.4s3.4-1.5,3.4-3.4V90.7c0-1.6,1.3-2.9,2.9-2.9s2.9,1.3,2.9,2.9v38.9
	c0,0.5-0.3,1-0.8,1.3c-3.5,1.8-8.3,4.8-11.8,9.2c-1.1,1.5-0.9,3.6,0.6,4.7c0.6,0.5,1.3,0.7,2.1,0.7c1,0,2-0.4,2.6-1.3
	c2.9-3.7,7.2-6.2,9.5-7.4c2.8-1.4,4.5-4.2,4.5-7.3v-15.1c0-0.8,0.3-1.6,0.9-2.2c0.6-0.6,1.4-0.9,2.2-0.8c1.6,0.1,2.9,1.5,2.9,3.2
	L253.8,127.9L253.8,127.9z"/>
<path class="st4" d="M93.2,185.3c5.1-6.2,8.1-15.3,8.7-27c0.5-8.8,0.3-17.8,0.2-26.4c0-2.2-0.1-4.4-0.1-6.7
	c-0.1-5.3-4.4-9.5-9.7-9.5h-0.2c-1,0-2,0.2-2.9,0.5v-4.9c0-5.3-4.3-9.7-9.7-9.7h-0.2c-1.5,0-2.8,0.3-4.1,0.9c-1.6-3-4.8-5.1-8.5-5.1
	h-0.2c-5.3,0-9.6,4.2-9.6,9.5c-0.9-0.3-1.9-0.5-2.9-0.5c-5.3,0-9.7,4.3-9.7,9.7v14.5c-1.1-0.4-2.2-0.5-3.4-0.5
	c-5.3,0.2-9.4,4.5-9.4,9.9v13.2c0,4.4,0.7,8.6,1.9,12.8c2.4,7.8,6.8,14.4,13.4,20.1c0,0,0,0,0.1,0c0.2,0.2,0.5,0.4,0.7,0.5
	c1.3,1,2,2.5,2,4.2v8.9c-2.9,0.1-5.3,2.6-5.3,5.6v7.8c-2.1,1.2-3.5,3.4-3.5,5.9v15.2c0,1.9,1.5,3.4,3.4,3.4s3.4-1.5,3.4-3.4V219
	c0,0,0-0.1,0.1-0.1h46.7v36.5H47.5v-5.6c0-1.9-1.5-3.4-3.4-3.4s-3.4,1.5-3.4,3.4v8.9c0,1.9,1.5,3.4,3.4,3.4h53.5
	c1.9,0,3.4-1.5,3.4-3.4V217c0-2.2-1.5-4.1-3.5-4.7v-7.2c0-3.1-2.5-5.6-5.6-5.6h-0.1v-11C91.9,187.6,92.4,186.3,93.2,185.3z
	 M90.8,212.4H51v-5.8h39.8V212.4z M88,181c-1.8,2.2-2.8,5-2.8,7.8v11H56.3v-8.9c0-3.7-1.7-7.2-4.6-9.5c-0.2-0.1-0.3-0.3-0.5-0.4
	c-5.7-4.9-9.3-10.3-11.4-17c-1.1-3.4-1.6-7.1-1.6-10.8V140c0-1.7,1.3-3.1,2.9-3.2c0.8,0,1.6,0.3,2.2,0.8c0.6,0.6,0.9,1.3,0.9,2.2
	V155c0,3.1,1.7,5.9,4.5,7.3c2.3,1.2,6.7,3.7,9.5,7.4c0.7,0.9,1.6,1.3,2.6,1.3c0.7,0,1.5-0.2,2.1-0.7c1.5-1.1,1.7-3.3,0.6-4.7
	c-3.5-4.4-8.3-7.5-11.8-9.2c-0.5-0.3-0.8-0.7-0.8-1.3v-38.9c0-1.6,1.3-2.9,2.9-2.9s2.9,1.3,2.9,2.9v28.1c0,1.9,1.5,3.4,3.4,3.4
	s3.4-1.5,3.4-3.4v-37.1c0-1.6,1.3-2.9,2.9-2.9h0.2c1.6,0,2.9,1.3,2.9,2.9v37.1c0,1.9,1.5,3.4,3.4,3.4s3.4-1.5,3.4-3.4v-33
	c0-1.6,1.3-2.9,2.9-2.9h0.2c1.6,0,2.9,1.3,2.9,2.9v33c0,1.9,1.5,3.4,3.4,3.4s3.4-1.5,3.4-3.4v-18.9c0-1.6,1.3-2.9,2.9-2.9h0.2
	c1.6,0,2.9,1.3,2.9,2.9c0,2.2,0.1,4.5,0.1,6.7c0.1,8.5,0.3,17.3-0.2,25.9C94.6,168.2,92.2,175.9,88,181z"/>
<path class="st4" d="M175.6,69.6c-1.5-0.1-2.9,0.2-4.2,0.7V53.5c0-5.8-4.7-10.4-10.4-10.4c-1.3,0-2.6,0.2-3.7,0.7v-0.4
	c0-5.8-4.7-10.4-10.4-10.4h-0.2c-4.1,0-7.6,2.4-9.4,5.8c-1.4-0.7-3.1-1.2-4.8-1.2h-0.2c-5.8,0-10.4,4.7-10.4,10.4v6.1
	c-1.1-0.4-2.4-0.7-3.7-0.7h-0.3c-5.7,0-10.4,4.6-10.4,10.3c0,2.5-0.5,27.2,0.1,37.1c0.7,13,4,23.2,9.7,30.1c1,1.2,1.5,2.7,1.5,4.2
	v12.8h-0.5c-3.2,0-5.9,2.6-5.9,5.9v8.4c-2.2,0.5-3.9,2.6-3.9,5v92c0,1.9,1.5,3.4,3.4,3.4h60c1.9,0,3.4-1.5,3.4-3.4v-65.6
	c0-1.9-1.5-3.4-3.4-3.4s-3.4,1.5-3.4,3.4v62.3h-53.3v-87H168c0.3,0,0.5,0.2,0.5,0.5v8.7c0,1.9,1.5,3.4,3.4,3.4s3.4-1.5,3.4-3.4v-8.7
	c0-2.8-1.6-5.2-3.9-6.4v-9c0-3.2-2.6-5.9-5.9-5.9h-0.1v-10.4c0-2,0.9-3.8,2.4-5.1c0.2-0.2,0.5-0.4,0.8-0.6l0,0
	c7.3-6.3,12.2-13.6,14.9-22.3c1.4-4.6,2.1-9.3,2.1-14.2V80.3C185.7,74.5,181.3,69.9,175.6,69.6z M119.2,161.9v-7.4h45.5v7.4H119.2z
	 M179,95.2c0,4.2-0.6,8.3-1.8,12.2c-2.4,7.6-6.4,13.7-12.9,19.2c-0.2,0.2-0.4,0.3-0.6,0.5c-3.2,2.5-5,6.3-5,10.3v10.4h-33.2V135
	c0-3.1-1.1-6.1-3.1-8.5c-4.8-5.8-7.5-14.6-8.2-26.2c-0.5-9.6-0.4-19.5-0.2-29.1c0.1-2.5,0.1-5,0.1-7.5c0-2,1.7-3.6,3.7-3.6h0.3
	c2,0,3.7,1.7,3.7,3.7V85c0,1.9,1.5,3.4,3.4,3.4s3.4-1.5,3.4-3.4V48c0-2,1.7-3.7,3.7-3.7h0.2c2,0,3.7,1.7,3.7,3.7v37
	c0,1.9,1.5,3.4,3.4,3.4s3.4-1.5,3.4-3.4V43.4c0-2,1.7-3.7,3.7-3.7h0.2c2,0,3.7,1.7,3.7,3.7V85c0,1.9,1.5,3.4,3.4,3.4
	s3.4-1.5,3.4-3.4V53.5c0-2,1.7-3.7,3.7-3.7s3.7,1.7,3.7,3.7v43.7c0,0.8-0.4,1.4-1.1,1.8c-3.8,1.9-9.2,5.3-13.1,10.3
	c-1.1,1.5-0.9,3.6,0.6,4.7c0.6,0.5,1.3,0.7,2.1,0.7c1,0,2-0.4,2.6-1.3c3.3-4.2,8.2-7.1,10.8-8.4c3-1.5,4.8-4.5,4.8-7.8v-17
	c0-1,0.4-2,1.2-2.7s1.7-1.1,2.8-1.1c2,0.1,3.6,1.9,3.6,4L179,95.2L179,95.2z"/>
<path class="st5" d="M257.6,215.4H35.1c-2.2,0-4,1.8-4,4v15.9c0,15.3,12.5,27.8,27.8,27.8h119c15.3,0,27.8-12.5,27.8-27.8v-11.9
	h12.4c1.7,7,7.5,12.3,15,13l23.5,2.1c0.3,0,0.7,0,1,0c2.9,0,5.7-1.1,7.8-3c2.4-2.2,3.8-5.3,3.8-8.5
	C269.2,220.6,264,215.4,257.6,215.4L257.6,215.4z M197.8,235.3c0,10.9-8.9,19.8-19.8,19.8h-119c-10.9,0-19.8-8.9-19.8-19.8v-11.9
	h158.7V235.3z M260.1,229.6c-0.8,0.7-1.7,1-2.8,0.9l-23.5-2.1c-3.3-0.3-6-2.3-7.3-5.1h31.2c2,0,3.6,1.6,3.6,3.6
	C261.3,228,260.8,228.9,260.1,229.6L260.1,229.6z"/>
<path class="st5" d="M66.8,80.5c3.1,0,5.8-0.5,8.1-1.2l-4,11.9c-0.4,1.2-0.2,2.5,0.5,3.6c0.7,1,1.9,1.7,3.2,1.7h39.7
	c1.3,0,2.5-0.6,3.2-1.7c0.7-1,0.9-2.4,0.5-3.6l-4-11.9c2.3,0.7,5,1.2,8.1,1.2c9.5,0,19.8-9.1,19.8-23.8c0-15.3-14.9-31.7-47.6-31.7
	S47,41.4,47,56.7C47,71.4,57.3,80.5,66.8,80.5L66.8,80.5z M94.6,32.9c31.4,0,39.7,15.6,39.7,23.8c0,9.8-6.2,15.9-11.9,15.9
	c-9.1,0-12.2-5.6-12.3-5.7c-0.9-1.9-3.1-2.7-5.1-1.9s-2.9,2.9-2.2,4.9l6.2,18.6H80.3l6.2-18.6c0.7-2-0.3-4.1-2.2-4.9
	c-1.9-0.8-4.1,0-5.1,1.8c-0.1,0.2-3.2,5.8-12.3,5.8c-5.7,0-11.9-6.1-11.9-15.9C54.9,48.5,63.2,32.9,94.6,32.9L94.6,32.9z"/>
<path class="st5" d="M152.5,136.5l-16.8,16.8c-6,6-9.3,14-9.3,22.4s3.3,16.5,9.3,22.4s14,9.3,22.4,9.3s16.5-3.3,22.4-9.3l39.3-39.3
	c15.5-15.5,15.5-40.6,0-56.1s-40.6-15.5-56.1,0C154.8,111.7,150.7,124.1,152.5,136.5L152.5,136.5z M160.6,137
	c-2.1-10.4,1.2-21.1,8.7-28.6c12.4-12.4,32.5-12.4,44.9,0c12.4,12.4,12.4,32.5,0,44.9l-39.3,39.3c-4.5,4.5-10.5,7-16.8,7
	s-12.3-2.5-16.8-7c-4.5-4.5-7-10.5-7-16.8s2.5-12.3,7-16.8l18.3-18.3C160.5,139.7,160.9,138.3,160.6,137L160.6,137z"/>
<path class="st5" d="M194.6,134.3c3.2,0,6.2-1.2,8.4-3.5c2.2-2.2,3.5-5.2,3.5-8.4s-1.2-6.2-3.5-8.4c-2.2-2.2,0,0,0,0
	c-4.5-4.5-12.3-4.5-16.8,0c-2.2,2.2-3.5,5.2-3.5,8.4c0,3.2,1.2,6.2,3.5,8.4C188.4,133.1,191.4,134.3,194.6,134.3L194.6,134.3z
	 M191.8,119.6c0.7-0.7,1.7-1.2,2.8-1.2s2.1,0.4,2.8,1.2c0.7,0.7,1.2,1.7,1.2,2.8s-0.4,2.1-1.2,2.8c-1.5,1.5-4.1,1.5-5.6,0
	c-0.7-0.7-1.2-1.7-1.2-2.8S191,120.4,191.8,119.6z"/>
<path class="st5" d="M205.7,32.9V25C183.8,25,166,42.8,166,64.6h7.9C174,47.1,188.2,32.9,205.7,32.9z"/>
<path class="st5" d="M51,108.3h7.9c0-13.1-10.7-23.8-23.8-23.8v7.9C43.8,92.4,51,99.5,51,108.3z"/>
<path class="st5" d="M126.3,120.2h7.9c0-10.9,8.9-19.8,19.8-19.8v-7.9C138.8,92.4,126.3,104.9,126.3,120.2z"/>
<path class="st5" d="M213.6,25h7.9v7.9h-7.9V25z"/>
<path class="st5" d="M189.8,199.5h7.9v7.9h-7.9V199.5z"/>
<path class="st5" d="M36.9,191.1c3.7,3.7,8.7,5.8,14,5.8s10.3-2.1,14-5.8c0.8-0.8,1.5-1.7,2.2-2.7c3.9-0.4,7.4-2,10.4-4.5l15.2,18.2
	c0.7,0.9,1.8,1.4,2.9,1.4c0.1,0,0.1,0,0.2,0c1.1,0,2.1-0.4,2.8-1.2l22.5-22.5c0.8-0.8,1.2-1.9,1.2-3c-0.1-1.1-0.6-2.2-1.4-2.9
	l-18.2-15.2c2.5-3,4.1-6.5,4.5-10.4c1-0.7,1.9-1.4,2.7-2.2c7.7-7.7,7.7-20.3,0-28.1c-3.7-3.7-8.7-5.8-14-5.8
	c-4.1,0-7.9,1.2-11.2,3.5c-3.3-2.3-7.2-3.5-11.2-3.5c-5.3,0-10.3,2.1-14,5.8c-0.8,0.8-1.5,1.7-2.2,2.7c-4.5,0.5-8.6,2.5-11.8,5.7
	c-3.2,3.2-5.2,7.3-5.7,11.8c-1,0.7-1.9,1.4-2.7,2.2c-6.9,6.9-7.6,17.5-2.3,25.3C29.3,173.6,30.1,184.3,36.9,191.1L36.9,191.1z
	 M96.1,193.7l-13.4-16.1c1.8-3.6,2.4-7.6,1.9-11.6l0.1-0.1c4,0.6,8.1-0.1,11.6-1.9l16.1,13.4L96.1,193.7z M42.5,163.1
	c-4.6-4.6-4.6-12.2,0-16.8c0.7-0.7,1.6-1.4,2.8-2c1.3-0.7,2.1-2.1,2.1-3.5c0-3.2,1.2-6.2,3.5-8.5c2.2-2.2,5.2-3.5,8.4-3.5h0.1
	c1.5,0,2.8-0.8,3.5-2.1c0.6-1.2,1.3-2.1,2-2.8c4.5-4.5,12.3-4.5,16.8,0c1.5,1.5,4.1,1.5,5.6,0c4.5-4.5,12.3-4.5,16.8,0
	c4.6,4.6,4.6,12.2,0,16.8c-0.7,0.7-1.6,1.4-2.8,2c-1.3,0.7-2.1,2.1-2.1,3.5c0,3.2-1.2,6.2-3.5,8.5c-3,3-7.3,4.1-11.5,3
	c-1.4-0.4-2.8,0-3.8,1l-3.1,3.1c-1,1-1.4,2.5-1,3.8c1.1,4.2,0,8.5-3,11.5c-2.2,2.2-5.2,3.5-8.4,3.5c0,0-0.1,0-0.1,0
	c-1.5,0-2.8,0.8-3.5,2.1c-0.6,1.2-1.3,2.1-2,2.8c-4.6,4.6-12.2,4.6-16.8,0c-4.6-4.6-4.6-12.2,0-16.8
	C44.1,167.1,44.1,164.6,42.5,163.1L42.5,163.1z"/>
</svg>
