<?xml version="1.0" encoding="utf-8"?>
<!-- Generator: Adobe Illustrator 24.0.1, SVG Export Plug-In . SVG Version: 6.00 Build 0)  -->
<svg version="1.1" id="Layer_1" xmlns="http://www.w3.org/2000/svg" xmlns:xlink="http://www.w3.org/1999/xlink" x="0px" y="0px"
	 viewBox="0 0 292 292" style="enable-background:new 0 0 292 292;" xml:space="preserve">
<style type="text/css">
	.st0{display:none;}
	.st1{display:inline;fill:#2F2C52;}
	.st2{display:inline;}
	.st3{fill:#2F2C52;}
	.st4{display:none;fill:#2F2C52;}
	.st5{fill:#434344;}
</style>
<g class="st0">
	<path class="st1" d="M191.9,99.1c-1.5-1.5-3.9-1.5-5.4,0s-1.5,3.9,0,5.4s3.9,1.5,5.4,0c0.7-0.7,1.1-1.7,1.1-2.7
		C193,100.7,192.6,99.8,191.9,99.1z"/>
	<path class="st1" d="M106.1,152.4H75.7c-2.1,0-3.8,1.7-3.8,3.8l0,0v30.5c0,2.1,1.7,3.8,3.8,3.8h30.5c2.1,0,3.8-1.7,3.8-3.8v-30.5
		C109.9,154.1,108.2,152.4,106.1,152.4L106.1,152.4z M102.3,182.9H79.5V160h22.9L102.3,182.9L102.3,182.9z"/>
	<path class="st1" d="M241.6,124.9c-1.4-0.6-3.1-0.3-4.1,0.8l-38.8,38.8l-45.2,45.2l-23.7,23.7c-1.5,1.5-1.5,3.9,0,5.4
		c0.7,0.7,1.7,1.1,2.7,1.1h107.8c2.1,0,3.8-1.7,3.8-3.8V128.4C244,126.9,243.1,125.5,241.6,124.9L241.6,124.9z M236.4,232.4h-94.8
		l14.5-14.5l3.6,3.6c1.5,1.5,3.9,1.4,5.4-0.1c1.4-1.5,1.4-3.8,0-5.3l-3.6-3.6l9.7-9.7l3.6,3.6c1.5,1.5,3.9,1.4,5.4-0.1
		c1.4-1.5,1.4-3.8,0-5.3l-3.6-3.6l9.7-9.7l3.6,3.6c1.5,1.5,3.9,1.5,5.4,0s1.5-3.9,0-5.3l-3.6-3.6l9.7-9.7l3.6,3.6
		c1.5,1.5,3.9,1.5,5.4,0.1c1.5-1.5,1.5-3.9,0.1-5.4l-0.1-0.1l-3.6-3.6l9.7-9.7l3.6,3.6c1.5,1.5,3.9,1.4,5.4-0.1
		c1.4-1.5,1.4-3.8,0-5.3l-3.6-3.6l14.5-14.5L236.4,232.4z"/>
	<path class="st1" d="M222.6,170.9c-1.4-0.6-3.1-0.3-4.1,0.8l-42.8,42.8c-1.5,1.5-1.5,3.9,0,5.4c0.7,0.7,1.7,1.1,2.7,1.1h42.8
		c2.1,0,3.8-1.7,3.8-3.8v-42.8C225,172.8,224,171.5,222.6,170.9L222.6,170.9z M217.3,213.3h-29.8l29.8-29.8V213.3z"/>
	<path class="st1" d="M225.4,101.9c-1-1.1-2.6-1.4-4-0.9l-26,9.5c-0.5,0.2-1,0.5-1.4,0.9l-7.3,7.3l-47.8-47.8
		c-1.5-1.5-3.9-1.5-5.4,0l0,0L76,128.4H62l74.2-74.2L177,94.9c1.5,1.5,3.9,1.4,5.4-0.1s1.5-3.9,0-5.3L139,46.1
		c-1.5-1.5-3.9-1.5-5.4,0l-83.4,83.4c-1.5,1.5-1.5,3.9,0,5.4c0.7,0.7,1.7,1.1,2.7,1.1h3.8v100.2c0,2.1,1.7,3.8,3.8,3.8H121
		c2.1,0,3.8-1.6,3.9-3.8c0-2.1-1.6-3.8-3.8-3.9H121H64.2V136h13.4c1,0,2-0.4,2.7-1.1L136.2,79l45,45.1l-56.5,56.5v-34.2h26.7
		c2.1,0,3.8-1.8,3.8-3.9c0-2.1-1.7-3.7-3.8-3.8H121c-2.1,0-3.8,1.7-3.8,3.8v44.2c0,0.4,0.1,0.9,0.2,1.3l-3.4,3.4c-6,6-6,15.8,0,21.9
		s15.8,6,21.9,0l32.1-32.1c1.5-1.5,1.5-3.9,0.1-5.4c-1.5-1.5-3.9-1.5-5.4-0.1l-0.1,0.1L138.3,200l-11.1-11.1l69.6-69.6l11.1,11.1
		L181.3,157c-1.5,1.5-1.4,3.9,0.1,5.4c1.5,1.4,3.8,1.4,5.3,0l29.2-29.2c0.4-0.4,0.7-0.9,0.9-1.4l9.5-26
		C226.8,104.5,226.4,102.9,225.4,101.9L225.4,101.9z M132.9,205.4l-2.4,2.4c-3.1,3.1-8,3.1-11.1,0s-3.1-8,0-11.1l0,0l2.4-2.4
		L132.9,205.4z M211.7,123.5l-8-8l12.6-4.6L211.7,123.5z"/>
	<path class="st1" d="M177.2,166.5c-1.5-1.5-3.9-1.5-5.4,0s-1.5,3.9,0,5.4s3.9,1.5,5.4,0c0.7-0.7,1.1-1.7,1.1-2.7
		C178.3,168.1,177.9,167.2,177.2,166.5z"/>
	<path class="st1" d="M136.2,102.5c-8,0-14.5,6.5-14.5,14.5s6.5,14.5,14.5,14.5s14.5-6.5,14.5-14.5S144.2,102.5,136.2,102.5
		L136.2,102.5z M136.2,123.8c-3.8,0-6.9-3.1-6.9-6.9s3.1-6.9,6.9-6.9c3.8,0,6.9,3.1,6.9,6.9l0,0C143.1,120.8,140,123.8,136.2,123.8
		L136.2,123.8z"/>
</g>
<g class="st0">
	<g class="st2">
		<path class="st3" d="M254.5,83.5c-3.2-3.3-8.5-3.4-11.8-0.2c-0.1,0.1-0.1,0.1-0.2,0.2L107.1,219l-44-44c-3.3-3.2-8.6-3.1-11.8,0.2
			c-3.1,3.2-3.1,8.3,0,11.5l49.9,49.9c3.3,3.3,8.5,3.3,11.8,0L254.4,95.3C257.6,92.1,257.7,86.8,254.5,83.5z"/>
	</g>
</g>
<g class="st0">
	<g class="st2">
		<g>
			<path class="st3" d="M261,233.3l-29.9-29.9c-1.3-1.3-3.5-1.3-4.8,0s-1.3,3.5,0,4.8l3.2,3.2L202.9,238L192,227.1
				c-4-4-9.5-6.1-15.2-5.7l-12.1,0.9c-3.7,0.3-7.3-1.1-9.9-3.7l-34.1-34.1c-1.9-1.9-1.9-4.9,0-6.8c1.9-1.9,4.9-1.9,6.8,0l16,16
				c0.1,0.1,0.2,0.2,0.3,0.2c0.6,0.5,1.4,0.8,2.1,0.8s1.5-0.3,2.1-0.8c0.1-0.1,0.2-0.1,0.3-0.2c1.3-1.3,1.3-3.5,0-4.8l-34.7-34.7
				c-1.1-1.1-1.6-2.5-1.6-4s0.6-2.9,1.6-4c1.1-1.1,2.5-1.6,4-1.6c1.3,0,2.6,0.4,3.6,1.3l35.1,35.1c0.7,0.7,1.5,1,2.4,1
				s1.7-0.3,2.4-1l0,0l0,0c1.3-1.3,1.3-3.5,0-4.8l-49.6-49.6c-2.2-2.2-2.2-5.7,0-7.9c1.1-1.1,2.5-1.6,4-1.6s2.9,0.6,4,1.6l49.5,49.7
				c0.7,0.7,1.5,1,2.4,1s1.7-0.3,2.4-1l0,0l0,0c1.3-1.3,1.3-3.5,0-4.8L129,118.7c-0.6-0.9-0.9-2-0.9-3.1c0-1.5,0.6-2.9,1.6-4
				c1.1-1.1,2.5-1.6,4-1.6s2.9,0.6,4,1.6l38.6,38.6l0.1,0.1l4.3,5.6c1.1,1.5,3.3,1.8,4.8,0.6c1.5-1.1,1.8-3.3,0.6-4.8l-4.5-5.9
				c-0.9-1.5-1.2-3.3-0.7-5.1s1.6-3.2,3.3-4.1c3.1-1.6,6.9-0.6,8.7,2.4c0.1,0.1,19.8,25,19.8,25c2.3,2.9,3.2,6.7,2.5,10.4l-1.7,8.6
				c-0.8,4.2-0.3,8.5,1.6,12.4c0.6,1.2,1.8,1.9,3.1,1.9c0.5,0,1-0.1,1.5-0.3c1.7-0.8,2.4-2.9,1.6-4.5c-1.2-2.5-1.6-5.4-1-8.1
				l1.7-8.6c1.1-5.6-0.3-11.4-3.8-15.9l-0.9-1.2c2.8-3.7,4.2-8.4,3.9-13.1l-0.8-12c-0.3-3.6,1.1-7.2,3.7-9.8L261,86.5
				c1.3-1.3,1.3-3.5,0-4.8l-31.2-31.2c-1.3-1.3-3.5-1.3-4.8,0l-37.2,37.2c-3,3-7.2,4.3-11.4,3.5l-8.5-1.7
				c-5.6-1.1-11.4,0.3-15.8,3.8c-0.1,0-0.1,0.1-0.1,0.1l-6,5.3l-6-5.3l-0.1-0.1c-4.5-3.5-10.2-4.9-15.8-3.8l-8.5,1.7
				c-4.1,0.8-8.4-0.5-11.4-3.5L67,50.5c-1.3-1.3-3.5-1.3-4.8,0L31,81.7c-1.3,1.3-1.3,3.5,0,4.8l37.3,37.3c2.6,2.6,3.9,6.2,3.7,9.8
				l-0.8,12c-0.4,5.3,1.4,10.5,5,14.4c-3.5,3.9-5.3,9.1-5,14.4l0.8,12c0.3,3.6-1.1,7.2-3.7,9.8L31,233.5c-1.3,1.3-1.3,3.5,0,4.8
				l31.2,31.2c0.7,0.7,1.5,1,2.4,1c0.9,0,1.7-0.3,2.4-1l37.2-37.2c3-3,7.2-4.3,11.4-3.5l8.5,1.7c5.6,1.1,11.4-0.3,15.8-3.8
				c0.1-0.1,0.1-0.1,0.2-0.2l6.8-6.3l3.2,3.2c4,4,9.5,6.1,15.2,5.7l12.1-0.9c3.7-0.3,7.3,1.1,9.9,3.7l13.2,13.2l0,0l24.4,24.4
				c0.7,0.7,1.5,1,2.4,1s1.7-0.3,2.4-1l31.4-31.4C262.3,236.8,262.3,234.6,261,233.3L261,233.3z M227.4,57.7l26.4,26.4l-19.4,19.4
				L208,77.1L227.4,57.7z M156.4,98.6c2.9-2.3,6.6-3.1,10.2-2.4l8.5,1.7c6.4,1.3,12.9-0.7,17.5-5.3L203.2,82l26.4,26.4L218.9,119
				c-4,4-6,9.5-5.6,15.1l0.8,12c0.2,2.4-0.4,4.9-1.5,7l-14-17.8c-3.8-5.9-11.4-7.9-17.6-4.6c-3.1,1.7-5.5,4.6-6.5,8L144.6,109
				L156.4,98.6z M38.2,84.1l26.4-26.4L84,77.1l-26.4,26.4L38.2,84.1z M64.6,262.3l-26.4-26.4l19.4-19.4L84,242.9L64.6,262.3z
				 M135.6,221.5c-2.9,2.2-6.6,3.1-10.2,2.4l-8.5-1.7c-6.4-1.3-12.9,0.7-17.5,5.3l-10.6,10.6l-26.4-26.4L73.1,201
				c4-4,6-9.5,5.6-15.1l-0.8-12c-0.3-3.6,1.1-7.2,3.7-9.8l11.3-11.3c1.3-1.3,1.3-3.5,0-4.8s-3.5-1.3-4.8,0l-7.1,7.1
				c-2.1-2.5-3.2-5.8-3-9.1l0.8-12c0.4-5.6-1.7-11.1-5.6-15.1l-10.7-10.7l26.4-26.4l10.6,10.6c4.6,4.6,11.1,6.6,17.5,5.3l8.5-1.7
				c3.6-0.7,7.3,0.2,10.2,2.4l5.3,4.6l-1.5,1.3c-1.7-0.9-3.7-1.4-5.7-1.4c-3.3,0-6.4,1.3-8.8,3.6c-1.5,1.5-2.5,3.2-3.1,5.2
				c-1.9-1.1-4.1-1.8-6.4-1.8c-3.3,0-6.4,1.3-8.8,3.6c-4.5,4.5-4.8,11.6-0.9,16.5l-6.5,6.5c-1.3,1.3-1.3,3.5,0,4.8s3.5,1.3,4.8,0
				l6.4-6.4l3.2,3.2c-1.8,0.6-3.5,1.6-4.9,3c-2.3,2.3-3.6,5.4-3.6,8.8s1.3,6.4,3.6,8.8l11.2,11.2c-1.5,0.6-2.9,1.5-4.1,2.7
				c-4.5,4.5-4.5,11.9,0,16.4l26.1,26.1L135.6,221.5z M227.2,262.3l-19.5-19.5l26.6-26.6l19.5,19.5L227.2,262.3z"/>
		</g>
	</g>
</g>
<rect x="217.2" y="62" transform="matrix(0.7071 -0.7071 0.7071 0.7071 10.601 186.8776)" class="st4" width="27.4" height="37.3"/>
<rect x="42.4" y="66.9" transform="matrix(0.7071 -0.7071 0.7071 0.7071 -39.108 66.7766)" class="st4" width="37.3" height="27.4"/>
<rect x="47.4" y="220.8" transform="matrix(0.7071 -0.7071 0.7071 0.7071 -151.4289 113.3353)" class="st4" width="27.4" height="37.3"/>
<rect x="211.9" y="225.4" transform="matrix(0.7071 -0.7071 0.7071 0.7071 -101.5563 233.1953)" class="st4" width="37.6" height="27.6"/>
<path class="st4" d="M251.1,104.8c-1.2,0-2.3,0.1-3.4,0.5V90.7c0-5.3-4.3-9.7-9.7-9.7c-1,0-2,0.2-2.9,0.5c-0.1-5.2-4.4-9.5-9.6-9.5
	h-0.2c-3.7,0-6.9,2.1-8.5,5.1c-1.2-0.6-2.6-0.9-4.1-0.9h-0.2c-5.3,0-9.7,4.3-9.7,9.7v4.9c-0.9-0.3-1.9-0.5-2.9-0.5h-0.2
	c-5.3,0-9.6,4.3-9.7,9.5c0,2.2-0.4,24.2,0.1,33.1c0.7,11.7,3.6,20.8,8.7,27c0.8,1,1.3,2.2,1.3,3.5v11H200c-3.1,0-5.6,2.5-5.6,5.6
	v7.2c-2,0.6-3.5,2.5-3.5,4.7V259c0,1.9,1.5,3.4,3.4,3.4h53.5c1.9,0,3.4-1.5,3.4-3.4v-65.3c0-2.5-1.4-4.7-3.5-5.9V180
	c0-3-2.4-5.4-5.3-5.6v-8.9c0-1.7,0.7-3.2,2-4.2c0.2-0.2,0.4-0.4,0.7-0.5l0,0c6.6-5.7,11-12.2,13.4-20.1c1.3-4.1,1.9-8.4,1.9-12.8
	v-13.2C260.5,109.3,256.4,104.9,251.1,104.8z M244.4,193.7L244.4,193.7c0.1,0,0.1,0,0.1,0.1v61.9h-46.7v-62L244.4,193.7L244.4,193.7
	z M201.2,187v-5.8H241v5.8H201.2z M253.8,127.9c0,3.7-0.5,7.3-1.6,10.8c-2.1,6.7-5.7,12.1-11.4,16.9c-0.2,0.1-0.4,0.3-0.5,0.4
	c-2.9,2.3-4.6,5.8-4.6,9.5v8.9h-28.8v-11c0-2.8-1-5.6-2.8-7.8c-4.2-5.1-6.6-12.9-7.2-23.1c-0.5-8.6-0.1-30.4-0.1-32.6
	c0-1.6,1.3-2.9,2.9-2.9h0.2c0.8,0,1.5,0.3,2.1,0.9c0.5,0.6,0.9,1.3,0.9,2.1v18.9c0,1.9,1.5,3.4,3.4,3.4s3.4-1.5,3.4-3.4v-33
	c0-1.6,1.3-2.9,2.9-2.9h0.2c1.6,0,2.9,1.3,2.9,2.9v33c0,1.9,1.5,3.4,3.4,3.4s3.4-1.5,3.4-3.4V81.7c0-1.6,1.3-2.9,2.9-2.9h0.2
	c1.6,0,2.9,1.3,2.9,2.9v37.1c0,1.9,1.5,3.4,3.4,3.4s3.4-1.5,3.4-3.4V90.7c0-1.6,1.3-2.9,2.9-2.9s2.9,1.3,2.9,2.9v38.9
	c0,0.5-0.3,1-0.8,1.3c-3.5,1.8-8.3,4.8-11.8,9.2c-1.1,1.5-0.9,3.6,0.6,4.7c0.6,0.5,1.3,0.7,2.1,0.7c1,0,2-0.4,2.6-1.3
	c2.9-3.7,7.2-6.2,9.5-7.4c2.8-1.4,4.5-4.2,4.5-7.3v-15.1c0-0.8,0.3-1.6,0.9-2.2c0.6-0.6,1.4-0.9,2.2-0.8c1.6,0.1,2.9,1.5,2.9,3.2
	L253.8,127.9L253.8,127.9z"/>
<path class="st4" d="M93.2,185.3c5.1-6.2,8.1-15.3,8.7-27c0.5-8.8,0.3-17.8,0.2-26.4c0-2.2-0.1-4.4-0.1-6.7
	c-0.1-5.3-4.4-9.5-9.7-9.5h-0.2c-1,0-2,0.2-2.9,0.5v-4.9c0-5.3-4.3-9.7-9.7-9.7h-0.2c-1.5,0-2.8,0.3-4.1,0.9c-1.6-3-4.8-5.1-8.5-5.1
	h-0.2c-5.3,0-9.6,4.2-9.6,9.5c-0.9-0.3-1.9-0.5-2.9-0.5c-5.3,0-9.7,4.3-9.7,9.7v14.5c-1.1-0.4-2.2-0.5-3.4-0.5
	c-5.3,0.2-9.4,4.5-9.4,9.9v13.2c0,4.4,0.7,8.6,1.9,12.8c2.4,7.8,6.8,14.4,13.4,20.1c0,0,0,0,0.1,0c0.2,0.2,0.5,0.4,0.7,0.5
	c1.3,1,2,2.5,2,4.2v8.9c-2.9,0.1-5.3,2.6-5.3,5.6v7.8c-2.1,1.2-3.5,3.4-3.5,5.9v15.2c0,1.9,1.5,3.4,3.4,3.4s3.4-1.5,3.4-3.4V219
	c0,0,0-0.1,0.1-0.1h46.7v36.5H47.5v-5.6c0-1.9-1.5-3.4-3.4-3.4s-3.4,1.5-3.4,3.4v8.9c0,1.9,1.5,3.4,3.4,3.4h53.5
	c1.9,0,3.4-1.5,3.4-3.4V217c0-2.2-1.5-4.1-3.5-4.7v-7.2c0-3.1-2.5-5.6-5.6-5.6h-0.1v-11C91.9,187.6,92.4,186.3,93.2,185.3z
	 M90.8,212.4H51v-5.8h39.8V212.4z M88,181c-1.8,2.2-2.8,5-2.8,7.8v11H56.3v-8.9c0-3.7-1.7-7.2-4.6-9.5c-0.2-0.1-0.3-0.3-0.5-0.4
	c-5.7-4.9-9.3-10.3-11.4-17c-1.1-3.4-1.6-7.1-1.6-10.8V140c0-1.7,1.3-3.1,2.9-3.2c0.8,0,1.6,0.3,2.2,0.8c0.6,0.6,0.9,1.3,0.9,2.2
	V155c0,3.1,1.7,5.9,4.5,7.3c2.3,1.2,6.7,3.7,9.5,7.4c0.7,0.9,1.6,1.3,2.6,1.3c0.7,0,1.5-0.2,2.1-0.7c1.5-1.1,1.7-3.3,0.6-4.7
	c-3.5-4.4-8.3-7.5-11.8-9.2c-0.5-0.3-0.8-0.7-0.8-1.3v-38.9c0-1.6,1.3-2.9,2.9-2.9s2.9,1.3,2.9,2.9v28.1c0,1.9,1.5,3.4,3.4,3.4
	s3.4-1.5,3.4-3.4v-37.1c0-1.6,1.3-2.9,2.9-2.9h0.2c1.6,0,2.9,1.3,2.9,2.9v37.1c0,1.9,1.5,3.4,3.4,3.4s3.4-1.5,3.4-3.4v-33
	c0-1.6,1.3-2.9,2.9-2.9h0.2c1.6,0,2.9,1.3,2.9,2.9v33c0,1.9,1.5,3.4,3.4,3.4s3.4-1.5,3.4-3.4v-18.9c0-1.6,1.3-2.9,2.9-2.9h0.2
	c1.6,0,2.9,1.3,2.9,2.9c0,2.2,0.1,4.5,0.1,6.7c0.1,8.5,0.3,17.3-0.2,25.9C94.6,168.2,92.2,175.9,88,181z"/>
<path class="st4" d="M175.6,69.6c-1.5-0.1-2.9,0.2-4.2,0.7V53.5c0-5.8-4.7-10.4-10.4-10.4c-1.3,0-2.6,0.2-3.7,0.7v-0.4
	c0-5.8-4.7-10.4-10.4-10.4h-0.2c-4.1,0-7.6,2.4-9.4,5.8c-1.4-0.7-3.1-1.2-4.8-1.2h-0.2c-5.8,0-10.4,4.7-10.4,10.4v6.1
	c-1.1-0.4-2.4-0.7-3.7-0.7h-0.3c-5.7,0-10.4,4.6-10.4,10.3c0,2.5-0.5,27.2,0.1,37.1c0.7,13,4,23.2,9.7,30.1c1,1.2,1.5,2.7,1.5,4.2
	v12.8h-0.5c-3.2,0-5.9,2.6-5.9,5.9v8.4c-2.2,0.5-3.9,2.6-3.9,5v92c0,1.9,1.5,3.4,3.4,3.4h60c1.9,0,3.4-1.5,3.4-3.4v-65.6
	c0-1.9-1.5-3.4-3.4-3.4s-3.4,1.5-3.4,3.4v62.3h-53.3v-87H168c0.3,0,0.5,0.2,0.5,0.5v8.7c0,1.9,1.5,3.4,3.4,3.4s3.4-1.5,3.4-3.4v-8.7
	c0-2.8-1.6-5.2-3.9-6.4v-9c0-3.2-2.6-5.9-5.9-5.9h-0.1v-10.4c0-2,0.9-3.8,2.4-5.1c0.2-0.2,0.5-0.4,0.8-0.6l0,0
	c7.3-6.3,12.2-13.6,14.9-22.3c1.4-4.6,2.1-9.3,2.1-14.2V80.3C185.7,74.5,181.3,69.9,175.6,69.6z M119.2,161.9v-7.4h45.5v7.4H119.2z
	 M179,95.2c0,4.2-0.6,8.3-1.8,12.2c-2.4,7.6-6.4,13.7-12.9,19.2c-0.2,0.2-0.4,0.3-0.6,0.5c-3.2,2.5-5,6.3-5,10.3v10.4h-33.2V135
	c0-3.1-1.1-6.1-3.1-8.5c-4.8-5.8-7.5-14.6-8.2-26.2c-0.5-9.6-0.4-19.5-0.2-29.1c0.1-2.5,0.1-5,0.1-7.5c0-2,1.7-3.6,3.7-3.6h0.3
	c2,0,3.7,1.7,3.7,3.7V85c0,1.9,1.5,3.4,3.4,3.4s3.4-1.5,3.4-3.4V48c0-2,1.7-3.7,3.7-3.7h0.2c2,0,3.7,1.7,3.7,3.7v37
	c0,1.9,1.5,3.4,3.4,3.4s3.4-1.5,3.4-3.4V43.4c0-2,1.7-3.7,3.7-3.7h0.2c2,0,3.7,1.7,3.7,3.7V85c0,1.9,1.5,3.4,3.4,3.4
	s3.4-1.5,3.4-3.4V53.5c0-2,1.7-3.7,3.7-3.7s3.7,1.7,3.7,3.7v43.7c0,0.8-0.4,1.4-1.1,1.8c-3.8,1.9-9.2,5.3-13.1,10.3
	c-1.1,1.5-0.9,3.6,0.6,4.7c0.6,0.5,1.3,0.7,2.1,0.7c1,0,2-0.4,2.6-1.3c3.3-4.2,8.2-7.1,10.8-8.4c3-1.5,4.8-4.5,4.8-7.8v-17
	c0-1,0.4-2,1.2-2.7s1.7-1.1,2.8-1.1c2,0.1,3.6,1.9,3.6,4L179,95.2L179,95.2z"/>
<g>
	<g>
		<path class="st5" d="M199.1,184.3h-30.4v-21.4c14.1-8.1,22.8-23.1,22.8-39.4v-19h3.8V97h-10.9c-5.3,0-9.8-3.6-11.1-8.7L164.8,58
			c-0.5-1.6-2-2.8-3.7-2.8c-1.7,0-3.2,1.1-3.7,2.8l-7.8,27.5C148,92.2,141.9,97,135,97H96.6v7.6h3.8v19c0,16.3,8.7,31.3,22.8,39.4
			v25.1c0,1,0.4,2,1.1,2.7l19,19c1.5,1.5,3.9,1.5,5.4,0l17.9-17.9h32.6c10.5,0,19,8.5,19,19v38H73.8V245h-7.6v7.6
			c0,2.1,1.7,3.8,3.8,3.8h151.9c2.1,0,3.8-1.7,3.8-3.8v-41.8C225.7,196.2,213.8,184.3,199.1,184.3z M161.2,186.5L146,201.7
			l-15.2-15.2v-20.1c9.8,3.5,20.6,3.5,30.4,0V186.5z M146,161.5c-21,0-38-17-38-38v-19h27c10.4,0,19.5-7,22.1-17.1l4.1-14.5
			l4.9,17.2c2.1,8.3,9.4,14.1,17.9,14.3v19C184,144.5,167,161.5,146,161.5z"/>
	</g>
</g>
<g>
	<g>
		<path class="st5" d="M104.2,184.3H92.8v7.6h11.4c10.5,0,19,8.5,19,19s-8.5,19-19,19h-19c-6.3,0-11.4-5.1-11.4-11.4h-7.6
			c0,10.5,8.5,19,19,19h19c14.7,0,26.6-11.9,26.6-26.6S118.9,184.3,104.2,184.3z"/>
	</g>
</g>
<g>
	<g>
		<path class="st5" d="M232,168.3c-2.7-2.4-5.9-4.2-9.3-5.4v0c1.9-2.6,3-5.7,3-9c0-8.4-6.8-15.2-15.2-15.2V94.9
			c0.5-34.9-26.5-64.1-61.4-66.2C113.5,27,83.2,54.4,81.5,90c-0.1,1-0.1,2.1-0.1,3.1v45.6c-8.4,0-15.2,6.8-15.2,15.2
			c0,3.2,1.1,6.4,3,9c-13.9,4.7-21.4,19.7-16.8,33.6c3.6,10.8,13.7,18.1,25.1,18.1h22.8v-7.6H77.6c-10.5,0-19-8.5-19-19
			s8.5-19,19-19h22.8v-7.6h-19c-4.2,0-7.6-3.4-7.6-7.6s3.4-7.6,7.6-7.6h3.8c2.1,0,3.8-1.7,3.8-3.8V93.2c0-31.5,25.5-57,56.9-57
			c0.9,0,1.8,0,2.8,0.1c30.8,1.9,54.7,27.7,54.2,58.6v47.6c0,2.1,1.7,3.8,3.8,3.8h3.8c4.2,0,7.6,3.4,7.6,7.6c0,4.2-3.4,7.6-7.6,7.6
			h-19v7.6h22.8c10.5,0,19,8.5,19,19c0,4.7-1.7,9.2-4.8,12.7l5.7,5.1C243.9,194.8,242.9,178,232,168.3z"/>
	</g>
</g>
<g>
	<g>
		<path class="st5" d="M127,113.1c-3.7,0-6.6,3-6.6,6.6s3,6.6,6.6,6.6s6.6-3,6.6-6.6C133.6,116.1,130.7,113.1,127,113.1z
			 M126.1,119.7c0-0.5,0.4-0.9,0.9-0.9s0.9,0.4,0.9,0.9C128,120.8,126.1,120.8,126.1,119.7z"/>
	</g>
</g>
<g>
	<g>
		<path class="st5" d="M165,113.1c-3.7,0-6.6,3-6.6,6.6c0,3.7,3,6.6,6.6,6.6c3.7,0,6.6-3,6.6-6.6S168.6,113.1,165,113.1z M164,119.7
			c0-0.5,0.4-0.9,0.9-0.9s0.9,0.4,0.9,0.9C165.9,120.8,164,120.8,164,119.7z"/>
	</g>
</g>
<g>
	<g>
		<path class="st5" d="M154.5,138.7c0,4.7-3.8,8.5-8.5,8.5s-8.5-3.8-8.5-8.5h-5.7c0,7.9,6.4,14.2,14.2,14.2s14.2-6.4,14.2-14.2
			H154.5z"/>
	</g>
</g>
</svg>
